<?xml version="1.0" encoding="utf-8"?>
<!-- Generator: Adobe Illustrator 18.1.0, SVG Export Plug-In . SVG Version: 6.00 Build 0)  -->
<svg version="1.1" xmlns="http://www.w3.org/2000/svg" xmlns:xlink="http://www.w3.org/1999/xlink" x="0px" y="0px"
	 viewBox="0 0 1080 1080" enable-background="new 0 0 1080 1080" xml:space="preserve">
<g id="Layer_1">
</g>
<g id="Layer_2">
	<path fill="#5D5D5D" d="M988.7,1064.8v-15.2v-15.2h-15.2v-15.2h-15.2v-15.2h-15.2v-15.2v-15.2h-15.2v-15.2h-15.2v-15.2h-15.2v-15.2
		h-15.2v-15.2H867v-15.2h-15.2v-15.2h-15.2V867h-15.2v-15.2h15.2v-15.2v-15.2h15.2v-15.2V791v-13.5c0.2-0.6,0.4-1.1,0.6-1.7H867
		v-15.2v-15.2v-15.2v-15.2h15.2v-15.2h15.2v-15.2v-15.2h15.2v-15.2v-15.2v-15.2v-15.2h-15.2v-15.2h-15.2V578v-15.2H867h-15.2v-15.2
		H867v-15.2h15.2h15.2v-15.2V502h15.2v-15.2v-15.2h-15.2v-15.2v-15.2v-15.2v-15.2v-15.2h-15.2v-15.2H867v-15.2h15.2v-15.2v-15.2H867
		v-15.2h-15.2v-15.2h-15.2V289h-15.2v-15.2h-15.2v-15.2H791v-15.2h-15.2h-15.2v-15.2h-15.2V213h-15.2h-15.2v-15.2h-15.2h-15.2v-15.2
		h-15.2h-15.2v-15.2h-15.2h-15.2h-15.2h-15.2H578h-15.2h-15.2h-15.2h-15.2v15.2H502h-15.2h-15.2v15.2h-15.2h-15.2V213h-15.2v15.2
		h-15.2v15.2h-15.2v15.2h-15.2v15.2h-15.2V289v15.2h-15.2v15.2h-15.2v15.2v15.2h-15.2v15.2v15.2v15.2v15.2v15.2v15.2v15.2v15.2
		h-15.2v15.2H289V502h-15.2v15.2h-15.2v15.2v15.2v15.2V578v15.2v15.2v15.2v15.2h15.2v15.2v15.2H289v15.2h15.2v15.2v15.2h15.2v15.2
		v15.2h15.2v15.2h-15.2h-15.2H289v15.2h-15.2v14.6c-0.3,0.2-0.6,0.4-0.9,0.6h-14.3h-15.2v15.2h-15.2v15.2H213v15.2h-15.2h-15.2v15.2
		h-15.2V867h-15.2h-15.2v15.2h-15.2v15.2h-15.2v15.2H91.3v15.2v15.2H76.1v15.2H60.8v15.2v15.2H45.6v15.2H30.4v15.2v15.2H15.2v15.2
		v15.2H0v15.2h15.2h15.2h15.2h15.2h15.2h15.2h15.2h15.2h15.2h15.2h15.2h15.2h15.2H213h15.2h15.2h15.2h15.2H289h15.2h15.2h15.2h15.2
		h15.2h15.2h15.2h15.2h15.2h15.2h15.2h15.2h15.2H502h15.2h15.2h15.2h15.2H578h15.2h15.2h15.2h15.2h15.2h15.2h15.2h15.2h15.2h15.2
		h15.2h15.2h15.2H791h15.2h15.2h15.2h15.2H867h15.2h15.2h15.2h15.2h15.2h15.2h15.2h15.2h15.2v-15.2H988.7z"/>
	<path fill="#217022" d="M488.1,677.8c-3.7,0.9-6.9,3-9.9,5.4c-18.7,14.9-27.2,40.4-24.7,64.1c2.5,23.8,15,45.7,31.7,62.8
		c16.7,17.1,37.3,29.8,58.6,40.6c29.8,15.1,61.3,26.8,93.7,34.6c25.9,6.2,52.8,10,79.3,6.7c50.3-6.3,95.9-39.1,120.9-83.2
		c15.9-28,24-60.4,23.3-92.6c0-1.3-0.1-2.6-0.7-3.7c-2.5-4.2-8.8-0.7-12.3,2.7c-24.8,24.1-61.2,32.7-95.8,32.8s-68.8-7.2-103.2-10.3
		c-18-1.6-36.4-2.1-53.7-7.3c-12.3-3.7-23.8-9.7-35.1-16c-16.1-9-31.9-18.5-47.3-28.5C505.5,681,496.9,675.7,488.1,677.8z"/>
	<path fill="#298D2D" d="M664,511.7c26.6-0.8,53.1-2.8,79.4-6.1c45.3-5.7,90.1-15,135.1-22.8c3.2-0.6,7-0.9,9.3,1.4
		c1.5,1.5,1.8,3.7,2.1,5.8c1.3,10.2,1.6,20.5,0.8,30.8c-12,4.7-24.6,8-37.3,9.8c2.5,7.9-12.2,11.3-13.2,19.5
		c-0.6,5,4.2,8.8,8.6,11.2c7.3,4.1,15.1,7.6,21.2,13.4c6.1,5.8,10.1,14.7,7.4,22.6c-2.6,7.4-10.1,11.9-17.3,15
		c-26.2,11.5-55,15-83.4,18.5c-29.4,3.5-60.1,7-88.1-3c-23.9-8.5-43.4-26-62.2-43.1"/>
	<path fill="#217022" d="M412.5,514.3c69.5-21.3,141.9-32.9,214.5-34.5c38.7-0.8,78,1.2,115,12.7c15.1,4.7,30.5,11.4,39.7,24.2
		c12.3,16.9,10.6,41.3-0.1,59.2c-10.7,18-28.8,30.4-47.8,39c-42.7,19.4-90.9,22.3-137.8,24.6c-47.9,2.3-98.1,3.9-141.4-16.8"/>
	<path fill="#133A12" d="M379.6,461.5c-14.7,16.7-23,38.3-26.6,60.3c-3.6,22-2.8,44.4-1,66.6c2.6,32.2,7.4,64.9,22.3,93.5
		c16,30.5,42.4,54.2,70,74.8c27.6,20.6,57.1,38.9,82.3,62.4c3.1-5.6,1.4-12.6-0.3-18.7c-7.5-26.4-14.9-52.8-22.4-79.2
		c-1.8-6.5-3.7-13-7.2-18.8c-2.1-3.4-4.7-6.5-6.2-10.2c-2.9-7.4-0.7-15.7,1.6-23.3c7.7-26,15.6-52.4,29.6-75.7
		c8.5-14.2,19.3-27.3,23.8-43.3c5.2-18.6,1-38.3-3.2-57.2c-3.5-15.7-7.1-31.7-16.1-45c-14.1-20.9-41.4-31.9-66-26.8"/>
	<path fill="#194C18" d="M318.5,602.6c5.9-7.3,8.9-17,8-26.4c-0.4-4.8-1.8-9.5-2.3-14.3c-0.9-9.4,1.7-18.7,3.1-28
		c1.8-12.9,1.2-26.2-2-38.9c-0.6-2.4-1.8-5.3-4.3-5.5c-1.5-0.1-2.8,0.8-4,1.7c-9,6.7-18,13.4-27,20.2c-8.9,6.7-18.2,13.7-23,23.7
		c-5.5,11.3-4.5,24.5-3.5,37c1.2,13.6,2.3,27.2,3.5,40.8c0.3,4.1,0.7,8.2,2.2,12c1.5,3.8,4.1,7,6.4,10.4
		c7.3,10.7,11.7,23.5,20.9,32.5c1.9,1.8,4.3,3.6,6.9,3.1c3.8-0.8,4.8-5.7,4.9-9.6c0.5-13.2,1.1-26.3,1.6-39.5
		c0.2-3.6,0.3-7.3,1.9-10.6C313.5,607.9,316.2,605.4,318.5,602.6z"/>
	<path fill="#846956" d="M332,372.3c2.7-5.4,6.8-10,9.9-15.2c3.5-6,5.4-12.7,7.9-19.2c14-37.2,43.5-66.1,73-92.8
		c13.9-12.6,28-25.1,43.8-35.1c36.7-23.1,80.9-31.8,124.3-32.5c14.3-0.2,28.6,0.4,42.5,3.4c13.7,2.9,26.8,8.1,39.6,13.9
		c76.9,34.3,144.8,88.3,195.7,155.4c-16.1,9.8-36.7,3.5-55-1.1c-45.7-11.5-93.5-10.3-140.6-8.9c-14.7,0.4-29.8,0.9-43.6,6.3
		c-12.7,5-23.4,13.8-35.5,20.3c-16.8,9-35.8,13-52.6,22c-33,17.6-55.8,53.2-91.9,62.8c-39.4,10.4-81.7-13.8-121.2-3.7
		c-1-16.4-1.3-32.8-0.9-49.2C327.5,389.7,328,380.4,332,372.3z"/>
	<path fill="#6D2A05" d="M508.8,793.1c25.7,3.6,49.8,14.3,74.7,21.5c24.9,7.2,52.5,10.7,76.2,0.2c4.6-2.1,9.7-5.7,9.3-10.7
		c-0.2-3.1-2.4-5.7-2.5-8.8c-0.1-4,3.3-7.1,6-10.1s4.9-7.7,2.4-10.8c7.6-3.7,16.5-7.4,24.2-4c9.8,4.4,11.5,17.3,16.9,26.6
		c8.7,15,27.4,20.4,44.2,24.6c4.8,1.2,9.9,2.4,14.7,1.3c6.5-1.5,11.3-6.8,15.5-12c9.9-12.3,18.8-25.5,26.4-39.3
		c8.7-15.9,17-33.9,33.3-42c2.6,8.1,3.4,16.7,2.4,25.1c-0.9,7.6-3.3,15-5.6,22.3c-3.5,10.7-6.9,21.5-10.4,32.2
		c-5.8,17.9-11.9,36.4-24.6,50.2c-14.4,15.5-35.2,23-55.2,29.9c-17.1,5.9-34.3,11.9-52.2,14.8c-15,2.5-30.2,2.8-45.3,3
		c-14.3,0.2-29.1,0.1-41.9-6.2c-5.2-2.6-9.8-6.1-15.2-8.2c-11.6-4.6-24.9-1.9-37-4.9c-10.6-2.6-19.7-9.3-28.5-15.9
		c-17.8-13.4-36.4-27.7-45.4-48.2"/>
	<path fill="#511D03" d="M536.9,814.1c-15.3-20-12.5-49.4-27.4-69.7c-22.5,6-46.8-1-66.4-13.4s-35.4-30-50.9-47.3
		c-7-7.8-14-15.7-18.9-25c-5.2-9.9-7.9-21.5-15.7-29.5c-11.5-11.7-33.2-11-43.9,1.4c-2.4,35.5,4.4,71.6,19.6,103.8
		c2.5,5.2,5.2,10.4,9,14.8c4,4.7,9.1,8.3,14.2,11.9c17.6,12.5,35.1,24.9,52.7,37.4c8,5.7,16,11.3,23.9,17
		c14.9,10.5,29.8,21.1,45.8,29.8c17,9.2,35.2,16.2,54.3,18.8c8.1,1.1,17.6,0.9,23-5.3c5.9-6.8,3.8-17.5-1.3-24.9
		C549.7,826.6,542.3,821.2,536.9,814.1z"/>
	<path fill="#221623" d="M471.6,938.5c48,19.1,96.5,38.4,147.4,47.4c23.4,4.1,47.6,6,70.7,0.6c51.2-11.9,87.2-56,125.2-92.4
		c3.4-3.2,7-6.5,11.5-7.5c8.7-1.8,16.4,5.3,22.3,11.9c51.4,56.6,100.4,115.4,146.8,176.2c-70.9-9.1-142.6-6.4-214-4.4
		c-183.6,5.2-367.4,6.1-551.1,6.9c-31.8,0.1-63.6,0.3-95.5,0.4c-40.6,0.2-81.2,0.4-121.8,0.5c26.9-54.4,58.2-106.6,93.6-155.9
		c7.7-10.8,15.7-21.5,25.6-30.4c18.3-16.4,42-25.5,62.7-38.8c23.8-15.2,43.6-35.9,65.8-53.4s48.5-32.2,76.8-32
		c-25.4,13.4-53.5,34.9-50,63.5c1.5,11.8,8.5,22.3,17,30.7c17.1,16.8,40,26.1,62.3,34.9C401.8,910.8,436.7,924.6,471.6,938.5z"/>
	<rect x="867.1" y="410.7" fill="#E2DEDC" width="15.2" height="15.2"/>
	<rect x="851.8" y="410.7" fill="#E2DEDC" width="15.2" height="15.2"/>
	<rect x="851.8" y="395.5" fill="#E2DEDC" width="15.2" height="15.2"/>
	<rect x="836.6" y="395.5" fill="#E2DEDC" width="15.2" height="15.2"/>
	<rect x="760.6" y="456.3" fill="#E2DEDC" width="15.2" height="15.2"/>
	<rect x="745.4" y="456.3" fill="#E2DEDC" width="15.2" height="15.2"/>
	<rect x="745.4" y="441.1" fill="#E2DEDC" width="15.2" height="15.2"/>
	<rect x="730.1" y="456.3" fill="#E2DEDC" width="15.2" height="15.2"/>
	<rect x="730.1" y="441.1" fill="#E2DEDC" width="15.2" height="15.2"/>
	<rect x="730.1" y="425.9" fill="#E2DEDC" width="15.2" height="15.2"/>
	<rect x="714.9" y="456.3" fill="#E2DEDC" width="15.2" height="15.2"/>
	<rect x="714.9" y="441.1" fill="#E2DEDC" width="15.2" height="15.2"/>
	<polygon fill="#D1CDCB" points="791,669.3 775.8,669.3 760.6,669.3 745.4,669.3 730.1,669.3 714.9,669.3 699.7,669.3 684.5,669.3 
		669.3,669.3 669.3,684.5 684.5,684.5 699.7,684.5 714.9,684.5 730.1,684.5 745.4,684.5 760.6,684.5 775.8,684.5 791,684.5 
		791,699.7 775.8,699.7 760.6,699.7 745.4,699.7 730.1,699.7 714.9,699.7 699.7,699.7 684.5,699.7 669.3,699.7 654.1,699.7 
		638.9,699.7 638.9,684.5 623.7,684.5 608.5,684.5 608.5,699.7 623.7,699.7 623.7,714.9 638.9,714.9 654.1,714.9 669.3,714.9 
		684.5,714.9 699.7,714.9 714.9,714.9 730.1,714.9 745.4,714.9 760.6,714.9 775.8,714.9 791,714.9 806.2,714.9 806.2,699.7 
		806.2,684.5 806.2,669.3 	"/>
	<g>
		<polygon fill="#AAA9A9" points="806.2,669.3 806.2,684.5 806.2,699.7 821.4,699.7 821.4,684.5 821.4,669.3 		"/>
		<polygon fill="#AAA9A9" points="638.9,669.3 623.7,669.3 608.5,669.3 608.5,684.5 623.7,684.5 638.9,684.5 654.1,684.5 
			669.3,684.5 669.3,669.3 654.1,669.3 		"/>
	</g>
	<g>
		<polygon fill="#9B3C1B" points="836.6,654.1 821.4,654.1 806.2,654.1 791,654.1 775.8,654.1 760.6,654.1 745.4,654.1 730.1,654.1 
			714.9,654.1 699.7,654.1 684.5,654.1 669.3,654.1 654.1,654.1 638.9,654.1 623.7,654.1 608.5,654.1 593.2,654.1 578,654.1 
			578,669.3 578,684.5 578,699.7 593.2,699.7 593.2,714.9 608.5,714.9 623.7,714.9 623.7,699.7 608.5,699.7 608.5,684.5 
			608.5,669.3 623.7,669.3 638.9,669.3 654.1,669.3 669.3,669.3 684.5,669.3 699.7,669.3 714.9,669.3 730.1,669.3 745.4,669.3 
			760.6,669.3 775.8,669.3 791,669.3 806.2,669.3 821.4,669.3 821.4,684.5 821.4,699.7 836.6,699.7 836.6,684.5 851.8,684.5 
			851.8,669.3 851.8,654.1 		"/>
		<rect x="806.2" y="699.7" fill="#9B3C1B" width="15.2" height="15.2"/>
		<polygon fill="#9B3C1B" points="775.8,714.9 760.6,714.9 745.4,714.9 730.1,714.9 714.9,714.9 699.7,714.9 684.5,714.9 
			669.3,714.9 654.1,714.9 638.9,714.9 638.9,730.1 654.1,730.1 669.3,730.1 684.5,730.1 699.7,730.1 714.9,730.1 730.1,730.1 
			745.4,730.1 760.6,730.1 775.8,730.1 791,730.1 806.2,730.1 806.2,714.9 791,714.9 		"/>
	</g>
	<rect x="562.8" y="456.3" fill="#E2DEDC" width="15.2" height="15.2"/>
	<rect x="547.6" y="456.3" fill="#E2DEDC" width="15.2" height="15.2"/>
	<rect x="547.6" y="441.1" fill="#E2DEDC" width="15.2" height="15.2"/>
	<rect x="547.6" y="425.9" fill="#E2DEDC" width="15.2" height="15.2"/>
	<rect x="532.4" y="456.3" fill="#E2DEDC" width="15.2" height="15.2"/>
	<rect x="532.4" y="441.1" fill="#E2DEDC" width="15.2" height="15.2"/>
	<g>
		<polygon fill="#B25B36" points="867,669.3 867,654.1 867,638.9 851.8,638.9 836.6,638.9 821.4,638.9 806.2,638.9 791,638.9 
			775.8,638.9 760.6,638.9 745.4,638.9 730.1,638.9 714.9,638.9 699.7,638.9 684.5,638.9 669.3,638.9 654.1,638.9 638.9,638.9 
			623.7,638.9 608.5,638.9 593.2,638.9 578,638.9 562.8,638.9 547.6,638.9 547.6,654.1 532.4,654.1 532.4,669.3 532.4,684.5 
			517.2,684.5 517.2,699.7 532.4,699.7 547.6,699.7 547.6,714.9 562.8,714.9 578,714.9 578,730.1 593.2,730.1 608.5,730.1 
			608.5,745.3 623.7,745.3 638.9,745.3 654.1,745.3 669.3,745.3 684.5,745.3 699.7,745.3 714.9,745.3 730.1,745.3 745.4,745.3 
			760.6,745.3 775.8,745.3 791,745.3 806.2,745.3 806.2,730.1 791,730.1 775.8,730.1 760.6,730.1 745.4,730.1 730.1,730.1 
			714.9,730.1 699.7,730.1 684.5,730.1 669.3,730.1 654.1,730.1 638.9,730.1 638.9,714.9 623.7,714.9 608.5,714.9 593.2,714.9 
			593.2,699.7 578,699.7 578,684.5 578,669.3 578,654.1 593.2,654.1 608.5,654.1 623.7,654.1 638.9,654.1 654.1,654.1 669.3,654.1 
			684.5,654.1 699.7,654.1 714.9,654.1 730.1,654.1 745.4,654.1 760.6,654.1 775.8,654.1 791,654.1 806.2,654.1 821.4,654.1 
			836.6,654.1 851.8,654.1 851.8,669.3 851.8,684.5 836.6,684.5 836.6,699.7 851.8,699.7 867,699.7 867,684.5 882.3,684.5 
			882.3,669.3 		"/>
		<rect x="821.4" y="699.7" fill="#B25B36" width="15.2" height="15.2"/>
		<rect x="806.2" y="714.9" fill="#B25B36" width="15.2" height="15.2"/>
	</g>
	<g>
		<path fill="#FFFFFF" d="M873,399.7c-10.9-8.9-26.5-8.3-40.6-7c-21.1,2-42.5,5-61.6,14c-9.4,4.4-18.1,10.2-27.7,13.9
			c-8.4,3.2-17.6,4.9-24.6,10.5c-13.9,11.2-13.1,32.2-11,49.9c0.3,2.8,0.8,5.8,2.8,7.6c2,1.8,5,2,7.8,2.1
			c15.9,0.4,31.8,0.7,47.6,1.1c18.9,0.4,37.9,0.9,56.5-2.6c15-2.8,29.4-8.2,43.7-13.6c5.7-2.1,11.8-4.5,15.3-9.5
			c3.2-4.5,3.7-10.2,4.2-15.7C886.8,432.3,887,411.1,873,399.7z"/>
		<path fill="#FFFFFF" d="M663.7,496.8c4.2-3.1,10.2-2.9,14.4-6c1.5-1.1,2.5-2.5,3.4-4h3.1v-11.2c1.7-11.7,3.4-23.5,2-35.3
			c-0.4-3.2-1.1-6.5-2-9.6v-4.7h-1.7c-2.6-6.5-6.6-12.3-12.1-16.5c-14.2-11-34.2-9-51.7-5.2c-10.7,2.3-21.3,5.2-31.8,8.5
			c-10.5,3.4-20.9,7.2-30.6,12.5c-9.5,5.2-18.3,11.6-27,18c-19.7,14.4-39.4,28.8-59.1,43.3c12.1,4.5,28.7-1,36.4,9.3
			c2.1,2.8,3,6.5,5.4,9.1c3.8,4.1,10.1,4.4,15.7,4.3c36.8-0.1,73.5-0.2,110.3-0.3c6.5,0,13.6-0.3,18.5-4.6
			C659.3,502,660.9,498.8,663.7,496.8z"/>
		<polygon fill="#FFFFFF" points="760.6,684.5 745.4,684.5 730.1,684.5 714.9,684.5 699.7,684.5 684.5,684.5 669.3,684.5 
			654.1,684.5 638.9,684.5 638.9,699.7 654.1,699.7 669.3,699.7 684.5,699.7 699.7,699.7 714.9,699.7 730.1,699.7 745.4,699.7 
			760.6,699.7 775.8,699.7 791,699.7 791,684.5 775.8,684.5 		"/>
	</g>
	<rect x="517.2" y="456.3" fill="#E2DEDC" width="15.2" height="15.2"/>
	<rect x="502" y="471.5" fill="#E2DEDC" width="15.2" height="15.2"/>
	<rect x="502" y="456.3" fill="#E2DEDC" width="15.2" height="15.2"/>
	<rect x="486.8" y="471.5" fill="#E2DEDC" width="15.2" height="15.2"/>
	<g>
		<polygon fill="#BA9C88" points="836.6,334.6 836.6,319.4 821.4,319.4 821.4,304.2 806.2,304.2 806.2,289 791,289 791,273.8 
			775.8,273.8 775.8,258.6 760.6,258.6 760.6,243.4 745.4,243.4 745.4,228.2 730.1,228.2 714.9,228.2 714.9,213 699.7,213 
			684.5,213 669.3,213 669.3,228.2 684.5,228.2 684.5,243.4 699.7,243.4 714.9,243.4 730.1,243.4 730.1,258.6 745.4,258.6 
			745.4,273.8 760.6,273.8 760.6,289 775.8,289 775.8,304.2 791,304.2 791,319.4 806.2,319.4 806.2,334.6 821.4,334.6 821.4,349.9 
			836.6,349.9 851.8,349.9 851.8,334.6 		"/>
		<polygon fill="#BA9C88" points="654.1,197.7 654.1,182.5 638.9,182.5 623.7,182.5 608.5,182.5 593.2,182.5 593.2,197.7 
			608.5,197.7 623.7,197.7 638.9,197.7 638.9,213 654.1,213 669.3,213 669.3,197.7 		"/>
		<rect x="517.2" y="182.5" fill="#BA9C88" width="15.2" height="15.2"/>
		<polygon fill="#BA9C88" points="486.8,197.7 486.8,213 502,213 517.2,213 517.2,197.7 502,197.7 		"/>
	</g>
	<g>
		<polygon fill="#130B14" points="927.9,1049.6 927.9,1034.4 912.7,1034.4 912.7,1019.1 897.5,1019.1 897.5,1003.9 882.3,1003.9 
			882.3,988.7 882.3,973.5 867,973.5 867,958.3 851.8,958.3 836.6,958.3 836.6,943.1 836.6,927.9 821.4,927.9 821.4,912.7 
			806.2,912.7 806.2,927.9 791,927.9 791,943.1 775.8,943.1 775.8,958.3 760.6,958.3 760.6,973.5 745.4,973.5 730.1,973.5 
			714.9,973.5 714.9,988.7 699.7,988.7 699.7,1003.9 714.9,1003.9 714.9,1019.1 714.9,1034.4 714.9,1049.6 714.9,1064.8 714.9,1080 
			730.1,1080 745.4,1080 760.6,1080 775.8,1080 791,1080 806.2,1080 821.4,1080 836.6,1080 851.8,1080 867,1080 882.3,1080 
			897.5,1080 912.7,1080 927.9,1080 943.1,1080 943.1,1064.8 943.1,1049.6 		"/>
		<rect x="684.5" y="1034.4" fill="#130B14" width="15.2" height="15.2"/>
		<rect x="654.1" y="1064.8" fill="#130B14" width="15.2" height="15.2"/>
		<rect x="654.1" y="1003.9" fill="#130B14" width="15.2" height="15.2"/>
		<rect x="638.9" y="1019.2" fill="#130B14" width="15.2" height="15.2"/>
		<rect x="608.5" y="1034.4" fill="#130B14" width="15.2" height="15.2"/>
		<rect x="593.2" y="1049.6" fill="#130B14" width="15.2" height="15.2"/>
		<rect x="593.2" y="1003.9" fill="#130B14" width="15.2" height="15.2"/>
		<rect x="578" y="1019.2" fill="#130B14" width="15.2" height="15.2"/>
		<polygon fill="#130B14" points="578,988.7 562.8,988.7 562.8,1003.9 578,1003.9 593.2,1003.9 593.2,988.7 		"/>
		<rect x="562.8" y="1034.4" fill="#130B14" width="15.2" height="15.2"/>
		<rect x="532.4" y="1003.9" fill="#130B14" width="15.2" height="15.2"/>
		<rect x="517.2" y="1064.8" fill="#130B14" width="15.2" height="15.2"/>
		<rect x="517.2" y="1019.2" fill="#130B14" width="15.2" height="15.2"/>
		<rect x="517.2" y="973.5" fill="#130B14" width="15.2" height="15.2"/>
		<polygon fill="#130B14" points="517.2,988.7 502,988.7 486.8,988.7 486.8,1003.9 502,1003.9 517.2,1003.9 		"/>
		<rect x="486.8" y="1049.6" fill="#130B14" width="15.2" height="15.2"/>
		<rect x="456.3" y="1064.8" fill="#130B14" width="15.2" height="15.2"/>
		<rect x="456.3" y="1019.2" fill="#130B14" width="15.2" height="15.2"/>
		<rect x="425.9" y="1049.6" fill="#130B14" width="15.2" height="15.2"/>
	</g>
	<g>
		<polygon fill="#133A12" points="836.6,365.1 821.4,365.1 806.2,365.1 791,365.1 775.8,365.1 760.6,365.1 745.4,365.1 745.4,380.3 
			760.6,380.3 775.8,380.3 791,380.3 806.2,380.3 821.4,380.3 836.6,380.3 851.8,380.3 851.8,365.1 		"/>
		<polygon fill="#133A12" points="654.1,365.1 654.1,380.3 638.9,380.3 623.7,380.3 623.7,395.5 638.9,395.5 654.1,395.5 
			669.3,395.5 669.3,380.3 684.5,380.3 684.5,365.1 669.3,365.1 		"/>
		<rect x="578" y="395.5" fill="#133A12" width="15.2" height="15.2"/>
		<rect x="547.6" y="410.7" fill="#133A12" width="15.2" height="15.2"/>
		<rect x="486.8" y="441.1" fill="#133A12" width="15.2" height="15.2"/>
		<polygon fill="#133A12" points="410.7,471.5 395.5,471.5 395.5,486.8 410.7,486.8 425.9,486.8 441.1,486.8 441.1,471.5 
			425.9,471.5 		"/>
	</g>
	<g>
		<polygon fill="#A88C77" points="760.6,289 760.6,273.8 745.4,273.8 745.4,258.6 730.1,258.6 730.1,243.4 714.9,243.4 714.9,258.6 
			699.7,258.6 699.7,243.4 684.5,243.4 669.3,243.4 669.3,228.2 654.1,228.2 638.9,228.2 638.9,213 638.9,197.7 623.7,197.7 
			608.5,197.7 608.5,213 623.7,213 623.7,228.2 623.7,243.4 638.9,243.4 638.9,258.6 654.1,258.6 654.1,273.8 669.3,273.8 
			669.3,289 654.1,289 654.1,273.8 638.9,273.8 638.9,258.6 623.7,258.6 623.7,243.4 608.5,243.4 608.5,228.2 608.5,213 593.2,213 
			578,213 578,197.7 562.8,197.7 547.6,197.7 532.4,197.7 517.2,197.7 517.2,213 502,213 502,228.2 502,243.4 486.8,243.4 
			486.8,258.6 471.5,258.6 471.5,273.8 456.3,273.8 456.3,289 441.1,289 441.1,304.2 441.1,319.4 425.9,319.4 425.9,334.6 
			410.7,334.6 410.7,349.9 410.7,365.1 395.5,365.1 395.5,380.3 410.7,380.3 425.9,380.3 441.1,380.3 441.1,365.1 456.3,365.1 
			471.5,365.1 486.8,365.1 486.8,349.9 502,349.9 502,365.1 517.2,365.1 532.4,365.1 532.4,349.9 547.6,349.9 562.8,349.9 
			562.8,334.6 578,334.6 593.2,334.6 593.2,319.4 608.5,319.4 623.7,319.4 638.9,319.4 654.1,319.4 654.1,304.2 669.3,304.2 
			684.5,304.2 699.7,304.2 714.9,304.2 730.1,304.2 745.4,304.2 760.6,304.2 775.8,304.2 775.8,289 		"/>
		<polygon fill="#A88C77" points="608.5,334.6 608.5,349.9 623.7,349.9 638.9,349.9 638.9,334.6 623.7,334.6 		"/>
		<polygon fill="#A88C77" points="578,365.1 593.2,365.1 593.2,349.9 578,349.9 562.8,349.9 562.8,365.1 		"/>
		<rect x="547.6" y="365.1" fill="#A88C77" width="15.2" height="15.2"/>
		<rect x="517.2" y="380.3" fill="#A88C77" width="15.2" height="15.2"/>
		<rect x="486.8" y="395.5" fill="#A88C77" width="15.2" height="15.2"/>
	</g>
	<g>
		<polygon fill="#0F2B0D" points="791,349.9 775.8,349.9 760.6,349.9 745.4,349.9 730.1,349.9 714.9,349.9 699.7,349.9 684.5,349.9 
			669.3,349.9 654.1,349.9 638.9,349.9 638.9,365.1 623.7,365.1 608.5,365.1 608.5,380.3 593.2,380.3 578,380.3 562.8,380.3 
			562.8,395.5 547.6,395.5 532.4,395.5 532.4,410.7 517.2,410.7 517.2,425.9 502,425.9 486.8,425.9 486.8,441.1 502,441.1 
			517.2,441.1 532.4,441.1 532.4,425.9 547.6,425.9 547.6,410.7 562.8,410.7 578,410.7 578,395.5 593.2,395.5 608.5,395.5 
			623.7,395.5 623.7,380.3 638.9,380.3 654.1,380.3 654.1,365.1 669.3,365.1 684.5,365.1 699.7,365.1 714.9,365.1 730.1,365.1 
			745.4,365.1 760.6,365.1 775.8,365.1 791,365.1 806.2,365.1 806.2,349.9 		"/>
		<polygon fill="#0F2B0D" points="456.3,441.1 456.3,456.3 441.1,456.3 425.9,456.3 410.7,456.3 395.5,456.3 380.3,456.3 
			380.3,471.5 395.5,471.5 410.7,471.5 425.9,471.5 441.1,471.5 456.3,471.5 471.5,471.5 471.5,456.3 486.8,456.3 486.8,441.1 
			471.5,441.1 		"/>
	</g>
	<g>
		<polygon fill="#C7B89B" points="791,319.4 791,304.2 775.8,304.2 760.6,304.2 745.4,304.2 730.1,304.2 714.9,304.2 699.7,304.2 
			684.5,304.2 669.3,304.2 654.1,304.2 654.1,319.4 638.9,319.4 623.7,319.4 608.5,319.4 593.2,319.4 593.2,334.6 578,334.6 
			562.8,334.6 562.8,349.9 578,349.9 593.2,349.9 608.5,349.9 608.5,334.6 623.7,334.6 638.9,334.6 654.1,334.6 669.3,334.6 
			684.5,334.6 699.7,334.6 714.9,334.6 730.1,334.6 745.4,334.6 760.6,334.6 775.8,334.6 791,334.6 806.2,334.6 806.2,319.4 		"/>
		<rect x="699.7" y="243.4" fill="#C7B89B" width="15.2" height="15.2"/>
		<rect x="669.3" y="228.2" fill="#C7B89B" width="15.2" height="15.2"/>
		<polygon fill="#C7B89B" points="669.3,228.2 669.3,213 654.1,213 638.9,213 638.9,228.2 654.1,228.2 		"/>
		<polygon fill="#C7B89B" points="562.8,197.7 562.8,182.5 547.6,182.5 532.4,182.5 532.4,197.7 547.6,197.7 		"/>
		<polygon fill="#C7B89B" points="532.4,349.9 532.4,365.1 517.2,365.1 502,365.1 502,380.3 486.8,380.3 486.8,395.5 502,395.5 
			517.2,395.5 517.2,380.3 532.4,380.3 547.6,380.3 547.6,365.1 562.8,365.1 562.8,349.9 547.6,349.9 		"/>
		<rect x="486.8" y="228.2" fill="#C7B89B" width="15.2" height="15.2"/>
		<rect x="471.5" y="395.5" fill="#C7B89B" width="15.2" height="15.2"/>
		<rect x="471.5" y="243.4" fill="#C7B89B" width="15.2" height="15.2"/>
		<rect x="456.3" y="258.6" fill="#C7B89B" width="15.2" height="15.2"/>
		<rect x="441.1" y="273.8" fill="#C7B89B" width="15.2" height="15.2"/>
		<rect x="425.9" y="304.2" fill="#C7B89B" width="15.2" height="15.2"/>
		<rect x="395.5" y="334.6" fill="#C7B89B" width="15.2" height="15.2"/>
		<rect x="380.3" y="365.1" fill="#C7B89B" width="15.2" height="15.2"/>
	</g>
	<g>
		<rect x="882.3" y="608.5" fill="#84350D" width="15.2" height="15.2"/>
		<rect x="851.8" y="593.2" fill="#84350D" width="15.2" height="15.2"/>
		<rect x="806.2" y="608.5" fill="#84350D" width="15.2" height="15.2"/>
		<rect x="791" y="593.2" fill="#84350D" width="15.2" height="15.2"/>
		<rect x="760.6" y="608.5" fill="#84350D" width="15.2" height="15.2"/>
		<polygon fill="#84350D" points="654.1,775.8 654.1,791 654.1,806.2 669.3,806.2 669.3,791 684.5,791 684.5,775.8 669.3,775.8 		
			"/>
		<rect x="638.9" y="593.2" fill="#84350D" width="15.2" height="15.2"/>
		<polygon fill="#84350D" points="623.7,806.2 608.5,806.2 593.2,806.2 578,806.2 562.8,806.2 562.8,791 547.6,791 532.4,791 
			532.4,775.8 517.2,775.8 517.2,760.6 502,760.6 502,745.3 486.8,745.3 471.5,745.3 456.3,745.3 456.3,760.6 471.5,760.6 
			471.5,775.8 486.8,775.8 486.8,791 502,791 502,806.2 517.2,806.2 532.4,806.2 532.4,821.4 547.6,821.4 562.8,821.4 578,821.4 
			593.2,821.4 593.2,836.6 608.5,836.6 623.7,836.6 623.7,821.4 638.9,821.4 654.1,821.4 654.1,806.2 638.9,806.2 		"/>
		<rect x="608.5" y="608.5" fill="#84350D" width="15.2" height="15.2"/>
		<rect x="578" y="593.2" fill="#84350D" width="15.2" height="15.2"/>
		<polygon fill="#84350D" points="547.6,608.5 562.8,608.5 562.8,593.2 547.6,593.2 532.4,593.2 532.4,608.5 532.4,623.7 
			547.6,623.7 		"/>
		<polygon fill="#84350D" points="441.1,730.1 425.9,730.1 425.9,745.3 441.1,745.3 456.3,745.3 456.3,730.1 		"/>
		<polygon fill="#84350D" points="410.7,714.9 410.7,699.7 410.7,684.5 395.5,684.5 380.3,684.5 380.3,699.7 395.5,699.7 
			395.5,714.9 395.5,730.1 410.7,730.1 425.9,730.1 425.9,714.9 		"/>
		<polygon fill="#84350D" points="380.3,654.1 365.1,654.1 365.1,669.3 365.1,684.5 380.3,684.5 380.3,669.3 		"/>
		<rect x="349.9" y="638.9" fill="#84350D" width="15.2" height="15.2"/>
	</g>
	<g>
		<rect x="654.1" y="273.8" fill="#846956" width="15.2" height="15.2"/>
		<rect x="638.9" y="258.6" fill="#846956" width="15.2" height="15.2"/>
		<rect x="623.7" y="243.4" fill="#846956" width="15.2" height="15.2"/>
		<polygon fill="#846956" points="623.7,213 608.5,213 608.5,228.2 608.5,243.4 623.7,243.4 623.7,228.2 		"/>
		<polygon fill="#846956" points="593.2,197.7 593.2,182.5 578,182.5 562.8,182.5 562.8,197.7 578,197.7 578,213 593.2,213 
			608.5,213 608.5,197.7 		"/>
		<polygon fill="#846956" points="471.5,213 456.3,213 456.3,228.2 441.1,228.2 441.1,243.4 425.9,243.4 425.9,258.6 410.7,258.6 
			410.7,273.8 395.5,273.8 395.5,289 380.3,289 380.3,304.2 365.1,304.2 365.1,319.4 349.9,319.4 349.9,334.6 349.9,349.9 
			349.9,365.1 334.7,365.1 334.7,380.3 334.7,395.5 334.7,410.7 334.7,425.9 334.7,441.1 349.9,441.1 365.1,441.1 380.3,441.1 
			395.5,441.1 395.5,456.3 410.7,456.3 425.9,456.3 441.1,456.3 456.3,456.3 456.3,441.1 471.5,441.1 486.8,441.1 486.8,425.9 
			502,425.9 502,410.7 486.8,410.7 471.5,410.7 471.5,395.5 486.8,395.5 486.8,380.3 502,380.3 502,365.1 502,349.9 486.8,349.9 
			486.8,365.1 471.5,365.1 456.3,365.1 441.1,365.1 441.1,380.3 425.9,380.3 410.7,380.3 395.5,380.3 380.3,380.3 380.3,365.1 
			395.5,365.1 410.7,365.1 410.7,349.9 395.5,349.9 395.5,334.6 410.7,334.6 425.9,334.6 425.9,319.4 425.9,304.2 441.1,304.2 
			441.1,289 441.1,273.8 456.3,273.8 456.3,258.6 471.5,258.6 471.5,243.4 486.8,243.4 486.8,228.2 502,228.2 502,213 486.8,213 		
			"/>
	</g>
	<g>
		<polygon fill="#511D03" points="897.5,623.7 882.3,623.7 882.3,608.5 867,608.5 851.8,608.5 851.8,593.2 836.6,593.2 821.4,593.2 
			806.2,593.2 806.2,608.5 821.4,608.5 821.4,623.7 836.6,623.7 851.8,623.7 867,623.7 867,638.9 867,654.1 867,669.3 882.3,669.3 
			897.5,669.3 912.7,669.3 912.7,654.1 912.7,638.9 912.7,623.7 		"/>
		<polygon fill="#511D03" points="836.6,745.3 836.6,760.6 851.8,760.6 851.8,745.3 851.8,730.1 836.6,730.1 		"/>
		<polygon fill="#511D03" points="821.4,775.8 821.4,791 821.4,806.2 836.6,806.2 836.6,791 836.6,775.8 836.6,760.6 821.4,760.6 		
			"/>
		<polygon fill="#511D03" points="791,806.2 791,821.4 791,836.6 775.8,836.6 775.8,851.8 775.8,867 791,867 791,851.8 806.2,851.8 
			806.2,836.6 821.4,836.6 821.4,821.4 821.4,806.2 806.2,806.2 		"/>
		<polygon fill="#511D03" points="791,593.2 775.8,593.2 775.8,608.5 775.8,623.7 791,623.7 806.2,623.7 806.2,608.5 791,608.5 		
			"/>
		<polygon fill="#511D03" points="745.4,851.8 745.4,867 730.1,867 730.1,851.8 730.1,836.6 730.1,821.4 714.9,821.4 714.9,836.6 
			714.9,851.8 714.9,867 699.7,867 699.7,882.3 684.5,882.3 684.5,867 699.7,867 699.7,851.8 699.7,836.6 699.7,821.4 699.7,806.2 
			684.5,806.2 684.5,791 669.3,791 669.3,806.2 669.3,821.4 684.5,821.4 684.5,836.6 684.5,851.8 669.3,851.8 669.3,867 
			669.3,882.3 654.1,882.3 638.9,882.3 623.7,882.3 623.7,897.5 638.9,897.5 654.1,897.5 669.3,897.5 684.5,897.5 699.7,897.5 
			714.9,897.5 730.1,897.5 730.1,882.3 745.4,882.3 760.6,882.3 760.6,867 760.6,851.8 760.6,836.6 745.4,836.6 		"/>
		<polygon fill="#511D03" points="745.4,593.2 730.1,593.2 730.1,608.5 730.1,623.7 745.4,623.7 760.6,623.7 760.6,608.5 
			745.4,608.5 		"/>
		<polygon fill="#511D03" points="608.5,867 593.2,867 593.2,851.8 578,851.8 562.8,851.8 562.8,836.6 547.6,836.6 532.4,836.6 
			532.4,851.8 547.6,851.8 547.6,867 562.8,867 562.8,882.3 578,882.3 593.2,882.3 608.5,882.3 623.7,882.3 623.7,867 		"/>
		<polygon fill="#511D03" points="578,623.7 593.2,623.7 608.5,623.7 608.5,608.5 623.7,608.5 623.7,623.7 638.9,623.7 654.1,623.7 
			669.3,623.7 684.5,623.7 699.7,623.7 699.7,608.5 684.5,608.5 669.3,608.5 669.3,593.2 654.1,593.2 654.1,608.5 638.9,608.5 
			638.9,593.2 623.7,593.2 608.5,593.2 593.2,593.2 593.2,608.5 578,608.5 578,593.2 562.8,593.2 562.8,608.5 547.6,608.5 
			547.6,623.7 562.8,623.7 		"/>
		<polygon fill="#511D03" points="517.2,821.4 502,821.4 502,806.2 502,791 486.8,791 486.8,806.2 471.5,806.2 471.5,821.4 
			471.5,836.6 486.8,836.6 486.8,851.8 502,851.8 517.2,851.8 517.2,836.6 532.4,836.6 532.4,821.4 		"/>
		<polygon fill="#511D03" points="517.2,684.5 532.4,684.5 532.4,669.3 532.4,654.1 532.4,638.9 547.6,638.9 547.6,623.7 
			532.4,623.7 532.4,608.5 532.4,593.2 517.2,593.2 517.2,608.5 502,608.5 502,623.7 486.8,623.7 486.8,638.9 486.8,654.1 
			486.8,669.3 486.8,684.5 502,684.5 		"/>
		<rect x="456.3" y="775.8" fill="#511D03" width="15.2" height="15.2"/>
		<rect x="441.1" y="806.2" fill="#511D03" width="15.2" height="15.2"/>
		<polygon fill="#511D03" points="456.3,745.3 441.1,745.3 441.1,760.6 441.1,775.8 456.3,775.8 456.3,760.6 		"/>
		<rect x="425.9" y="714.9" fill="#511D03" width="15.2" height="15.2"/>
		<polygon fill="#511D03" points="410.7,775.8 410.7,791 425.9,791 425.9,806.2 441.1,806.2 441.1,791 441.1,775.8 425.9,775.8 		
			"/>
		<rect x="410.7" y="745.3" fill="#511D03" width="15.2" height="15.2"/>
		<rect x="395.5" y="760.6" fill="#511D03" width="15.2" height="15.2"/>
		<rect x="395.5" y="730.1" fill="#511D03" width="15.2" height="15.2"/>
		<polygon fill="#511D03" points="380.3,745.3 365.1,745.3 365.1,760.6 380.3,760.6 395.5,760.6 395.5,745.3 		"/>
		<rect x="380.3" y="669.3" fill="#511D03" width="15.2" height="15.2"/>
		<rect x="365.1" y="699.7" fill="#511D03" width="15.2" height="15.2"/>
		<rect x="365.1" y="638.9" fill="#511D03" width="15.2" height="15.2"/>
		<polygon fill="#511D03" points="365.1,714.9 349.9,714.9 349.9,699.7 349.9,684.5 365.1,684.5 365.1,669.3 349.9,669.3 
			349.9,654.1 349.9,638.9 334.7,638.9 334.7,623.7 334.7,608.5 319.4,608.5 319.4,623.7 319.4,638.9 319.4,654.1 319.4,669.3 
			319.4,684.5 334.7,684.5 334.7,699.7 334.7,714.9 334.7,730.1 349.9,730.1 349.9,745.3 365.1,745.3 365.1,730.1 		"/>
		<polygon fill="#511D03" points="334.7,578 334.7,593.2 349.9,593.2 349.9,578 349.9,562.8 349.9,547.6 349.9,532.4 349.9,517.2 
			349.9,502 365.1,502 365.1,486.8 365.1,471.5 365.1,456.3 349.9,456.3 334.7,456.3 334.7,471.5 334.7,486.8 319.4,486.8 
			319.4,502 319.4,517.2 319.4,532.4 319.4,547.6 319.4,562.8 334.7,562.8 		"/>
	</g>
	<g>
		<polygon fill="#6D2A05" points="821.4,745.3 806.2,745.3 806.2,760.6 806.2,775.8 791,775.8 791,791 775.8,791 775.8,806.2 
			760.6,806.2 760.6,821.4 745.4,821.4 745.4,806.2 730.1,806.2 730.1,791 730.1,775.8 714.9,775.8 714.9,760.6 699.7,760.6 
			684.5,760.6 669.3,760.6 669.3,775.8 684.5,775.8 684.5,791 684.5,806.2 699.7,806.2 699.7,821.4 699.7,836.6 699.7,851.8 
			699.7,867 714.9,867 714.9,851.8 714.9,836.6 714.9,821.4 730.1,821.4 730.1,836.6 730.1,851.8 730.1,867 745.4,867 745.4,851.8 
			745.4,836.6 760.6,836.6 760.6,851.8 760.6,867 775.8,867 775.8,851.8 775.8,836.6 791,836.6 791,821.4 791,806.2 806.2,806.2 
			821.4,806.2 821.4,791 821.4,775.8 821.4,760.6 836.6,760.6 836.6,745.3 		"/>
		<rect x="684.5" y="867" fill="#6D2A05" width="15.2" height="15.2"/>
		<polygon fill="#6D2A05" points="684.5,836.6 684.5,821.4 669.3,821.4 669.3,806.2 654.1,806.2 654.1,821.4 638.9,821.4 
			623.7,821.4 623.7,836.6 608.5,836.6 593.2,836.6 593.2,821.4 578,821.4 562.8,821.4 547.6,821.4 532.4,821.4 532.4,836.6 
			547.6,836.6 562.8,836.6 562.8,851.8 578,851.8 593.2,851.8 593.2,867 608.5,867 623.7,867 623.7,882.3 638.9,882.3 654.1,882.3 
			669.3,882.3 669.3,867 669.3,851.8 684.5,851.8 		"/>
		<rect x="517.2" y="836.6" fill="#6D2A05" width="15.2" height="15.2"/>
		<polygon fill="#6D2A05" points="517.2,806.2 502,806.2 502,821.4 517.2,821.4 532.4,821.4 532.4,806.2 		"/>
		<rect x="517.2" y="760.6" fill="#6D2A05" width="15.2" height="15.2"/>
		<polygon fill="#6D2A05" points="517.2,745.3 517.2,730.1 502,730.1 502,745.3 502,760.6 517.2,760.6 		"/>
		<polygon fill="#6D2A05" points="471.5,791 456.3,791 456.3,775.8 441.1,775.8 441.1,791 441.1,806.2 456.3,806.2 456.3,821.4 
			471.5,821.4 471.5,806.2 486.8,806.2 486.8,791 486.8,775.8 471.5,775.8 		"/>
		<rect x="456.3" y="760.6" fill="#6D2A05" width="15.2" height="15.2"/>
		<polygon fill="#6D2A05" points="456.3,730.1 456.3,745.3 471.5,745.3 486.8,745.3 486.8,730.1 471.5,730.1 		"/>
		<polygon fill="#6D2A05" points="441.1,745.3 425.9,745.3 425.9,760.6 410.7,760.6 410.7,775.8 425.9,775.8 441.1,775.8 
			441.1,760.6 		"/>
		<rect x="410.7" y="730.1" fill="#6D2A05" width="15.2" height="15.2"/>
		<rect x="410.7" y="699.7" fill="#6D2A05" width="15.2" height="15.2"/>
		<rect x="395.5" y="745.3" fill="#6D2A05" width="15.2" height="15.2"/>
		<polygon fill="#6D2A05" points="395.5,714.9 395.5,699.7 380.3,699.7 380.3,714.9 365.1,714.9 365.1,730.1 365.1,745.3 
			380.3,745.3 395.5,745.3 395.5,730.1 		"/>
		<polygon fill="#6D2A05" points="380.3,699.7 380.3,684.5 365.1,684.5 349.9,684.5 349.9,699.7 349.9,714.9 365.1,714.9 
			365.1,699.7 		"/>
		<polygon fill="#6D2A05" points="380.3,471.5 380.3,456.3 365.1,456.3 365.1,471.5 365.1,486.8 380.3,486.8 		"/>
		<rect x="349.9" y="654.1" fill="#6D2A05" width="15.2" height="15.2"/>
		<polygon fill="#6D2A05" points="365.1,638.9 380.3,638.9 380.3,623.7 365.1,623.7 365.1,608.5 365.1,593.2 365.1,578 365.1,562.8 
			365.1,547.6 365.1,532.4 365.1,517.2 365.1,502 349.9,502 349.9,517.2 349.9,532.4 349.9,547.6 349.9,562.8 349.9,578 
			349.9,593.2 334.7,593.2 334.7,608.5 334.7,623.7 334.7,638.9 349.9,638.9 		"/>
		<polygon fill="#6D2A05" points="304.2,578 304.2,593.2 319.4,593.2 319.4,578 319.4,562.8 304.2,562.8 		"/>
	</g>
	<g>
		<polygon fill="#298D2D" points="851.8,578 851.8,562.8 836.6,562.8 821.4,562.8 806.2,562.8 791,562.8 775.8,562.8 760.6,562.8 
			745.4,562.8 745.4,578 760.6,578 760.6,593.2 775.8,593.2 791,593.2 806.2,593.2 821.4,593.2 836.6,593.2 851.8,593.2 867,593.2 
			867,578 		"/>
		<polygon fill="#298D2D" points="730.1,547.6 730.1,532.4 730.1,517.2 714.9,517.2 699.7,517.2 699.7,532.4 684.5,532.4 
			684.5,547.6 669.3,547.6 669.3,562.8 654.1,562.8 638.9,562.8 623.7,562.8 608.5,562.8 608.5,578 593.2,578 578,578 562.8,578 
			562.8,562.8 547.6,562.8 532.4,562.8 532.4,547.6 517.2,547.6 517.2,532.4 517.2,517.2 502,517.2 502,502 486.8,502 471.5,502 
			471.5,517.2 486.8,517.2 486.8,532.4 502,532.4 502,547.6 486.8,547.6 486.8,562.8 471.5,562.8 471.5,578 456.3,578 456.3,593.2 
			471.5,593.2 486.8,593.2 502,593.2 517.2,593.2 532.4,593.2 547.6,593.2 562.8,593.2 578,593.2 593.2,593.2 608.5,593.2 
			623.7,593.2 638.9,593.2 654.1,593.2 669.3,593.2 684.5,593.2 684.5,578 699.7,578 699.7,562.8 714.9,562.8 714.9,578 
			714.9,593.2 699.7,593.2 699.7,608.5 699.7,623.7 714.9,623.7 730.1,623.7 730.1,608.5 730.1,593.2 730.1,578 730.1,562.8 
			745.4,562.8 745.4,547.6 		"/>
		<rect x="456.3" y="486.8" fill="#298D2D" width="15.2" height="15.2"/>
		<rect x="441.1" y="593.2" fill="#298D2D" width="15.2" height="15.2"/>
		<polygon fill="#298D2D" points="456.3,547.6 441.1,547.6 425.9,547.6 425.9,562.8 441.1,562.8 441.1,578 456.3,578 456.3,562.8 		
			"/>
		<polygon fill="#298D2D" points="395.5,806.2 395.5,791 380.3,791 380.3,775.8 365.1,775.8 349.9,775.8 334.7,775.8 334.7,791 
			319.4,791 304.2,791 304.2,806.2 289,806.2 289,821.4 289,836.6 304.2,836.6 304.2,851.8 319.4,851.8 334.7,851.8 334.7,836.6 
			349.9,836.6 365.1,836.6 365.1,821.4 380.3,821.4 395.5,821.4 410.7,821.4 425.9,821.4 425.9,806.2 410.7,806.2 		"/>
	</g>
	<g>
		<polygon fill="#194C18" points="867,486.8 851.8,486.8 836.6,486.8 836.6,502 821.4,502 806.2,502 791,502 775.8,502 760.6,502 
			745.4,502 730.1,502 714.9,502 699.7,502 699.7,517.2 714.9,517.2 730.1,517.2 730.1,532.4 745.4,532.4 760.6,532.4 775.8,532.4 
			791,532.4 791,517.2 806.2,517.2 821.4,517.2 821.4,532.4 836.6,532.4 836.6,517.2 851.8,517.2 851.8,502 867,502 882.3,502 
			882.3,486.8 		"/>
		<polygon fill="#194C18" points="791,760.6 775.8,760.6 760.6,760.6 745.4,760.6 745.4,775.8 745.4,791 760.6,791 775.8,791 
			791,791 791,775.8 806.2,775.8 806.2,760.6 806.2,745.3 791,745.3 		"/>
		<polygon fill="#194C18" points="775.8,882.3 775.8,897.5 760.6,897.5 745.4,897.5 730.1,897.5 730.1,912.7 714.9,912.7 
			699.7,912.7 684.5,912.7 669.3,912.7 654.1,912.7 638.9,912.7 623.7,912.7 608.5,912.7 608.5,897.5 593.2,897.5 578,897.5 
			562.8,897.5 547.6,897.5 547.6,882.3 532.4,882.3 532.4,867 517.2,867 502,867 502,882.3 517.2,882.3 517.2,897.5 532.4,897.5 
			532.4,912.7 547.6,912.7 562.8,912.7 578,912.7 578,927.9 593.2,927.9 608.5,927.9 608.5,943.1 623.7,943.1 638.9,943.1 
			638.9,958.3 654.1,958.3 669.3,958.3 684.5,958.3 699.7,958.3 699.7,973.5 714.9,973.5 730.1,973.5 730.1,958.3 745.4,958.3 
			745.4,943.1 760.6,943.1 760.6,927.9 775.8,927.9 775.8,912.7 791,912.7 791,897.5 806.2,897.5 806.2,882.3 791,882.3 		"/>
		<rect x="745.4" y="806.2" fill="#194C18" width="15.2" height="15.2"/>
		<polygon fill="#194C18" points="730.1,380.3 745.4,380.3 745.4,365.1 730.1,365.1 714.9,365.1 699.7,365.1 699.7,380.3 
			714.9,380.3 		"/>
		<rect x="669.3" y="502" fill="#194C18" width="15.2" height="15.2"/>
		<rect x="654.1" y="760.6" fill="#194C18" width="15.2" height="15.2"/>
		<rect x="578" y="745.3" fill="#194C18" width="15.2" height="15.2"/>
		<polygon fill="#194C18" points="547.6,532.4 562.8,532.4 578,532.4 593.2,532.4 608.5,532.4 623.7,532.4 638.9,532.4 654.1,532.4 
			669.3,532.4 669.3,517.2 654.1,517.2 638.9,517.2 623.7,517.2 608.5,517.2 593.2,517.2 578,517.2 562.8,517.2 547.6,517.2 
			532.4,517.2 517.2,517.2 517.2,532.4 532.4,532.4 		"/>
		<polygon fill="#194C18" points="502,608.5 486.8,608.5 471.5,608.5 471.5,623.7 456.3,623.7 456.3,638.9 456.3,654.1 456.3,669.3 
			456.3,684.5 456.3,699.7 456.3,714.9 471.5,714.9 471.5,730.1 486.8,730.1 486.8,714.9 486.8,699.7 471.5,699.7 471.5,684.5 
			471.5,669.3 471.5,654.1 471.5,638.9 486.8,638.9 486.8,623.7 502,623.7 		"/>
		<polygon fill="#194C18" points="456.3,532.4 456.3,547.6 456.3,562.8 456.3,578 471.5,578 471.5,562.8 486.8,562.8 486.8,547.6 
			486.8,532.4 486.8,517.2 471.5,517.2 471.5,502 456.3,502 456.3,486.8 456.3,471.5 441.1,471.5 441.1,486.8 441.1,502 
			441.1,517.2 456.3,517.2 		"/>
		<rect x="304.2" y="547.6" fill="#194C18" width="15.2" height="15.2"/>
		<rect x="304.2" y="502" fill="#194C18" width="15.2" height="15.2"/>
		<polygon fill="#194C18" points="289,578 289,593.2 304.2,593.2 304.2,578 304.2,562.8 289,562.8 		"/>
		<polygon fill="#194C18" points="273.8,608.5 273.8,623.7 289,623.7 289,638.9 289,654.1 304.2,654.1 304.2,638.9 304.2,623.7 
			304.2,608.5 289,608.5 		"/>
	</g>
	<g>
		<polygon fill="#217022" points="867,502 851.8,502 851.8,517.2 867,517.2 882.3,517.2 882.3,502 		"/>
		<rect x="836.6" y="517.2" fill="#217022" width="15.2" height="15.2"/>
		<polygon fill="#217022" points="821.4,517.2 806.2,517.2 791,517.2 791,532.4 775.8,532.4 760.6,532.4 745.4,532.4 730.1,532.4 
			730.1,547.6 745.4,547.6 760.6,547.6 775.8,547.6 791,547.6 806.2,547.6 821.4,547.6 836.6,547.6 836.6,532.4 821.4,532.4 		"/>
		<polygon fill="#217022" points="745.4,791 745.4,775.8 745.4,760.6 730.1,760.6 714.9,760.6 714.9,775.8 730.1,775.8 730.1,791 
			730.1,806.2 745.4,806.2 760.6,806.2 775.8,806.2 775.8,791 760.6,791 		"/>
		<polygon fill="#217022" points="714.9,410.7 730.1,410.7 730.1,395.5 745.4,395.5 760.6,395.5 760.6,380.3 745.4,380.3 
			730.1,380.3 714.9,380.3 699.7,380.3 699.7,395.5 714.9,395.5 		"/>
		<polygon fill="#217022" points="669.3,958.3 654.1,958.3 638.9,958.3 638.9,943.1 623.7,943.1 608.5,943.1 608.5,927.9 
			593.2,927.9 578,927.9 578,912.7 562.8,912.7 547.6,912.7 532.4,912.7 532.4,897.5 517.2,897.5 517.2,882.3 502,882.3 502,867 
			486.8,867 486.8,851.8 471.5,851.8 456.3,851.8 456.3,836.6 441.1,836.6 441.1,821.4 425.9,821.4 410.7,821.4 395.5,821.4 
			380.3,821.4 365.1,821.4 365.1,836.6 349.9,836.6 334.7,836.6 334.7,851.8 319.4,851.8 319.4,867 334.7,867 349.9,867 
			349.9,882.3 365.1,882.3 380.3,882.3 380.3,897.5 395.5,897.5 410.7,897.5 410.7,912.7 425.9,912.7 441.1,912.7 441.1,927.9 
			456.3,927.9 471.5,927.9 471.5,943.1 486.8,943.1 502,943.1 502,958.3 517.2,958.3 532.4,958.3 547.6,958.3 547.6,973.5 
			562.8,973.5 578,973.5 593.2,973.5 608.5,973.5 623.7,973.5 623.7,988.7 638.9,988.7 654.1,988.7 669.3,988.7 669.3,973.5 
			684.5,973.5 699.7,973.5 699.7,958.3 684.5,958.3 		"/>
		<polygon fill="#217022" points="684.5,395.5 684.5,380.3 669.3,380.3 669.3,395.5 669.3,410.7 684.5,410.7 		"/>
		<polygon fill="#217022" points="578,806.2 593.2,806.2 608.5,806.2 623.7,806.2 638.9,806.2 654.1,806.2 654.1,791 654.1,775.8 
			654.1,760.6 638.9,760.6 623.7,760.6 608.5,760.6 593.2,760.6 578,760.6 578,745.3 562.8,745.3 562.8,730.1 547.6,730.1 
			532.4,730.1 532.4,714.9 517.2,714.9 517.2,699.7 502,699.7 502,684.5 486.8,684.5 486.8,669.3 486.8,654.1 486.8,638.9 
			471.5,638.9 471.5,654.1 471.5,669.3 471.5,684.5 471.5,699.7 486.8,699.7 486.8,714.9 486.8,730.1 486.8,745.3 502,745.3 
			502,730.1 517.2,730.1 517.2,745.3 517.2,760.6 532.4,760.6 532.4,775.8 532.4,791 547.6,791 562.8,791 562.8,806.2 		"/>
		<polygon fill="#217022" points="532.4,562.8 547.6,562.8 562.8,562.8 578,562.8 593.2,562.8 593.2,547.6 608.5,547.6 623.7,547.6 
			638.9,547.6 654.1,547.6 654.1,532.4 638.9,532.4 623.7,532.4 608.5,532.4 593.2,532.4 578,532.4 562.8,532.4 547.6,532.4 
			532.4,532.4 517.2,532.4 517.2,547.6 532.4,547.6 		"/>
		<rect x="486.8" y="532.4" fill="#217022" width="15.2" height="15.2"/>
		<polygon fill="#217022" points="380.3,638.9 380.3,654.1 380.3,669.3 395.5,669.3 395.5,684.5 410.7,684.5 410.7,699.7 
			425.9,699.7 425.9,714.9 441.1,714.9 441.1,730.1 456.3,730.1 471.5,730.1 471.5,714.9 456.3,714.9 456.3,699.7 456.3,684.5 
			456.3,669.3 456.3,654.1 456.3,638.9 456.3,623.7 471.5,623.7 471.5,608.5 486.8,608.5 502,608.5 517.2,608.5 517.2,593.2 
			502,593.2 486.8,593.2 471.5,593.2 456.3,593.2 456.3,608.5 441.1,608.5 441.1,593.2 456.3,593.2 456.3,578 441.1,578 
			441.1,562.8 425.9,562.8 425.9,547.6 441.1,547.6 456.3,547.6 456.3,532.4 456.3,517.2 441.1,517.2 441.1,502 441.1,486.8 
			425.9,486.8 410.7,486.8 395.5,486.8 395.5,471.5 380.3,471.5 380.3,486.8 365.1,486.8 365.1,502 365.1,517.2 365.1,532.4 
			365.1,547.6 365.1,562.8 365.1,578 365.1,593.2 365.1,608.5 365.1,623.7 380.3,623.7 		"/>
		<polygon fill="#217022" points="319.4,517.2 304.2,517.2 289,517.2 289,532.4 273.8,532.4 273.8,547.6 273.8,562.8 273.8,578 
			273.8,593.2 273.8,608.5 289,608.5 304.2,608.5 304.2,593.2 289,593.2 289,578 289,562.8 289,547.6 304.2,547.6 304.2,532.4 
			319.4,532.4 		"/>
	</g>
	<g>
		<rect x="806.2" y="882.3" fill="#000410" width="15.2" height="15.2"/>
		<polygon fill="#000410" points="791,912.7 775.8,912.7 775.8,927.9 791,927.9 806.2,927.9 806.2,912.7 806.2,897.5 791,897.5 		
			"/>
		<polygon fill="#000410" points="760.6,943.1 745.4,943.1 745.4,958.3 730.1,958.3 730.1,973.5 745.4,973.5 760.6,973.5 
			760.6,958.3 775.8,958.3 775.8,943.1 775.8,927.9 760.6,927.9 		"/>
		<polygon fill="#000410" points="669.3,973.5 669.3,988.7 654.1,988.7 638.9,988.7 638.9,1003.9 654.1,1003.9 669.3,1003.9 
			684.5,1003.9 684.5,988.7 699.7,988.7 699.7,973.5 684.5,973.5 		"/>
		<polygon fill="#000410" points="593.2,973.5 578,973.5 562.8,973.5 547.6,973.5 547.6,958.3 532.4,958.3 517.2,958.3 517.2,973.5 
			532.4,973.5 532.4,988.7 547.6,988.7 562.8,988.7 578,988.7 593.2,988.7 608.5,988.7 623.7,988.7 623.7,973.5 608.5,973.5 		"/>
		<rect x="486.8" y="943.1" fill="#000410" width="15.2" height="15.2"/>
		<polygon fill="#000410" points="441.1,927.9 441.1,943.1 456.3,943.1 471.5,943.1 471.5,927.9 456.3,927.9 		"/>
		<polygon fill="#000410" points="425.9,912.7 410.7,912.7 410.7,897.5 395.5,897.5 380.3,897.5 380.3,882.3 365.1,882.3 
			349.9,882.3 349.9,867 334.7,867 319.4,867 319.4,851.8 304.2,851.8 304.2,836.6 289,836.6 289,821.4 273.8,821.4 273.8,836.6 
			273.8,851.8 289,851.8 289,867 304.2,867 304.2,882.3 319.4,882.3 334.7,882.3 334.7,897.5 349.9,897.5 365.1,897.5 365.1,912.7 
			380.3,912.7 395.5,912.7 395.5,927.9 410.7,927.9 425.9,927.9 441.1,927.9 441.1,912.7 		"/>
		<polygon fill="#000410" points="167.3,851.8 167.3,867 182.5,867 197.8,867 197.8,851.8 182.5,851.8 		"/>
	</g>
	<g>
		<rect x="547.6" y="1049.6" fill="#362638" width="15.2" height="15.2"/>
		<rect x="547.6" y="988.7" fill="#362638" width="15.2" height="15.2"/>
		<rect x="502" y="1019.2" fill="#362638" width="15.2" height="15.2"/>
		<rect x="502" y="973.5" fill="#362638" width="15.2" height="15.2"/>
		<rect x="456.3" y="1003.9" fill="#362638" width="15.2" height="15.2"/>
		<rect x="456.3" y="943.1" fill="#362638" width="15.2" height="15.2"/>
		<polygon fill="#362638" points="425.9,1003.9 425.9,1019.1 441.1,1019.1 441.1,1003.9 441.1,988.7 425.9,988.7 		"/>
		<rect x="410.7" y="927.9" fill="#362638" width="15.2" height="15.2"/>
		<rect x="395.5" y="1019.2" fill="#362638" width="15.2" height="15.2"/>
		<rect x="395.5" y="973.5" fill="#362638" width="15.2" height="15.2"/>
		<rect x="365.1" y="943.1" fill="#362638" width="15.2" height="15.2"/>
		<rect x="365.1" y="912.7" fill="#362638" width="15.2" height="15.2"/>
		<rect x="349.9" y="1049.6" fill="#362638" width="15.2" height="15.2"/>
		<rect x="349.9" y="988.7" fill="#362638" width="15.2" height="15.2"/>
		<polygon fill="#362638" points="349.9,897.5 334.7,897.5 334.7,882.3 319.4,882.3 304.2,882.3 289,882.3 289,867 273.8,867 
			273.8,851.8 273.8,836.6 273.8,821.4 289,821.4 289,806.2 304.2,806.2 304.2,791 319.4,791 334.7,791 334.7,775.8 334.7,760.6 
			319.4,760.6 319.4,775.8 304.2,775.8 289,775.8 289,791 273.8,791 273.8,806.2 258.6,806.2 258.6,821.4 243.4,821.4 228.2,821.4 
			228.2,836.6 213,836.6 213,851.8 197.8,851.8 197.8,867 182.5,867 182.5,882.3 167.3,882.3 152.1,882.3 152.1,897.5 136.9,897.5 
			136.9,912.7 121.7,912.7 121.7,927.9 121.7,943.1 106.5,943.1 106.5,958.3 91.3,958.3 91.3,973.5 76.1,973.5 76.1,988.7 
			76.1,1003.9 60.8,1003.9 60.8,1019.1 45.6,1019.1 45.6,1034.4 45.6,1049.6 30.4,1049.6 30.4,1064.8 30.4,1080 45.6,1080 
			60.8,1080 60.8,1064.8 76.1,1064.8 76.1,1049.6 76.1,1034.4 91.3,1034.4 106.5,1034.4 106.5,1019.1 106.5,1003.9 121.7,1003.9 
			136.9,1003.9 136.9,988.7 136.9,973.5 152.1,973.5 152.1,988.7 167.3,988.7 167.3,973.5 167.3,958.3 182.5,958.3 182.5,973.5 
			197.8,973.5 197.8,958.3 213,958.3 213,943.1 228.2,943.1 243.4,943.1 258.6,943.1 273.8,943.1 273.8,927.9 289,927.9 289,943.1 
			304.2,943.1 304.2,927.9 319.4,927.9 334.7,927.9 349.9,927.9 349.9,912.7 365.1,912.7 365.1,897.5 		"/>
		<rect x="319.4" y="958.3" fill="#362638" width="15.2" height="15.2"/>
		<rect x="304.2" y="1064.8" fill="#362638" width="15.2" height="15.2"/>
		<polygon fill="#362638" points="304.2,1019.1 304.2,1034.4 319.4,1034.4 334.7,1034.4 334.7,1019.1 319.4,1019.1 		"/>
		<rect x="273.8" y="988.7" fill="#362638" width="15.2" height="15.2"/>
		<rect x="258.6" y="1019.2" fill="#362638" width="15.2" height="15.2"/>
		<rect x="243.4" y="1049.6" fill="#362638" width="15.2" height="15.2"/>
		<polygon fill="#362638" points="258.6,973.5 258.6,958.3 243.4,958.3 243.4,973.5 243.4,988.7 258.6,988.7 		"/>
		<rect x="228.2" y="988.7" fill="#362638" width="15.2" height="15.2"/>
		<rect x="213" y="1019.2" fill="#362638" width="15.2" height="15.2"/>
		<rect x="213" y="958.3" fill="#362638" width="15.2" height="15.2"/>
		<rect x="197.8" y="1064.8" fill="#362638" width="15.2" height="15.2"/>
		<rect x="197.8" y="973.5" fill="#362638" width="15.2" height="15.2"/>
		<rect x="182.5" y="988.7" fill="#362638" width="15.2" height="15.2"/>
		<rect x="167.3" y="1034.4" fill="#362638" width="15.2" height="15.2"/>
		<rect x="136.9" y="1064.8" fill="#362638" width="15.2" height="15.2"/>
		<rect x="136.9" y="1003.9" fill="#362638" width="15.2" height="15.2"/>
		<rect x="106.5" y="1034.4" fill="#362638" width="15.2" height="15.2"/>
	</g>
	<g>
		<polygon fill="#221623" points="973.5,1064.8 973.5,1049.6 958.3,1049.6 958.3,1034.4 958.3,1019.1 943.1,1019.1 943.1,1003.9 
			927.9,1003.9 927.9,988.7 912.7,988.7 912.7,973.5 897.5,973.5 897.5,958.3 882.3,958.3 882.3,943.1 867,943.1 867,927.9 
			851.8,927.9 851.8,912.7 836.6,912.7 836.6,897.5 821.4,897.5 806.2,897.5 806.2,912.7 821.4,912.7 821.4,927.9 836.6,927.9 
			836.6,943.1 836.6,958.3 851.8,958.3 867,958.3 867,973.5 882.3,973.5 882.3,988.7 882.3,1003.9 897.5,1003.9 897.5,1019.1 
			912.7,1019.1 912.7,1034.4 927.9,1034.4 927.9,1049.6 943.1,1049.6 943.1,1064.8 943.1,1080 958.3,1080 973.5,1080 988.7,1080 
			988.7,1064.8 		"/>
		<rect x="775.8" y="927.9" fill="#221623" width="15.2" height="15.2"/>
		<rect x="699.7" y="973.5" fill="#221623" width="15.2" height="15.2"/>
		<path fill="#221623" d="M684.5,1003.9h-15.2v15.2h-15.2v15.2h-15.2v-15.2h15.2v-15.2h-15.2v-15.2h-15.2h-15.2h-15.2v15.2h15.2
			v15.2h-15.2v15.2H578v15.2h-15.2v15.2h-15.2v-15.2h15.2v-15.2H578v-15.2h15.2v-15.2H578h-15.2h-15.2v15.2h-15.2v15.2h-15.2H502
			v-15.2h15.2h15.2v-15.2h15.2v-15.2h-15.2h-15.2v15.2H502h-15.2v-15.2H502v-15.2h15.2v-15.2H502h-15.2v-15.2h-15.2v15.2h-15.2
			v-15.2h-15.2v-15.2h-15.2v15.2h-15.2v-15.2h-15.2v-15.2h-15.2v15.2h-15.2v-15.2h-15.2v15.2h-15.2h-15.2h-15.2v15.2H289v-15.2
			h-15.2v15.2h-15.2h-15.2h-15.2H213v15.2h15.2v15.2H213v15.2h-15.2v15.2h-15.2v-15.2h15.2v-15.2h-15.2v-15.2h-15.2v15.2v15.2h-15.2
			v-15.2h-15.2v15.2v15.2h15.2v15.2h-15.2v-15.2h-15.2h-15.2v15.2v15.2h15.2v15.2h-15.2v-15.2H91.3H76.1v15.2v15.2H60.8v15.2h15.2
			h15.2h15.2h15.2h15.2v-15.2h15.2v15.2h15.2h15.2h15.2v-15.2H213v15.2h15.2h15.2h15.2h15.2H289h15.2v-15.2h15.2v15.2h15.2h15.2
			h15.2h15.2h15.2h15.2h15.2h15.2h15.2v-15.2h15.2v15.2h15.2H502h15.2v-15.2h15.2v15.2h15.2h15.2H578h15.2h15.2h15.2h15.2h15.2
			v-15.2h15.2v15.2h15.2h15.2h15.2v-15.2v-15.2v-15.2v-15.2v-15.2h-15.2v-15.2h-15.2V1003.9z M471.5,1019.1v15.2h-15.2v-15.2v-15.2
			h15.2V1019.1z M319.4,1034.4h-15.2v-15.2h15.2h15.2v15.2H319.4z M213,1034.4v-15.2h15.2v15.2H213z M182.5,1049.6h-15.2v-15.2h15.2
			V1049.6z M258.6,1019.1h15.2v15.2h-15.2V1019.1z M273.8,988.7H289v15.2h-15.2V988.7z M319.4,958.3h15.2v15.2h-15.2V958.3z
			 M410.7,973.5v15.2h-15.2v-15.2H410.7z M441.1,1003.9v15.2h-15.2v-15.2v-15.2h15.2V1003.9z M365.1,988.7v15.2h-15.2v-15.2H365.1z
			 M395.5,1034.4v-15.2h15.2v15.2H395.5z M380.3,943.1v15.2h-15.2v-15.2H380.3z M243.4,988.7v-15.2v-15.2h15.2v15.2v15.2H243.4v15.2
			h-15.2v-15.2H243.4z M243.4,1064.8v-15.2h15.2v15.2H243.4z M349.9,1064.8v-15.2h15.2v15.2H349.9z M425.9,1064.8v-15.2h15.2v15.2
			H425.9z M486.8,1064.8v-15.2H502v15.2H486.8z M593.2,1064.8v-15.2h15.2v-15.2h15.2v15.2h-15.2v15.2H593.2z M699.7,1049.6h-15.2
			v-15.2h15.2V1049.6z"/>
		<rect x="289" y="867" fill="#221623" width="15.2" height="15.2"/>
		<rect x="273.8" y="851.8" fill="#221623" width="15.2" height="15.2"/>
		<rect x="197.8" y="958.3" fill="#221623" width="15.2" height="15.2"/>
		<rect x="106.5" y="927.9" fill="#221623" width="15.2" height="15.2"/>
		<rect x="60.8" y="988.7" fill="#221623" width="15.2" height="15.2"/>
		<rect x="45.6" y="1003.9" fill="#221623" width="15.2" height="15.2"/>
		<rect x="30.4" y="1034.4" fill="#221623" width="15.2" height="15.2"/>
		<rect x="15.2" y="1064.8" fill="#221623" width="15.2" height="15.2"/>
	</g>
	<g>
		<rect x="988.7" y="1064.8" width="15.2" height="15.2"/>
		<polygon points="988.7,1034.4 973.5,1034.4 973.5,1019.1 958.3,1019.1 958.3,1034.4 958.3,1049.6 973.5,1049.6 973.5,1064.8 
			988.7,1064.8 988.7,1049.6 		"/>
		<rect x="943.1" y="1003.9" width="15.2" height="15.2"/>
		<polygon points="943.1,973.5 927.9,973.5 927.9,958.3 912.7,958.3 912.7,943.1 897.5,943.1 897.5,927.9 882.3,927.9 882.3,912.7 
			867,912.7 867,897.5 851.8,897.5 851.8,882.3 836.6,882.3 836.6,867 821.4,867 821.4,851.8 836.6,851.8 836.6,836.6 836.6,821.4 
			851.8,821.4 851.8,806.2 851.8,791 851.8,775.8 867,775.8 867,760.6 867,745.3 867,730.1 867,714.9 882.3,714.9 882.3,699.7 
			897.5,699.7 897.5,684.5 897.5,669.3 882.3,669.3 882.3,684.5 867,684.5 867,699.7 851.8,699.7 836.6,699.7 836.6,714.9 
			821.4,714.9 821.4,730.1 806.2,730.1 806.2,745.3 821.4,745.3 836.6,745.3 836.6,730.1 851.8,730.1 851.8,745.3 851.8,760.6 
			836.6,760.6 836.6,775.8 836.6,791 836.6,806.2 821.4,806.2 821.4,821.4 821.4,836.6 806.2,836.6 806.2,851.8 791,851.8 791,867 
			775.8,867 760.6,867 760.6,882.3 745.4,882.3 730.1,882.3 730.1,897.5 745.4,897.5 760.6,897.5 775.8,897.5 775.8,882.3 
			791,882.3 806.2,882.3 821.4,882.3 821.4,897.5 836.6,897.5 836.6,912.7 851.8,912.7 851.8,927.9 867,927.9 867,943.1 
			882.3,943.1 882.3,958.3 897.5,958.3 897.5,973.5 912.7,973.5 912.7,988.7 927.9,988.7 927.9,1003.9 943.1,1003.9 943.1,988.7 		
			"/>
		<rect x="897.5" y="608.5" width="15.2" height="15.2"/>
		<polygon points="867,578 867,593.2 867,608.5 882.3,608.5 897.5,608.5 897.5,593.2 882.3,593.2 882.3,578 882.3,562.8 867,562.8 
			851.8,562.8 851.8,578 		"/>
		<polygon points="806.2,638.9 821.4,638.9 836.6,638.9 851.8,638.9 867,638.9 867,623.7 851.8,623.7 836.6,623.7 821.4,623.7 
			806.2,623.7 791,623.7 775.8,623.7 760.6,623.7 745.4,623.7 730.1,623.7 714.9,623.7 699.7,623.7 684.5,623.7 669.3,623.7 
			654.1,623.7 638.9,623.7 623.7,623.7 608.5,623.7 593.2,623.7 578,623.7 562.8,623.7 547.6,623.7 547.6,638.9 562.8,638.9 
			578,638.9 593.2,638.9 608.5,638.9 623.7,638.9 638.9,638.9 654.1,638.9 669.3,638.9 684.5,638.9 699.7,638.9 714.9,638.9 
			730.1,638.9 745.4,638.9 760.6,638.9 775.8,638.9 791,638.9 		"/>
		<path d="M775.8,258.6v15.2H791V289h15.2v15.2h15.2v15.2h15.2v15.2h15.2v15.2h-15.2h-15.2v-15.2h-15.2H791h-15.2h-15.2h-15.2h-15.2
			h-15.2h-15.2h-15.2h-15.2h-15.2h-15.2v15.2h15.2h15.2h15.2h15.2h15.2h15.2h15.2h15.2h15.2H791h15.2v15.2h15.2h15.2h15.2v15.2
			h-15.2h-15.2h-15.2H791h-15.2h-15.2v15.2h-15.2h-15.2v15.2h-15.2v-15.2h-15.2v-15.2v-15.2h-15.2v15.2v15.2v15.2h-15.2v15.2h15.2
			v15.2v15.2v15.2v15.2h-15.2h-15.2V502h-15.2h-15.2h-15.2h-15.2H578h-15.2h-15.2h-15.2h-15.2v-15.2H502h-15.2v-15.2H502v-15.2
			h-15.2h-15.2v15.2h-15.2v15.2h15.2V502h15.2H502v15.2h15.2h15.2h15.2h15.2H578h15.2h15.2h15.2h15.2h15.2h15.2V502h15.2v15.2h-15.2
			v15.2h-15.2v15.2h-15.2h-15.2h-15.2h-15.2v15.2H578h-15.2V578H578h15.2h15.2v-15.2h15.2h15.2h15.2h15.2v-15.2h15.2v-15.2h15.2
			v-15.2V502h15.2h15.2h15.2h15.2h15.2H791h15.2h15.2h15.2v-15.2h15.2H867h15.2V502v15.2H867h-15.2v15.2h-15.2v15.2h-15.2h-15.2H791
			h-15.2h-15.2h-15.2v15.2h15.2h15.2H791h15.2h15.2h15.2h15.2v-15.2H867v-15.2h15.2h15.2v-15.2V502h15.2v-15.2v-15.2h-15.2v-15.2
			v-15.2v-15.2v-15.2v-15.2h-15.2v-15.2H867v-15.2h15.2v-15.2v-15.2H867v-15.2h-15.2v-15.2h-15.2V289h-15.2v-15.2h-15.2v-15.2H791
			v-15.2h-15.2h-15.2v15.2H775.8z M821.4,425.9h-15.2v15.2H791v-15.2h-15.2v-15.2H791v15.2h15.2v-15.2h15.2V425.9z M882.3,410.7
			v15.2v15.2v15.2H867v15.2h-15.2h-15.2h-15.2v15.2h-15.2H791h-15.2h-15.2h-15.2h-15.2h-15.2v-15.2v-15.2v-15.2h15.2v-15.2h15.2
			v15.2h15.2v15.2h15.2v15.2H791h15.2h15.2v-15.2h15.2v-15.2h15.2v-15.2v-15.2h-15.2v-15.2h15.2H867v15.2H882.3z"/>
		<rect x="745.4" y="228.2" width="15.2" height="15.2"/>
		<polygon points="730.1,578 730.1,593.2 745.4,593.2 745.4,608.5 760.6,608.5 775.8,608.5 775.8,593.2 760.6,593.2 760.6,578 
			745.4,578 745.4,562.8 730.1,562.8 		"/>
		<polygon points="730.1,228.2 745.4,228.2 745.4,213 730.1,213 714.9,213 714.9,228.2 		"/>
		<polygon points="699.7,897.5 684.5,897.5 669.3,897.5 654.1,897.5 638.9,897.5 623.7,897.5 623.7,882.3 608.5,882.3 593.2,882.3 
			578,882.3 562.8,882.3 562.8,867 547.6,867 547.6,851.8 532.4,851.8 517.2,851.8 502,851.8 486.8,851.8 486.8,867 502,867 
			517.2,867 532.4,867 532.4,882.3 547.6,882.3 547.6,897.5 562.8,897.5 578,897.5 593.2,897.5 608.5,897.5 608.5,912.7 
			623.7,912.7 638.9,912.7 654.1,912.7 669.3,912.7 684.5,912.7 699.7,912.7 714.9,912.7 730.1,912.7 730.1,897.5 714.9,897.5 		"/>
		<polygon points="699.7,608.5 699.7,593.2 714.9,593.2 714.9,578 714.9,562.8 699.7,562.8 699.7,578 684.5,578 684.5,593.2 
			669.3,593.2 669.3,608.5 684.5,608.5 		"/>
		<polygon points="669.3,197.7 669.3,213 684.5,213 699.7,213 714.9,213 714.9,197.7 699.7,197.7 684.5,197.7 684.5,182.5 
			669.3,182.5 654.1,182.5 654.1,197.7 		"/>
		<path d="M654.1,410.7h15.2v-15.2h-15.2h-15.2h-15.2h-15.2h-15.2v15.2H578h-15.2v15.2v15.2v15.2H578v15.2h15.2v15.2h15.2h15.2h15.2
			v-15.2h15.2v-15.2h15.2v-15.2v-15.2h-15.2V410.7z M638.9,441.1h-15.2v15.2h-15.2v-15.2h-15.2v-15.2h15.2v15.2h15.2v-15.2h15.2
			V441.1z"/>
		<polygon points="608.5,349.9 593.2,349.9 593.2,365.1 578,365.1 562.8,365.1 562.8,380.3 578,380.3 593.2,380.3 608.5,380.3 
			608.5,365.1 623.7,365.1 638.9,365.1 638.9,349.9 623.7,349.9 		"/>
		<polygon points="608.5,760.6 623.7,760.6 638.9,760.6 654.1,760.6 669.3,760.6 684.5,760.6 699.7,760.6 714.9,760.6 730.1,760.6 
			745.4,760.6 760.6,760.6 775.8,760.6 791,760.6 791,745.3 775.8,745.3 760.6,745.3 745.4,745.3 730.1,745.3 714.9,745.3 
			699.7,745.3 684.5,745.3 669.3,745.3 654.1,745.3 638.9,745.3 623.7,745.3 608.5,745.3 608.5,730.1 593.2,730.1 578,730.1 
			578,714.9 562.8,714.9 547.6,714.9 547.6,699.7 532.4,699.7 517.2,699.7 517.2,714.9 532.4,714.9 532.4,730.1 547.6,730.1 
			562.8,730.1 562.8,745.3 578,745.3 593.2,745.3 593.2,760.6 		"/>
		<polygon points="547.6,182.5 562.8,182.5 578,182.5 593.2,182.5 608.5,182.5 623.7,182.5 638.9,182.5 654.1,182.5 654.1,167.3 
			638.9,167.3 623.7,167.3 608.5,167.3 593.2,167.3 578,167.3 562.8,167.3 547.6,167.3 532.4,167.3 517.2,167.3 517.2,182.5 
			532.4,182.5 		"/>
		<rect x="532.4" y="638.9" width="15.2" height="15.2"/>
		<rect x="532.4" y="425.9" width="15.2" height="15.2"/>
		<polygon points="532.4,380.3 532.4,395.5 547.6,395.5 562.8,395.5 562.8,380.3 547.6,380.3 		"/>
		<polygon points="532.4,456.3 532.4,441.1 517.2,441.1 502,441.1 502,456.3 517.2,456.3 		"/>
		<rect x="502" y="684.5" width="15.2" height="15.2"/>
		<polygon points="502,395.5 502,410.7 502,425.9 517.2,425.9 517.2,410.7 532.4,410.7 532.4,395.5 517.2,395.5 		"/>
		<polygon points="471.5,836.6 471.5,821.4 456.3,821.4 441.1,821.4 441.1,836.6 456.3,836.6 456.3,851.8 471.5,851.8 486.8,851.8 
			486.8,836.6 		"/>
		<rect x="425.9" y="806.2" width="15.2" height="15.2"/>
		<polygon points="410.7,791 410.7,775.8 395.5,775.8 395.5,760.6 380.3,760.6 365.1,760.6 365.1,745.3 349.9,745.3 349.9,730.1 
			334.7,730.1 334.7,714.9 334.7,699.7 334.7,684.5 319.4,684.5 319.4,669.3 319.4,654.1 319.4,638.9 319.4,623.7 319.4,608.5 
			334.7,608.5 334.7,593.2 334.7,578 334.7,562.8 319.4,562.8 319.4,578 319.4,593.2 304.2,593.2 304.2,608.5 304.2,623.7 
			304.2,638.9 304.2,654.1 289,654.1 289,638.9 289,623.7 273.8,623.7 273.8,608.5 273.8,593.2 273.8,578 273.8,562.8 273.8,547.6 
			273.8,532.4 289,532.4 289,517.2 304.2,517.2 304.2,502 319.4,502 319.4,486.8 334.7,486.8 334.7,471.5 334.7,456.3 349.9,456.3 
			365.1,456.3 380.3,456.3 395.5,456.3 395.5,441.1 380.3,441.1 365.1,441.1 349.9,441.1 334.7,441.1 334.7,425.9 334.7,410.7 
			334.7,395.5 334.7,380.3 334.7,365.1 349.9,365.1 349.9,349.9 349.9,334.6 349.9,319.4 334.7,319.4 334.7,334.6 334.7,349.9 
			319.4,349.9 319.4,365.1 319.4,380.3 319.4,395.5 319.4,410.7 319.4,425.9 319.4,441.1 319.4,456.3 319.4,471.5 304.2,471.5 
			304.2,486.8 289,486.8 289,502 273.8,502 273.8,517.2 258.6,517.2 258.6,532.4 258.6,547.6 258.6,562.8 258.6,578 258.6,593.2 
			258.6,608.5 258.6,623.7 258.6,638.9 273.8,638.9 273.8,654.1 273.8,669.3 289,669.3 289,684.5 304.2,684.5 304.2,699.7 
			304.2,714.9 319.4,714.9 319.4,730.1 319.4,745.3 334.7,745.3 334.7,760.6 334.7,775.8 349.9,775.8 365.1,775.8 380.3,775.8 
			380.3,791 395.5,791 395.5,806.2 410.7,806.2 425.9,806.2 425.9,791 		"/>
		<polygon points="380.3,289 395.5,289 395.5,273.8 410.7,273.8 410.7,258.6 425.9,258.6 425.9,243.4 441.1,243.4 441.1,228.2 
			456.3,228.2 456.3,213 471.5,213 486.8,213 486.8,197.7 502,197.7 517.2,197.7 517.2,182.5 502,182.5 486.8,182.5 471.5,182.5 
			471.5,197.7 456.3,197.7 441.1,197.7 441.1,213 425.9,213 425.9,228.2 410.7,228.2 410.7,243.4 395.5,243.4 395.5,258.6 
			380.3,258.6 380.3,273.8 365.1,273.8 365.1,289 365.1,304.2 380.3,304.2 		"/>
		<rect x="349.9" y="304.2" width="15.2" height="15.2"/>
		<rect x="304.2" y="532.4" width="15.2" height="15.2"/>
		<polygon points="289,760.6 289,775.8 304.2,775.8 319.4,775.8 319.4,760.6 304.2,760.6 		"/>
		<rect x="289" y="547.6" width="15.2" height="15.2"/>
		<rect x="273.8" y="775.8" width="15.2" height="15.2"/>
		<polygon points="243.4,791 243.4,806.2 228.2,806.2 228.2,821.4 243.4,821.4 258.6,821.4 258.6,806.2 273.8,806.2 273.8,791 
			258.6,791 		"/>
		<rect x="213" y="821.4" width="15.2" height="15.2"/>
		<polygon points="182.5,836.6 182.5,851.8 197.8,851.8 213,851.8 213,836.6 197.8,836.6 		"/>
		<polygon points="152.1,867 136.9,867 136.9,882.3 121.7,882.3 121.7,897.5 106.5,897.5 106.5,912.7 91.3,912.7 91.3,927.9 
			91.3,943.1 76.1,943.1 76.1,958.3 60.8,958.3 60.8,973.5 60.8,988.7 76.1,988.7 76.1,973.5 91.3,973.5 91.3,958.3 106.5,958.3 
			106.5,943.1 106.5,927.9 121.7,927.9 121.7,912.7 136.9,912.7 136.9,897.5 152.1,897.5 152.1,882.3 167.3,882.3 182.5,882.3 
			182.5,867 167.3,867 		"/>
		<rect x="45.6" y="988.7" width="15.2" height="15.2"/>
		<polygon points="30.4,1019.1 30.4,1034.4 45.6,1034.4 45.6,1019.1 45.6,1003.9 30.4,1003.9 		"/>
		<polygon points="15.2,1049.6 15.2,1064.8 30.4,1064.8 30.4,1049.6 30.4,1034.4 15.2,1034.4 		"/>
		<rect y="1064.8" width="15.2" height="15.2"/>
	</g>
	<g>
	</g>
	<g>
	</g>
</g>
</svg>
