<?xml version="1.0" encoding="utf-8"?>
<!-- Generator: Adobe Illustrator 18.1.0, SVG Export Plug-In . SVG Version: 6.00 Build 0)  -->
<svg version="1.1" id="Layer_1" xmlns="http://www.w3.org/2000/svg" xmlns:xlink="http://www.w3.org/1999/xlink" x="0px" y="0px"
	 viewBox="0 0 1080 1080" enable-background="new 0 0 1080 1080" xml:space="preserve">
<g>
	<path fill="#4B4C4B" d="M988.7,1064.8v-15.2v-15.2h-15.2v-15.2h-15.2V1004h-15.2v-15.2v-15.2h-15.2h-15.2v-15.2v-15.2h-15.2V928
		h-15.2H867v-15.2v-15.2h-15.2v-15.2h-15.2V867h-15.2h-15.2v-15.2H791h-15.2v-15.2h-15.2v-15.2h15.2v-15.2H791V791h15.2v-15.2h15.2
		v-15.2v-15.2h15.2h15.2v-15.2H867V715h15.2v-15.2h15.2v-15.2v-15.2h-15.2v-15.2h15.2V639h15.2v-15.2v-15.2h-15.2v-15.2h-15.2V578
		v-15.2H867h-15.2v-15.2H867v-15.2h15.2h15.2v-15.2V502h15.2v-15.2v-15.2h-15.2v-15.2v-15.2V426v-15.2v-15.2h-15.2v-15.2H867h-15.2
		v-15.2h-15.2V350h-15.2v-15.2v-15.2v-15.2V289h-15.2v-15.2v-15.2v-15.2H791v-15.2h-15.2V213v-15.2v-15.2h-15.2v-15.2h-15.2v-15.2
		h-15.2V137H715h-15.2h-15.2v-15.2h-15.2h-15.2H639h-15.2h-15.2v-15.2h-15.2H578V91.3h-15.2h-15.2h-15.2h-15.2H502h-15.2h-15.2
		h-15.2v15.2h-15.2H426h-15.2v15.2h-15.2h-15.2h-15.2v15.2H350h-15.2v15.2h-15.2h-15.2v15.2H289h-15.2v15.2h-15.2v15.2h-15.2V213
		h-15.2v15.2H213v15.2v15.2v15.2V289v15.2h-15.2v15.2v15.2v15.2h-15.2V365v15.2v15.2v15.2v15.2V441v15.2v15.2v15.2V502v15.2v15.2
		v15.2v15.2V578v15.2v15.2v15.2v15.2V654h15.2v15.2H213v15.2h15.2v15.2h15.2h15.2h15.2H289h15.2v15.2h15.2V730v15.2h15.2v15.2h-15.2
		h-15.2H289v15.2h-15.2V791h-15.2h-15.2v15.2h-15.2v15.2H213v15.2h-15.2h-15.2v15.2h-15.2V867h-15.2H137v15.2h-15.2v15.2h-15.2v15.2
		H91.3v15.2V943H76.1v15.2H60.8v15.2v15.2H45.6v15.2H30.4v15.2v15.2H15.2v15.2v15.2H0v15.2h15.2h15.2h15.2h15.2H76h15.2h15.2h15.2
		h15.2H152h15.2h15.2h15.2H213h15.2h15.2h15.2h15.2H289h15.2h15.2h15.2h15.2H365h15.2h15.2h15.2h15.2H441h15.2h15.2h15.2H502h15.2
		h15.2h15.2h15.2H578h15.2h15.2h15.2h15.2H654h15.2h15.2h15.2h15.2H730h15.2h15.2h15.2H791h15.2h15.2h15.2h15.2H867h15.2h15.2h15.2
		h15.2H943h15.2h15.2h15.2h15.2v-15.2h-15.1V1064.8z M669.3,988.7L669.3,988.7h15.2l0,0H669.3z M471.5,228.2L471.5,228.2v15.2l0,0
		V228.2z M380.3,289v15.2l0,0V289v-15.2l0,0V289z M289,349.9L289,349.9v15.2v15.2l0,0v-15.2V349.9z M425.9,228.2L425.9,228.2V213
		l0,0V228.2z M334.6,289L334.6,289v-15.2l0,0V289z M441.1,197.7V213l0,0V197.7L441.1,197.7z M243.4,365.1v15.2v15.2l0,0v-15.2V365.1
		L243.4,365.1z M228.2,410.7v15.2l0,0V410.7v-15.2l0,0V410.7z M578,988.7L578,988.7h15.2l0,0H578z M745.4,182.5v15.2l0,0V182.5
		L745.4,182.5z M228.2,654.1L228.2,654.1v15.2l0,0V654.1z M289,684.5L289,684.5v-15.2l0,0V684.5z M578,1049.6L578,1049.6h15.2l0,0
		H578z"/>
	<path fill="#AC170F" d="M297.1,791.9c17.3-12.2,36.3-24.9,57.5-24.2c29.5,1,51,26.9,74.4,44.9c51,39.1,119.8,43.2,184.1,45.7
		c27.8,1.1,55.8,2.1,83.4-1c20.7-2.3,41.6-7.1,62.3-4.1c30,4.2,55.3,23.9,78.1,43.9c58.1,51.3,109.6,110,152.9,174.4
		c-322.7-10.7-645.7-10.5-968.4,0.7c12.7-29.6,32.4-55.5,51.8-81.2c25.1-33.2,50.5-66.5,81.3-94.5c20.5-18.6,43.3-34.6,65.9-50.6
		C246,827.9,271.5,809.9,297.1,791.9z"/>
	<path fill="#FC8F7A" d="M734.2,498.2c8.8,6.8,20.7,7.5,31.8,7.9c11.5,0.4,23,0.9,34.5,1.3c15.3,0.6,30.8,1.2,45.9-1.3
		c13.6-2.2,28.4-8.2,33.7-20.9c0.5-1.3,0.9-2.7,0.5-3.9c-0.6-1.6-2.4-2.5-4-3.1c-11.1-4-23.2-3.5-35-2.9
		c-22.6,1.1-45.2,2.1-67.7,3.2c-9.8,0.5-19.7,0.9-29.4-0.2c-4.9-0.6-10.6-1.3-14.2,2.2C725.3,485.2,728.8,494,734.2,498.2z"/>
	<path fill="#FC8F7A" d="M651.3,506.2c8.3-3.3,12.3-12.4,15.6-20.7c0.7-1.9,1.5-4,0.6-5.8c-1.2-2.5-4.5-2.9-7.2-2.9
		c-59.5-1.1-118.9-1.6-178.4-1.4c1.6,11.9,14,18.7,25,23.7c6.3,2.8,12.6,5.7,19.2,7.2c8,1.9,16.4,1.9,24.7,1.8
		c29.4-0.1,58.9-0.2,88.3-0.3C643.2,507.8,647.4,507.8,651.3,506.2z"/>
	<polygon fill="#191716" points="745.4,273.8 730.1,273.8 730.1,258.6 745.4,258.6 745.4,243.4 730.1,243.4 730.1,228.2 
		714.9,228.2 699.7,228.2 684.5,228.2 669.3,228.2 669.3,243.4 654.1,243.4 638.9,243.4 623.7,243.4 623.7,258.6 623.7,273.8 
		638.9,273.8 654.1,273.8 669.3,273.8 669.3,289 684.5,289 699.7,289 714.9,289 714.9,304.2 730.1,304.2 745.4,304.2 760.6,304.2 
		760.6,289 760.6,273.8 	"/>
	<polygon fill="#326335" points="699.7,213 684.5,213 669.3,213 654.1,213 654.1,197.7 638.9,197.7 623.7,197.7 608.5,197.7 
		608.5,213 593.2,213 593.2,228.2 608.5,228.2 623.7,228.2 623.7,243.4 638.9,243.4 654.1,243.4 669.3,243.4 669.3,228.2 
		684.5,228.2 699.7,228.2 714.9,228.2 714.9,213 	"/>
	<g>
		<rect x="684.5" y="699.7" fill="#EF8F75" width="15.2" height="15.2"/>
		<rect x="654.1" y="699.7" fill="#EF8F75" width="15.2" height="15.2"/>
		<polygon fill="#EF8F75" points="608.5,699.7 593.2,699.7 578,699.7 562.8,699.7 562.8,714.9 578,714.9 593.2,714.9 608.5,714.9 
			623.7,714.9 638.9,714.9 638.9,699.7 623.7,699.7 		"/>
	</g>
	<polygon fill="#FFED0D" points="699.7,182.5 684.5,182.5 669.3,182.5 669.3,167.3 654.1,167.3 638.9,167.3 623.7,167.3 
		608.5,167.3 593.2,167.3 578,167.3 578,182.5 562.8,182.5 562.8,197.7 578,197.7 593.2,197.7 608.5,197.7 623.7,197.7 638.9,197.7 
		654.1,197.7 669.3,197.7 684.5,197.7 699.7,197.7 714.9,197.7 714.9,182.5 	"/>
	<g>
		<rect x="669.3" y="1064.8" fill="#ED3737" width="15.2" height="15.2"/>
		<polygon fill="#ED3737" points="669.3,958.3 669.3,943.1 654.1,943.1 638.9,943.1 638.9,958.3 654.1,958.3 654.1,973.5 
			669.3,973.5 		"/>
		<polygon fill="#ED3737" points="623.7,973.5 623.7,958.3 608.5,958.3 608.5,943.1 593.2,943.1 593.2,927.9 578,927.9 578,912.7 
			562.8,912.7 562.8,927.9 562.8,943.1 578,943.1 578,958.3 578,973.5 578,988.7 593.2,988.7 593.2,1003.9 593.2,1019.2 
			593.2,1034.4 608.5,1034.4 608.5,1049.6 608.5,1064.8 608.5,1080 623.7,1080 638.9,1080 638.9,1064.8 638.9,1049.6 638.9,1034.4 
			654.1,1034.4 654.1,1019.2 654.1,1003.9 654.1,988.7 654.1,973.5 638.9,973.5 		"/>
		<polygon fill="#ED3737" points="562.8,1049.6 562.8,1034.4 562.8,1019.2 547.6,1019.2 547.6,1034.4 547.6,1049.6 547.6,1064.8 
			547.6,1080 562.8,1080 578,1080 578,1064.8 562.8,1064.8 		"/>
	</g>
	<g>
		<polygon fill="#C62828" points="684.5,1019.2 684.5,1034.4 684.5,1049.6 684.5,1064.8 684.5,1080 699.7,1080 699.7,1064.8 
			699.7,1049.6 699.7,1034.4 699.7,1019.2 699.7,1003.9 684.5,1003.9 		"/>
		<rect x="684.5" y="912.7" fill="#C62828" width="15.2" height="15.2"/>
		<polygon fill="#C62828" points="669.3,943.1 669.3,958.3 669.3,973.5 654.1,973.5 654.1,988.7 654.1,1003.9 654.1,1019.2 
			654.1,1034.4 638.9,1034.4 638.9,1049.6 638.9,1064.8 638.9,1080 654.1,1080 654.1,1064.8 654.1,1049.6 669.3,1049.6 
			669.3,1034.4 669.3,1019.2 669.3,1003.9 669.3,988.7 684.5,988.7 684.5,973.5 684.5,958.3 684.5,943.1 684.5,927.9 669.3,927.9 		
			"/>
		<polygon fill="#C62828" points="578,1034.4 578,1019.2 578,1003.9 562.8,1003.9 562.8,988.7 562.8,973.5 562.8,958.3 562.8,943.1 
			547.6,943.1 547.6,958.3 547.6,973.5 547.6,988.7 547.6,1003.9 547.6,1019.2 562.8,1019.2 562.8,1034.4 562.8,1049.6 
			562.8,1064.8 578,1064.8 578,1080 593.2,1080 593.2,1064.8 593.2,1049.6 578,1049.6 		"/>
	</g>
	<g>
		<polygon fill="#FFFFFF" points="851.8,486.8 836.6,486.8 821.4,486.8 806.2,486.8 791,486.8 791,502 806.2,502 821.4,502 
			836.6,502 851.8,502 867.1,502 867.1,486.8 		"/>
		<polygon fill="#FFFFFF" points="623.7,486.8 608.5,486.8 608.5,502 623.7,502 638.9,502 654.1,502 654.1,486.8 638.9,486.8 		"/>
		<polygon fill="#FFFFFF" points="532.4,486.8 532.4,502 547.6,502 562.8,502 562.8,486.8 547.6,486.8 		"/>
	</g>
	<g>
		<polygon fill="#34A534" points="867.1,502 851.8,502 836.6,502 836.6,517.2 821.4,517.2 806.2,517.2 791,517.2 775.8,517.2 
			760.6,517.2 745.4,517.2 730.1,517.2 730.1,532.4 745.4,532.4 760.6,532.4 760.6,547.6 775.8,547.6 791,547.6 806.2,547.6 
			821.4,547.6 836.6,547.6 836.6,532.4 851.8,532.4 851.8,517.2 867.1,517.2 882.3,517.2 882.3,502 		"/>
		<polygon fill="#34A534" points="745.4,471.5 760.6,471.5 775.8,471.5 791,471.5 806.2,471.5 821.4,471.5 836.6,471.5 851.8,471.5 
			867.1,471.5 867.1,456.3 867.1,441.1 851.8,441.1 851.8,425.9 836.6,425.9 821.4,425.9 806.2,425.9 791,425.9 775.8,425.9 
			760.6,425.9 745.4,425.9 730.1,425.9 714.9,425.9 714.9,441.1 714.9,456.3 699.7,456.3 699.7,471.5 714.9,471.5 730.1,471.5 		"/>
		<polygon fill="#34A534" points="669.3,425.9 654.1,425.9 638.9,425.9 623.7,425.9 608.5,425.9 593.2,425.9 578,425.9 562.8,425.9 
			547.6,425.9 532.4,425.9 517.2,425.9 517.2,441.1 502,441.1 502,456.3 517.2,456.3 517.2,471.5 532.4,471.5 547.6,471.5 
			562.8,471.5 578,471.5 593.2,471.5 608.5,471.5 623.7,471.5 638.9,471.5 654.1,471.5 669.3,471.5 684.5,471.5 684.5,456.3 
			684.5,441.1 669.3,441.1 		"/>
		<polygon fill="#34A534" points="638.9,517.2 623.7,517.2 608.5,517.2 593.2,517.2 578,517.2 562.8,517.2 547.6,517.2 532.4,517.2 
			517.2,517.2 517.2,502 502,502 502,517.2 502,532.4 517.2,532.4 532.4,532.4 532.4,547.6 547.6,547.6 562.8,547.6 578,547.6 
			593.2,547.6 608.5,547.6 623.7,547.6 638.9,547.6 654.1,547.6 654.1,532.4 669.3,532.4 669.3,517.2 654.1,517.2 		"/>
	</g>
	<polygon fill="#D83935" points="623.7,152.1 623.7,136.9 608.5,136.9 593.2,136.9 578,136.9 578,152.1 562.8,152.1 547.6,152.1 
		532.4,152.1 517.2,152.1 502,152.1 502,167.3 517.2,167.3 532.4,167.3 547.6,167.3 562.8,167.3 578,167.3 593.2,167.3 608.5,167.3 
		623.7,167.3 638.9,167.3 638.9,152.1 	"/>
	<g>
		<polygon fill="#FC8F7A" points="867.1,471.5 851.8,471.5 836.6,471.5 821.4,471.5 806.2,471.5 806.2,486.8 821.4,486.8 
			836.6,486.8 851.8,486.8 867.1,486.8 882.3,486.8 882.3,471.5 		"/>
		<polygon fill="#FC8F7A" points="714.9,471.5 714.9,486.8 730.1,486.8 730.1,502 745.4,502 745.4,486.8 745.4,471.5 730.1,471.5 		
			"/>
		<polygon fill="#FC8F7A" points="638.9,471.5 623.7,471.5 608.5,471.5 608.5,486.8 623.7,486.8 638.9,486.8 654.1,486.8 
			669.3,486.8 669.3,471.5 654.1,471.5 		"/>
		<polygon fill="#FC8F7A" points="517.2,471.5 502,471.5 486.8,471.5 486.8,486.8 502,486.8 502,502 517.2,502 532.4,502 
			532.4,486.8 547.6,486.8 547.6,471.5 532.4,471.5 		"/>
	</g>
	<g>
		<rect x="562.8" y="106.5" fill="#2D7F2F" width="15.2" height="15.2"/>
		<polygon fill="#2D7F2F" points="547.6,106.5 532.4,106.5 517.2,106.5 502,106.5 486.8,106.5 471.6,106.5 471.6,121.7 486.8,121.7 
			502,121.7 502,136.9 517.2,136.9 532.4,136.9 547.6,136.9 562.8,136.9 562.8,121.7 547.6,121.7 		"/>
	</g>
	<polygon fill="#85391D" points="851.8,654.1 851.8,669.3 836.6,669.3 821.4,669.3 806.2,669.3 806.2,684.5 791,684.5 775.8,684.5 
		760.6,684.5 745.4,684.5 730.1,684.5 714.9,684.5 699.7,684.5 684.5,684.5 669.3,684.5 654.1,684.5 638.9,684.5 623.7,684.5 
		608.5,684.5 593.2,684.5 578,684.5 562.8,684.5 547.6,684.5 532.4,684.5 517.2,684.5 517.2,669.3 502,669.3 486.8,669.3 
		486.8,654.1 471.6,654.1 456.3,654.1 456.3,669.3 471.6,669.3 471.6,684.5 486.8,684.5 502,684.5 502,699.7 517.2,699.7 
		532.4,699.7 547.6,699.7 562.8,699.7 578,699.7 593.2,699.7 608.5,699.7 623.7,699.7 638.9,699.7 654.1,699.7 669.3,699.7 
		684.5,699.7 699.7,699.7 714.9,699.7 730.1,699.7 745.4,699.7 760.6,699.7 775.8,699.7 791,699.7 806.2,699.7 821.4,699.7 
		821.4,684.5 836.6,684.5 851.8,684.5 867.1,684.5 867.1,669.3 867.1,654.1 	"/>
	<g>
		<polygon fill="#B25B36" points="882.3,608.5 867.1,608.5 851.8,608.5 851.8,623.7 836.6,623.7 821.4,623.7 821.4,638.9 
			806.2,638.9 806.2,654.1 791,654.1 775.8,654.1 760.6,654.1 745.4,654.1 730.1,654.1 714.9,654.1 699.7,654.1 684.5,654.1 
			669.3,654.1 654.1,654.1 638.9,654.1 623.7,654.1 608.5,654.1 593.2,654.1 578,654.1 562.8,654.1 547.6,654.1 532.4,654.1 
			517.2,654.1 502,654.1 502,638.9 486.8,638.9 471.6,638.9 471.6,623.7 456.3,623.7 441.1,623.7 425.9,623.7 425.9,638.9 
			425.9,654.1 425.9,669.3 441.1,669.3 456.3,669.3 456.3,654.1 471.6,654.1 486.8,654.1 486.8,669.3 502,669.3 517.2,669.3 
			517.2,684.5 532.4,684.5 547.6,684.5 562.8,684.5 578,684.5 593.2,684.5 608.5,684.5 623.7,684.5 638.9,684.5 654.1,684.5 
			669.3,684.5 684.5,684.5 699.7,684.5 714.9,684.5 730.1,684.5 745.4,684.5 760.6,684.5 775.8,684.5 791,684.5 806.2,684.5 
			806.2,669.3 821.4,669.3 836.6,669.3 851.8,669.3 851.8,654.1 867.1,654.1 882.3,654.1 882.3,638.9 897.5,638.9 897.5,623.7 
			897.5,608.5 		"/>
		<polygon fill="#B25B36" points="456.3,699.7 471.6,699.7 486.8,699.7 486.8,714.9 502,714.9 517.2,714.9 532.4,714.9 532.4,730.1 
			547.6,730.1 562.8,730.1 578,730.1 593.2,730.1 608.5,730.1 623.7,730.1 638.9,730.1 654.1,730.1 669.3,730.1 684.5,730.1 
			699.7,730.1 714.9,730.1 730.1,730.1 745.4,730.1 760.6,730.1 775.8,730.1 791,730.1 806.2,730.1 821.4,730.1 836.6,730.1 
			836.6,714.9 851.8,714.9 867.1,714.9 867.1,699.7 882.3,699.7 882.3,684.5 882.3,669.3 867.1,669.3 867.1,684.5 851.8,684.5 
			836.6,684.5 821.4,684.5 821.4,699.7 806.2,699.7 791,699.7 775.8,699.7 760.6,699.7 745.4,699.7 730.1,699.7 714.9,699.7 
			699.7,699.7 699.7,714.9 684.5,714.9 684.5,699.7 669.3,699.7 669.3,714.9 654.1,714.9 654.1,699.7 638.9,699.7 638.9,714.9 
			623.7,714.9 608.5,714.9 593.2,714.9 578,714.9 562.8,714.9 562.8,699.7 547.6,699.7 532.4,699.7 517.2,699.7 502,699.7 
			502,684.5 486.8,684.5 471.6,684.5 471.6,669.3 456.3,669.3 456.3,684.5 		"/>
	</g>
	<g>
		<rect x="867.1" y="578" fill="#1E1817" width="15.2" height="15.2"/>
		<rect x="836.6" y="578" fill="#1E1817" width="15.2" height="15.2"/>
		<polygon fill="#1E1817" points="821.4,608.5 821.4,623.7 836.6,623.7 851.8,623.7 851.8,608.5 836.6,608.5 		"/>
		<rect x="806.2" y="593.2" fill="#1E1817" width="15.2" height="15.2"/>
		<polygon fill="#1E1817" points="791,623.7 775.8,623.7 775.8,638.9 791,638.9 791,654.1 806.2,654.1 806.2,638.9 821.4,638.9 
			821.4,623.7 806.2,623.7 		"/>
		<polygon fill="#1E1817" points="760.6,608.5 745.4,608.5 730.1,608.5 730.1,623.7 745.4,623.7 760.6,623.7 775.8,623.7 
			775.8,608.5 		"/>
		<polygon fill="#1E1817" points="714.9,806.2 714.9,821.4 714.9,836.6 730.1,836.6 745.4,836.6 745.4,821.4 745.4,806.2 
			730.1,806.2 		"/>
		<rect x="699.7" y="836.6" fill="#1E1817" width="15.2" height="15.2"/>
		<polygon fill="#1E1817" points="714.9,608.5 699.7,608.5 684.5,608.5 684.5,623.7 669.3,623.7 669.3,638.9 654.1,638.9 
			654.1,654.1 669.3,654.1 684.5,654.1 699.7,654.1 714.9,654.1 730.1,654.1 745.4,654.1 760.6,654.1 760.6,638.9 745.4,638.9 
			730.1,638.9 730.1,623.7 714.9,623.7 		"/>
		<polygon fill="#1E1817" points="699.7,806.2 684.5,806.2 684.5,791 684.5,775.8 699.7,775.8 699.7,760.6 714.9,760.6 714.9,745.4 
			699.7,745.4 684.5,745.4 669.3,745.4 654.1,745.4 638.9,745.4 623.7,745.4 623.7,760.6 638.9,760.6 638.9,775.8 654.1,775.8 
			654.1,791 654.1,806.2 638.9,806.2 638.9,821.4 638.9,836.6 638.9,851.8 654.1,851.8 654.1,836.6 654.1,821.4 669.3,821.4 
			684.5,821.4 684.5,836.6 699.7,836.6 699.7,821.4 		"/>
		<rect x="654.1" y="851.8" fill="#1E1817" width="15.2" height="15.2"/>
		<polygon fill="#1E1817" points="654.1,608.5 638.9,608.5 623.7,608.5 623.7,623.7 608.5,623.7 608.5,638.9 593.2,638.9 
			593.2,654.1 608.5,654.1 623.7,654.1 623.7,638.9 638.9,638.9 638.9,623.7 654.1,623.7 669.3,623.7 669.3,608.5 		"/>
		<rect x="623.7" y="851.8" fill="#1E1817" width="15.2" height="15.2"/>
		<polygon fill="#1E1817" points="623.7,821.4 608.5,821.4 593.2,821.4 593.2,836.6 593.2,851.8 608.5,851.8 608.5,836.6 
			623.7,836.6 		"/>
		<polygon fill="#1E1817" points="593.2,608.5 578,608.5 578,623.7 593.2,623.7 608.5,623.7 608.5,608.5 		"/>
		<rect x="562.8" y="623.7" fill="#1E1817" width="15.2" height="15.2"/>
		<polygon fill="#1E1817" points="547.6,821.4 532.4,821.4 532.4,836.6 547.6,836.6 562.8,836.6 578,836.6 578,821.4 562.8,821.4 		
			"/>
		<rect x="547.6" y="638.9" fill="#1E1817" width="15.2" height="15.2"/>
		<polygon fill="#1E1817" points="547.6,608.5 532.4,608.5 517.2,608.5 517.2,623.7 517.2,638.9 532.4,638.9 532.4,623.7 
			547.6,623.7 562.8,623.7 562.8,608.5 		"/>
		<polygon fill="#1E1817" points="517.2,806.2 502,806.2 502,791 486.8,791 486.8,775.8 471.6,775.8 471.6,760.6 471.6,745.4 
			471.6,730.1 456.3,730.1 456.3,714.9 456.3,699.7 456.3,684.5 456.3,669.3 441.1,669.3 425.9,669.3 425.9,684.5 441.1,684.5 
			441.1,699.7 425.9,699.7 425.9,714.9 425.9,730.1 425.9,745.4 441.1,745.4 441.1,760.6 441.1,775.8 456.3,775.8 456.3,791 
			441.1,791 441.1,806.2 456.3,806.2 456.3,821.4 471.6,821.4 486.8,821.4 486.8,836.6 502,836.6 502,821.4 517.2,821.4 
			532.4,821.4 532.4,806.2 		"/>
		<polygon fill="#1E1817" points="502,623.7 502,608.5 486.8,608.5 471.6,608.5 471.6,623.7 486.8,623.7 		"/>
		<polygon fill="#1E1817" points="456.3,608.5 456.3,593.2 441.1,593.2 425.9,593.2 425.9,608.5 441.1,608.5 		"/>
	</g>
	<g>
		<polygon fill="#298D2D" points="821.4,578 806.2,578 791,578 775.8,578 760.6,578 760.6,593.2 775.8,593.2 791,593.2 791,608.5 
			806.2,608.5 806.2,593.2 821.4,593.2 836.6,593.2 836.6,578 		"/>
		<polygon fill="#298D2D" points="730.1,578 730.1,562.8 714.9,562.8 714.9,578 714.9,593.2 699.7,593.2 699.7,608.5 714.9,608.5 
			730.1,608.5 745.4,608.5 745.4,593.2 730.1,593.2 		"/>
		<polygon fill="#298D2D" points="714.9,532.4 730.1,532.4 730.1,517.2 714.9,517.2 699.7,517.2 699.7,532.4 684.5,532.4 
			684.5,547.6 669.3,547.6 669.3,562.8 654.1,562.8 638.9,562.8 623.7,562.8 608.5,562.8 608.5,578 593.2,578 578,578 578,593.2 
			578,608.5 593.2,608.5 608.5,608.5 608.5,593.2 623.7,593.2 623.7,608.5 638.9,608.5 654.1,608.5 654.1,593.2 669.3,593.2 
			684.5,593.2 684.5,578 699.7,578 699.7,562.8 714.9,562.8 714.9,547.6 		"/>
		<rect x="502" y="456.3" fill="#298D2D" width="15.2" height="15.2"/>
		<polygon fill="#298D2D" points="425.9,562.8 410.7,562.8 410.7,578 395.5,578 395.5,593.2 395.5,608.5 380.3,608.5 380.3,623.7 
			380.3,638.9 380.3,654.1 395.5,654.1 410.7,654.1 410.7,638.9 410.7,623.7 410.7,608.5 410.7,593.2 425.9,593.2 441.1,593.2 
			456.3,593.2 456.3,578 456.3,562.8 441.1,562.8 		"/>
	</g>
	<g>
		<polygon fill="#217022" points="791,365.1 775.8,365.1 775.8,349.9 760.6,349.9 745.4,349.9 730.1,349.9 714.9,349.9 699.7,349.9 
			684.5,349.9 669.3,349.9 654.1,349.9 638.9,349.9 623.7,349.9 608.5,349.9 593.2,349.9 578,349.9 562.8,349.9 547.6,349.9 
			547.6,365.1 562.8,365.1 578,365.1 593.2,365.1 593.2,380.3 608.5,380.3 623.7,380.3 623.7,395.5 638.9,395.5 654.1,395.5 
			654.1,410.7 669.3,410.7 684.5,410.7 699.7,410.7 714.9,410.7 730.1,410.7 730.1,395.5 745.4,395.5 760.6,395.5 760.6,380.3 
			775.8,380.3 791,380.3 806.2,380.3 806.2,365.1 		"/>
		<polygon fill="#217022" points="745.4,760.6 730.1,760.6 714.9,760.6 699.7,760.6 699.7,775.8 684.5,775.8 684.5,791 684.5,806.2 
			699.7,806.2 714.9,806.2 730.1,806.2 745.4,806.2 760.6,806.2 760.6,791 760.6,775.8 745.4,775.8 		"/>
		<polygon fill="#217022" points="714.9,456.3 714.9,441.1 714.9,425.9 699.7,425.9 699.7,441.1 684.5,441.1 684.5,456.3 
			699.7,456.3 		"/>
		<rect x="669.3" y="471.5" fill="#217022" width="15.2" height="15.2"/>
		<rect x="608.5" y="593.2" fill="#217022" width="15.2" height="15.2"/>
		<polygon fill="#217022" points="608.5,760.6 593.2,760.6 578,760.6 562.8,760.6 562.8,745.4 547.6,745.4 532.4,745.4 517.2,745.4 
			517.2,730.1 502,730.1 502,714.9 486.8,714.9 486.8,730.1 471.6,730.1 471.6,745.4 471.6,760.6 471.6,775.8 486.8,775.8 
			486.8,791 502,791 502,806.2 517.2,806.2 532.4,806.2 532.4,821.4 547.6,821.4 562.8,821.4 578,821.4 578,806.2 593.2,806.2 
			608.5,806.2 623.7,806.2 623.7,791 623.7,775.8 608.5,775.8 		"/>
		<polygon fill="#217022" points="471.6,578 486.8,578 486.8,593.2 486.8,608.5 502,608.5 517.2,608.5 532.4,608.5 547.6,608.5 
			562.8,608.5 578,608.5 578,593.2 578,578 562.8,578 547.6,578 532.4,578 517.2,578 502,578 502,562.8 486.8,562.8 486.8,547.6 
			471.6,547.6 471.6,562.8 		"/>
		<rect x="456.3" y="714.9" fill="#217022" width="15.2" height="15.2"/>
		<polygon fill="#217022" points="471.6,547.6 471.6,532.4 471.6,517.2 456.3,517.2 441.1,517.2 425.9,517.2 410.7,517.2 
			410.7,532.4 395.5,532.4 395.5,547.6 410.7,547.6 425.9,547.6 441.1,547.6 456.3,547.6 		"/>
		<polygon fill="#217022" points="410.7,745.4 395.5,745.4 395.5,760.6 410.7,760.6 425.9,760.6 441.1,760.6 441.1,745.4 
			425.9,745.4 		"/>
		<rect x="410.7" y="699.7" fill="#217022" width="15.2" height="15.2"/>
		<polygon fill="#217022" points="425.9,502 441.1,502 441.1,486.8 441.1,471.5 456.3,471.5 471.6,471.5 471.6,456.3 471.6,441.1 
			486.8,441.1 486.8,425.9 502,425.9 502,410.7 502,395.5 486.8,395.5 486.8,410.7 471.6,410.7 471.6,395.5 456.3,395.5 
			456.3,410.7 441.1,410.7 441.1,425.9 425.9,425.9 425.9,441.1 425.9,456.3 410.7,456.3 410.7,471.5 395.5,471.5 395.5,486.8 
			395.5,502 395.5,517.2 410.7,517.2 410.7,502 		"/>
		<rect x="395.5" y="714.9" fill="#217022" width="15.2" height="15.2"/>
		<polygon fill="#217022" points="395.5,684.5 395.5,699.7 410.7,699.7 410.7,684.5 410.7,669.3 410.7,654.1 395.5,654.1 
			380.3,654.1 380.3,638.9 380.3,623.7 365.1,623.7 365.1,638.9 365.1,654.1 365.1,669.3 380.3,669.3 380.3,684.5 		"/>
		<rect x="380.3" y="547.6" fill="#217022" width="15.2" height="15.2"/>
		<rect x="365.1" y="699.7" fill="#217022" width="15.2" height="15.2"/>
		<rect x="334.6" y="654.1" fill="#217022" width="15.2" height="15.2"/>
		<rect x="319.4" y="623.7" fill="#217022" width="15.2" height="15.2"/>
	</g>
	<g>
		<polygon fill="#194C18" points="882.3,456.3 882.3,441.1 882.3,425.9 882.3,410.7 882.3,395.5 867.1,395.5 851.8,395.5 
			836.6,395.5 821.4,395.5 806.2,395.5 791,395.5 775.8,395.5 760.6,395.5 760.6,410.7 745.4,410.7 745.4,425.9 760.6,425.9 
			775.8,425.9 791,425.9 806.2,425.9 821.4,425.9 836.6,425.9 851.8,425.9 851.8,441.1 867.1,441.1 867.1,456.3 867.1,471.5 
			882.3,471.5 882.3,486.8 882.3,502 897.5,502 897.5,486.8 897.5,471.5 897.5,456.3 		"/>
		<polygon fill="#194C18" points="821.4,562.8 806.2,562.8 791,562.8 775.8,562.8 760.6,562.8 745.4,562.8 745.4,578 760.6,578 
			775.8,578 791,578 806.2,578 821.4,578 836.6,578 851.8,578 851.8,562.8 836.6,562.8 		"/>
		<polygon fill="#194C18" points="760.6,745.4 745.4,745.4 730.1,745.4 714.9,745.4 714.9,760.6 730.1,760.6 745.4,760.6 
			745.4,775.8 760.6,775.8 760.6,791 775.8,791 775.8,775.8 791,775.8 791,760.6 791,745.4 775.8,745.4 		"/>
		<polygon fill="#194C18" points="730.1,547.6 730.1,532.4 714.9,532.4 714.9,547.6 714.9,562.8 730.1,562.8 745.4,562.8 
			745.4,547.6 		"/>
		<rect x="699.7" y="502" fill="#194C18" width="15.2" height="15.2"/>
		<polygon fill="#194C18" points="714.9,486.8 714.9,471.5 699.7,471.5 699.7,456.3 684.5,456.3 684.5,471.5 684.5,486.8 684.5,502 
			699.7,502 699.7,486.8 		"/>
		<rect x="669.3" y="502" fill="#194C18" width="15.2" height="15.2"/>
		<polygon fill="#194C18" points="654.1,867 638.9,867 623.7,867 608.5,867 593.2,867 578,867 562.8,867 547.6,867 547.6,882.3 
			562.8,882.3 562.8,897.5 578,897.5 593.2,897.5 593.2,912.7 608.5,912.7 608.5,927.9 623.7,927.9 638.9,927.9 654.1,927.9 
			654.1,912.7 669.3,912.7 669.3,897.5 684.5,897.5 684.5,882.3 684.5,867 669.3,867 		"/>
		<polygon fill="#194C18" points="562.8,745.4 562.8,760.6 578,760.6 593.2,760.6 608.5,760.6 608.5,775.8 623.7,775.8 623.7,791 
			623.7,806.2 608.5,806.2 593.2,806.2 578,806.2 578,821.4 593.2,821.4 608.5,821.4 623.7,821.4 638.9,821.4 638.9,806.2 
			654.1,806.2 654.1,791 654.1,775.8 638.9,775.8 638.9,760.6 623.7,760.6 623.7,745.4 608.5,745.4 593.2,745.4 578,745.4 
			578,730.1 562.8,730.1 547.6,730.1 532.4,730.1 532.4,714.9 517.2,714.9 502,714.9 502,730.1 517.2,730.1 517.2,745.4 
			532.4,745.4 547.6,745.4 		"/>
		<polygon fill="#194C18" points="502,410.7 502,425.9 486.8,425.9 486.8,441.1 471.6,441.1 471.6,456.3 471.6,471.5 486.8,471.5 
			502,471.5 502,456.3 502,441.1 517.2,441.1 517.2,425.9 532.4,425.9 547.6,425.9 562.8,425.9 578,425.9 593.2,425.9 608.5,425.9 
			623.7,425.9 638.9,425.9 638.9,410.7 623.7,410.7 608.5,410.7 608.5,395.5 593.2,395.5 578,395.5 578,380.3 562.8,380.3 
			547.6,380.3 532.4,380.3 517.2,380.3 502,380.3 502,395.5 		"/>
		<polygon fill="#194C18" points="502,562.8 502,578 517.2,578 532.4,578 547.6,578 562.8,578 562.8,562.8 578,562.8 593.2,562.8 
			593.2,547.6 578,547.6 562.8,547.6 547.6,547.6 532.4,547.6 532.4,532.4 517.2,532.4 502,532.4 502,517.2 502,502 486.8,502 
			471.6,502 471.6,486.8 456.3,486.8 456.3,471.5 441.1,471.5 441.1,486.8 441.1,502 425.9,502 410.7,502 410.7,517.2 425.9,517.2 
			441.1,517.2 456.3,517.2 471.6,517.2 471.6,532.4 471.6,547.6 486.8,547.6 486.8,562.8 		"/>
		<polygon fill="#194C18" points="456.3,699.7 456.3,714.9 471.6,714.9 471.6,730.1 486.8,730.1 486.8,714.9 486.8,699.7 
			471.6,699.7 		"/>
		<path fill="#194C18" d="M441.1,547.6h-15.2h-15.2h-15.2v15.2h-15.2v-15.2h15.2v-15.2h15.2v-15.2h-15.2V502v-15.2v-15.2h15.2v-15.2
			h15.2v-15.2V426h15.2v-15.2h15.2v-15.2h15.2v15.2h15.2v-15.2v-15.2H502v-15.2h15.2h15.2h15.2V350h15.2H578h15.2h15.2h15.2h15.2
			H654h15.2h15.2h15.2h15.2H730h15.2h15.2h15.2v15.2H791h15.2v15.2h15.2h15.2h15.2v-15.2h-15.2V350h-15.2h-15.2v-15.2H791h-15.2
			h-15.2v-15.2h-15.2h-15.2H715h-15.2h-15.2h-15.2h-15.2H639h-15.2h-15.2h-15.2H578h-15.2h-15.2v15.2h-15.2h-15.2V350H502h-15.2
			v15.2h-15.2h-15.2v15.2h-15.2v15.2H426v15.2h-15.2V426h-15.2v15.2h-15.2v15.2v15.2h-15.2v15.2H350V502v15.2h-15.2v15.2v15.2h-15.2
			v15.2V578h-15.2v15.2v15.2H289v15.2v15.2V654h15.2v15.2h15.2v15.2v15.2h15.2v15.2V730h15.2v15.2H365v15.2h15.2v15.2h15.2V791h15.2
			h15.2v15.2H441V791h15.2v-15.2H441v-15.2h-15.2h-15.2h-15.2v-15.2h15.2h15.2v-15.2V715h-15.2v15.2h-15.2V715h15.2v-15.2h-15.2
			v-15.2h-15.2v-15.2H365v-15.2V639v-15.2h15.2v-15.2h15.2v-15.2V578h15.2v-15.2h15.2H441h15.2V578v15.2v15.2h15.2h15.2v-15.2V578
			h-15.2v-15.2v-15.2h-15.2H441.1z M334.6,638.9h-15.2v-15.2h15.2V638.9z M380.3,714.9h-15.2v-15.2h15.2V714.9z M349.9,669.3h-15.2
			v-15.2h15.2V669.3z"/>
		<rect x="410.7" y="593.2" fill="#194C18" width="15.2" height="15.2"/>
	</g>
	<g>
		<polygon fill="#1B231B" points="791,304.2 775.8,304.2 775.8,289 760.6,289 760.6,304.2 760.6,319.4 775.8,319.4 791,319.4 
			791,334.6 806.2,334.6 806.2,319.4 806.2,304.2 		"/>
		<polygon fill="#1B231B" points="684.5,289 669.3,289 654.1,289 638.9,289 638.9,304.2 654.1,304.2 669.3,304.2 684.5,304.2 
			699.7,304.2 714.9,304.2 714.9,289 699.7,289 		"/>
		<polygon fill="#1B231B" points="365.1,425.9 365.1,441.1 349.9,441.1 349.9,456.3 334.6,456.3 319.4,456.3 319.4,471.5 
			334.6,471.5 334.6,486.8 349.9,486.8 349.9,471.5 365.1,471.5 365.1,456.3 380.3,456.3 380.3,441.1 395.5,441.1 395.5,425.9 
			380.3,425.9 		"/>
		<polygon fill="#1B231B" points="319.4,502 304.2,502 304.2,486.8 289,486.8 289,502 289,517.2 289,532.4 304.2,532.4 304.2,547.6 
			319.4,547.6 319.4,532.4 319.4,517.2 334.6,517.2 334.6,502 334.6,486.8 319.4,486.8 		"/>
		<rect x="304.2" y="471.5" fill="#1B231B" width="15.2" height="15.2"/>
		<polygon fill="#1B231B" points="289,532.4 273.8,532.4 273.8,547.6 273.8,562.8 273.8,578 289,578 304.2,578 304.2,562.8 
			304.2,547.6 289,547.6 		"/>
	</g>
	<polygon fill="#0C210D" points="289,425.9 273.8,425.9 258.6,425.9 258.6,441.1 243.4,441.1 243.4,456.3 243.4,471.5 243.4,486.8 
		243.4,502 243.4,517.2 243.4,532.4 243.4,547.6 243.4,562.8 243.4,578 243.4,593.2 243.4,608.5 243.4,623.7 243.4,638.9 
		258.6,638.9 258.6,654.1 273.8,654.1 289,654.1 289,638.9 273.8,638.9 273.8,623.7 258.6,623.7 258.6,608.5 258.6,593.2 258.6,578 
		258.6,562.8 258.6,547.6 258.6,532.4 258.6,517.2 273.8,517.2 273.8,502 273.8,486.8 289,486.8 289,471.5 289,456.3 304.2,456.3 
		304.2,441.1 304.2,425.9 	"/>
	<polygon fill="#214625" points="775.8,243.4 760.6,243.4 760.6,258.6 775.8,258.6 791,258.6 791,243.4 	"/>
	<rect x="745.4" y="228.2" fill="#214625" width="15.2" height="15.2"/>
	<polygon fill="#214625" points="593.2,228.2 593.2,213 608.5,213 608.5,197.7 593.2,197.7 578,197.7 562.8,197.7 562.8,213 
		547.6,213 532.4,213 517.2,213 502,213 502,228.2 486.8,228.2 471.6,228.2 471.6,243.4 456.3,243.4 441.1,243.4 441.1,258.6 
		425.9,258.6 410.7,258.6 410.7,273.8 395.5,273.8 380.3,273.8 380.3,289 380.3,304.2 365.1,304.2 349.9,304.2 349.9,319.4 
		334.6,319.4 319.4,319.4 319.4,334.6 304.2,334.6 304.2,349.9 319.4,349.9 319.4,365.1 334.6,365.1 349.9,365.1 365.1,365.1 
		380.3,365.1 380.3,349.9 395.5,349.9 395.5,334.6 410.7,334.6 425.9,334.6 425.9,319.4 441.1,319.4 441.1,304.2 456.3,304.2 
		471.6,304.2 471.6,289 486.8,289 486.8,273.8 502,273.8 517.2,273.8 532.4,273.8 532.4,258.6 547.6,258.6 562.8,258.6 562.8,243.4 
		578,243.4 593.2,243.4 608.5,243.4 623.7,243.4 623.7,228.2 608.5,228.2 	"/>
	<polygon fill="#214625" points="258.6,654.1 243.4,654.1 243.4,669.3 258.6,669.3 273.8,669.3 289,669.3 289,654.1 273.8,654.1 	
		"/>
	<rect x="228.2" y="608.4" fill="#214625" width="15.2" height="15.2"/>
	<rect x="228.2" y="578" fill="#214625" width="15.2" height="15.2"/>
	<rect x="228.2" y="532.4" fill="#214625" width="15.2" height="15.2"/>
	<g>
		<polygon fill="#CAB74F" points="471.6,121.7 471.6,106.5 456.3,106.5 456.3,121.7 441.1,121.7 425.9,121.7 410.7,121.7 
			410.7,136.9 425.9,136.9 441.1,136.9 456.3,136.9 471.6,136.9 486.8,136.9 486.8,121.7 		"/>
		<rect x="395.5" y="167.3" fill="#CAB74F" width="15.2" height="15.2"/>
		<polygon fill="#CAB74F" points="380.3,152.1 365.1,152.1 349.9,152.1 334.6,152.1 334.6,167.3 319.4,167.3 319.4,182.5 
			304.2,182.5 304.2,197.7 319.4,197.7 334.6,197.7 334.6,182.5 349.9,182.5 365.1,182.5 365.1,167.3 380.3,167.3 395.5,167.3 
			395.5,152.1 		"/>
		<polygon fill="#CAB74F" points="289,213 273.8,213 273.8,228.2 289,228.2 304.2,228.2 319.4,228.2 319.4,213 304.2,213 		"/>
		<polygon fill="#CAB74F" points="243.4,228.2 228.2,228.2 228.2,243.4 228.2,258.6 243.4,258.6 258.6,258.6 258.6,243.4 
			258.6,228.2 258.6,213 243.4,213 		"/>
	</g>
	<g>
		<polygon fill="#7F0D0A" points="943.1,1064.8 943.1,1049.6 943.1,1034.4 927.9,1034.4 912.7,1034.4 912.7,1019.2 897.5,1019.2 
			897.5,1003.9 882.3,1003.9 867.1,1003.9 851.8,1003.9 851.8,988.7 836.6,988.7 821.4,988.7 821.4,1003.9 806.2,1003.9 
			806.2,1019.2 791,1019.2 791,1034.4 775.8,1034.4 775.8,1049.6 760.6,1049.6 760.6,1064.8 760.6,1080 775.8,1080 791,1080 
			806.2,1080 821.4,1080 836.6,1080 851.8,1080 867.1,1080 882.3,1080 897.5,1080 912.7,1080 927.9,1080 943.1,1080 958.3,1080 
			958.3,1064.8 		"/>
		<polygon fill="#7F0D0A" points="517.2,1064.8 517.2,1080 532.4,1080 532.4,1064.8 532.4,1049.6 517.2,1049.6 		"/>
		<polygon fill="#7F0D0A" points="517.2,867 502,867 502,851.8 486.8,851.8 471.6,851.8 471.6,836.6 456.3,836.6 441.1,836.6 
			441.1,821.4 425.9,821.4 410.7,821.4 410.7,806.2 395.5,806.2 380.3,806.2 380.3,791 365.1,791 365.1,775.8 349.9,775.8 
			334.6,775.8 319.4,775.8 304.2,775.8 304.2,791 304.2,806.2 304.2,821.4 304.2,836.6 304.2,851.8 304.2,867 304.2,882.3 
			304.2,897.5 304.2,912.7 304.2,927.9 319.4,927.9 334.6,927.9 349.9,927.9 365.1,927.9 365.1,943.1 380.3,943.1 380.3,958.3 
			395.5,958.3 410.7,958.3 410.7,973.5 425.9,973.5 425.9,988.7 441.1,988.7 456.3,988.7 456.3,973.5 441.1,973.5 441.1,958.3 
			425.9,958.3 425.9,943.1 410.7,943.1 395.5,943.1 395.5,927.9 380.3,927.9 380.3,912.7 365.1,912.7 349.9,912.7 334.6,912.7 
			334.6,897.5 334.6,882.3 334.6,867 349.9,867 349.9,851.8 349.9,836.6 365.1,836.6 380.3,836.6 395.5,836.6 410.7,836.6 
			410.7,851.8 425.9,851.8 441.1,851.8 441.1,867 456.3,867 471.6,867 471.6,882.3 486.8,882.3 486.8,897.5 502,897.5 502,912.7 
			502,927.9 517.2,927.9 517.2,943.1 517.2,958.3 517.2,973.5 517.2,988.7 532.4,988.7 532.4,973.5 532.4,958.3 532.4,943.1 
			532.4,927.9 532.4,912.7 532.4,897.5 532.4,882.3 517.2,882.3 		"/>
		<rect x="456.3" y="1003.9" fill="#7F0D0A" width="15.2" height="15.2"/>
		<polygon fill="#7F0D0A" points="410.7,973.5 395.5,973.5 380.3,973.5 365.1,973.5 365.1,988.7 349.9,988.7 334.6,988.7 
			319.4,988.7 319.4,1003.9 304.2,1003.9 289,1003.9 289,1019.2 273.8,1019.2 258.6,1019.2 258.6,1034.4 243.4,1034.4 228.2,1034.4 
			228.2,1049.6 213,1049.6 213,1064.8 213,1080 228.2,1080 243.4,1080 258.6,1080 273.8,1080 289,1080 304.2,1080 319.4,1080 
			334.6,1080 349.9,1080 365.1,1080 380.3,1080 395.5,1080 410.7,1080 425.9,1080 441.1,1080 456.3,1080 456.3,1064.8 456.3,1049.6 
			456.3,1034.4 456.3,1019.2 441.1,1019.2 441.1,1003.9 425.9,1003.9 425.9,988.7 410.7,988.7 		"/>
	</g>
	<g>
		<polygon fill="#D2CB2B" points="745.4,197.7 745.4,182.5 730.1,182.5 714.9,182.5 714.9,197.7 714.9,213 730.1,213 745.4,213 
			760.6,213 760.6,197.7 		"/>
		<polygon fill="#D2CB2B" points="684.5,943.1 684.5,958.3 684.5,973.5 684.5,988.7 669.3,988.7 669.3,1003.9 669.3,1019.2 
			669.3,1034.4 669.3,1049.6 654.1,1049.6 654.1,1064.8 654.1,1080 669.3,1080 669.3,1064.8 684.5,1064.8 684.5,1049.6 
			684.5,1034.4 684.5,1019.2 684.5,1003.9 699.7,1003.9 699.7,988.7 699.7,973.5 699.7,958.3 699.7,943.1 699.7,927.9 684.5,927.9 
					"/>
		<rect x="669.3" y="167.3" fill="#D2CB2B" width="15.2" height="15.2"/>
		<polygon fill="#D2CB2B" points="593.2,1019.2 593.2,1003.9 593.2,988.7 578,988.7 578,973.5 578,958.3 578,943.1 562.8,943.1 
			562.8,958.3 562.8,973.5 562.8,988.7 562.8,1003.9 578,1003.9 578,1019.2 578,1034.4 578,1049.6 593.2,1049.6 593.2,1064.8 
			593.2,1080 608.5,1080 608.5,1064.8 608.5,1049.6 608.5,1034.4 593.2,1034.4 		"/>
		<polygon fill="#D2CB2B" points="562.8,912.7 547.6,912.7 547.6,927.9 547.6,943.1 562.8,943.1 562.8,927.9 		"/>
		<polygon fill="#D2CB2B" points="562.8,213 562.8,197.7 562.8,182.5 547.6,182.5 532.4,182.5 517.2,182.5 502,182.5 486.8,182.5 
			486.8,197.7 471.6,197.7 456.3,197.7 441.1,197.7 441.1,213 425.9,213 425.9,228.2 410.7,228.2 395.5,228.2 395.5,243.4 
			380.3,243.4 380.3,258.6 365.1,258.6 349.9,258.6 349.9,273.8 334.6,273.8 334.6,289 319.4,289 319.4,304.2 304.2,304.2 
			304.2,319.4 289,319.4 289,334.6 273.8,334.6 273.8,349.9 258.6,349.9 258.6,365.1 243.4,365.1 243.4,380.3 243.4,395.5 
			228.2,395.5 228.2,410.7 228.2,425.9 213,425.9 213,441.1 213,456.3 213,471.5 213,486.8 213,502 197.8,502 197.8,517.2 
			197.8,532.4 197.8,547.6 197.8,562.8 197.8,578 197.8,593.2 197.8,608.5 197.8,623.7 197.8,638.9 213,638.9 213,654.1 
			228.2,654.1 228.2,669.3 243.4,669.3 243.4,654.1 258.6,654.1 258.6,638.9 243.4,638.9 228.2,638.9 228.2,623.7 228.2,608.5 
			228.2,593.2 228.2,578 228.2,562.8 228.2,547.6 228.2,532.4 228.2,517.2 228.2,502 228.2,486.8 228.2,471.5 228.2,456.3 
			228.2,441.1 243.4,441.1 243.4,425.9 243.4,410.7 258.6,410.7 258.6,395.5 258.6,380.3 273.8,380.3 289,380.3 289,365.1 
			289,349.9 304.2,349.9 304.2,334.6 319.4,334.6 319.4,319.4 334.6,319.4 349.9,319.4 349.9,304.2 365.1,304.2 380.3,304.2 
			380.3,289 380.3,273.8 395.5,273.8 410.7,273.8 410.7,258.6 425.9,258.6 441.1,258.6 441.1,243.4 456.3,243.4 471.6,243.4 
			471.6,228.2 486.8,228.2 502,228.2 502,213 517.2,213 532.4,213 547.6,213 		"/>
		<polygon fill="#D2CB2B" points="258.6,669.3 258.6,684.5 273.8,684.5 289,684.5 289,669.3 273.8,669.3 		"/>
	</g>
	<g>
		<polygon fill="#132D15" points="349.9,365.1 334.6,365.1 319.4,365.1 319.4,349.9 304.2,349.9 289,349.9 289,365.1 289,380.3 
			273.8,380.3 273.8,395.5 258.6,395.5 258.6,410.7 258.6,425.9 273.8,425.9 289,425.9 304.2,425.9 319.4,425.9 319.4,410.7 
			334.6,410.7 334.6,395.5 349.9,395.5 349.9,380.3 365.1,380.3 365.1,365.1 		"/>
		<polygon fill="#132D15" points="258.6,319.4 258.6,304.2 258.6,289 273.8,289 289,289 289,273.8 289,258.6 273.8,258.6 
			258.6,258.6 258.6,273.8 243.4,273.8 243.4,289 228.2,289 228.2,304.2 228.2,319.4 213,319.4 213,334.6 213,349.9 197.8,349.9 
			197.8,365.1 197.8,380.3 213,380.3 213,365.1 228.2,365.1 228.2,349.9 243.4,349.9 243.4,334.6 258.6,334.6 		"/>
	</g>
	<g>
		<rect x="654.1" y="136.9" fill="#1B4B1E" width="15.2" height="15.2"/>
		<rect x="486.8" y="121.7" fill="#1B4B1E" width="15.2" height="15.2"/>
		<polygon fill="#1B4B1E" points="456.3,136.9 441.1,136.9 425.9,136.9 410.7,136.9 395.5,136.9 380.3,136.9 365.1,136.9 
			365.1,152.1 380.3,152.1 395.5,152.1 395.5,167.3 410.7,167.3 410.7,182.5 425.9,182.5 441.1,182.5 441.1,167.3 456.3,167.3 
			471.6,167.3 471.6,152.1 486.8,152.1 486.8,136.9 471.6,136.9 		"/>
		<polygon fill="#1B4B1E" points="395.5,167.3 380.3,167.3 365.1,167.3 365.1,182.5 349.9,182.5 334.6,182.5 334.6,197.7 
			319.4,197.7 304.2,197.7 304.2,182.5 289,182.5 289,197.7 273.8,197.7 258.6,197.7 258.6,213 258.6,228.2 273.8,228.2 273.8,213 
			289,213 304.2,213 319.4,213 319.4,228.2 304.2,228.2 289,228.2 273.8,228.2 273.8,243.4 273.8,258.6 289,258.6 304.2,258.6 
			319.4,258.6 319.4,243.4 334.6,243.4 334.6,228.2 349.9,228.2 365.1,228.2 365.1,213 380.3,213 380.3,197.7 395.5,197.7 
			410.7,197.7 410.7,182.5 395.5,182.5 		"/>
		<rect x="182.5" y="349.9" fill="#1B4B1E" width="15.2" height="15.2"/>
	</g>
	<g>
		<rect x="410.7" y="973.5" fill="#000410" width="15.2" height="15.2"/>
		<rect x="395.5" y="958.3" fill="#000410" width="15.2" height="15.2"/>
		<rect x="365.1" y="943.1" fill="#000410" width="15.2" height="15.2"/>
		<polygon fill="#000410" points="349.9,927.9 334.6,927.9 319.4,927.9 319.4,943.1 334.6,943.1 349.9,943.1 365.1,943.1 
			365.1,927.9 		"/>
		<polygon fill="#000410" points="197.8,851.8 182.5,851.8 167.3,851.8 167.3,867 182.5,867 197.8,867 213,867 228.2,867 
			228.2,851.8 213,851.8 		"/>
	</g>
	<g>
		<polygon fill="#01287F" points="289,912.7 273.8,912.7 258.6,912.7 243.4,912.7 228.2,912.7 228.2,927.9 213,927.9 213,943.1 
			197.8,943.1 182.5,943.1 182.5,958.3 167.3,958.3 152.1,958.3 152.1,973.5 136.9,973.5 136.9,988.7 136.9,1003.9 121.7,1003.9 
			121.7,1019.2 121.7,1034.4 106.5,1034.4 106.5,1049.6 106.5,1064.8 106.5,1080 121.7,1080 121.7,1064.8 121.7,1049.6 
			136.9,1049.6 136.9,1034.4 136.9,1019.2 152.1,1019.2 152.1,1003.9 152.1,988.7 167.3,988.7 167.3,973.5 182.5,973.5 197.8,973.5 
			197.8,958.3 213,958.3 228.2,958.3 228.2,943.1 243.4,943.1 243.4,927.9 258.6,927.9 273.8,927.9 289,927.9 304.2,927.9 
			304.2,912.7 		"/>
		<polygon fill="#01287F" points="273.8,943.1 258.6,943.1 258.6,958.3 243.4,958.3 243.4,973.5 258.6,973.5 273.8,973.5 
			273.8,958.3 289,958.3 304.2,958.3 304.2,943.1 289,943.1 		"/>
		<polygon fill="#01287F" points="213,973.5 213,988.7 228.2,988.7 243.4,988.7 243.4,973.5 228.2,973.5 		"/>
		<polygon fill="#01287F" points="182.5,988.7 182.5,1003.9 182.5,1019.2 197.8,1019.2 197.8,1003.9 213,1003.9 213,988.7 
			197.8,988.7 		"/>
		<polygon fill="#01287F" points="167.3,1034.4 152.1,1034.4 152.1,1049.6 152.1,1064.8 152.1,1080 167.3,1080 167.3,1064.8 
			167.3,1049.6 182.5,1049.6 182.5,1034.4 182.5,1019.2 167.3,1019.2 		"/>
		<polygon fill="#01287F" points="152.1,958.3 152.1,943.1 167.3,943.1 182.5,943.1 182.5,927.9 197.8,927.9 197.8,912.7 213,912.7 
			213,897.5 228.2,897.5 243.4,897.5 258.6,897.5 273.8,897.5 273.8,882.3 289,882.3 289,867 273.8,867 258.6,867 258.6,882.3 
			243.4,882.3 228.2,882.3 213,882.3 197.8,882.3 197.8,897.5 182.5,897.5 182.5,912.7 167.3,912.7 167.3,927.9 152.1,927.9 
			136.9,927.9 136.9,943.1 121.7,943.1 121.7,958.3 106.5,958.3 106.5,973.5 106.5,988.7 121.7,988.7 121.7,973.5 136.9,973.5 
			136.9,958.3 		"/>
		<polygon fill="#01287F" points="91.3,1003.9 76.1,1003.9 76.1,1019.2 76.1,1034.4 60.9,1034.4 60.9,1049.6 60.9,1064.8 60.9,1080 
			76.1,1080 76.1,1064.8 76.1,1049.6 91.3,1049.6 91.3,1034.4 91.3,1019.2 106.5,1019.2 106.5,1003.9 106.5,988.7 91.3,988.7 		"/>
	</g>
	<g>
		<polygon fill="#AC170F" points="973.5,1064.8 973.5,1049.6 958.3,1049.6 958.3,1034.4 943.1,1034.4 943.1,1049.6 943.1,1064.8 
			958.3,1064.8 958.3,1080 973.5,1080 988.7,1080 988.7,1064.8 		"/>
		<polygon fill="#AC170F" points="943.1,1003.9 927.9,1003.9 927.9,988.7 912.7,988.7 912.7,973.5 897.5,973.5 897.5,958.3 
			882.3,958.3 882.3,943.1 867.1,943.1 867.1,958.3 867.1,973.5 851.8,973.5 851.8,988.7 851.8,1003.9 867.1,1003.9 882.3,1003.9 
			897.5,1003.9 897.5,1019.2 912.7,1019.2 912.7,1034.4 927.9,1034.4 943.1,1034.4 943.1,1019.2 		"/>
		<polygon fill="#AC170F" points="851.8,943.1 851.8,927.9 851.8,912.7 836.6,912.7 836.6,897.5 821.4,897.5 821.4,882.3 
			806.2,882.3 806.2,867 791,867 775.8,867 775.8,882.3 760.6,882.3 760.6,897.5 745.4,897.5 745.4,882.3 745.4,867 760.6,867 
			760.6,851.8 745.4,851.8 730.1,851.8 714.9,851.8 714.9,867 730.1,867 730.1,882.3 714.9,882.3 714.9,897.5 714.9,912.7 
			714.9,927.9 714.9,943.1 714.9,958.3 714.9,973.5 714.9,988.7 714.9,1003.9 714.9,1019.2 714.9,1034.4 714.9,1049.6 714.9,1064.8 
			714.9,1080 730.1,1080 745.4,1080 745.4,1064.8 745.4,1049.6 745.4,1034.4 745.4,1019.2 760.6,1019.2 775.8,1019.2 775.8,1003.9 
			791,1003.9 791,988.7 806.2,988.7 806.2,973.5 821.4,973.5 836.6,973.5 836.6,958.3 851.8,958.3 		"/>
		<polygon fill="#AC170F" points="730.1,182.5 730.1,167.3 714.9,167.3 714.9,152.1 699.7,152.1 684.5,152.1 669.3,152.1 
			654.1,152.1 654.1,136.9 638.9,136.9 623.7,136.9 623.7,152.1 638.9,152.1 638.9,167.3 654.1,167.3 669.3,167.3 684.5,167.3 
			684.5,182.5 699.7,182.5 714.9,182.5 		"/>
		<polygon fill="#AC170F" points="547.6,167.3 532.4,167.3 517.2,167.3 502,167.3 486.8,167.3 471.6,167.3 456.3,167.3 456.3,182.5 
			441.1,182.5 441.1,197.7 456.3,197.7 471.6,197.7 486.8,197.7 486.8,182.5 502,182.5 517.2,182.5 532.4,182.5 547.6,182.5 
			562.8,182.5 578,182.5 578,167.3 562.8,167.3 		"/>
		<polygon fill="#AC170F" points="517.2,973.5 517.2,958.3 517.2,943.1 517.2,927.9 502,927.9 502,912.7 502,897.5 486.8,897.5 
			486.8,882.3 471.6,882.3 471.6,867 456.3,867 441.1,867 441.1,851.8 425.9,851.8 410.7,851.8 410.7,836.6 395.5,836.6 
			380.3,836.6 365.1,836.6 349.9,836.6 349.9,851.8 349.9,867 334.6,867 334.6,882.3 334.6,897.5 334.6,912.7 349.9,912.7 
			365.1,912.7 380.3,912.7 380.3,927.9 395.5,927.9 395.5,943.1 410.7,943.1 425.9,943.1 425.9,958.3 441.1,958.3 441.1,973.5 
			456.3,973.5 456.3,988.7 456.3,1003.9 471.6,1003.9 471.6,1019.2 471.6,1034.4 471.6,1049.6 471.6,1064.8 471.6,1080 486.8,1080 
			502,1080 517.2,1080 517.2,1064.8 517.2,1049.6 532.4,1049.6 532.4,1034.4 532.4,1019.2 532.4,1003.9 532.4,988.7 517.2,988.7 		
			"/>
		<polygon fill="#AC170F" points="410.7,197.7 395.5,197.7 395.5,213 380.3,213 380.3,228.2 365.1,228.2 365.1,243.4 349.9,243.4 
			349.9,228.2 334.6,228.2 334.6,243.4 334.6,258.6 319.4,258.6 319.4,273.8 304.2,273.8 289,273.8 289,289 289,304.2 273.8,304.2 
			258.6,304.2 258.6,319.4 258.6,334.6 243.4,334.6 243.4,349.9 228.2,349.9 228.2,365.1 213,365.1 213,380.3 197.8,380.3 
			197.8,395.5 197.8,410.7 197.8,425.9 197.8,441.1 197.8,456.3 197.8,471.5 197.8,486.8 197.8,502 213,502 213,486.8 213,471.5 
			213,456.3 213,441.1 213,425.9 228.2,425.9 228.2,410.7 228.2,395.5 243.4,395.5 243.4,380.3 243.4,365.1 258.6,365.1 
			258.6,349.9 273.8,349.9 273.8,334.6 289,334.6 289,319.4 304.2,319.4 304.2,304.2 319.4,304.2 319.4,289 334.6,289 334.6,273.8 
			349.9,273.8 349.9,258.6 365.1,258.6 380.3,258.6 380.3,243.4 395.5,243.4 395.5,228.2 410.7,228.2 425.9,228.2 425.9,213 
			441.1,213 441.1,197.7 425.9,197.7 		"/>
		<polygon fill="#AC170F" points="365.1,958.3 365.1,943.1 349.9,943.1 334.6,943.1 319.4,943.1 319.4,927.9 304.2,927.9 289,927.9 
			273.8,927.9 258.6,927.9 243.4,927.9 243.4,943.1 228.2,943.1 228.2,958.3 213,958.3 197.8,958.3 197.8,973.5 182.5,973.5 
			167.3,973.5 167.3,988.7 152.1,988.7 152.1,1003.9 152.1,1019.2 136.9,1019.2 136.9,1034.4 136.9,1049.6 121.7,1049.6 
			121.7,1064.8 121.7,1080 136.9,1080 152.1,1080 152.1,1064.8 152.1,1049.6 152.1,1034.4 167.3,1034.4 167.3,1019.2 182.5,1019.2 
			182.5,1003.9 182.5,988.7 197.8,988.7 213,988.7 213,973.5 228.2,973.5 243.4,973.5 243.4,958.3 258.6,958.3 258.6,943.1 
			273.8,943.1 289,943.1 304.2,943.1 304.2,958.3 289,958.3 273.8,958.3 273.8,973.5 258.6,973.5 243.4,973.5 243.4,988.7 
			228.2,988.7 213,988.7 213,1003.9 197.8,1003.9 197.8,1019.2 182.5,1019.2 182.5,1034.4 182.5,1049.6 167.3,1049.6 167.3,1064.8 
			167.3,1080 182.5,1080 197.8,1080 213,1080 213,1064.8 213,1049.6 228.2,1049.6 228.2,1034.4 243.4,1034.4 258.6,1034.4 
			258.6,1019.2 273.8,1019.2 289,1019.2 289,1003.9 304.2,1003.9 319.4,1003.9 319.4,988.7 334.6,988.7 349.9,988.7 365.1,988.7 
			365.1,973.5 380.3,973.5 395.5,973.5 395.5,958.3 380.3,958.3 		"/>
		<polygon fill="#AC170F" points="243.4,684.5 258.6,684.5 258.6,669.3 243.4,669.3 228.2,669.3 228.2,684.5 		"/>
		<rect x="213" y="654.1" fill="#AC170F" width="15.2" height="15.2"/>
		<polygon fill="#AC170F" points="213,943.1 213,927.9 228.2,927.9 228.2,912.7 243.4,912.7 258.6,912.7 273.8,912.7 289,912.7 
			304.2,912.7 304.2,897.5 304.2,882.3 304.2,867 304.2,851.8 304.2,836.6 304.2,821.4 289,821.4 273.8,821.4 273.8,836.6 
			258.6,836.6 258.6,851.8 243.4,851.8 243.4,867 243.4,882.3 258.6,882.3 258.6,867 273.8,867 289,867 289,882.3 273.8,882.3 
			273.8,897.5 258.6,897.5 243.4,897.5 228.2,897.5 213,897.5 213,912.7 197.8,912.7 197.8,927.9 182.5,927.9 182.5,943.1 
			197.8,943.1 		"/>
		<polygon fill="#AC170F" points="182.5,958.3 182.5,943.1 167.3,943.1 152.1,943.1 152.1,958.3 167.3,958.3 		"/>
		<rect x="167.3" y="897.5" fill="#AC170F" width="15.2" height="15.2"/>
		<rect x="152.1" y="912.7" fill="#AC170F" width="15.2" height="15.2"/>
		<rect x="136.9" y="958.3" fill="#AC170F" width="15.2" height="15.2"/>
		<polygon fill="#AC170F" points="121.7,1019.2 121.7,1003.9 136.9,1003.9 136.9,988.7 136.9,973.5 121.7,973.5 121.7,988.7 
			106.5,988.7 106.5,1003.9 106.5,1019.2 91.3,1019.2 91.3,1034.4 91.3,1049.6 76.1,1049.6 76.1,1064.8 76.1,1080 91.3,1080 
			106.5,1080 106.5,1064.8 106.5,1049.6 106.5,1034.4 121.7,1034.4 		"/>
		<polygon fill="#AC170F" points="45.6,1064.8 45.6,1080 60.9,1080 60.9,1064.8 60.9,1049.6 45.6,1049.6 		"/>
	</g>
	<polygon fill="#CE3430" points="289,791 289,806.2 273.8,806.2 258.6,806.2 258.6,821.4 243.4,821.4 243.4,836.6 228.2,836.6 
		228.2,851.8 228.2,867 213,867 197.8,867 182.5,867 182.5,882.3 167.3,882.3 152.1,882.3 152.1,897.5 136.9,897.5 136.9,912.7 
		121.7,912.7 121.7,927.9 106.5,927.9 106.5,943.1 91.3,943.1 91.3,958.3 91.3,973.5 76.1,973.5 76.1,988.7 60.9,988.7 60.9,1003.9 
		60.9,1019.2 45.6,1019.2 45.6,1034.4 30.4,1034.4 30.4,1049.6 30.4,1064.8 30.4,1080 45.6,1080 45.6,1064.8 45.6,1049.6 
		60.9,1049.6 60.9,1034.4 76.1,1034.4 76.1,1019.2 76.1,1003.9 91.3,1003.9 91.3,988.7 106.5,988.7 106.5,973.5 106.5,958.3 
		121.7,958.3 121.7,943.1 136.9,943.1 136.9,927.9 152.1,927.9 152.1,912.7 167.3,912.7 167.3,897.5 182.5,897.5 197.8,897.5 
		197.8,882.3 213,882.3 228.2,882.3 243.4,882.3 243.4,867 243.4,851.8 258.6,851.8 258.6,836.6 273.8,836.6 273.8,821.4 289,821.4 
		304.2,821.4 304.2,806.2 304.2,791 	"/>
	<g>
		<rect x="988.7" y="1064.8" width="15.2" height="15.2"/>
		<polygon points="988.7,1034.4 973.5,1034.4 973.5,1019.2 958.3,1019.2 958.3,1003.9 943.1,1003.9 943.1,1019.2 943.1,1034.4 
			958.3,1034.4 958.3,1049.6 973.5,1049.6 973.5,1064.8 988.7,1064.8 988.7,1049.6 		"/>
		<polygon points="943.1,973.5 927.9,973.5 912.7,973.5 912.7,988.7 927.9,988.7 927.9,1003.9 943.1,1003.9 943.1,988.7 		"/>
		<polygon points="912.7,943.1 897.5,943.1 897.5,927.9 882.3,927.9 867.1,927.9 867.1,912.7 867.1,897.5 851.8,897.5 851.8,882.3 
			836.6,882.3 836.6,867 821.4,867 806.2,867 806.2,882.3 821.4,882.3 821.4,897.5 836.6,897.5 836.6,912.7 851.8,912.7 
			851.8,927.9 851.8,943.1 851.8,958.3 836.6,958.3 836.6,973.5 821.4,973.5 806.2,973.5 806.2,988.7 791,988.7 791,1003.9 
			775.8,1003.9 775.8,1019.2 760.6,1019.2 745.4,1019.2 745.4,1034.4 745.4,1049.6 745.4,1064.8 745.4,1080 760.6,1080 
			760.6,1064.8 760.6,1049.6 775.8,1049.6 775.8,1034.4 791,1034.4 791,1019.2 806.2,1019.2 806.2,1003.9 821.4,1003.9 821.4,988.7 
			836.6,988.7 851.8,988.7 851.8,973.5 867.1,973.5 867.1,958.3 867.1,943.1 882.3,943.1 882.3,958.3 897.5,958.3 897.5,973.5 
			912.7,973.5 912.7,958.3 		"/>
		<polygon points="912.7,623.7 912.7,608.5 897.5,608.5 897.5,623.7 897.5,638.9 912.7,638.9 		"/>
		<polygon points="912.7,486.8 912.7,471.5 897.5,471.5 897.5,486.8 897.5,502 912.7,502 		"/>
		<polygon points="897.5,684.5 897.5,669.3 882.3,669.3 882.3,684.5 882.3,699.7 897.5,699.7 		"/>
		<rect x="882.3" y="638.9" width="15.2" height="15.2"/>
		<polygon points="882.3,593.2 867.1,593.2 867.1,578 882.3,578 882.3,562.8 867.1,562.8 851.8,562.8 851.8,578 851.8,593.2 
			836.6,593.2 821.4,593.2 821.4,608.5 836.6,608.5 851.8,608.5 867.1,608.5 882.3,608.5 897.5,608.5 897.5,593.2 		"/>
		<polygon points="882.3,425.9 882.3,441.1 882.3,456.3 897.5,456.3 897.5,441.1 897.5,425.9 897.5,410.7 897.5,395.5 882.3,395.5 
			882.3,410.7 		"/>
		<rect x="867.1" y="699.7" width="15.2" height="15.2"/>
		<rect x="867.1" y="654.1" width="15.2" height="15.2"/>
		<rect x="867.1" y="486.8" width="15.2" height="15.2"/>
		<polygon points="806.2,380.3 791,380.3 775.8,380.3 760.6,380.3 760.6,395.5 775.8,395.5 791,395.5 806.2,395.5 821.4,395.5 
			836.6,395.5 851.8,395.5 867.1,395.5 882.3,395.5 882.3,380.3 867.1,380.3 851.8,380.3 836.6,380.3 821.4,380.3 		"/>
		<polygon points="791,851.8 775.8,851.8 775.8,836.6 760.6,836.6 760.6,821.4 775.8,821.4 775.8,806.2 791,806.2 791,791 
			806.2,791 806.2,775.8 821.4,775.8 821.4,760.6 821.4,745.4 836.6,745.4 851.8,745.4 851.8,730.1 867.1,730.1 867.1,714.9 
			851.8,714.9 836.6,714.9 836.6,730.1 821.4,730.1 806.2,730.1 791,730.1 775.8,730.1 760.6,730.1 745.4,730.1 730.1,730.1 
			714.9,730.1 699.7,730.1 684.5,730.1 669.3,730.1 654.1,730.1 638.9,730.1 623.7,730.1 608.5,730.1 593.2,730.1 578,730.1 
			578,745.4 593.2,745.4 608.5,745.4 623.7,745.4 638.9,745.4 654.1,745.4 669.3,745.4 684.5,745.4 699.7,745.4 714.9,745.4 
			730.1,745.4 745.4,745.4 760.6,745.4 775.8,745.4 791,745.4 791,760.6 791,775.8 775.8,775.8 775.8,791 760.6,791 760.6,806.2 
			745.4,806.2 745.4,821.4 745.4,836.6 730.1,836.6 714.9,836.6 714.9,851.8 730.1,851.8 745.4,851.8 760.6,851.8 760.6,867 
			745.4,867 745.4,882.3 745.4,897.5 760.6,897.5 760.6,882.3 775.8,882.3 775.8,867 791,867 806.2,867 806.2,851.8 		"/>
		<polygon points="791,608.5 791,593.2 775.8,593.2 760.6,593.2 760.6,578 745.4,578 745.4,562.8 730.1,562.8 730.1,578 
			730.1,593.2 745.4,593.2 745.4,608.5 760.6,608.5 775.8,608.5 775.8,623.7 791,623.7 806.2,623.7 821.4,623.7 821.4,608.5 
			806.2,608.5 		"/>
		<polygon points="775.8,258.6 760.6,258.6 760.6,243.4 745.4,243.4 745.4,258.6 730.1,258.6 730.1,273.8 745.4,273.8 760.6,273.8 
			760.6,289 775.8,289 775.8,304.2 791,304.2 806.2,304.2 806.2,319.4 806.2,334.6 806.2,349.9 821.4,349.9 821.4,334.6 
			821.4,319.4 821.4,304.2 821.4,289 806.2,289 806.2,273.8 806.2,258.6 806.2,243.4 791,243.4 791,258.6 		"/>
		<polygon points="775.8,562.8 791,562.8 806.2,562.8 821.4,562.8 836.6,562.8 851.8,562.8 851.8,547.6 867.1,547.6 867.1,532.4 
			882.3,532.4 897.5,532.4 897.5,517.2 897.5,502 882.3,502 882.3,517.2 867.1,517.2 851.8,517.2 851.8,532.4 836.6,532.4 
			836.6,547.6 821.4,547.6 806.2,547.6 791,547.6 775.8,547.6 760.6,547.6 760.6,532.4 745.4,532.4 730.1,532.4 730.1,547.6 
			745.4,547.6 745.4,562.8 760.6,562.8 		"/>
		<polygon points="775.8,334.6 791,334.6 791,319.4 775.8,319.4 760.6,319.4 760.6,334.6 		"/>
		<polygon points="745.4,623.7 730.1,623.7 730.1,638.9 745.4,638.9 760.6,638.9 760.6,654.1 775.8,654.1 791,654.1 791,638.9 
			775.8,638.9 775.8,623.7 760.6,623.7 		"/>
		<polygon points="730.1,395.5 730.1,410.7 714.9,410.7 699.7,410.7 684.5,410.7 669.3,410.7 654.1,410.7 654.1,395.5 638.9,395.5 
			623.7,395.5 623.7,380.3 608.5,380.3 593.2,380.3 593.2,365.1 578,365.1 562.8,365.1 547.6,365.1 532.4,365.1 517.2,365.1 
			502,365.1 502,380.3 517.2,380.3 532.4,380.3 547.6,380.3 562.8,380.3 578,380.3 578,395.5 593.2,395.5 608.5,395.5 608.5,410.7 
			623.7,410.7 638.9,410.7 638.9,425.9 654.1,425.9 669.3,425.9 669.3,441.1 684.5,441.1 699.7,441.1 699.7,425.9 714.9,425.9 
			730.1,425.9 745.4,425.9 745.4,410.7 760.6,410.7 760.6,395.5 745.4,395.5 		"/>
		<rect x="714.9" y="608.4" width="15.2" height="15.2"/>
		<polygon points="730.1,517.2 745.4,517.2 760.6,517.2 775.8,517.2 791,517.2 806.2,517.2 821.4,517.2 836.6,517.2 836.6,502 
			821.4,502 806.2,502 791,502 791,486.8 806.2,486.8 806.2,471.5 791,471.5 775.8,471.5 760.6,471.5 745.4,471.5 745.4,486.8 
			745.4,502 730.1,502 730.1,486.8 714.9,486.8 699.7,486.8 699.7,502 714.9,502 714.9,517.2 		"/>
		<polygon points="714.9,821.4 714.9,806.2 699.7,806.2 699.7,821.4 699.7,836.6 714.9,836.6 		"/>
		<polygon points="699.7,197.7 684.5,197.7 669.3,197.7 654.1,197.7 654.1,213 669.3,213 684.5,213 699.7,213 714.9,213 
			714.9,197.7 		"/>
		<polygon points="699.7,836.6 684.5,836.6 684.5,821.4 669.3,821.4 654.1,821.4 654.1,836.6 654.1,851.8 669.3,851.8 669.3,867 
			684.5,867 684.5,882.3 684.5,897.5 669.3,897.5 669.3,912.7 654.1,912.7 654.1,927.9 638.9,927.9 623.7,927.9 608.5,927.9 
			608.5,912.7 593.2,912.7 593.2,897.5 578,897.5 562.8,897.5 562.8,882.3 547.6,882.3 547.6,867 562.8,867 578,867 593.2,867 
			608.5,867 623.7,867 623.7,851.8 638.9,851.8 638.9,836.6 638.9,821.4 623.7,821.4 623.7,836.6 608.5,836.6 608.5,851.8 
			593.2,851.8 593.2,836.6 593.2,821.4 578,821.4 578,836.6 562.8,836.6 547.6,836.6 532.4,836.6 532.4,821.4 517.2,821.4 
			502,821.4 502,836.6 486.8,836.6 486.8,821.4 471.6,821.4 456.3,821.4 456.3,806.2 441.1,806.2 425.9,806.2 425.9,791 410.7,791 
			395.5,791 395.5,775.8 380.3,775.8 380.3,760.6 365.1,760.6 365.1,745.4 349.9,745.4 349.9,730.1 334.6,730.1 334.6,714.9 
			334.6,699.7 319.4,699.7 319.4,684.5 319.4,669.3 304.2,669.3 304.2,654.1 289,654.1 289,669.3 289,684.5 273.8,684.5 
			258.6,684.5 243.4,684.5 228.2,684.5 228.2,699.7 243.4,699.7 258.6,699.7 273.8,699.7 289,699.7 304.2,699.7 304.2,714.9 
			319.4,714.9 319.4,730.1 319.4,745.4 334.6,745.4 334.6,760.6 319.4,760.6 304.2,760.6 289,760.6 289,775.8 273.8,775.8 
			273.8,791 258.6,791 243.4,791 243.4,806.2 228.2,806.2 228.2,821.4 213,821.4 213,836.6 197.8,836.6 182.5,836.6 182.5,851.8 
			197.8,851.8 213,851.8 228.2,851.8 228.2,836.6 243.4,836.6 243.4,821.4 258.6,821.4 258.6,806.2 273.8,806.2 289,806.2 289,791 
			304.2,791 304.2,775.8 319.4,775.8 334.6,775.8 349.9,775.8 365.1,775.8 365.1,791 380.3,791 380.3,806.2 395.5,806.2 
			410.7,806.2 410.7,821.4 425.9,821.4 441.1,821.4 441.1,836.6 456.3,836.6 471.6,836.6 471.6,851.8 486.8,851.8 502,851.8 
			502,867 517.2,867 517.2,882.3 532.4,882.3 532.4,897.5 532.4,912.7 532.4,927.9 532.4,943.1 532.4,958.3 532.4,973.5 
			532.4,988.7 532.4,1003.9 532.4,1019.2 532.4,1034.4 532.4,1049.6 532.4,1064.8 532.4,1080 547.6,1080 547.6,1064.8 547.6,1049.6 
			547.6,1034.4 547.6,1019.2 547.6,1003.9 547.6,988.7 547.6,973.5 547.6,958.3 547.6,943.1 547.6,927.9 547.6,912.7 562.8,912.7 
			578,912.7 578,927.9 593.2,927.9 593.2,943.1 608.5,943.1 608.5,958.3 623.7,958.3 623.7,973.5 638.9,973.5 654.1,973.5 
			654.1,958.3 638.9,958.3 638.9,943.1 654.1,943.1 669.3,943.1 669.3,927.9 684.5,927.9 684.5,912.7 699.7,912.7 699.7,927.9 
			699.7,943.1 699.7,958.3 699.7,973.5 699.7,988.7 699.7,1003.9 699.7,1019.2 699.7,1034.4 699.7,1049.6 699.7,1064.8 699.7,1080 
			714.9,1080 714.9,1064.8 714.9,1049.6 714.9,1034.4 714.9,1019.2 714.9,1003.9 714.9,988.7 714.9,973.5 714.9,958.3 714.9,943.1 
			714.9,927.9 714.9,912.7 714.9,897.5 714.9,882.3 730.1,882.3 730.1,867 714.9,867 714.9,851.8 699.7,851.8 		"/>
		<polygon points="684.5,517.2 669.3,517.2 669.3,532.4 654.1,532.4 654.1,547.6 638.9,547.6 623.7,547.6 608.5,547.6 593.2,547.6 
			593.2,562.8 578,562.8 562.8,562.8 562.8,578 578,578 593.2,578 608.5,578 608.5,562.8 623.7,562.8 638.9,562.8 654.1,562.8 
			669.3,562.8 669.3,547.6 684.5,547.6 684.5,532.4 699.7,532.4 699.7,517.2 699.7,502 684.5,502 		"/>
		<polygon points="684.5,608.5 699.7,608.5 699.7,593.2 714.9,593.2 714.9,578 714.9,562.8 699.7,562.8 699.7,578 684.5,578 
			684.5,593.2 669.3,593.2 654.1,593.2 654.1,608.5 669.3,608.5 669.3,623.7 684.5,623.7 		"/>
		<polygon points="684.5,502 684.5,486.8 669.3,486.8 654.1,486.8 654.1,502 638.9,502 623.7,502 608.5,502 608.5,486.8 
			608.5,471.5 593.2,471.5 578,471.5 562.8,471.5 547.6,471.5 547.6,486.8 562.8,486.8 562.8,502 547.6,502 532.4,502 517.2,502 
			517.2,517.2 532.4,517.2 547.6,517.2 562.8,517.2 578,517.2 593.2,517.2 608.5,517.2 623.7,517.2 638.9,517.2 654.1,517.2 
			669.3,517.2 669.3,502 		"/>
		<rect x="638.9" y="851.8" width="15.2" height="15.2"/>
		<polygon points="654.1,654.1 654.1,638.9 669.3,638.9 669.3,623.7 654.1,623.7 638.9,623.7 638.9,638.9 623.7,638.9 623.7,654.1 
			638.9,654.1 		"/>
		<rect x="608.5" y="608.4" width="15.2" height="15.2"/>
		<polygon points="578,654.1 593.2,654.1 593.2,638.9 608.5,638.9 608.5,623.7 593.2,623.7 578,623.7 578,638.9 562.8,638.9 
			562.8,654.1 		"/>
		<rect x="562.8" y="608.4" width="15.2" height="15.2"/>
		<polygon points="562.8,121.7 562.8,136.9 547.6,136.9 532.4,136.9 517.2,136.9 502,136.9 486.8,136.9 486.8,152.1 471.6,152.1 
			471.6,167.3 486.8,167.3 502,167.3 502,152.1 517.2,152.1 532.4,152.1 547.6,152.1 562.8,152.1 578,152.1 578,136.9 593.2,136.9 
			608.5,136.9 623.7,136.9 638.9,136.9 654.1,136.9 669.3,136.9 669.3,152.1 684.5,152.1 699.7,152.1 714.9,152.1 714.9,167.3 
			730.1,167.3 730.1,182.5 745.4,182.5 745.4,197.7 760.6,197.7 760.6,213 745.4,213 730.1,213 714.9,213 714.9,228.2 730.1,228.2 
			730.1,243.4 745.4,243.4 745.4,228.2 760.6,228.2 760.6,243.4 775.8,243.4 791,243.4 791,228.2 775.8,228.2 775.8,213 
			775.8,197.7 775.8,182.5 760.6,182.5 760.6,167.3 745.4,167.3 745.4,152.1 730.1,152.1 730.1,136.9 714.9,136.9 699.7,136.9 
			684.5,136.9 684.5,121.7 669.3,121.7 654.1,121.7 638.9,121.7 623.7,121.7 608.5,121.7 608.5,106.5 593.2,106.5 578,106.5 
			578,121.7 		"/>
		<polygon points="547.6,623.7 532.4,623.7 532.4,638.9 517.2,638.9 517.2,623.7 517.2,608.5 502,608.5 502,623.7 486.8,623.7 
			471.6,623.7 471.6,638.9 486.8,638.9 502,638.9 502,654.1 517.2,654.1 532.4,654.1 547.6,654.1 547.6,638.9 562.8,638.9 
			562.8,623.7 		"/>
		<rect x="486.8" y="380.3" width="15.2" height="15.2"/>
		<polygon points="471.6,471.5 456.3,471.5 456.3,486.8 471.6,486.8 471.6,502 486.8,502 502,502 502,486.8 486.8,486.8 
			486.8,471.5 		"/>
		<polygon points="486.8,106.5 502,106.5 517.2,106.5 532.4,106.5 547.6,106.5 547.6,121.7 562.8,121.7 562.8,106.5 578,106.5 
			578,91.3 562.8,91.3 547.6,91.3 532.4,91.3 517.2,91.3 502,91.3 486.8,91.3 471.6,91.3 456.3,91.3 456.3,106.5 471.6,106.5 		"/>
		<polygon points="456.3,1034.4 456.3,1049.6 456.3,1064.8 456.3,1080 471.6,1080 471.6,1064.8 471.6,1049.6 471.6,1034.4 
			471.6,1019.2 456.3,1019.2 		"/>
		<polygon points="456.3,608.5 441.1,608.5 425.9,608.5 410.7,608.5 410.7,623.7 410.7,638.9 410.7,654.1 410.7,669.3 410.7,684.5 
			410.7,699.7 425.9,699.7 441.1,699.7 441.1,684.5 425.9,684.5 425.9,669.3 425.9,654.1 425.9,638.9 425.9,623.7 441.1,623.7 
			456.3,623.7 471.6,623.7 471.6,608.5 		"/>
		<polygon points="456.3,988.7 441.1,988.7 425.9,988.7 425.9,1003.9 441.1,1003.9 441.1,1019.2 456.3,1019.2 456.3,1003.9 		"/>
		<rect x="441.1" y="167.3" width="15.2" height="15.2"/>
		<polygon points="441.1,197.7 441.1,182.5 425.9,182.5 410.7,182.5 410.7,197.7 425.9,197.7 		"/>
		<polygon points="441.1,121.7 456.3,121.7 456.3,106.5 441.1,106.5 425.9,106.5 410.7,106.5 410.7,121.7 425.9,121.7 		"/>
		<rect x="380.3" y="197.7" width="15.2" height="15.2"/>
		<polygon points="395.5,136.9 410.7,136.9 410.7,121.7 395.5,121.7 380.3,121.7 365.1,121.7 365.1,136.9 380.3,136.9 		"/>
		<rect x="365.1" y="456.3" width="15.2" height="15.2"/>
		<rect x="365.1" y="213" width="15.2" height="15.2"/>
		<rect x="349.9" y="471.5" width="15.2" height="15.2"/>
		<rect x="349.9" y="228.2" width="15.2" height="15.2"/>
		<polygon points="365.1,152.1 365.1,136.9 349.9,136.9 334.6,136.9 334.6,152.1 349.9,152.1 		"/>
		<polygon points="334.6,517.2 349.9,517.2 349.9,502 349.9,486.8 334.6,486.8 334.6,502 		"/>
		<polygon points="319.4,532.4 319.4,547.6 334.6,547.6 334.6,532.4 334.6,517.2 319.4,517.2 		"/>
		<rect x="319.4" y="471.5" width="15.2" height="15.2"/>
		<polygon points="334.6,456.3 349.9,456.3 349.9,441.1 365.1,441.1 365.1,425.9 380.3,425.9 395.5,425.9 410.7,425.9 410.7,410.7 
			425.9,410.7 425.9,395.5 441.1,395.5 441.1,380.3 456.3,380.3 456.3,365.1 471.6,365.1 486.8,365.1 486.8,349.9 502,349.9 
			517.2,349.9 517.2,334.6 532.4,334.6 547.6,334.6 547.6,319.4 562.8,319.4 578,319.4 593.2,319.4 608.5,319.4 623.7,319.4 
			638.9,319.4 654.1,319.4 669.3,319.4 684.5,319.4 699.7,319.4 714.9,319.4 730.1,319.4 745.4,319.4 760.6,319.4 760.6,304.2 
			745.4,304.2 730.1,304.2 714.9,304.2 699.7,304.2 684.5,304.2 669.3,304.2 654.1,304.2 638.9,304.2 638.9,289 654.1,289 
			669.3,289 669.3,273.8 654.1,273.8 638.9,273.8 623.7,273.8 623.7,258.6 623.7,243.4 608.5,243.4 593.2,243.4 578,243.4 
			562.8,243.4 562.8,258.6 547.6,258.6 532.4,258.6 532.4,273.8 517.2,273.8 502,273.8 486.8,273.8 486.8,289 471.6,289 
			471.6,304.2 456.3,304.2 441.1,304.2 441.1,319.4 425.9,319.4 425.9,334.6 410.7,334.6 395.5,334.6 395.5,349.9 380.3,349.9 
			380.3,365.1 365.1,365.1 365.1,380.3 349.9,380.3 349.9,395.5 334.6,395.5 334.6,410.7 319.4,410.7 319.4,425.9 304.2,425.9 
			304.2,441.1 304.2,456.3 289,456.3 289,471.5 289,486.8 304.2,486.8 304.2,471.5 319.4,471.5 319.4,456.3 		"/>
		<rect x="319.4" y="243.4" width="15.2" height="15.2"/>
		<polygon points="304.2,562.8 304.2,578 319.4,578 319.4,562.8 319.4,547.6 304.2,547.6 		"/>
		<rect x="304.2" y="486.8" width="15.2" height="15.2"/>
		<polygon points="319.4,273.8 319.4,258.6 304.2,258.6 289,258.6 289,273.8 304.2,273.8 		"/>
		<rect x="289" y="532.4" width="15.2" height="15.2"/>
		<polygon points="273.8,578 273.8,562.8 273.8,547.6 273.8,532.4 289,532.4 289,517.2 289,502 289,486.8 273.8,486.8 273.8,502 
			273.8,517.2 258.6,517.2 258.6,532.4 258.6,547.6 258.6,562.8 258.6,578 258.6,593.2 258.6,608.5 258.6,623.7 273.8,623.7 
			273.8,638.9 289,638.9 289,623.7 289,608.5 304.2,608.5 304.2,593.2 304.2,578 289,578 		"/>
		<polygon points="289,304.2 289,289 273.8,289 258.6,289 258.6,304.2 273.8,304.2 		"/>
		<polygon points="289,197.7 289,182.5 304.2,182.5 319.4,182.5 319.4,167.3 334.6,167.3 334.6,152.1 319.4,152.1 304.2,152.1 
			304.2,167.3 289,167.3 273.8,167.3 273.8,182.5 258.6,182.5 258.6,197.7 273.8,197.7 		"/>
		<rect x="258.6" y="380.3" width="15.2" height="15.2"/>
		<polygon points="273.8,243.4 273.8,228.2 258.6,228.2 258.6,243.4 258.6,258.6 273.8,258.6 		"/>
		<polygon points="258.6,425.9 258.6,410.7 243.4,410.7 243.4,425.9 243.4,441.1 258.6,441.1 		"/>
		<rect x="243.4" y="197.7" width="15.2" height="15.2"/>
		<rect x="228.2" y="623.7" width="15.2" height="15.2"/>
		<rect x="228.2" y="593.2" width="15.2" height="15.2"/>
		<polygon points="243.4,562.8 243.4,547.6 228.2,547.6 228.2,562.8 228.2,578 243.4,578 		"/>
		<polygon points="243.4,517.2 243.4,502 243.4,486.8 243.4,471.5 243.4,456.3 243.4,441.1 228.2,441.1 228.2,456.3 228.2,471.5 
			228.2,486.8 228.2,502 228.2,517.2 228.2,532.4 243.4,532.4 		"/>
		<rect x="228.2" y="213" width="15.2" height="15.2"/>
		<rect x="213" y="669.3" width="15.2" height="15.2"/>
		<polygon points="213,638.9 197.8,638.9 197.8,623.7 197.8,608.5 197.8,593.2 197.8,578 197.8,562.8 197.8,547.6 197.8,532.4 
			197.8,517.2 197.8,502 197.8,486.8 197.8,471.5 197.8,456.3 197.8,441.1 197.8,425.9 197.8,410.7 197.8,395.5 197.8,380.3 
			197.8,365.1 182.5,365.1 182.5,380.3 182.5,395.5 182.5,410.7 182.5,425.9 182.5,441.1 182.5,456.3 182.5,471.5 182.5,486.8 
			182.5,502 182.5,517.2 182.5,532.4 182.5,547.6 182.5,562.8 182.5,578 182.5,593.2 182.5,608.5 182.5,623.7 182.5,638.9 
			182.5,654.1 197.8,654.1 197.8,669.3 213,669.3 213,654.1 		"/>
		<polygon points="213,334.6 213,319.4 228.2,319.4 228.2,304.2 228.2,289 243.4,289 243.4,273.8 258.6,273.8 258.6,258.6 
			243.4,258.6 228.2,258.6 228.2,243.4 228.2,228.2 213,228.2 213,243.4 213,258.6 213,273.8 213,289 213,304.2 197.8,304.2 
			197.8,319.4 197.8,334.6 197.8,349.9 213,349.9 		"/>
		<polygon points="152.1,867 136.9,867 136.9,882.3 121.7,882.3 121.7,897.5 106.5,897.5 106.5,912.7 91.3,912.7 91.3,927.9 
			91.3,943.1 106.5,943.1 106.5,927.9 121.7,927.9 121.7,912.7 136.9,912.7 136.9,897.5 152.1,897.5 152.1,882.3 167.3,882.3 
			182.5,882.3 182.5,867 167.3,867 		"/>
		<polygon points="76.1,958.3 60.9,958.3 60.9,973.5 60.9,988.7 76.1,988.7 76.1,973.5 91.3,973.5 91.3,958.3 91.3,943.1 
			76.1,943.1 		"/>
		<polygon points="45.6,1003.9 30.4,1003.9 30.4,1019.2 30.4,1034.4 45.6,1034.4 45.6,1019.2 60.9,1019.2 60.9,1003.9 60.9,988.7 
			45.6,988.7 		"/>
		<polygon points="15.2,1049.6 15.2,1064.8 0,1064.8 0,1080 15.2,1080 30.4,1080 30.4,1064.8 30.4,1049.6 30.4,1034.4 15.2,1034.4 
					"/>
	</g>
</g>
<g>
	<rect x="394.9" y="988.9" width="15.2" height="15.2"/>
	<rect x="394.9" y="973.7" width="15.2" height="15.2"/>
	<rect x="394.9" y="958.4" width="15.2" height="15.2"/>
	<rect x="394.9" y="943.2" width="15.2" height="15.2"/>
	<rect x="379.7" y="988.9" width="15.2" height="15.2"/>
	<rect x="379.7" y="973.7" fill="#F26B4C" width="15.2" height="15.2"/>
	<rect x="379.7" y="958.4" fill="#CE3E17" width="15.2" height="15.2"/>
	<rect x="379.7" y="943.2" width="15.2" height="15.2"/>
	<rect x="379.7" y="928" width="15.2" height="15.2"/>
	<rect x="379.7" y="912.8" width="15.2" height="15.2"/>
	<rect x="364.5" y="988.9" width="15.2" height="15.2"/>
	<rect x="364.5" y="973.7" fill="#CE3E17" width="15.2" height="15.2"/>
	<rect x="364.5" y="958.4" fill="#CE3E17" width="15.2" height="15.2"/>
	<rect x="364.5" y="912.8" width="15.2" height="15.2"/>
	<rect x="364.5" y="897.6" width="15.2" height="15.2"/>
	<rect x="349.3" y="988.9" width="15.2" height="15.2"/>
	<rect x="349.3" y="973.7" fill="#CE3E17" width="15.2" height="15.2"/>
	<rect x="349.3" y="897.6" width="15.2" height="15.2"/>
	<rect x="349.3" y="882.4" width="15.2" height="15.2"/>
	<rect x="334.1" y="988.9" width="15.2" height="15.2"/>
	<rect x="334.1" y="973.7" width="15.2" height="15.2"/>
	<rect x="334.1" y="958.4" width="15.2" height="15.2"/>
	<rect x="334.1" y="882.4" width="15.2" height="15.2"/>
	<rect x="334.1" y="867.2" width="15.2" height="15.2"/>
	<rect x="318.9" y="1064.9" width="15.2" height="15.2"/>
	<rect x="318.9" y="1049.7" width="15.2" height="15.2"/>
	<rect x="318.9" y="1034.5" width="15.2" height="15.2"/>
	<rect x="318.9" y="1019.3" width="15.2" height="15.2"/>
	<rect x="318.9" y="1004.1" width="15.2" height="15.2"/>
	<rect x="318.9" y="988.9" width="15.2" height="15.2"/>
	<rect x="318.9" y="973.7" width="15.2" height="15.2"/>
	<rect x="318.9" y="958.4" width="15.2" height="15.2"/>
	<rect x="318.9" y="943.2" width="15.2" height="15.2"/>
	<rect x="318.9" y="867.2" width="15.2" height="15.2"/>
	<rect x="318.9" y="852" width="15.2" height="15.2"/>
	<rect x="303.7" y="973.7" width="15.2" height="15.2"/>
	<rect x="303.7" y="958.4" width="15.2" height="15.2"/>
	<rect x="303.7" y="943.2" width="15.2" height="15.2"/>
	<rect x="303.7" y="928" width="15.2" height="15.2"/>
	<rect x="303.7" y="852" width="15.2" height="15.2"/>
	<rect x="303.7" y="836.8" width="15.2" height="15.2"/>
	<rect x="288.4" y="943.2" width="15.2" height="15.2"/>
	<rect x="288.4" y="928" width="15.2" height="15.2"/>
	<rect x="288.4" y="912.8" width="15.2" height="15.2"/>
	<rect x="288.4" y="836.8" width="15.2" height="15.2"/>
	<rect x="288.4" y="821.5" width="15.2" height="15.2"/>
	<rect x="288.4" y="806.3" width="15.2" height="15.2"/>
	<rect x="288.4" y="791.1" width="15.2" height="15.2"/>
	<rect x="288.4" y="775.9" width="15.2" height="15.2"/>
	<rect x="273.2" y="912.8" width="15.2" height="15.2"/>
	<rect x="273.2" y="897.6" width="15.2" height="15.2"/>
	<g>
		<polygon fill="#362014" points="364.5,928 364.5,912.8 349.3,912.8 349.3,897.6 334.1,897.6 334.1,882.4 318.9,882.4 318.9,867.2 
			303.7,867.2 303.7,852 288.4,852 288.4,867.2 288.4,882.4 303.7,882.4 303.7,897.6 318.9,897.6 318.9,912.8 334.1,912.8 
			334.1,928 349.3,928 349.3,943.2 364.5,943.2 364.5,958.4 379.7,958.4 379.7,943.2 379.7,928 		"/>
		<rect x="273.2" y="836.8" fill="#362014" width="15.2" height="15.2"/>
	</g>
	<rect x="273.2" y="821.5" width="15.2" height="15.2"/>
	<rect x="273.2" y="806.3" fill="#1B4D19" width="15.2" height="15.2"/>
	<rect x="273.2" y="791.1" fill="#1B4D19" width="15.2" height="15.2"/>
	<rect x="273.2" y="775.9" width="15.2" height="15.2"/>
	<rect x="258" y="1004.1" width="15.2" height="15.2"/>
	<rect x="258" y="988.9" width="15.2" height="15.2"/>
	<rect x="258" y="973.7" width="15.2" height="15.2"/>
	<rect x="258" y="882.4" width="15.2" height="15.2"/>
	<rect x="258" y="867.2" width="15.2" height="15.2"/>
	<polygon fill="#512C1B" points="349.3,943.2 349.3,928 334.1,928 334.1,912.8 318.9,912.8 318.9,897.6 303.7,897.6 303.7,882.4 
		288.4,882.4 288.4,867.2 288.4,852 273.2,852 273.2,836.8 258,836.8 258,852 258,867.2 273.2,867.2 273.2,882.4 273.2,897.6 
		288.4,897.6 288.4,912.8 303.7,912.8 303.7,928 318.9,928 318.9,943.2 334.1,943.2 334.1,958.4 349.3,958.4 349.3,973.7 
		364.5,973.7 364.5,958.4 364.5,943.2 	"/>
	<rect x="258" y="821.5" width="15.2" height="15.2"/>
	<rect x="258" y="806.3" width="15.2" height="15.2"/>
	<rect x="258" y="791.1" fill="#1B4D19" width="15.2" height="15.2"/>
	<rect x="258" y="775.9" width="15.2" height="15.2"/>
	<rect x="258" y="760.7" width="15.2" height="15.2"/>
	<rect x="258" y="745.5" width="15.2" height="15.2"/>
	<rect x="258" y="730.3" width="15.2" height="15.2"/>
	<rect x="242.8" y="958.4" width="15.2" height="15.2"/>
	<rect x="242.8" y="882.4" width="15.2" height="15.2"/>
	<rect x="242.8" y="867.2" width="15.2" height="15.2"/>
	<rect x="242.8" y="852" width="15.2" height="15.2"/>
	<rect x="242.8" y="836.8" width="15.2" height="15.2"/>
	<rect x="242.8" y="821.5" width="15.2" height="15.2"/>
	<rect x="242.8" y="806.3" width="15.2" height="15.2"/>
	<rect x="242.8" y="791.1" width="15.2" height="15.2"/>
	<rect x="242.8" y="775.9" width="15.2" height="15.2"/>
	<rect x="242.8" y="715.1" width="15.2" height="15.2"/>
	<rect x="227.6" y="958.4" width="15.2" height="15.2"/>
	<rect x="227.6" y="943.2" width="15.2" height="15.2"/>
	<rect x="227.6" y="897.6" width="15.2" height="15.2"/>
	<rect x="227.6" y="882.4" width="15.2" height="15.2"/>
	<rect x="227.6" y="821.5" width="15.2" height="15.2"/>
	<rect x="227.6" y="775.9" width="15.2" height="15.2"/>
	<rect x="227.6" y="715.1" width="15.2" height="15.2"/>
	<rect x="212.4" y="943.2" width="15.2" height="15.2"/>
	<rect x="212.4" y="928" width="15.2" height="15.2"/>
	<rect x="212.4" y="912.8" width="15.2" height="15.2"/>
	<rect x="212.4" y="897.6" width="15.2" height="15.2"/>
	<rect x="212.4" y="836.8" width="15.2" height="15.2"/>
	<rect x="212.4" y="775.9" width="15.2" height="15.2"/>
	<rect x="212.4" y="715.1" width="15.2" height="15.2"/>
	<rect x="197.2" y="852" width="15.2" height="15.2"/>
	<rect x="197.2" y="836.8" width="15.2" height="15.2"/>
	<rect x="197.2" y="775.9" width="15.2" height="15.2"/>
	<rect x="197.2" y="730.3" width="15.2" height="15.2"/>
	<rect x="182" y="867.2" width="15.2" height="15.2"/>
	<rect x="182" y="852" width="15.2" height="15.2"/>
	<rect x="182" y="791.1" width="15.2" height="15.2"/>
	<rect x="182" y="730.3" width="15.2" height="15.2"/>
	<rect x="166.8" y="1064.9" width="15.2" height="15.2"/>
	<rect x="166.8" y="1049.7" width="15.2" height="15.2"/>
	<rect x="166.8" y="912.8" width="15.2" height="15.2"/>
	<rect x="166.8" y="897.6" width="15.2" height="15.2"/>
	<rect x="166.8" y="882.4" width="15.2" height="15.2"/>
	<rect x="166.8" y="806.3" width="15.2" height="15.2"/>
	<rect x="166.8" y="745.5" width="15.2" height="15.2"/>
	<rect x="151.5" y="1049.7" width="15.2" height="15.2"/>
	<rect x="151.5" y="1034.5" width="15.2" height="15.2"/>
	<rect x="151.5" y="1019.3" width="15.2" height="15.2"/>
	<rect x="151.5" y="958.4" width="15.2" height="15.2"/>
	<rect x="151.5" y="943.2" width="15.2" height="15.2"/>
	<rect x="151.5" y="928" width="15.2" height="15.2"/>
	<rect x="151.5" y="912.8" width="15.2" height="15.2"/>
	<rect x="151.5" y="836.8" width="15.2" height="15.2"/>
	<rect x="151.5" y="821.5" width="15.2" height="15.2"/>
	<rect x="151.5" y="760.7" width="15.2" height="15.2"/>
	<rect x="136.3" y="1034.5" width="15.2" height="15.2"/>
	<rect x="136.3" y="1019.3" width="15.2" height="15.2"/>
	<rect x="136.3" y="1004.1" width="15.2" height="15.2"/>
	<rect x="136.3" y="988.9" width="15.2" height="15.2"/>
	<rect x="136.3" y="852" width="15.2" height="15.2"/>
	<rect x="136.3" y="836.8" width="15.2" height="15.2"/>
	<rect x="136.3" y="791.1" width="15.2" height="15.2"/>
	<rect x="136.3" y="775.9" width="15.2" height="15.2"/>
	<rect x="121.1" y="1004.1" width="15.2" height="15.2"/>
	<rect x="121.1" y="988.9" width="15.2" height="15.2"/>
	<rect x="121.1" y="973.7" width="15.2" height="15.2"/>
	<rect x="121.1" y="958.4" width="15.2" height="15.2"/>
	<rect x="121.1" y="867.2" width="15.2" height="15.2"/>
	<rect x="121.1" y="852" width="15.2" height="15.2"/>
	<rect x="121.1" y="836.8" width="15.2" height="15.2"/>
	<rect x="121.1" y="821.5" width="15.2" height="15.2"/>
	<rect x="121.1" y="806.3" width="15.2" height="15.2"/>
	<rect x="105.9" y="958.4" width="15.2" height="15.2"/>
	<rect x="105.9" y="943.2" width="15.2" height="15.2"/>
	<rect x="105.9" y="928" width="15.2" height="15.2"/>
	<rect x="105.9" y="912.8" width="15.2" height="15.2"/>
	<rect x="105.9" y="897.6" width="15.2" height="15.2"/>
	<rect x="105.9" y="882.4" width="15.2" height="15.2"/>
	<rect x="105.9" y="867.2" width="15.2" height="15.2"/>
	<rect x="105.9" y="852" width="15.2" height="15.2"/>
	<rect x="410.7" y="974.5" fill="#1E1C1B" width="15.2" height="15.2"/>
	<rect x="410.7" y="944.1" fill="#1E1C1B" width="15.2" height="15.2"/>
	<rect x="410.7" y="928.9" fill="#1E1C1B" width="15.2" height="15.2"/>
	<rect x="395.5" y="974.5" fill="#1E1C1B" width="15.2" height="15.2"/>
	<rect x="395.5" y="959.3" fill="#1E1C1B" width="15.2" height="15.2"/>
	<rect x="395.5" y="944.1" fill="#1E1C1B" width="15.2" height="15.2"/>
	<rect x="395.5" y="852.8" fill="#2A2A2A" width="15.2" height="15.2"/>
	<rect x="258.6" y="533.4" fill="#5B5656" width="15.2" height="15.2"/>
	<rect x="243.4" y="852.8" width="15.2" height="15.2"/>
	<rect x="243.4" y="837.6" width="15.2" height="15.2"/>
	<rect x="243.4" y="533.4" fill="#5B5656" width="15.2" height="15.2"/>
	<rect x="243.4" y="518.2" fill="#5B5656" width="15.2" height="15.2"/>
	<rect x="243.4" y="503" fill="#5B5656" width="15.2" height="15.2"/>
	<rect x="228.1" y="533.4" fill="#5B5656" width="15.2" height="15.2"/>
	<rect x="228.1" y="518.2" fill="#5B5656" width="15.2" height="15.2"/>
	<rect x="228.1" y="503" fill="#5B5656" width="15.2" height="15.2"/>
	<rect x="228.1" y="487.8" fill="#5B5656" width="15.2" height="15.2"/>
	<rect x="228.1" y="472.6" fill="#5B5656" width="15.2" height="15.2"/>
	<rect x="152.1" y="1065.8" width="15.2" height="15.2"/>
	<rect x="136.9" y="1050.6" width="15.2" height="15.2"/>
	<g>
		<polygon fill="#18481B" points="303.7,988.9 303.7,973.7 303.7,958.4 288.4,958.4 288.4,973.7 288.4,988.9 288.4,1004.1 
			288.4,1019.3 288.4,1034.5 288.4,1049.7 288.4,1064.9 273.2,1064.9 273.2,1049.7 273.2,1034.5 273.2,1019.3 258,1019.3 
			258,1004.1 258,988.9 258,973.7 242.8,973.7 227.6,973.7 227.6,958.4 212.4,958.4 212.4,943.2 212.4,928 212.4,912.8 212.4,897.6 
			197.2,897.6 197.2,912.8 197.2,928 197.2,943.2 197.2,958.4 197.2,973.7 197.2,988.9 212.4,988.9 212.4,1004.1 227.6,1004.1 
			227.6,1019.3 227.6,1034.5 227.6,1049.7 227.6,1064.9 227.6,1080.1 242.8,1080.1 258,1080.1 273.2,1080.1 288.4,1080.1 
			303.7,1080.1 318.9,1080.1 318.9,1064.9 318.9,1049.7 318.9,1034.5 318.9,1019.3 318.9,1004.1 318.9,988.9 		"/>
		<polygon fill="#18481B" points="288.4,928 273.2,928 273.2,912.8 273.2,897.6 258,897.6 242.8,897.6 242.8,912.8 227.6,912.8 
			227.6,928 227.6,943.2 242.8,943.2 242.8,928 258,928 258,943.2 273.2,943.2 273.2,958.4 288.4,958.4 288.4,943.2 		"/>
		<rect x="227.6" y="867.2" fill="#18481B" width="15.2" height="15.2"/>
		<rect x="212.4" y="882.4" fill="#18481B" width="15.2" height="15.2"/>
		<rect x="166.8" y="1034.6" fill="#18481B" width="15.2" height="16.1"/>
		<rect x="121.1" y="943.2" fill="#18481B" width="15.2" height="15.2"/>
		<polygon fill="#18481B" points="212.9,837.6 212.9,822.4 228.1,822.4 228.1,807.2 212.9,807.2 197.7,807.2 197.7,822.4 
			182.5,822.4 167.3,822.4 167.3,837.6 167.3,852.8 152.1,852.8 152.1,868 136.9,868 136.9,883.3 136.9,898.5 136.9,913.7 
			152.1,913.7 152.1,898.5 152.1,883.3 167.3,883.3 167.3,868 182.5,868 182.5,852.8 182.5,837.6 197.7,837.6 		"/>
		<polygon fill="#18481B" points="182.5,776.8 197.7,776.8 212.9,776.8 228.1,776.8 228.1,761.6 242.8,761.6 242.8,775.9 258,775.9 
			258,760.7 258,745.5 242.8,745.5 242.8,746.4 228.1,746.4 212.9,746.4 212.9,761.6 197.7,761.6 182.5,761.6 167.3,761.6 
			167.3,776.8 167.3,792 182.5,792 		"/>
	</g>
	<rect x="121.7" y="1050.6" width="15.2" height="15.2"/>
	<rect x="121.7" y="1035.4" width="15.2" height="15.2"/>
	<rect x="121.7" y="1020.2" width="15.2" height="15.2"/>
	<rect x="106.5" y="1020.2" width="15.2" height="15.2"/>
	<rect x="106.5" y="1004.9" width="15.2" height="15.2"/>
	<rect x="106.5" y="989.7" width="15.2" height="15.2"/>
	<rect x="106.5" y="898.5" width="15.2" height="15.2"/>
	<rect x="106.5" y="883.3" width="15.2" height="15.2"/>
	<rect x="106.5" y="868" width="15.2" height="15.2"/>
	<g>
		<polygon fill="#3AAF3D" points="242.8,730.3 227.6,730.3 212.4,730.3 212.4,745.5 197.2,745.5 182,745.5 182,760.7 197.2,760.7 
			212.4,760.7 227.6,760.7 227.6,745.5 242.8,745.5 258,745.5 258,730.3 		"/>
		<rect x="227.6" y="836.8" fill="#3AAF3D" width="15.2" height="15.2"/>
		<polygon fill="#3AAF3D" points="212.4,791.1 197.2,791.1 197.2,806.3 182,806.3 182,821.5 197.2,821.5 212.4,821.5 212.4,806.3 
			227.6,806.3 242.8,806.3 242.8,791.1 227.6,791.1 		"/>
		<polygon fill="#3AAF3D" points="166.8,836.8 166.8,852 151.5,852 151.5,867.2 166.8,867.2 182,867.2 182,852 182,836.8 182,821.5 
			166.8,821.5 		"/>
		<polygon fill="#3AAF3D" points="166.8,775.9 151.5,775.9 151.5,791.1 166.8,791.1 182,791.1 182,775.9 182,760.7 166.8,760.7 		
			"/>
		<rect x="136.3" y="867.2" fill="#3AAF3D" width="15.2" height="15.2"/>
		<polygon fill="#3AAF3D" points="121.1,897.6 121.1,912.8 121.1,928 121.1,943.2 136.3,943.2 136.3,928 136.3,912.8 136.3,897.6 
			136.3,882.4 121.1,882.4 		"/>
		<polygon fill="#3AAF3D" points="136.9,837.6 136.9,836.8 151.5,836.8 151.5,821.5 151.5,806.3 136.3,806.3 136.3,821.5 
			136.3,822.4 121.7,822.4 121.7,837.6 121.7,852.8 136.9,852.8 		"/>
		<rect x="106.5" y="852.8" fill="#3AAF3D" width="15.2" height="15.2"/>
	</g>
	<rect x="106.5" y="837.6" width="15.2" height="15.2"/>
	<rect x="91.2" y="989.7" width="15.2" height="15.2"/>
	<rect x="91.2" y="974.5" width="15.2" height="15.2"/>
	<rect x="91.2" y="959.3" width="15.2" height="15.2"/>
	<rect x="91.2" y="944.1" width="15.2" height="15.2"/>
	<rect x="91.2" y="928.9" width="15.2" height="15.2"/>
	<g>
		<polygon fill="#2E8D33" points="273.2,958.4 273.2,943.2 258,943.2 258,928 242.8,928 242.8,943.2 242.8,958.4 258,958.4 
			258,973.7 273.2,973.7 273.2,988.9 273.2,1004.1 273.2,1019.3 273.2,1034.5 273.2,1049.7 273.2,1064.9 288.4,1064.9 288.4,1049.7 
			288.4,1034.5 288.4,1019.3 288.4,1004.1 288.4,988.9 288.4,973.7 288.4,958.4 		"/>
		<polygon fill="#2E8D33" points="212.4,806.3 212.4,821.5 197.2,821.5 182,821.5 182,836.8 182,852 197.2,852 197.2,836.8 
			212.4,836.8 227.6,836.8 227.6,821.5 242.8,821.5 242.8,806.3 227.6,806.3 		"/>
		<polygon fill="#2E8D33" points="197.2,775.9 212.4,775.9 227.6,775.9 242.8,775.9 242.8,760.7 242.8,745.5 227.6,745.5 
			227.6,760.7 212.4,760.7 197.2,760.7 182,760.7 182,775.9 182,791.1 197.2,791.1 		"/>
		<polygon fill="#2E8D33" points="166.8,806.3 182,806.3 182,791.1 166.8,791.1 151.5,791.1 151.5,806.3 151.5,821.5 166.8,821.5 		
			"/>
		<path fill="#2E8D33" d="M228.1,883.3h15.2V868v-15.2v-15.2h-15.2h-15.2V852h-0.5v15.2h-15.2v15.2H182v15.2v15.2V928h-15.2v15.2
			v15.2v15.2h-15.2v-15.2v-15.2V928v-15.2h15.2v-15.2v-15.2H182v-15.2h-15.2h-15.2v15.2h-15.2v15.2v15.2V928v15.2v15.2v15.2v0.9
			h-14.7v-15.2v-15.2h-15.2v15.2v15.2v15.2h15.2v15.2v15.2h15.2v15.2v15.2h15.2v15.2h15.2v15.2h15.2v-0.9h14.7h15.2h15.2v-15.2
			v-15.2v-15.2v-15.2v-15.2h-15.2v-15.2h-15.2v-15.2v-15.2v-15.2V928v-15.2v-15.2h15.2v-15.2h0.5v0.9H228.1z M136.9,989.7v-0.9h14.7
			v15.2v0.9h-14.7V989.7z M152.1,1035.4v-15.2v-0.9h14.7v15.2H182v15.2v0.9h-14.7v-15.2H152.1z"/>
		<polygon fill="#2E8D33" points="106.5,913.7 106.5,898.5 106.5,883.3 106.5,868 91.2,868 91.2,883.3 91.2,898.5 91.2,913.7 
			91.2,928.9 106.5,928.9 		"/>
	</g>
	<rect x="91.2" y="852.8" fill="#1E1C1B" width="15.2" height="15.2"/>
	<rect x="91.2" y="837.6" width="15.2" height="15.2"/>
	<g>
		<polygon fill="#A9A9A9" points="410.7,685.5 410.7,700.7 410.7,715.9 395.5,715.9 380.3,715.9 380.3,731.1 380.3,746.4 365,746.4 
			365,761.6 365,776.8 380.3,776.8 395.5,776.8 395.5,761.6 395.5,746.4 395.5,731.1 410.7,731.1 425.9,731.1 425.9,715.9 
			425.9,700.7 425.9,685.5 		"/>
		<polygon fill="#A9A9A9" points="349.8,792 349.8,776.8 334.6,776.8 334.6,761.6 319.4,761.6 319.4,746.4 334.6,746.4 334.6,731.1 
			319.4,731.1 304.2,731.1 304.2,746.4 304.2,761.6 304.2,776.8 319.4,776.8 319.4,792 319.4,807.2 334.6,807.2 334.6,822.4 
			349.8,822.4 365,822.4 365,807.2 349.8,807.2 		"/>
		<polygon fill="#A9A9A9" points="243.4,624.7 228.1,624.7 212.9,624.7 212.9,639.9 212.9,655.1 228.1,655.1 228.1,670.3 
			243.4,670.3 243.4,685.5 228.1,685.5 212.9,685.5 212.9,700.7 212.9,715.9 228.1,715.9 243.4,715.9 243.4,731.1 258.6,731.1 
			273.8,731.1 273.8,715.9 273.8,700.7 258.6,700.7 258.6,685.5 258.6,670.3 273.8,670.3 273.8,655.1 273.8,639.9 273.8,624.7 
			258.6,624.7 		"/>
		<polygon fill="#A9A9A9" points="258.6,579 258.6,563.8 258.6,548.6 243.4,548.6 228.1,548.6 228.1,563.8 228.1,579 243.4,579 		
			"/>
		<polygon fill="#A9A9A9" points="228.1,594.2 228.1,579 212.9,579 197.7,579 197.7,594.2 212.9,594.2 		"/>
		<polygon fill="#A9A9A9" points="212.9,563.8 212.9,548.6 212.9,533.4 212.9,518.2 197.7,518.2 197.7,503 182.5,503 167.3,503 
			167.3,518.2 182.5,518.2 182.5,533.4 197.7,533.4 197.7,548.6 182.5,548.6 167.3,548.6 167.3,563.8 182.5,563.8 197.7,563.8 		"/>
		<polygon fill="#A9A9A9" points="212.9,487.8 228.1,487.8 228.1,472.6 212.9,472.6 197.7,472.6 197.7,457.3 182.5,457.3 
			167.3,457.3 167.3,472.6 167.3,487.8 182.5,487.8 197.7,487.8 197.7,503 212.9,503 		"/>
		<polygon fill="#A9A9A9" points="212.9,305.2 197.7,305.2 182.5,305.2 182.5,320.4 182.5,335.7 182.5,350.9 197.7,350.9 
			212.9,350.9 228.1,350.9 243.4,350.9 243.4,335.7 243.4,320.4 243.4,305.2 258.6,305.2 258.6,290 258.6,274.8 258.6,259.6 
			258.6,244.4 243.4,244.4 228.1,244.4 228.1,259.6 243.4,259.6 243.4,274.8 243.4,290 228.1,290 228.1,305.2 228.1,320.4 
			228.1,335.7 212.9,335.7 212.9,320.4 		"/>
		<polygon fill="#A9A9A9" points="167.3,411.7 167.3,396.5 152.1,396.5 152.1,381.3 136.9,381.3 136.9,396.5 136.9,411.7 
			136.9,426.9 121.7,426.9 106.5,426.9 106.5,411.7 91.2,411.7 91.2,426.9 91.2,442.1 106.5,442.1 106.5,457.3 121.7,457.3 
			136.9,457.3 136.9,442.1 152.1,442.1 152.1,426.9 167.3,426.9 		"/>
		<polygon fill="#A9A9A9" points="152.1,335.7 152.1,320.4 136.9,320.4 136.9,305.2 121.7,305.2 106.5,305.2 91.2,305.2 91.2,320.4 
			106.5,320.4 121.7,320.4 121.7,335.7 136.9,335.7 136.9,350.9 152.1,350.9 		"/>
		<polygon fill="#A9A9A9" points="121.7,563.8 121.7,579 106.5,579 106.5,563.8 91.2,563.8 76,563.8 76,579 76,594.2 76,609.5 
			91.2,609.5 106.5,609.5 121.7,609.5 136.9,609.5 136.9,624.7 152.1,624.7 152.1,609.5 152.1,594.2 136.9,594.2 136.9,579 
			136.9,563.8 136.9,548.6 121.7,548.6 		"/>
		<polygon fill="#A9A9A9" points="136.9,487.8 121.7,487.8 106.5,487.8 91.2,487.8 91.2,503 106.5,503 106.5,518.2 121.7,518.2 
			136.9,518.2 136.9,533.4 136.9,548.6 152.1,548.6 152.1,533.4 152.1,518.2 152.1,503 136.9,503 		"/>
		<polygon fill="#A9A9A9" points="136.9,350.9 121.7,350.9 121.7,366.1 106.5,366.1 106.5,350.9 91.2,350.9 91.2,366.1 91.2,381.3 
			106.5,381.3 121.7,381.3 136.9,381.3 136.9,366.1 		"/>
		<polygon fill="#A9A9A9" points="136.9,274.8 136.9,259.6 152.1,259.6 167.3,259.6 182.5,259.6 197.7,259.6 197.7,244.4 
			182.5,244.4 167.3,244.4 152.1,244.4 136.9,244.4 121.7,244.4 121.7,259.6 121.7,274.8 121.7,290 136.9,290 		"/>
	</g>
	<g>
		<polygon fill="#707070" points="441.1,928.9 441.1,913.7 425.9,913.7 425.9,898.5 441.1,898.5 441.1,883.3 441.1,868 425.9,868 
			425.9,852.8 410.7,852.8 410.7,868 395.5,868 395.5,883.3 410.7,883.3 410.7,898.5 410.7,913.7 410.7,928.9 425.9,928.9 
			425.9,944.1 425.9,959.3 410.7,959.3 410.7,974.5 425.9,974.5 441.1,974.5 441.1,959.3 456.3,959.3 456.3,944.1 456.3,928.9 		"/>
		<polygon fill="#707070" points="410.7,822.4 410.7,807.2 410.7,792 395.5,792 380.3,792 380.3,807.2 395.5,807.2 395.5,822.4 
			380.3,822.4 365,822.4 349.8,822.4 334.6,822.4 334.6,837.6 349.8,837.6 365,837.6 380.3,837.6 380.3,852.8 395.5,852.8 
			410.7,852.8 410.7,837.6 		"/>
		<polygon fill="#707070" points="395.5,731.1 395.5,746.4 410.7,746.4 425.9,746.4 425.9,731.1 410.7,731.1 		"/>
		<path fill="#707070" d="M365,776.8v-15.2h-15.2v-15.2v-15.2v-15.2h-15.2v-15.2h-15.2v-15.2h-15.2v-15.2H289v-15.2v-15.2v-15.2
			h-15.2v15.2v15.2v15.2h-15.2v15.2v15.2h15.2v15.2v15.2h-15.2h-15.2v-15.2h-15.2h-15.2v-15.2v-15.2h15.2h15.2v-15.2h-15.2v-15.2
			h-15.2v-15.2v-15.2h15.2h15.2v-15.2h-15.2v-15.2h-15.2h-15.2V579h15.2h15.2v-15.2v-15.2v-15.2v-15.2V503v-15.2h-15.2V503h-15.2
			v15.2h15.2v15.2v15.2v15.2h-15.2h-15.2h-15.2v-15.2h15.2h15.2v-15.2h-15.2v-15.2h-15.2V503h15.2h15.2v-15.2h-15.2h-15.2v-15.2
			v-15.2v-15.2h15.2h15.2v-15.2v-15.2v-15.2v-15.2h15.2v-15.2h15.2v-15.2h-15.2h-15.2h-15.2v-15.2v-15.2v-15.2h15.2h15.2v15.2v15.2
			h15.2v-15.2v-15.2V290h15.2v-15.2v-15.2h-15.2v15.2h-15.2v-15.2v-15.2v-15.2h-15.2v15.2v15.2h-15.2h-15.2h-15.2h-15.2v15.2V290
			h-15.2v-15.2v-15.2v-15.2h-15.2v15.2H91.2H76v15.2V290v15.2H60.8H45.6v15.2v15.2H30.4v15.2v15.2h15.2v15.2v15.2v15.2v15.2h15.2H76
			v15.2v15.2H60.8H45.6v15.2v15.2H30.4H15.2V503h15.2v15.2v15.2h15.2v15.2H30.4v15.2H15.2V579v15.2v15.2h15.2h15.2v15.2v15.2h15.2
			v15.2H76v-15.2h15.2h15.2h15.2h15.2h15.2h15.2h15.2v15.2h15.2v15.2h-15.2v15.2v15.2v15.2h15.2v15.2h15.2h15.2v15.2h15.2h15.2h15.2
			H289v15.2h15.2v-15.2v-15.2h15.2h15.2v15.2h-15.2v15.2h15.2v15.2h15.2V792v15.2H365V792h15.2v-15.2H365z M91.2,426.9v-15.2h15.2
			v15.2h15.2h15.2v-15.2v-15.2v-15.2h-15.2h-15.2H91.2v-15.2v-15.2h15.2v15.2h15.2v-15.2h15.2v-15.2h-15.2v-15.2h-15.2H91.2v-15.2
			h15.2h15.2h15.2v15.2h15.2v15.2v15.2h-15.2v15.2v15.2h15.2v15.2h15.2v15.2v15.2h-15.2v15.2h-15.2v15.2h-15.2h-15.2v-15.2H91.2
			V426.9z M136.9,624.7v-15.2h-15.2h-15.2H91.2H76v-15.2V579v-15.2h15.2h15.2V579h15.2v-15.2v-15.2h15.2v-15.2v-15.2h-15.2h-15.2
			V503H91.2v-15.2h15.2h15.2h15.2V503h15.2v15.2v15.2v15.2h-15.2v15.2V579v15.2h15.2v15.2v15.2H136.9z"/>
		<polygon fill="#707070" points="380.3,731.1 380.3,715.9 395.5,715.9 410.7,715.9 410.7,700.7 410.7,685.5 395.5,685.5 
			380.3,685.5 380.3,700.7 365,700.7 365,715.9 365,731.1 365,746.4 380.3,746.4 		"/>
		<rect x="319.4" y="807.2" fill="#707070" width="15.2" height="15.2"/>
		<rect x="304.2" y="776.8" fill="#707070" width="15.2" height="15.2"/>
		<rect x="258.6" y="609.5" fill="#707070" width="15.2" height="15.2"/>
		<rect x="228.1" y="579" fill="#707070" width="15.2" height="15.2"/>
	</g>
</g>
<g>
</g>
</svg>
