<?xml version="1.0" encoding="utf-8"?>
<!-- Generator: Adobe Illustrator 18.1.0, SVG Export Plug-In . SVG Version: 6.00 Build 0)  -->
<svg version="1.1" id="Layer_1" xmlns="http://www.w3.org/2000/svg" xmlns:xlink="http://www.w3.org/1999/xlink" x="0px" y="0px"
	 viewBox="0 0 1080 1080" enable-background="new 0 0 1080 1080" xml:space="preserve">
<path fill="#5D5D5D" d="M988.7,1064.8v-15.2v-15.2h-15.2v-15.2h-15.2v-15.2h-15.2v-15.2v-15.2h-15.2h-15.2v-15.2v-15.2h-15.2v-15.2
	h-15.2h-14.6l-0.6-0.8v-14.5v-15.2h-15.2v-15.2h-15.2V867h-15.2h-15.2v-15.2H791h-15.2v-15.2h-15.2h-15.2v-15.2h15.2h15.2v-15.2H791
	V791h15.2v-15.2h15.2v-15.2v-15.2h15.2h15.2v-15.2H867V716c0,0,0,0,0,0c0.4-0.3,0.9-0.7,1.3-1h13.9v-14.7c0.1-0.2,0.2-0.3,0.3-0.5
	h14.9v-15.2v-15.2h-15.2v-15.2h15.2v-15.2h15.2v-15.2v-15.2h-15.2v-15.2h-15.2V578v-15.2H867h-15.2v-15.2H867v-15.2h15.2h15.2v-15.2
	V502v-15.2h-15.2v-15.2h15.2v-15.2v-15.2v-15.2v-15.2h-15.2v-15.2v-15.2v-15.2v-15.2h15.2v-15.2h15.2v-15.2v-15.2V289v-15.2v-15.2
	h-15.2h-15.2v15.2H867V289h-15.2v-15.2h-15.2v-10.1c1.2-1.7,2.4-3.4,3.6-5.1h11.6v-15.2v-2.5c2.5-4.2,5-8.4,7.2-12.7h8V213h15.2
	v-15.2v-15.2v-15.2h15.2v-15.2v-15.2h-15.2H867h-15.2v15.2h-15.2v15.2h-15.2v15.2h-15.2v15.2H791v-15.2h-15.2v-15.2h-15.2h-15.2
	h-15.2v-15.2h-15.2h-15.2h-15.2h-15.2h-15.2h-15.2v-15.2h-15.2h-15.2h-15.2H578h-15.2h-15.2h-15.2h-15.2H502v15.2h-15.2h-15.2h-15.2
	h-15.2h-15.2v15.2h-15.2h-15.2h-15.2v15.2h-15.2h-15.2v15.2h-15.2h-15.2V213h-15.2v15.2H289h-15.2v15.2v15.2h-15.2v15.2h-15.2V289
	v15.2h-15.2v15.2v15.2H213v15.2v15.2v15.2h15.2v-15.2h15.2h15.2v15.2h-15.2v15.2h-15.2v15.2v15.2H213v15.2v15.2h-15.2v15.2h-15.2
	v15.2V502h-15.2v15.2v15.2v15.2v14.8l-0.2,0.4h-15V578v15.2v15.2v15.2v15.2v15.2v15.2h15.2v15.2v15.2v15.2h15.2v15.2h15.2v-15.2H213
	v-15.2v-15.2v-15.2h15.2v15.2v15.2v15.2v15.2v15.2v15.2h15.2v15.2h-15.2V791v15.2v15.2H213v15.2h-15.2h-15.2v15.2h-15.2V867h-15.2
	h-15.2v15.2h-15.2v15.2h-15.2v15.2H91.3v15.2v15.2H76.1v15.2H60.8v15.2v15.2H45.6v15.2H30.4v15.2v15.2H15.2v15.2v15.2H0v15.2h15.2
	h15.2h15.2h15.2h15.2h15.2h15.2h15.2h15.2h15.2h15.2h15.2h15.2H213h15.2h15.2h15.2h15.2H289h15.2h15.2h15.2h15.2h15.2h15.2h15.2
	h15.2h15.2h15.2h15.2h15.2h15.2H502h15.2h15.2h15.2h15.2H578h15.2h15.2h15.2h15.2h15.2h15.2h15.2h15.2h15.2h15.2h15.2h15.2h15.2H791
	h15.2h15.2h15.2h15.2H867h15.2h15.2h15.2h15.2h15.2h15.2h15.2h15.2h15.2v-15.2H988.7z"/>
<g>
	<path fill="#C4C4C4" d="M357.5,221.7c22.9,2.9,32,31.2,50.4,45.1c18.2,13.7,44.8,12.4,62.3,27c6.2,5.2,10.8,12.1,17.5,16.5
		c11.5,7.5,26.2,6.1,39.9,6c22.2-0.2,44.4,3.6,65.3,11.1c20,7.2,40.5,18.1,61.3,13.7c12.4-2.7,22.9-10.5,32.8-18.3
		c46.5-36.5,90-76.8,129.9-120.3c16.6-18.1,35.3-38.2,59.8-40c0.9,37-18.6,71.2-40.2,101.2c-21.6,30-46.5,58.6-59.3,93.2
		c35.9-3.9,69.5-24.7,89.2-54.9c7-10.7,14.2-23.9,26.9-25.3c9.3,23.1,4.6,51.2-11.7,70c-4.7,5.4-10.4,10.4-12.2,17.4
		c-1.6,6.3,0.4,12.9,0.4,19.4c0,16.1-13,30-28,36.1c-15,6.1-31.6,6-47.7,5.9c22-2.9,44-5.8,65.9-8.7c4.4-0.6,8.9-1.1,13.1,0
		c10.3,2.8,15.6,15.4,13.4,25.9c-2.2,10.5-10,18.9-18.4,25.5c-3.3,2.6-7.2,5.7-7.3,9.9c-0.2,4.6,3.9,8,6.2,11.9
		c5,8.3,2.2,19.3-3.5,27.1c-5.7,7.8-13.9,13.4-20.9,20c-3.4,3.2-6.8,7.4-5.8,12c0.7,3.2,3.5,5.6,6.1,7.6
		c20.5,16.4,42.1,35.5,46.1,61.4c0.4,2.9,0.6,6-0.8,8.5c-1.6,2.9-4.8,4.4-7.7,6c-41.1,21.8-53.3,73.5-75.8,114.1
		c-21.1,38-54.3,69.2-93.7,87.8c-6.8,3.2-14.3,6.5-18.1,13c-2.8,4.8-3.1,10.6-3.5,16.2c-1.2,16.5-4.5,33.7-15,46.5
		c-12.5,15.3-33.6,21.7-53.3,20.5c-19.7-1.1-38.5-8.8-56.3-17.6c-82.5-40.6-151.1-104.4-216.3-169.2c-16-15.9-32-32.1-43.4-51.5
		c-17.1-29.1-22.8-63.3-28.1-96.7c-2.4-15.3-4.9-30.9-2.3-46.2c3-18,12.7-34.1,22.2-49.7c26.5-43.4,53.8-87.7,93.4-119.5
		c6.5-5.2,14.1-12.5,11.4-20.4c-0.9-2.5-2.8-4.6-4.5-6.6c-27.5-31.2-39.4-72.7-50.5-112.7c-1.7-6.1-2.8-14.1,2.5-17.6
		C351.7,221.5,354.7,221.4,357.5,221.7z"/>
	<path fill="#C0321A" d="M362,190c4-1,123-21,123-21l31-25c0,0,104,1,108,3s34,16,34,16l62-2l11,17l37,3l18,26l-21,32l-50.1,50
		l-45.6,45.6L499,323l-55-44l-78.9-50.8L347,219L362,190z"/>
	<path fill="#95301E" d="M221,847l3-15l18-21l13-48l-17-28l1-88l-27,15l-6,42l-29,2v-33c0,0-15-13-15-16s1-86,1-86l19.5-38.6
		L198,483l58-81l39-38l-69-5l14-48l60-63l31-38l20,67l35,67l17,34l-74,60c0,0-30,66-32,69s-16,76-16,79s28,112,28,112s66,80,66,83
		s-12,36-19,42s-135,25-135,28"/>
	<path fill="#B25B36" d="M467.6,660.9c14.7-15.3,30.3-31.2,50.4-38c5.1-1.7,10.5-2.8,15.8-2.2c7.4,0.9,13.9,4.9,20.8,7.5
		c13.3,5,28,4.9,41.7,8.3c13.1,3.3,25.2,9.9,38.2,13.5c15,4.2,30.8,4.5,46.4,4.4c61.4-0.3,123.3-5.5,181.9-23.9
		c9.8-3.1,20.4-6.5,30.1-3.3c2.7,0.9,5.5,2.7,6.1,5.5c0.8,3.8-2.8,7.1-6.2,9c-9.3,5.2-22.4,10.1-21.8,20.7
		c11.3,1.6,17.9,15.1,15.8,26.3c-2.2,11.2-10.7,20.1-19.8,27c-11.6,8.8-24.7,15.5-38.6,19.7c-55.1,16.5-115.4-7.1-171.5,5.6
		c-12.7,2.9-24.8,7.6-37.2,11.6c-30.4,10-62.9,16.1-94.2,9.9c-31.3-6.2-61.2-26.8-71.7-56.9c-2.3-6.6-3.6-13.8-2.2-20.6
		C453.7,675.6,460.8,668,467.6,660.9z"/>
	<path fill="#423932" d="M19,1074c0-5,22-54,22-54l22-24l18-31l25.5-37.1L122,907l30.1-24.8L186,865l27-13.2l49,7.2l42.2-7.2
		L351,833l19-22l16-14l78,33l55,29l43.8,38.5L592,918l34,19l37-3l24-31l12.7-20.8L707,845l61,3l45,30l28,17l30,37l47,47l37,37l26,28
		l7.7,20.8L987,1075L19,1074z"/>
	<rect x="821.4" y="669.3" fill="#85391D" width="15.2" height="15.2"/>
	<g>
		<rect x="851.8" y="182.5" fill="#5A5A5A" width="15.2" height="15.2"/>
		<rect x="821.4" y="228.2" fill="#5A5A5A" width="15.2" height="15.2"/>
		<polygon fill="#5A5A5A" points="806.2,258.6 791,258.6 791,273.8 775.8,273.8 775.8,289 775.8,304.2 791,304.2 791,289 806.2,289 
			806.2,273.8 821.4,273.8 821.4,258.6 821.4,243.4 806.2,243.4 		"/>
		<polygon fill="#5A5A5A" points="760.6,319.4 745.4,319.4 745.4,334.6 730.1,334.6 730.1,349.9 714.9,349.9 699.7,349.9 
			699.7,365.1 699.7,380.3 714.9,380.3 730.1,380.3 745.4,380.3 745.4,365.1 745.4,349.9 760.6,349.9 760.6,334.6 775.8,334.6 
			775.8,319.4 775.8,304.2 760.6,304.2 		"/>
	</g>
	<g>
		<rect x="851.8" y="167.3" fill="#6C6C6C" width="15.2" height="15.2"/>
		<rect x="836.6" y="197.7" fill="#6C6C6C" width="15.2" height="15.2"/>
		<rect x="821.4" y="213" fill="#6C6C6C" width="15.2" height="15.2"/>
		<rect x="806.2" y="228.2" fill="#6C6C6C" width="15.2" height="15.2"/>
		<rect x="791" y="243.4" fill="#6C6C6C" width="15.2" height="15.2"/>
		<rect x="775.8" y="258.6" fill="#6C6C6C" width="15.2" height="15.2"/>
		<polygon fill="#6C6C6C" points="760.6,289 745.4,289 745.4,304.2 730.1,304.2 730.1,319.4 714.9,319.4 714.9,334.6 699.7,334.6 
			699.7,349.9 714.9,349.9 730.1,349.9 730.1,334.6 745.4,334.6 745.4,319.4 760.6,319.4 760.6,304.2 775.8,304.2 775.8,289 
			775.8,273.8 760.6,273.8 		"/>
	</g>
	<g>
		<polygon fill="#722E19" points="851.8,654.1 851.8,669.3 836.6,669.3 836.6,684.5 851.8,684.5 867,684.5 867,669.3 867,654.1 		
			"/>
		<polygon fill="#722E19" points="806.2,684.5 791,684.5 775.8,684.5 775.8,699.7 760.6,699.7 745.4,699.7 730.1,699.7 714.9,699.7 
			699.7,699.7 684.5,699.7 669.3,699.7 654.1,699.7 638.9,699.7 638.9,714.9 654.1,714.9 669.3,714.9 684.5,714.9 699.7,714.9 
			714.9,714.9 730.1,714.9 745.4,714.9 760.6,714.9 775.8,714.9 791,714.9 791,699.7 806.2,699.7 821.4,699.7 836.6,699.7 
			836.6,684.5 821.4,684.5 		"/>
	</g>
	<rect x="623.7" y="395.5" fill="#FEFEFE" width="15.2" height="15.2"/>
	<rect x="623.7" y="380.3" fill="#FEFEFE" width="15.2" height="15.2"/>
	<rect x="608.5" y="395.5" fill="#FEFEFE" width="15.2" height="15.2"/>
	<rect x="608.5" y="380.3" fill="#FEFEFE" width="15.2" height="15.2"/>
	<rect x="608.5" y="365.1" fill="#FEFEFE" width="15.2" height="15.2"/>
	<rect x="593.2" y="395.5" fill="#FEFEFE" width="15.2" height="15.2"/>
	<rect x="593.2" y="380.3" fill="#FEFEFE" width="15.2" height="15.2"/>
	<rect x="593.2" y="365.1" fill="#FEFEFE" width="15.2" height="15.2"/>
	<rect x="578" y="380.3" fill="#FEFEFE" width="15.2" height="15.2"/>
	<rect x="578" y="365.1" fill="#FEFEFE" width="15.2" height="15.2"/>
	<rect x="562.8" y="380.3" fill="#FEFEFE" width="15.2" height="15.2"/>
	<rect x="562.8" y="365.1" fill="#FEFEFE" width="15.2" height="15.2"/>
	<g>
		<polygon fill="#EDD22B" points="836.6,425.9 836.6,441.1 836.6,456.3 821.4,456.3 821.4,471.5 806.2,471.5 806.2,486.8 791,486.8 
			775.8,486.8 775.8,471.5 760.6,471.5 760.6,456.3 745.4,456.3 745.4,441.1 730.1,441.1 714.9,441.1 714.9,456.3 730.1,456.3 
			730.1,471.5 745.4,471.5 745.4,486.8 760.6,486.8 760.6,502 775.8,502 791,502 806.2,502 821.4,502 821.4,486.8 836.6,486.8 
			836.6,471.5 851.8,471.5 851.8,456.3 851.8,441.1 851.8,425.9 		"/>
		<polygon fill="#EDD22B" points="669.3,456.3 654.1,456.3 654.1,471.5 638.9,471.5 638.9,486.8 623.7,486.8 608.5,486.8 
			593.2,486.8 593.2,502 608.5,502 623.7,502 638.9,502 654.1,502 654.1,486.8 669.3,486.8 669.3,471.5 684.5,471.5 684.5,456.3 
			684.5,441.1 669.3,441.1 		"/>
		<polygon fill="#EDD22B" points="578,471.5 578,456.3 562.8,456.3 562.8,441.1 562.8,425.9 547.6,425.9 547.6,441.1 547.6,456.3 
			547.6,471.5 562.8,471.5 562.8,486.8 578,486.8 593.2,486.8 593.2,471.5 		"/>
	</g>
	<rect x="547.6" y="380.3" fill="#FEFEFE" width="15.2" height="15.2"/>
	<rect x="547.6" y="319.4" fill="#FEFEFE" width="15.2" height="15.2"/>
	<rect x="532.4" y="380.3" fill="#FEFEFE" width="15.2" height="15.2"/>
	<rect x="532.4" y="334.6" fill="#FEFEFE" width="15.2" height="15.2"/>
	<rect x="532.4" y="319.4" fill="#FEFEFE" width="15.2" height="15.2"/>
	<rect x="517.2" y="380.3" fill="#FEFEFE" width="15.2" height="15.2"/>
	<rect x="517.2" y="319.4" fill="#FEFEFE" width="15.2" height="15.2"/>
	<rect x="502" y="380.3" fill="#FEFEFE" width="15.2" height="15.2"/>
	<rect x="502" y="319.4" fill="#FEFEFE" width="15.2" height="15.2"/>
	<g>
		<polygon fill="#FBB029" points="867,425.9 851.8,425.9 851.8,441.1 851.8,456.3 851.8,471.5 867,471.5 867,456.3 882.3,456.3 
			882.3,441.1 882.3,425.9 		"/>
		<rect x="836.6" y="471.5" fill="#FBB029" width="15.2" height="15.2"/>
		<rect x="745.4" y="486.8" fill="#FBB029" width="15.2" height="15.2"/>
		<polygon fill="#FBB029" points="730.1,471.5 730.1,456.3 714.9,456.3 714.9,471.5 714.9,486.8 730.1,486.8 745.4,486.8 
			745.4,471.5 		"/>
		<polygon fill="#FBB029" points="684.5,471.5 669.3,471.5 669.3,486.8 684.5,486.8 699.7,486.8 699.7,471.5 699.7,456.3 
			684.5,456.3 		"/>
		<rect x="654.1" y="486.8" fill="#FBB029" width="15.2" height="15.2"/>
		<polygon fill="#FBB029" points="608.5,502 593.2,502 593.2,486.8 578,486.8 562.8,486.8 562.8,471.5 547.6,471.5 547.6,456.3 
			547.6,441.1 532.4,441.1 532.4,456.3 517.2,456.3 502,456.3 502,471.5 486.8,471.5 486.8,486.8 502,486.8 517.2,486.8 517.2,502 
			532.4,502 547.6,502 562.8,502 562.8,517.2 578,517.2 593.2,517.2 608.5,517.2 623.7,517.2 638.9,517.2 638.9,502 623.7,502 		"/>
	</g>
	<rect x="471.5" y="365.1" fill="#FEFEFE" width="15.2" height="15.2"/>
	<rect x="471.5" y="349.9" fill="#FEFEFE" width="15.2" height="15.2"/>
	<rect x="471.5" y="334.6" fill="#FEFEFE" width="15.2" height="15.2"/>
	<rect x="471.5" y="319.4" fill="#FEFEFE" width="15.2" height="15.2"/>
	<g>
		<polygon fill="#B25B36" points="882.3,654.1 882.3,638.9 867,638.9 851.8,638.9 851.8,654.1 867,654.1 		"/>
		<polygon fill="#B25B36" points="851.8,669.3 851.8,654.1 836.6,654.1 821.4,654.1 821.4,669.3 836.6,669.3 		"/>
		<polygon fill="#B25B36" points="638.9,699.7 654.1,699.7 669.3,699.7 684.5,699.7 699.7,699.7 714.9,699.7 730.1,699.7 
			745.4,699.7 760.6,699.7 775.8,699.7 775.8,684.5 791,684.5 806.2,684.5 821.4,684.5 821.4,669.3 806.2,669.3 791,669.3 
			775.8,669.3 760.6,669.3 745.4,669.3 730.1,669.3 714.9,669.3 699.7,669.3 684.5,669.3 669.3,669.3 654.1,669.3 638.9,669.3 
			623.7,669.3 623.7,654.1 608.5,654.1 593.2,654.1 593.2,638.9 578,638.9 562.8,638.9 562.8,623.7 547.6,623.7 532.4,623.7 
			517.2,623.7 502,623.7 502,638.9 486.8,638.9 486.8,654.1 471.5,654.1 471.5,669.3 456.3,669.3 456.3,684.5 456.3,699.7 
			471.5,699.7 471.5,714.9 471.5,730.1 486.8,730.1 486.8,745.3 502,745.3 517.2,745.3 517.2,760.6 532.4,760.6 547.6,760.6 
			562.8,760.6 578,760.6 593.2,760.6 608.5,760.6 608.5,745.3 623.7,745.3 638.9,745.3 654.1,745.3 669.3,745.3 669.3,730.1 
			684.5,730.1 699.7,730.1 714.9,730.1 730.1,730.1 745.4,730.1 760.6,730.1 775.8,730.1 791,730.1 806.2,730.1 821.4,730.1 
			836.6,730.1 836.6,714.9 851.8,714.9 867,714.9 867,699.7 882.3,699.7 882.3,684.5 882.3,669.3 867,669.3 867,684.5 851.8,684.5 
			851.8,699.7 836.6,699.7 821.4,699.7 806.2,699.7 806.2,714.9 791,714.9 775.8,714.9 760.6,714.9 745.4,714.9 730.1,714.9 
			714.9,714.9 699.7,714.9 684.5,714.9 669.3,714.9 654.1,714.9 638.9,714.9 623.7,714.9 608.5,714.9 593.2,714.9 593.2,730.1 
			578,730.1 562.8,730.1 547.6,730.1 532.4,730.1 517.2,730.1 517.2,714.9 502,714.9 502,699.7 486.8,699.7 486.8,684.5 
			486.8,669.3 502,669.3 502,654.1 517.2,654.1 517.2,638.9 532.4,638.9 547.6,638.9 547.6,654.1 562.8,654.1 562.8,669.3 
			578,669.3 593.2,669.3 608.5,669.3 608.5,684.5 623.7,684.5 623.7,699.7 		"/>
	</g>
	<rect x="456.3" y="365.1" fill="#FEFEFE" width="15.2" height="15.2"/>
	<rect x="456.3" y="349.9" fill="#FEFEFE" width="15.2" height="15.2"/>
	<rect x="456.3" y="319.4" fill="#FEFEFE" width="15.2" height="15.2"/>
	<rect x="456.3" y="304.2" fill="#FEFEFE" width="15.2" height="15.2"/>
	<g>
		<polygon fill="#626362" points="684.5,851.8 669.3,851.8 654.1,851.8 638.9,851.8 623.7,851.8 608.5,851.8 593.2,851.8 
			593.2,836.6 578,836.6 562.8,836.6 547.6,836.6 532.4,836.6 517.2,836.6 517.2,851.8 532.4,851.8 532.4,867 547.6,867 
			547.6,882.3 562.8,882.3 562.8,897.5 578,897.5 593.2,897.5 593.2,912.7 608.5,912.7 623.7,912.7 623.7,897.5 638.9,897.5 
			654.1,897.5 654.1,882.3 654.1,867 669.3,867 684.5,867 699.7,867 699.7,851.8 		"/>
		<rect x="441.1" y="714.9" fill="#626362" width="15.2" height="15.2"/>
	</g>
	<rect x="441.1" y="365.1" fill="#FEFEFE" width="15.2" height="15.2"/>
	<rect x="441.1" y="349.9" fill="#FEFEFE" width="15.2" height="15.2"/>
	<rect x="441.1" y="304.2" fill="#FEFEFE" width="15.2" height="15.2"/>
	<rect x="441.1" y="289" fill="#FEFEFE" width="15.2" height="15.2"/>
	<rect x="425.9" y="365.1" fill="#FEFEFE" width="15.2" height="15.2"/>
	<rect x="425.9" y="349.9" fill="#FEFEFE" width="15.2" height="15.2"/>
	<rect x="425.9" y="334.6" fill="#FEFEFE" width="15.2" height="15.2"/>
	<rect x="425.9" y="289" fill="#FEFEFE" width="15.2" height="15.2"/>
	<rect x="425.9" y="273.8" fill="#FEFEFE" width="15.2" height="15.2"/>
	<g>
		<polygon fill="#F0443F" points="760.6,182.5 745.4,182.5 745.4,167.3 730.1,167.3 714.9,167.3 714.9,182.5 730.1,182.5 
			730.1,197.7 745.4,197.7 760.6,197.7 760.6,213 760.6,228.2 775.8,228.2 775.8,213 775.8,197.7 775.8,182.5 		"/>
		<polygon fill="#F0443F" points="714.9,197.7 699.7,197.7 699.7,182.5 684.5,182.5 669.3,182.5 669.3,167.3 654.1,167.3 
			638.9,167.3 638.9,152.1 623.7,152.1 608.5,152.1 593.2,152.1 578,152.1 578,167.3 593.2,167.3 608.5,167.3 623.7,167.3 
			623.7,182.5 638.9,182.5 654.1,182.5 654.1,197.7 669.3,197.7 684.5,197.7 684.5,213 699.7,213 699.7,228.2 714.9,228.2 
			714.9,243.4 714.9,258.6 730.1,258.6 730.1,243.4 730.1,228.2 730.1,213 714.9,213 		"/>
		<polygon fill="#F0443F" points="593.2,228.2 578,228.2 578,213 562.8,213 562.8,197.7 547.6,197.7 547.6,182.5 532.4,182.5 
			517.2,182.5 502,182.5 486.8,182.5 471.5,182.5 456.3,182.5 441.1,182.5 425.9,182.5 425.9,197.7 441.1,197.7 456.3,197.7 
			471.5,197.7 486.8,197.7 502,197.7 517.2,197.7 532.4,197.7 532.4,213 547.6,213 547.6,228.2 562.8,228.2 562.8,243.4 578,243.4 
			578,258.6 593.2,258.6 593.2,273.8 608.5,273.8 608.5,258.6 608.5,243.4 593.2,243.4 		"/>
	</g>
	<g>
		<polygon fill="#FFFFFF" points="882.3,486.8 867,486.8 867,502 867,517.2 882.3,517.2 882.3,502 897.5,502 897.5,486.8 		"/>
		<rect x="851.8" y="304.2" fill="#FFFFFF" width="15.2" height="15.2"/>
		<path fill="#FFFFFF" d="M836.6,593.2V578h-15.2h-15.2v15.2v15.2H791h-15.2h-15.2h-15.2v-15.2h-15.2V578v-15.2h15.2v-15.2h-15.2
			h-15.2v-15.2v-15.2h-15.2v15.2h-15.2v15.2h-15.2v15.2h-15.2h-15.2h-15.2h-15.2V578h-15.2H578h-15.2h-15.2h-15.2v-15.2v-15.2v-15.2
			h-15.2v-15.2H502V502h-15.2v-15.2h-15.2h-15.2V502h15.2v15.2h15.2v15.2H502v15.2v15.2h-15.2V578h-15.2v15.2h-15.2h-15.2v15.2
			h-15.2v15.2v15.2h-15.2v15.2h15.2h15.2v-15.2h15.2v-15.2h15.2v-15.2h15.2H502h15.2h15.2h15.2h15.2H578h15.2h15.2h15.2v15.2h15.2
			v15.2h15.2h15.2h15.2h15.2h15.2h15.2h15.2h15.2h15.2H791h15.2v-15.2h15.2v-15.2h15.2h15.2H867v-15.2h-15.2H836.6z M714.9,578v15.2
			h-15.2v15.2h-15.2h-15.2h-15.2v-15.2h15.2h15.2V578h15.2v-15.2h15.2V578z"/>
		<rect x="836.6" y="517.2" fill="#FFFFFF" width="15.2" height="15.2"/>
		<rect x="836.6" y="319.4" fill="#FFFFFF" width="15.2" height="15.2"/>
		<rect x="806.2" y="441.1" fill="#FFFFFF" width="15.2" height="15.2"/>
		<rect x="775.8" y="456.3" fill="#FFFFFF" width="15.2" height="15.2"/>
		<polygon fill="#FFFFFF" points="775.8,593.2 791,593.2 791,578 775.8,578 760.6,578 760.6,593.2 		"/>
		<polygon fill="#FFFFFF" points="775.8,547.6 791,547.6 806.2,547.6 821.4,547.6 836.6,547.6 836.6,532.4 821.4,532.4 806.2,532.4 
			791,532.4 775.8,532.4 760.6,532.4 745.4,532.4 745.4,547.6 760.6,547.6 		"/>
		<rect x="745.4" y="562.8" fill="#FFFFFF" width="15.2" height="15.2"/>
		<polygon fill="#FFFFFF" points="714.9,425.9 730.1,425.9 730.1,410.7 745.4,410.7 760.6,410.7 775.8,410.7 791,410.7 791,395.5 
			806.2,395.5 821.4,395.5 821.4,380.3 836.6,380.3 836.6,365.1 821.4,365.1 806.2,365.1 791,365.1 775.8,365.1 760.6,365.1 
			760.6,380.3 745.4,380.3 745.4,395.5 730.1,395.5 714.9,395.5 699.7,395.5 699.7,410.7 714.9,410.7 		"/>
		<polygon fill="#FFFFFF" points="699.7,760.6 684.5,760.6 669.3,760.6 654.1,760.6 638.9,760.6 623.7,760.6 623.7,775.8 
			608.5,775.8 593.2,775.8 578,775.8 562.8,775.8 547.6,775.8 532.4,775.8 517.2,775.8 502,775.8 502,760.6 486.8,760.6 
			471.5,760.6 471.5,775.8 471.5,791 486.8,791 486.8,806.2 502,806.2 517.2,806.2 532.4,806.2 532.4,821.4 547.6,821.4 
			562.8,821.4 578,821.4 593.2,821.4 608.5,821.4 623.7,821.4 638.9,821.4 654.1,821.4 669.3,821.4 669.3,806.2 684.5,806.2 
			684.5,791 699.7,791 699.7,775.8 714.9,775.8 730.1,775.8 730.1,760.6 714.9,760.6 		"/>
		<rect x="608.5" y="441.1" fill="#FFFFFF" width="15.2" height="15.2"/>
		<rect x="593.2" y="456.3" fill="#FFFFFF" width="15.2" height="15.2"/>
		<polygon fill="#FFFFFF" points="547.6,714.9 562.8,714.9 578,714.9 578,699.7 593.2,699.7 608.5,699.7 608.5,684.5 593.2,684.5 
			578,684.5 562.8,684.5 547.6,684.5 532.4,684.5 517.2,684.5 517.2,699.7 517.2,714.9 532.4,714.9 		"/>
	</g>
	<rect x="410.7" y="349.9" fill="#FEFEFE" width="15.2" height="15.2"/>
	<rect x="410.7" y="334.6" fill="#FEFEFE" width="15.2" height="15.2"/>
	<rect x="410.7" y="319.4" fill="#FEFEFE" width="15.2" height="15.2"/>
	<rect x="410.7" y="273.8" fill="#FEFEFE" width="15.2" height="15.2"/>
	<rect x="395.5" y="319.4" fill="#FEFEFE" width="15.2" height="15.2"/>
	<rect x="395.5" y="304.2" fill="#FEFEFE" width="15.2" height="15.2"/>
	<rect x="395.5" y="273.8" fill="#FEFEFE" width="15.2" height="15.2"/>
	<rect x="395.5" y="258.6" fill="#FEFEFE" width="15.2" height="15.2"/>
	<g>
		<polygon fill="#C4C4C4" points="623.7,821.4 608.5,821.4 593.2,821.4 578,821.4 562.8,821.4 562.8,836.6 578,836.6 593.2,836.6 
			608.5,836.6 623.7,836.6 638.9,836.6 638.9,821.4 		"/>
		<polygon fill="#C4C4C4" points="486.8,410.7 486.8,395.5 471.5,395.5 471.5,410.7 471.5,425.9 471.5,441.1 456.3,441.1 
			456.3,456.3 441.1,456.3 441.1,471.5 441.1,486.8 441.1,502 441.1,517.2 441.1,532.4 441.1,547.6 425.9,547.6 425.9,562.8 
			410.7,562.8 410.7,578 395.5,578 395.5,593.2 380.3,593.2 380.3,608.5 380.3,623.7 380.3,638.9 380.3,654.1 380.3,669.3 
			380.3,684.5 395.5,684.5 395.5,699.7 395.5,714.9 395.5,730.1 410.7,730.1 425.9,730.1 425.9,745.3 441.1,745.3 441.1,760.6 
			456.3,760.6 471.5,760.6 471.5,745.3 456.3,745.3 456.3,730.1 441.1,730.1 441.1,714.9 441.1,699.7 441.1,684.5 441.1,669.3 
			425.9,669.3 425.9,654.1 410.7,654.1 410.7,638.9 425.9,638.9 425.9,623.7 425.9,608.5 441.1,608.5 441.1,593.2 456.3,593.2 
			471.5,593.2 471.5,578 486.8,578 486.8,562.8 502,562.8 502,547.6 502,532.4 486.8,532.4 486.8,517.2 471.5,517.2 471.5,502 
			456.3,502 456.3,486.8 456.3,471.5 471.5,471.5 471.5,456.3 486.8,456.3 486.8,441.1 502,441.1 517.2,441.1 517.2,425.9 
			517.2,410.7 502,410.7 		"/>
	</g>
	<rect x="380.3" y="304.2" fill="#FEFEFE" width="15.2" height="15.2"/>
	<rect x="380.3" y="289" fill="#FEFEFE" width="15.2" height="15.2"/>
	<rect x="380.3" y="273.8" fill="#FEFEFE" width="15.2" height="15.2"/>
	<rect x="380.3" y="258.6" fill="#FEFEFE" width="15.2" height="15.2"/>
	<rect x="365.1" y="273.8" fill="#FEFEFE" width="15.2" height="15.2"/>
	<rect x="365.1" y="258.6" fill="#FEFEFE" width="15.2" height="15.2"/>
	<rect x="365.1" y="243.4" fill="#FEFEFE" width="15.2" height="15.2"/>
	<rect x="349.9" y="243.4" fill="#FEFEFE" width="15.2" height="15.2"/>
	<rect x="349.9" y="228.2" fill="#FEFEFE" width="15.2" height="15.2"/>
	<g>
		<rect x="486.8" y="365.1" fill="#EAEAEA" width="15.2" height="15.2"/>
		<rect x="441.1" y="760.6" fill="#EAEAEA" width="15.2" height="15.2"/>
		<polygon fill="#EAEAEA" points="456.3,395.5 456.3,380.3 441.1,380.3 441.1,395.5 425.9,395.5 425.9,380.3 410.7,380.3 
			410.7,395.5 410.7,410.7 395.5,410.7 380.3,410.7 380.3,425.9 380.3,441.1 365.1,441.1 365.1,456.3 349.9,456.3 349.9,471.5 
			365.1,471.5 365.1,486.8 365.1,502 349.9,502 349.9,517.2 334.7,517.2 334.7,532.4 319.4,532.4 319.4,547.6 334.7,547.6 
			334.7,562.8 349.9,562.8 349.9,578 334.7,578 319.4,578 319.4,593.2 334.7,593.2 334.7,608.5 334.7,623.7 349.9,623.7 
			349.9,638.9 349.9,654.1 365.1,654.1 365.1,669.3 380.3,669.3 380.3,654.1 380.3,638.9 380.3,623.7 380.3,608.5 380.3,593.2 
			395.5,593.2 395.5,578 410.7,578 410.7,562.8 425.9,562.8 425.9,547.6 441.1,547.6 441.1,532.4 441.1,517.2 441.1,502 
			441.1,486.8 441.1,471.5 441.1,456.3 456.3,456.3 456.3,441.1 471.5,441.1 471.5,425.9 471.5,410.7 456.3,410.7 		"/>
		<polygon fill="#EAEAEA" points="425.9,745.3 410.7,745.3 410.7,760.6 425.9,760.6 441.1,760.6 441.1,745.3 		"/>
		<rect x="365.1" y="699.7" fill="#EAEAEA" width="15.2" height="15.2"/>
		<rect x="334.7" y="654.1" fill="#EAEAEA" width="15.2" height="15.2"/>
		<rect x="334.7" y="486.8" fill="#EAEAEA" width="15.2" height="15.2"/>
		<rect x="319.4" y="623.7" fill="#EAEAEA" width="15.2" height="15.2"/>
	</g>
	<g>
		<polygon fill="#B9B9B9" points="882.3,273.8 882.3,289 882.3,304.2 867,304.2 867,319.4 851.8,319.4 851.8,334.6 867,334.6 
			867,349.9 882.3,349.9 882.3,334.6 897.5,334.6 897.5,319.4 897.5,304.2 897.5,289 897.5,273.8 		"/>
		<polygon fill="#B9B9B9" points="882.3,593.2 882.3,578 867,578 851.8,578 851.8,562.8 836.6,562.8 821.4,562.8 806.2,562.8 
			791,562.8 775.8,562.8 760.6,562.8 760.6,578 775.8,578 791,578 791,593.2 791,608.5 806.2,608.5 806.2,593.2 806.2,578 
			821.4,578 836.6,578 836.6,593.2 851.8,593.2 867,593.2 867,608.5 851.8,608.5 836.6,608.5 821.4,608.5 821.4,623.7 806.2,623.7 
			806.2,638.9 791,638.9 775.8,638.9 760.6,638.9 745.4,638.9 730.1,638.9 714.9,638.9 699.7,638.9 684.5,638.9 669.3,638.9 
			654.1,638.9 638.9,638.9 638.9,623.7 623.7,623.7 623.7,608.5 608.5,608.5 593.2,608.5 578,608.5 562.8,608.5 562.8,623.7 
			578,623.7 593.2,623.7 593.2,638.9 608.5,638.9 623.7,638.9 623.7,654.1 638.9,654.1 654.1,654.1 669.3,654.1 684.5,654.1 
			699.7,654.1 714.9,654.1 730.1,654.1 745.4,654.1 760.6,654.1 775.8,654.1 791,654.1 806.2,654.1 821.4,654.1 821.4,638.9 
			836.6,638.9 836.6,623.7 851.8,623.7 867,623.7 882.3,623.7 897.5,623.7 897.5,608.5 882.3,608.5 		"/>
		<rect x="867.1" y="471.5" fill="#B9B9B9" width="15.2" height="15.2"/>
		<polygon fill="#B9B9B9" points="882.3,167.3 882.3,152.1 867,152.1 851.8,152.1 851.8,167.3 867,167.3 		"/>
		<polygon fill="#B9B9B9" points="851.8,502 836.6,502 821.4,502 821.4,517.2 806.2,517.2 791,517.2 775.8,517.2 760.6,517.2 
			745.4,517.2 730.1,517.2 730.1,532.4 745.4,532.4 760.6,532.4 775.8,532.4 791,532.4 806.2,532.4 821.4,532.4 836.6,532.4 
			836.6,517.2 851.8,517.2 867,517.2 867,502 867,486.8 851.8,486.8 		"/>
		<polygon fill="#B9B9B9" points="836.6,349.9 821.4,349.9 806.2,349.9 791,349.9 775.8,349.9 775.8,365.1 791,365.1 806.2,365.1 
			821.4,365.1 836.6,365.1 836.6,380.3 821.4,380.3 821.4,395.5 806.2,395.5 791,395.5 791,410.7 775.8,410.7 760.6,410.7 
			745.4,410.7 730.1,410.7 730.1,425.9 745.4,425.9 760.6,425.9 775.8,425.9 791,425.9 806.2,425.9 821.4,425.9 821.4,410.7 
			836.6,410.7 851.8,410.7 851.8,395.5 867,395.5 867,380.3 867,365.1 851.8,365.1 851.8,349.9 		"/>
		<polygon fill="#B9B9B9" points="760.6,745.3 745.4,745.3 730.1,745.3 714.9,745.3 699.7,745.3 684.5,745.3 684.5,760.6 
			699.7,760.6 714.9,760.6 730.1,760.6 730.1,775.8 714.9,775.8 699.7,775.8 699.7,791 684.5,791 684.5,806.2 669.3,806.2 
			669.3,821.4 654.1,821.4 638.9,821.4 638.9,836.6 654.1,836.6 669.3,836.6 684.5,836.6 699.7,836.6 714.9,836.6 714.9,821.4 
			730.1,821.4 730.1,806.2 745.4,806.2 760.6,806.2 760.6,791 775.8,791 775.8,775.8 791,775.8 791,760.6 791,745.3 775.8,745.3 		
			"/>
		<rect x="745.4" y="547.6" fill="#B9B9B9" width="15.2" height="15.2"/>
		<polygon fill="#B9B9B9" points="714.9,395.5 730.1,395.5 730.1,380.3 714.9,380.3 699.7,380.3 699.7,395.5 		"/>
		<polygon fill="#B9B9B9" points="684.5,380.3 699.7,380.3 699.7,365.1 699.7,349.9 699.7,334.6 714.9,334.6 714.9,319.4 
			730.1,319.4 730.1,304.2 745.4,304.2 745.4,289 760.6,289 760.6,273.8 775.8,273.8 775.8,258.6 791,258.6 791,243.4 806.2,243.4 
			806.2,228.2 821.4,228.2 821.4,213 836.6,213 836.6,197.7 851.8,197.7 851.8,182.5 851.8,167.3 836.6,167.3 836.6,182.5 
			821.4,182.5 821.4,197.7 806.2,197.7 806.2,213 791,213 791,228.2 775.8,228.2 775.8,243.4 760.6,243.4 760.6,258.6 745.4,258.6 
			745.4,273.8 730.1,273.8 730.1,289 714.9,289 714.9,304.2 699.7,304.2 699.7,319.4 684.5,319.4 684.5,334.6 669.3,334.6 
			669.3,349.9 669.3,365.1 684.5,365.1 		"/>
		<polygon fill="#B9B9B9" points="669.3,867 654.1,867 654.1,882.3 654.1,897.5 638.9,897.5 623.7,897.5 623.7,912.7 608.5,912.7 
			608.5,927.9 623.7,927.9 638.9,927.9 654.1,927.9 654.1,912.7 669.3,912.7 669.3,897.5 684.5,897.5 684.5,882.3 699.7,882.3 
			699.7,867 684.5,867 		"/>
		<rect x="669.3" y="502" fill="#B9B9B9" width="15.2" height="15.2"/>
		<rect x="654.1" y="517.2" fill="#B9B9B9" width="15.2" height="15.2"/>
		<polygon fill="#B9B9B9" points="562.8,562.8 578,562.8 593.2,562.8 593.2,547.6 608.5,547.6 623.7,547.6 638.9,547.6 654.1,547.6 
			654.1,532.4 638.9,532.4 623.7,532.4 608.5,532.4 593.2,532.4 578,532.4 562.8,532.4 547.6,532.4 547.6,517.2 532.4,517.2 
			517.2,517.2 517.2,532.4 532.4,532.4 532.4,547.6 547.6,547.6 547.6,562.8 		"/>
		<path fill="#B9B9B9" d="M532.4,821.4v-15.2h-15.2H502h-15.2V791h-15.2v-15.2v-15.2h-15.2v15.2h-15.2v-15.2h-15.2h-15.2v-15.2h15.2
			v-15.2h-15.2h-15.2v-15.2v-15.2v-15.2h-15.2v-15.2h-15.2v-15.2h-15.2v15.2h-15.2v-15.2h15.2v-15.2v-15.2h-15.2v15.2h-15.2v-15.2
			h15.2v-15.2v-15.2h-15.2V578h15.2h15.2v-15.2h-15.2v-15.2h-15.2v-15.2h15.2v-15.2h15.2V502h-15.2v-15.2h15.2V502h15.2v-15.2v-15.2
			h-15.2v-15.2h15.2v-15.2h15.2v-15.2v-15.2h15.2h15.2v-15.2v-15.2h-15.2v15.2h-15.2h-15.2v15.2h-15.2v15.2h-15.2v15.2v15.2h-15.2
			v15.2v15.2V502h-15.2v15.2H289v15.2v15.2v15.2h-15.2V578H289v15.2v15.2v15.2v15.2v15.2h15.2v15.2h15.2v15.2v15.2h15.2v15.2v15.2
			h15.2v15.2h15.2v15.2h15.2v15.2h15.2V791h15.2h15.2v15.2h15.2h15.2v15.2h15.2h15.2v15.2H502h15.2h15.2h15.2h15.2v-15.2h-15.2
			H532.4z M380.3,714.9h-15.2v-15.2h15.2V714.9z"/>
		<polygon fill="#B9B9B9" points="547.6,654.1 532.4,654.1 517.2,654.1 517.2,669.3 502,669.3 502,684.5 517.2,684.5 532.4,684.5 
			547.6,684.5 562.8,684.5 562.8,669.3 547.6,669.3 		"/>
		<polygon fill="#B9B9B9" points="532.4,380.3 547.6,380.3 562.8,380.3 562.8,365.1 578,365.1 593.2,365.1 608.5,365.1 623.7,365.1 
			623.7,380.3 638.9,380.3 638.9,395.5 638.9,410.7 623.7,410.7 608.5,410.7 593.2,410.7 593.2,395.5 578,395.5 562.8,395.5 
			547.6,395.5 532.4,395.5 532.4,410.7 547.6,410.7 562.8,410.7 562.8,425.9 578,425.9 593.2,425.9 608.5,425.9 623.7,425.9 
			638.9,425.9 654.1,425.9 669.3,425.9 684.5,425.9 699.7,425.9 699.7,441.1 714.9,441.1 714.9,425.9 714.9,410.7 699.7,410.7 
			684.5,410.7 684.5,395.5 669.3,395.5 669.3,380.3 654.1,380.3 654.1,365.1 638.9,365.1 638.9,349.9 623.7,349.9 608.5,349.9 
			608.5,334.6 593.2,334.6 578,334.6 562.8,334.6 547.6,334.6 547.6,349.9 532.4,349.9 532.4,334.6 517.2,334.6 502,334.6 
			502,349.9 502,365.1 502,380.3 517.2,380.3 		"/>
		<polygon fill="#B9B9B9" points="456.3,669.3 456.3,654.1 471.5,654.1 471.5,638.9 486.8,638.9 486.8,623.7 502,623.7 517.2,623.7 
			517.2,608.5 502,608.5 486.8,608.5 471.5,608.5 471.5,623.7 456.3,623.7 456.3,638.9 441.1,638.9 441.1,654.1 425.9,654.1 
			425.9,669.3 441.1,669.3 		"/>
	</g>
	<g>
		<rect x="699.7" y="988.7" fill="#000410" width="15.2" height="15.2"/>
		<polygon fill="#000410" points="684.5,1019.1 684.5,1034.4 669.3,1034.4 669.3,1049.6 654.1,1049.6 638.9,1049.6 638.9,1034.4 
			623.7,1034.4 608.5,1034.4 608.5,1019.1 593.2,1019.1 578,1019.1 578,1034.4 593.2,1034.4 593.2,1049.6 608.5,1049.6 
			623.7,1049.6 623.7,1064.8 638.9,1064.8 654.1,1064.8 669.3,1064.8 684.5,1064.8 684.5,1049.6 699.7,1049.6 699.7,1034.4 
			699.7,1019.1 699.7,1003.9 684.5,1003.9 		"/>
		<polygon fill="#000410" points="502,943.1 486.8,943.1 486.8,927.9 471.5,927.9 471.5,912.7 456.3,912.7 441.1,912.7 441.1,897.5 
			425.9,897.5 410.7,897.5 410.7,882.3 395.5,882.3 380.3,882.3 365.1,882.3 365.1,867 349.9,867 349.9,851.8 334.7,851.8 
			319.4,851.8 304.2,851.8 304.2,867 319.4,867 334.7,867 334.7,882.3 349.9,882.3 349.9,897.5 365.1,897.5 380.3,897.5 
			395.5,897.5 395.5,912.7 410.7,912.7 425.9,912.7 425.9,927.9 441.1,927.9 456.3,927.9 456.3,943.1 471.5,943.1 471.5,958.3 
			486.8,958.3 486.8,973.5 502,973.5 517.2,973.5 517.2,958.3 502,958.3 		"/>
		<polygon fill="#000410" points="425.9,958.3 410.7,958.3 395.5,958.3 395.5,973.5 410.7,973.5 410.7,988.7 425.9,988.7 
			425.9,1003.9 441.1,1003.9 441.1,988.7 441.1,973.5 425.9,973.5 		"/>
		<polygon fill="#000410" points="380.3,943.1 365.1,943.1 365.1,927.9 349.9,927.9 334.7,927.9 319.4,927.9 304.2,927.9 
			304.2,912.7 289,912.7 273.8,912.7 258.6,912.7 243.4,912.7 228.2,912.7 228.2,927.9 243.4,927.9 258.6,927.9 273.8,927.9 
			289,927.9 289,943.1 304.2,943.1 319.4,943.1 334.7,943.1 349.9,943.1 349.9,958.3 365.1,958.3 380.3,958.3 395.5,958.3 
			395.5,943.1 		"/>
		<polygon fill="#000410" points="197.8,927.9 182.5,927.9 182.5,943.1 197.8,943.1 213,943.1 228.2,943.1 228.2,927.9 213,927.9 		
			"/>
		<polygon fill="#000410" points="197.8,867 213,867 228.2,867 243.4,867 243.4,851.8 228.2,851.8 213,851.8 197.8,851.8 
			182.5,851.8 167.3,851.8 167.3,867 182.5,867 		"/>
	</g>
	<g>
		<polygon fill="#95301E" points="836.6,289 836.6,273.8 821.4,273.8 821.4,289 821.4,304.2 806.2,304.2 806.2,319.4 791,319.4 
			791,334.6 806.2,334.6 821.4,334.6 821.4,319.4 836.6,319.4 836.6,304.2 851.8,304.2 851.8,289 		"/>
		<rect x="730.1" y="243.4" fill="#95301E" width="15.2" height="15.2"/>
		<polygon fill="#95301E" points="730.1,197.7 730.1,213 745.4,213 745.4,228.2 745.4,243.4 760.6,243.4 760.6,228.2 760.6,213 
			760.6,197.7 745.4,197.7 		"/>
		<rect x="714.9" y="182.5" fill="#95301E" width="15.2" height="15.2"/>
		<rect x="699.7" y="167.3" fill="#95301E" width="15.2" height="15.2"/>
		<path fill="#95301E" d="M654.1,228.2V213h-15.2h-15.2v15.2h-15.2v15.2h15.2v15.2v15.2h15.2V289v15.2h-15.2v15.2v15.2h15.2h15.2
			h15.2v-15.2h15.2v-15.2V289h-15.2v-15.2h15.2v-15.2v-15.2v-15.2h-15.2H654.1z M638.9,243.4h15.2v15.2h-15.2V243.4z"/>
		<rect x="608.5" y="273.8" fill="#95301E" width="15.2" height="15.2"/>
		<polygon fill="#95301E" points="623.7,213 623.7,197.7 608.5,197.7 593.2,197.7 593.2,213 593.2,228.2 608.5,228.2 608.5,213 		
			"/>
		<rect x="562.8" y="319.4" fill="#95301E" width="15.2" height="15.2"/>
		<rect x="562.8" y="182.5" fill="#95301E" width="15.2" height="15.2"/>
		<polygon fill="#95301E" points="547.6,304.2 532.4,304.2 532.4,289 532.4,273.8 547.6,273.8 562.8,273.8 562.8,258.6 547.6,258.6 
			532.4,258.6 517.2,258.6 517.2,273.8 502,273.8 502,258.6 517.2,258.6 517.2,243.4 502,243.4 502,228.2 486.8,228.2 486.8,243.4 
			471.5,243.4 471.5,228.2 456.3,228.2 456.3,243.4 441.1,243.4 425.9,243.4 425.9,228.2 410.7,228.2 395.5,228.2 395.5,243.4 
			410.7,243.4 410.7,258.6 425.9,258.6 441.1,258.6 441.1,273.8 456.3,273.8 456.3,289 471.5,289 486.8,289 486.8,304.2 502,304.2 
			502,319.4 517.2,319.4 532.4,319.4 547.6,319.4 562.8,319.4 562.8,304.2 		"/>
		<polygon fill="#95301E" points="547.6,167.3 532.4,167.3 532.4,182.5 547.6,182.5 562.8,182.5 562.8,167.3 		"/>
		<rect x="532.4" y="213" fill="#95301E" width="15.2" height="15.2"/>
		<polygon fill="#95301E" points="380.3,365.1 365.1,365.1 349.9,365.1 334.7,365.1 319.4,365.1 319.4,380.3 304.2,380.3 289,380.3 
			289,395.5 273.8,395.5 273.8,410.7 273.8,425.9 258.6,425.9 258.6,441.1 243.4,441.1 243.4,456.3 228.2,456.3 228.2,471.5 
			228.2,486.8 213,486.8 213,502 213,517.2 213,532.4 197.8,532.4 197.8,547.6 197.8,562.8 197.8,578 197.8,593.2 182.5,593.2 
			182.5,608.5 182.5,623.7 182.5,638.9 182.5,654.1 167.3,654.1 167.3,669.3 182.5,669.3 182.5,684.5 182.5,699.7 197.8,699.7 
			197.8,684.5 197.8,669.3 197.8,654.1 213,654.1 213,638.9 213,623.7 213,608.5 213,593.2 213,578 213,562.8 228.2,562.8 
			228.2,547.6 228.2,532.4 243.4,532.4 243.4,517.2 243.4,502 258.6,502 258.6,486.8 273.8,486.8 273.8,502 258.6,502 258.6,517.2 
			258.6,532.4 258.6,547.6 258.6,562.8 258.6,578 258.6,593.2 258.6,608.5 258.6,623.7 258.6,638.9 258.6,654.1 258.6,669.3 
			258.6,684.5 258.6,699.7 273.8,699.7 273.8,714.9 273.8,730.1 273.8,745.3 289,745.3 289,760.6 289,775.8 289,791 304.2,791 
			304.2,806.2 319.4,806.2 334.7,806.2 334.7,821.4 349.9,821.4 349.9,806.2 365.1,806.2 365.1,791 365.1,775.8 349.9,775.8 
			349.9,760.6 334.7,760.6 334.7,745.3 334.7,730.1 319.4,730.1 319.4,714.9 304.2,714.9 304.2,699.7 289,699.7 289,684.5 
			289,669.3 289,654.1 273.8,654.1 273.8,638.9 273.8,623.7 273.8,608.5 273.8,593.2 273.8,578 273.8,562.8 273.8,547.6 
			273.8,532.4 289,532.4 289,517.2 289,502 289,486.8 304.2,486.8 304.2,471.5 319.4,471.5 319.4,456.3 319.4,441.1 304.2,441.1 
			304.2,456.3 289,456.3 289,471.5 273.8,471.5 273.8,456.3 289,456.3 289,441.1 304.2,441.1 304.2,425.9 319.4,425.9 334.7,425.9 
			334.7,410.7 349.9,410.7 349.9,395.5 365.1,395.5 365.1,380.3 380.3,380.3 395.5,380.3 395.5,365.1 395.5,349.9 380.3,349.9 		"/>
		<rect x="319.4" y="821.4" fill="#95301E" width="15.2" height="15.2"/>
		<polygon fill="#95301E" points="289,334.6 304.2,334.6 304.2,319.4 319.4,319.4 334.7,319.4 334.7,304.2 349.9,304.2 349.9,289 
			349.9,273.8 334.7,273.8 334.7,258.6 334.7,243.4 319.4,243.4 319.4,258.6 304.2,258.6 304.2,273.8 319.4,273.8 319.4,289 
			304.2,289 304.2,273.8 289,273.8 289,289 273.8,289 273.8,304.2 273.8,319.4 289,319.4 		"/>
		<polygon fill="#95301E" points="258.6,349.9 273.8,349.9 289,349.9 289,334.6 273.8,334.6 273.8,319.4 258.6,319.4 258.6,334.6 
			243.4,334.6 228.2,334.6 228.2,349.9 243.4,349.9 		"/>
	</g>
	<g>
		<polygon fill="#C0321A" points="714.9,258.6 714.9,243.4 714.9,228.2 699.7,228.2 699.7,213 684.5,213 684.5,197.7 669.3,197.7 
			654.1,197.7 654.1,182.5 638.9,182.5 623.7,182.5 623.7,167.3 608.5,167.3 593.2,167.3 578,167.3 578,152.1 562.8,152.1 
			547.6,152.1 532.4,152.1 517.2,152.1 502,152.1 502,167.3 517.2,167.3 532.4,167.3 547.6,167.3 562.8,167.3 562.8,182.5 
			578,182.5 578,197.7 593.2,197.7 608.5,197.7 623.7,197.7 623.7,213 638.9,213 654.1,213 654.1,228.2 669.3,228.2 684.5,228.2 
			684.5,243.4 684.5,258.6 684.5,273.8 669.3,273.8 669.3,289 684.5,289 684.5,304.2 699.7,304.2 699.7,289 714.9,289 714.9,273.8 
			730.1,273.8 730.1,258.6 		"/>
		<rect x="638.9" y="243.4" fill="#C0321A" width="15.2" height="15.2"/>
		<rect x="608.5" y="213" fill="#C0321A" width="15.2" height="15.2"/>
		<polygon fill="#C0321A" points="608.5,273.8 593.2,273.8 593.2,258.6 578,258.6 578,243.4 562.8,243.4 562.8,228.2 547.6,228.2 
			532.4,228.2 532.4,213 532.4,197.7 517.2,197.7 502,197.7 486.8,197.7 471.5,197.7 456.3,197.7 441.1,197.7 425.9,197.7 
			425.9,182.5 410.7,182.5 395.5,182.5 380.3,182.5 380.3,197.7 365.1,197.7 349.9,197.7 334.7,197.7 334.7,213 349.9,213 
			365.1,213 380.3,213 380.3,228.2 395.5,228.2 410.7,228.2 425.9,228.2 425.9,243.4 441.1,243.4 456.3,243.4 456.3,228.2 
			471.5,228.2 471.5,243.4 486.8,243.4 486.8,228.2 502,228.2 502,243.4 517.2,243.4 517.2,258.6 532.4,258.6 547.6,258.6 
			562.8,258.6 562.8,273.8 547.6,273.8 532.4,273.8 532.4,289 532.4,304.2 547.6,304.2 562.8,304.2 562.8,319.4 578,319.4 
			578,334.6 593.2,334.6 608.5,334.6 623.7,334.6 623.7,319.4 623.7,304.2 623.7,289 608.5,289 		"/>
		<rect x="502" y="258.6" fill="#C0321A" width="15.2" height="15.2"/>
		<polygon fill="#C0321A" points="349.9,334.6 334.7,334.6 319.4,334.6 319.4,349.9 304.2,349.9 289,349.9 289,365.1 273.8,365.1 
			273.8,380.3 258.6,380.3 258.6,395.5 258.6,410.7 243.4,410.7 243.4,425.9 228.2,425.9 228.2,441.1 228.2,456.3 243.4,456.3 
			243.4,441.1 258.6,441.1 258.6,425.9 273.8,425.9 273.8,410.7 273.8,395.5 289,395.5 289,380.3 304.2,380.3 319.4,380.3 
			319.4,365.1 334.7,365.1 349.9,365.1 365.1,365.1 380.3,365.1 380.3,349.9 380.3,334.6 365.1,334.6 		"/>
		<polygon fill="#C0321A" points="319.4,228.2 304.2,228.2 304.2,243.4 289,243.4 289,258.6 273.8,258.6 273.8,273.8 258.6,273.8 
			258.6,289 243.4,289 243.4,304.2 243.4,319.4 243.4,334.6 258.6,334.6 258.6,319.4 273.8,319.4 273.8,304.2 273.8,289 289,289 
			289,273.8 304.2,273.8 304.2,258.6 319.4,258.6 319.4,243.4 334.7,243.4 334.7,228.2 334.7,213 319.4,213 		"/>
		<polygon fill="#C0321A" points="304.2,806.2 304.2,791 289,791 289,775.8 289,760.6 289,745.3 273.8,745.3 273.8,730.1 
			273.8,714.9 273.8,699.7 258.6,699.7 258.6,684.5 258.6,669.3 258.6,654.1 258.6,638.9 258.6,623.7 258.6,608.5 258.6,593.2 
			258.6,578 258.6,562.8 258.6,547.6 258.6,532.4 258.6,517.2 243.4,517.2 243.4,532.4 228.2,532.4 228.2,547.6 228.2,562.8 
			228.2,578 228.2,593.2 228.2,608.5 228.2,623.7 228.2,638.9 228.2,654.1 228.2,669.3 228.2,684.5 243.4,684.5 243.4,699.7 
			243.4,714.9 243.4,730.1 243.4,745.3 243.4,760.6 243.4,775.8 243.4,791 243.4,806.2 243.4,821.4 228.2,821.4 228.2,836.6 
			228.2,851.8 243.4,851.8 258.6,851.8 273.8,851.8 273.8,836.6 289,836.6 304.2,836.6 319.4,836.6 319.4,821.4 334.7,821.4 
			334.7,806.2 319.4,806.2 		"/>
		<rect x="304.2" y="273.8" fill="#C0321A" width="15.2" height="15.2"/>
		<rect x="273.8" y="319.4" fill="#C0321A" width="15.2" height="15.2"/>
		<polygon fill="#C0321A" points="213,471.5 197.8,471.5 197.8,486.8 197.8,502 182.5,502 182.5,517.2 182.5,532.4 182.5,547.6 
			167.3,547.6 167.3,562.8 167.3,578 167.3,593.2 167.3,608.5 167.3,623.7 167.3,638.9 167.3,654.1 182.5,654.1 182.5,638.9 
			182.5,623.7 182.5,608.5 182.5,593.2 197.8,593.2 197.8,578 197.8,562.8 197.8,547.6 197.8,532.4 213,532.4 213,517.2 213,502 
			213,486.8 228.2,486.8 228.2,471.5 228.2,456.3 213,456.3 		"/>
	</g>
	<g>
		<polygon fill="#352E28" points="988.7,1064.8 973.5,1064.8 973.5,1049.6 958.3,1049.6 958.3,1034.4 943.1,1034.4 943.1,1019.1 
			927.9,1019.1 927.9,1003.9 912.7,1003.9 912.7,988.7 897.5,988.7 897.5,973.5 882.3,973.5 882.3,958.3 867,958.3 867,943.1 
			851.8,943.1 851.8,927.9 836.6,927.9 821.4,927.9 821.4,912.7 821.4,897.5 806.2,897.5 791,897.5 775.8,897.5 775.8,912.7 
			791,912.7 791,927.9 806.2,927.9 806.2,943.1 821.4,943.1 821.4,958.3 836.6,958.3 836.6,973.5 851.8,973.5 851.8,988.7 
			867,988.7 867,1003.9 882.3,1003.9 882.3,1019.1 897.5,1019.1 897.5,1034.4 912.7,1034.4 912.7,1049.6 912.7,1064.8 912.7,1080 
			927.9,1080 943.1,1080 958.3,1080 973.5,1080 988.7,1080 1004,1080 1004,1064.8 		"/>
		<polygon fill="#352E28" points="730.1,851.8 714.9,851.8 699.7,851.8 699.7,867 714.9,867 714.9,882.3 730.1,882.3 745.4,882.3 
			760.6,882.3 760.6,867 760.6,851.8 745.4,851.8 		"/>
		<polygon fill="#352E28" points="441.1,836.6 441.1,851.8 425.9,851.8 410.7,851.8 395.5,851.8 395.5,867 410.7,867 425.9,867 
			425.9,882.3 441.1,882.3 441.1,867 456.3,867 456.3,851.8 471.5,851.8 471.5,836.6 456.3,836.6 		"/>
		<rect x="425.9" y="821.4" fill="#352E28" width="15.2" height="15.2"/>
		<rect x="410.7" y="882.3" fill="#352E28" width="15.2" height="15.2"/>
		<rect x="380.3" y="867" fill="#352E28" width="15.2" height="15.2"/>
		<polygon fill="#352E28" points="304.2,867 289,867 289,882.3 273.8,882.3 273.8,897.5 273.8,912.7 289,912.7 289,897.5 
			304.2,897.5 304.2,912.7 319.4,912.7 334.7,912.7 334.7,897.5 334.7,882.3 334.7,867 319.4,867 		"/>
		<rect x="289" y="958.3" fill="#352E28" width="15.2" height="15.2"/>
		<rect x="273.8" y="943.1" fill="#352E28" width="15.2" height="15.2"/>
		<rect x="258.6" y="973.5" fill="#352E28" width="15.2" height="15.2"/>
		<polygon fill="#352E28" points="258.6,927.9 243.4,927.9 243.4,943.1 258.6,943.1 273.8,943.1 273.8,927.9 		"/>
		<rect x="243.4" y="1034.4" fill="#352E28" width="15.2" height="15.2"/>
		<rect x="243.4" y="958.3" fill="#352E28" width="15.2" height="15.2"/>
		<polygon fill="#352E28" points="228.2,1003.9 228.2,1019.1 243.4,1019.1 258.6,1019.1 258.6,1003.9 243.4,1003.9 		"/>
		<rect x="228.2" y="943.1" fill="#352E28" width="15.2" height="15.2"/>
		<rect x="213" y="988.7" fill="#352E28" width="15.2" height="15.2"/>
		<polygon fill="#352E28" points="213,1034.4 197.8,1034.4 197.8,1049.6 197.8,1064.8 213,1064.8 228.2,1064.8 228.2,1049.6 
			213,1049.6 		"/>
		<polygon fill="#352E28" points="197.8,958.3 197.8,973.5 213,973.5 228.2,973.5 228.2,958.3 213,958.3 		"/>
		<polygon fill="#352E28" points="197.8,1003.9 182.5,1003.9 182.5,988.7 167.3,988.7 167.3,1003.9 167.3,1019.1 182.5,1019.1 
			197.8,1019.1 		"/>
		<rect x="167.3" y="1064.8" fill="#352E28" width="15.2" height="15.2"/>
		<rect x="152.1" y="1034.4" fill="#352E28" width="15.2" height="15.2"/>
		<polygon fill="#352E28" points="136.9,1064.8 136.9,1080 152.1,1080 152.1,1064.8 152.1,1049.6 136.9,1049.6 		"/>
	</g>
	<g>
		<rect x="410.7" y="836.6" fill="#28231F" width="15.2" height="15.2"/>
		<polygon fill="#28231F" points="410.7,806.2 395.5,806.2 395.5,821.4 380.3,821.4 380.3,806.2 365.1,806.2 349.9,806.2 
			349.9,821.4 334.7,821.4 334.7,836.6 319.4,836.6 304.2,836.6 289,836.6 273.8,836.6 273.8,851.8 258.6,851.8 243.4,851.8 
			243.4,867 228.2,867 213,867 197.8,867 182.5,867 182.5,882.3 182.5,897.5 167.3,897.5 167.3,912.7 152.1,912.7 152.1,927.9 
			136.9,927.9 136.9,943.1 121.7,943.1 121.7,958.3 106.5,958.3 106.5,973.5 106.5,988.7 91.3,988.7 91.3,1003.9 91.3,1019.1 
			76.1,1019.1 76.1,1034.4 60.8,1034.4 60.8,1049.6 60.8,1064.8 45.6,1064.8 45.6,1080 60.8,1080 76.1,1080 91.3,1080 106.5,1080 
			106.5,1064.8 106.5,1049.6 106.5,1034.4 121.7,1034.4 121.7,1019.1 121.7,1003.9 121.7,988.7 136.9,988.7 136.9,973.5 
			152.1,973.5 167.3,973.5 167.3,958.3 152.1,958.3 152.1,943.1 167.3,943.1 167.3,927.9 182.5,927.9 182.5,912.7 197.8,912.7 
			197.8,897.5 213,897.5 213,882.3 228.2,882.3 243.4,882.3 243.4,897.5 258.6,897.5 258.6,882.3 258.6,867 273.8,867 273.8,882.3 
			289,882.3 289,867 304.2,867 304.2,851.8 319.4,851.8 334.7,851.8 349.9,851.8 349.9,836.6 365.1,836.6 365.1,851.8 380.3,851.8 
			380.3,836.6 395.5,836.6 410.7,836.6 410.7,821.4 		"/>
		<rect x="380.3" y="851.8" fill="#28231F" width="15.2" height="15.2"/>
		<rect x="349.9" y="851.8" fill="#28231F" width="15.2" height="15.2"/>
		<rect x="213" y="897.5" fill="#28231F" width="15.2" height="15.2"/>
		<rect x="182.5" y="988.7" fill="#28231F" width="15.2" height="15.2"/>
		<rect x="182.5" y="958.3" fill="#28231F" width="15.2" height="15.2"/>
		<rect x="167.3" y="1034.4" fill="#28231F" width="15.2" height="15.2"/>
		<rect x="136.9" y="1019.2" fill="#28231F" width="15.2" height="15.2"/>
		<polygon fill="#28231F" points="152.1,1003.9 167.3,1003.9 167.3,988.7 152.1,988.7 136.9,988.7 136.9,1003.9 		"/>
		<rect x="121.7" y="1049.6" fill="#28231F" width="15.2" height="15.2"/>
	</g>
	<g>
		<rect x="973.5" y="1049.6" fill="#423932" width="15.2" height="15.2"/>
		<rect x="958.3" y="1034.4" fill="#423932" width="15.2" height="15.2"/>
		<rect x="943.1" y="1019.2" fill="#423932" width="15.2" height="15.2"/>
		<rect x="927.9" y="1003.9" fill="#423932" width="15.2" height="15.2"/>
		<rect x="912.7" y="988.7" fill="#423932" width="15.2" height="15.2"/>
		<rect x="897.5" y="973.5" fill="#423932" width="15.2" height="15.2"/>
		<rect x="882.3" y="958.3" fill="#423932" width="15.2" height="15.2"/>
		<rect x="867.1" y="943.1" fill="#423932" width="15.2" height="15.2"/>
		<rect x="851.8" y="927.9" fill="#423932" width="15.2" height="15.2"/>
		<polygon fill="#423932" points="836.6,912.7 836.6,897.5 821.4,897.5 821.4,912.7 821.4,927.9 836.6,927.9 851.8,927.9 
			851.8,912.7 		"/>
		<path fill="#423932" d="M806.2,882.3H791V867h-15.2v15.2h-15.2v15.2h-15.2v-15.2h-15.2h-15.2V867h-15.2v15.2v15.2v15.2h-15.2v15.2
			h-15.2v15.2h-15.2h-15.2v15.2h15.2v15.2h-15.2v-15.2h-15.2v-15.2h-15.2v-15.2h-15.2H578v-15.2h-15.2v-15.2h-15.2v-15.2h-15.2
			h-15.2V867H502v-15.2h-15.2h-15.2h-15.2V867h-15.2v15.2h-15.2v15.2h15.2v15.2h15.2h15.2v15.2h15.2v15.2H502v15.2h15.2v15.2H502
			h-15.2v-15.2h-15.2v-15.2h-15.2v-15.2h-15.2h-15.2v-15.2h-15.2h-15.2v-15.2h-15.2h-15.2h-15.2v-15.2h-15.2v15.2v15.2h-15.2h-15.2
			v15.2h15.2h15.2h15.2h15.2v15.2h15.2h15.2v15.2h15.2h15.2v15.2h15.2v15.2v15.2h-15.2v-15.2h-15.2v-15.2h-15.2v-15.2h-15.2h-15.2
			h-15.2v-15.2h-15.2h-15.2h-15.2H289v15.2h15.2v15.2H289v-15.2h-15.2v-15.2h-15.2h-15.2v15.2h15.2v15.2h15.2v15.2h-15.2v-15.2
			h-15.2v-15.2h-15.2v15.2H213h-15.2h-15.2v-15.2h15.2H213h15.2v-15.2H213h-15.2h-15.2v-15.2h-15.2v15.2h-15.2v15.2h15.2v15.2h-15.2
			h-15.2v15.2h15.2h15.2h15.2h15.2v15.2v15.2h-15.2h-15.2v-15.2h-15.2h-15.2v-15.2h-15.2v15.2v15.2v15.2h-15.2v15.2v15.2v15.2h15.2
			h15.2v-15.2h-15.2v-15.2h15.2h15.2v-15.2h-15.2v-15.2h15.2v15.2h15.2h15.2v15.2h-15.2h-15.2v15.2v15.2h15.2v-15.2h15.2v15.2h15.2
			H213h15.2h15.2h15.2h15.2H289h15.2h15.2h15.2h15.2h15.2h15.2h15.2h15.2h15.2h15.2h15.2h15.2h15.2H502h15.2h15.2h15.2h15.2H578
			h15.2h15.2h15.2h15.2h15.2h15.2h15.2h15.2h15.2h15.2h15.2h15.2h15.2H791h15.2h15.2h15.2h15.2H867h15.2h15.2h15.2v-15.2v-15.2
			v-15.2h-15.2v-15.2h-15.2v-15.2H867v-15.2h-15.2v-15.2h-15.2v-15.2h-15.2v-15.2h-15.2v-15.2H791v-15.2h-15.2v-15.2H791h15.2h15.2
			v-15.2H806.2z M243.4,1034.4h15.2v15.2h-15.2V1034.4z M213,988.7h15.2v15.2h15.2h15.2v15.2h-15.2h-15.2v-15.2H213V988.7z
			 M213,1064.8h-15.2v-15.2v-15.2H213v15.2h15.2v15.2H213z M669.3,1064.8h-15.2h-15.2h-15.2v-15.2h-15.2h-15.2v-15.2H578v-15.2h15.2
			h15.2v15.2h15.2h15.2v15.2h15.2h15.2v-15.2h15.2v-15.2v-15.2h15.2v-15.2h15.2v15.2h-15.2v15.2v15.2v15.2h-15.2v15.2H669.3z"/>
		<rect x="425.9" y="836.6" fill="#423932" width="15.2" height="15.2"/>
		<polygon fill="#423932" points="410.7,867 395.5,867 395.5,882.3 410.7,882.3 425.9,882.3 425.9,867 		"/>
		<rect x="410.7" y="821.4" fill="#423932" width="15.2" height="15.2"/>
		<polygon fill="#423932" points="410.7,851.8 410.7,836.6 395.5,836.6 380.3,836.6 380.3,851.8 395.5,851.8 		"/>
		<rect x="380.3" y="806.2" fill="#423932" width="15.2" height="15.2"/>
		<polygon fill="#423932" points="365.1,882.3 380.3,882.3 380.3,867 380.3,851.8 365.1,851.8 365.1,867 		"/>
		<rect x="349.9" y="836.6" fill="#423932" width="15.2" height="15.2"/>
		<rect x="289" y="897.5" fill="#423932" width="15.2" height="15.2"/>
		<rect x="273.8" y="927.9" fill="#423932" width="15.2" height="15.2"/>
		<rect x="228.2" y="927.9" fill="#423932" width="15.2" height="15.2"/>
		<polygon fill="#423932" points="228.2,912.7 243.4,912.7 258.6,912.7 273.8,912.7 273.8,897.5 273.8,882.3 273.8,867 258.6,867 
			258.6,882.3 258.6,897.5 243.4,897.5 243.4,882.3 228.2,882.3 213,882.3 213,897.5 228.2,897.5 		"/>
		<polygon fill="#423932" points="213,927.9 228.2,927.9 228.2,912.7 213,912.7 213,897.5 197.8,897.5 197.8,912.7 182.5,912.7 
			182.5,927.9 197.8,927.9 		"/>
		<polygon fill="#423932" points="121.7,943.1 136.9,943.1 136.9,927.9 152.1,927.9 152.1,912.7 167.3,912.7 167.3,897.5 
			182.5,897.5 182.5,882.3 167.3,882.3 152.1,882.3 152.1,897.5 136.9,897.5 136.9,912.7 121.7,912.7 121.7,927.9 106.5,927.9 
			106.5,943.1 106.5,958.3 121.7,958.3 		"/>
		<polygon fill="#423932" points="106.5,973.5 106.5,958.3 91.3,958.3 91.3,973.5 76.1,973.5 76.1,988.7 76.1,1003.9 60.8,1003.9 
			60.8,1019.1 45.6,1019.1 45.6,1034.4 45.6,1049.6 30.4,1049.6 30.4,1064.8 30.4,1080 45.6,1080 45.6,1064.8 60.8,1064.8 
			60.8,1049.6 60.8,1034.4 76.1,1034.4 76.1,1019.1 91.3,1019.1 91.3,1003.9 91.3,988.7 106.5,988.7 		"/>
	</g>
	<g>
		<rect x="973.5" y="1034.4" width="15.2" height="15.2"/>
		<rect x="958.3" y="1019.2" width="15.2" height="15.2"/>
		<rect x="943.1" y="1003.9" width="15.2" height="15.2"/>
		<polygon points="943.1,973.5 927.9,973.5 912.7,973.5 912.7,988.7 927.9,988.7 927.9,1003.9 943.1,1003.9 943.1,988.7 		"/>
		<polygon points="912.7,943.1 897.5,943.1 897.5,927.9 882.3,927.9 867,927.9 867,943.1 882.3,943.1 882.3,958.3 897.5,958.3 
			897.5,973.5 912.7,973.5 912.7,958.3 		"/>
		<polygon points="897.5,289 897.5,304.2 897.5,319.4 897.5,334.6 912.7,334.6 912.7,319.4 912.7,304.2 912.7,289 912.7,273.8 
			912.7,258.6 897.5,258.6 882.3,258.6 882.3,273.8 897.5,273.8 		"/>
		<polygon points="897.5,684.5 897.5,669.3 882.3,669.3 882.3,684.5 882.3,699.7 897.5,699.7 		"/>
		<polygon points="897.5,638.9 912.7,638.9 912.7,623.7 912.7,608.5 897.5,608.5 897.5,623.7 882.3,623.7 867,623.7 851.8,623.7 
			836.6,623.7 836.6,638.9 821.4,638.9 821.4,654.1 836.6,654.1 851.8,654.1 851.8,638.9 867,638.9 882.3,638.9 882.3,654.1 
			897.5,654.1 		"/>
		<rect x="882.3" y="593.2" width="15.2" height="15.2"/>
		<rect x="882.3" y="334.6" width="15.2" height="15.2"/>
		<rect x="867.1" y="699.7" width="15.2" height="15.2"/>
		<rect x="867.1" y="654.1" width="15.2" height="15.2"/>
		<polygon points="867,182.5 867,197.7 851.8,197.7 851.8,213 836.6,213 836.6,228.2 836.6,243.4 821.4,243.4 821.4,258.6 
			821.4,273.8 836.6,273.8 836.6,258.6 851.8,258.6 851.8,243.4 851.8,228.2 867,228.2 867,213 882.3,213 882.3,197.7 882.3,182.5 
			882.3,167.3 867,167.3 		"/>
		<polygon points="882.3,152.1 882.3,167.3 897.5,167.3 897.5,152.1 897.5,136.9 882.3,136.9 867,136.9 851.8,136.9 851.8,152.1 
			867,152.1 		"/>
		<polygon points="867,897.5 851.8,897.5 851.8,882.3 836.6,882.3 836.6,867 821.4,867 806.2,867 806.2,851.8 791,851.8 
			775.8,851.8 775.8,836.6 760.6,836.6 745.4,836.6 745.4,821.4 760.6,821.4 775.8,821.4 775.8,806.2 791,806.2 791,791 806.2,791 
			806.2,775.8 821.4,775.8 821.4,760.6 821.4,745.3 836.6,745.3 851.8,745.3 851.8,730.1 867,730.1 867,714.9 851.8,714.9 
			836.6,714.9 836.6,730.1 821.4,730.1 806.2,730.1 791,730.1 775.8,730.1 760.6,730.1 745.4,730.1 730.1,730.1 714.9,730.1 
			699.7,730.1 684.5,730.1 669.3,730.1 669.3,745.3 654.1,745.3 638.9,745.3 623.7,745.3 608.5,745.3 608.5,760.6 593.2,760.6 
			578,760.6 562.8,760.6 547.6,760.6 532.4,760.6 517.2,760.6 517.2,745.3 502,745.3 486.8,745.3 486.8,730.1 471.5,730.1 
			471.5,714.9 471.5,699.7 456.3,699.7 456.3,684.5 456.3,669.3 441.1,669.3 441.1,684.5 441.1,699.7 441.1,714.9 456.3,714.9 
			456.3,730.1 456.3,745.3 471.5,745.3 471.5,760.6 486.8,760.6 502,760.6 502,775.8 517.2,775.8 532.4,775.8 547.6,775.8 
			562.8,775.8 578,775.8 593.2,775.8 608.5,775.8 623.7,775.8 623.7,760.6 638.9,760.6 654.1,760.6 669.3,760.6 684.5,760.6 
			684.5,745.3 699.7,745.3 714.9,745.3 730.1,745.3 745.4,745.3 760.6,745.3 775.8,745.3 791,745.3 791,760.6 791,775.8 
			775.8,775.8 775.8,791 760.6,791 760.6,806.2 745.4,806.2 730.1,806.2 730.1,821.4 714.9,821.4 714.9,836.6 699.7,836.6 
			684.5,836.6 669.3,836.6 654.1,836.6 638.9,836.6 623.7,836.6 608.5,836.6 593.2,836.6 593.2,851.8 608.5,851.8 623.7,851.8 
			638.9,851.8 654.1,851.8 669.3,851.8 684.5,851.8 699.7,851.8 714.9,851.8 730.1,851.8 745.4,851.8 760.6,851.8 760.6,867 
			760.6,882.3 775.8,882.3 775.8,867 791,867 791,882.3 806.2,882.3 821.4,882.3 821.4,897.5 836.6,897.5 836.6,912.7 851.8,912.7 
			851.8,927.9 867,927.9 867,912.7 		"/>
		<polygon points="867,578 882.3,578 882.3,562.8 867,562.8 851.8,562.8 851.8,578 		"/>
		<polygon points="867,547.6 867,532.4 882.3,532.4 897.5,532.4 897.5,517.2 897.5,502 882.3,502 882.3,517.2 867,517.2 
			851.8,517.2 851.8,532.4 836.6,532.4 836.6,547.6 821.4,547.6 806.2,547.6 791,547.6 775.8,547.6 760.6,547.6 760.6,562.8 
			775.8,562.8 791,562.8 806.2,562.8 821.4,562.8 836.6,562.8 851.8,562.8 851.8,547.6 		"/>
		<rect x="851.8" y="471.5" width="15.2" height="15.2"/>
		<polygon points="867,334.6 851.8,334.6 836.6,334.6 836.6,319.4 821.4,319.4 821.4,334.6 806.2,334.6 791,334.6 791,319.4 
			806.2,319.4 806.2,304.2 821.4,304.2 821.4,289 821.4,273.8 806.2,273.8 806.2,289 791,289 791,304.2 775.8,304.2 775.8,319.4 
			775.8,334.6 760.6,334.6 760.6,349.9 745.4,349.9 745.4,365.1 745.4,380.3 760.6,380.3 760.6,365.1 775.8,365.1 775.8,349.9 
			791,349.9 806.2,349.9 821.4,349.9 836.6,349.9 851.8,349.9 851.8,365.1 867,365.1 867,380.3 867,395.5 851.8,395.5 851.8,410.7 
			836.6,410.7 821.4,410.7 821.4,425.9 806.2,425.9 791,425.9 775.8,425.9 760.6,425.9 745.4,425.9 730.1,425.9 714.9,425.9 
			714.9,441.1 730.1,441.1 745.4,441.1 745.4,456.3 760.6,456.3 760.6,471.5 775.8,471.5 775.8,456.3 791,456.3 791,471.5 
			775.8,471.5 775.8,486.8 791,486.8 806.2,486.8 806.2,471.5 821.4,471.5 821.4,456.3 806.2,456.3 806.2,441.1 821.4,441.1 
			821.4,456.3 836.6,456.3 836.6,441.1 836.6,425.9 851.8,425.9 867,425.9 882.3,425.9 882.3,441.1 882.3,456.3 867,456.3 
			867,471.5 882.3,471.5 897.5,471.5 897.5,456.3 897.5,441.1 897.5,425.9 897.5,410.7 882.3,410.7 882.3,395.5 882.3,380.3 
			882.3,365.1 882.3,349.9 867,349.9 		"/>
		<polygon points="867,304.2 882.3,304.2 882.3,289 882.3,273.8 867,273.8 867,289 851.8,289 851.8,304.2 		"/>
		<rect x="836.6" y="684.5" width="15.2" height="15.2"/>
		<rect x="836.6" y="304.2" width="15.2" height="15.2"/>
		<rect x="836.6" y="273.8" width="15.2" height="15.2"/>
		<rect x="836.6" y="152.1" width="15.2" height="15.2"/>
		<polygon points="821.4,486.8 821.4,502 836.6,502 851.8,502 851.8,486.8 836.6,486.8 		"/>
		<rect x="821.4" y="167.3" width="15.2" height="15.2"/>
		<rect x="806.2" y="182.5" width="15.2" height="15.2"/>
		<rect x="791" y="699.7" width="15.2" height="15.2"/>
		<polygon points="791,654.1 775.8,654.1 760.6,654.1 745.4,654.1 730.1,654.1 714.9,654.1 699.7,654.1 684.5,654.1 669.3,654.1 
			654.1,654.1 638.9,654.1 623.7,654.1 623.7,669.3 638.9,669.3 654.1,669.3 669.3,669.3 684.5,669.3 699.7,669.3 714.9,669.3 
			730.1,669.3 745.4,669.3 760.6,669.3 775.8,669.3 791,669.3 806.2,669.3 821.4,669.3 821.4,654.1 806.2,654.1 		"/>
		<polygon points="791,502 775.8,502 760.6,502 745.4,502 745.4,486.8 730.1,486.8 714.9,486.8 714.9,471.5 714.9,456.3 
			714.9,441.1 699.7,441.1 699.7,425.9 684.5,425.9 669.3,425.9 654.1,425.9 638.9,425.9 623.7,425.9 608.5,425.9 593.2,425.9 
			578,425.9 562.8,425.9 562.8,441.1 562.8,456.3 578,456.3 578,471.5 593.2,471.5 593.2,456.3 608.5,456.3 608.5,441.1 
			623.7,441.1 623.7,456.3 608.5,456.3 608.5,471.5 593.2,471.5 593.2,486.8 608.5,486.8 623.7,486.8 638.9,486.8 638.9,471.5 
			654.1,471.5 654.1,456.3 669.3,456.3 669.3,441.1 684.5,441.1 684.5,456.3 699.7,456.3 699.7,471.5 699.7,486.8 684.5,486.8 
			669.3,486.8 669.3,502 684.5,502 684.5,517.2 669.3,517.2 669.3,532.4 654.1,532.4 654.1,547.6 638.9,547.6 623.7,547.6 
			608.5,547.6 593.2,547.6 593.2,562.8 578,562.8 562.8,562.8 547.6,562.8 547.6,547.6 532.4,547.6 532.4,562.8 532.4,578 
			547.6,578 562.8,578 578,578 593.2,578 608.5,578 608.5,562.8 623.7,562.8 638.9,562.8 654.1,562.8 669.3,562.8 669.3,547.6 
			684.5,547.6 684.5,532.4 699.7,532.4 699.7,517.2 714.9,517.2 714.9,532.4 714.9,547.6 730.1,547.6 745.4,547.6 745.4,532.4 
			730.1,532.4 730.1,517.2 745.4,517.2 760.6,517.2 775.8,517.2 791,517.2 806.2,517.2 821.4,517.2 821.4,502 806.2,502 		"/>
		<polygon points="791,213 806.2,213 806.2,197.7 791,197.7 791,182.5 775.8,182.5 775.8,197.7 775.8,213 775.8,228.2 791,228.2 		
			"/>
		<rect x="760.6" y="228.2" width="15.2" height="15.2"/>
		<polygon points="760.6,167.3 745.4,167.3 745.4,182.5 760.6,182.5 775.8,182.5 775.8,167.3 		"/>
		<rect x="745.4" y="882.3" width="15.2" height="15.2"/>
		<polygon points="760.6,608.5 775.8,608.5 791,608.5 791,593.2 775.8,593.2 760.6,593.2 760.6,578 745.4,578 745.4,562.8 
			730.1,562.8 730.1,578 730.1,593.2 745.4,593.2 745.4,608.5 		"/>
		<rect x="745.4" y="243.4" width="15.2" height="15.2"/>
		<rect x="730.1" y="380.3" width="15.2" height="15.2"/>
		<rect x="730.1" y="258.6" width="15.2" height="15.2"/>
		<polygon points="730.1,243.4 745.4,243.4 745.4,228.2 745.4,213 730.1,213 730.1,228.2 		"/>
		<rect x="714.9" y="273.8" width="15.2" height="15.2"/>
		<rect x="714.9" y="197.7" width="15.2" height="15.2"/>
		<polygon points="699.7,578 684.5,578 684.5,593.2 669.3,593.2 654.1,593.2 654.1,608.5 669.3,608.5 684.5,608.5 699.7,608.5 
			699.7,593.2 714.9,593.2 714.9,578 714.9,562.8 699.7,562.8 		"/>
		<rect x="699.7" y="289" width="15.2" height="15.2"/>
		<rect x="699.7" y="182.5" width="15.2" height="15.2"/>
		<polygon points="684.5,897.5 669.3,897.5 669.3,912.7 654.1,912.7 654.1,927.9 638.9,927.9 623.7,927.9 608.5,927.9 608.5,943.1 
			623.7,943.1 623.7,958.3 638.9,958.3 638.9,943.1 654.1,943.1 669.3,943.1 669.3,927.9 684.5,927.9 684.5,912.7 699.7,912.7 
			699.7,897.5 699.7,882.3 684.5,882.3 		"/>
		<rect x="684.5" y="304.2" width="15.2" height="15.2"/>
		<rect x="669.3" y="319.4" width="15.2" height="15.2"/>
		<polygon points="669.3,517.2 669.3,502 654.1,502 638.9,502 638.9,517.2 623.7,517.2 608.5,517.2 593.2,517.2 578,517.2 
			562.8,517.2 562.8,502 547.6,502 532.4,502 517.2,502 517.2,486.8 502,486.8 486.8,486.8 486.8,502 502,502 502,517.2 
			517.2,517.2 532.4,517.2 547.6,517.2 547.6,532.4 562.8,532.4 578,532.4 593.2,532.4 608.5,532.4 623.7,532.4 638.9,532.4 
			654.1,532.4 654.1,517.2 		"/>
		<rect x="638.9" y="958.3" width="15.2" height="15.2"/>
		<polygon points="638.9,334.6 623.7,334.6 608.5,334.6 608.5,349.9 623.7,349.9 638.9,349.9 638.9,365.1 654.1,365.1 654.1,380.3 
			669.3,380.3 669.3,395.5 684.5,395.5 684.5,410.7 699.7,410.7 699.7,395.5 699.7,380.3 684.5,380.3 684.5,365.1 669.3,365.1 
			669.3,349.9 669.3,334.6 654.1,334.6 		"/>
		<polygon points="654.1,167.3 669.3,167.3 669.3,182.5 684.5,182.5 699.7,182.5 699.7,167.3 714.9,167.3 730.1,167.3 730.1,152.1 
			714.9,152.1 699.7,152.1 684.5,152.1 669.3,152.1 654.1,152.1 638.9,152.1 638.9,167.3 		"/>
		<polygon points="623.7,304.2 638.9,304.2 638.9,289 638.9,273.8 623.7,273.8 623.7,289 		"/>
		<polygon points="608.5,638.9 593.2,638.9 593.2,654.1 608.5,654.1 623.7,654.1 623.7,638.9 		"/>
		<polygon points="608.5,273.8 623.7,273.8 623.7,258.6 623.7,243.4 608.5,243.4 608.5,258.6 		"/>
		<polygon points="593.2,912.7 593.2,897.5 578,897.5 562.8,897.5 562.8,912.7 578,912.7 578,927.9 593.2,927.9 608.5,927.9 
			608.5,912.7 		"/>
		<polygon points="593.2,699.7 578,699.7 578,714.9 562.8,714.9 547.6,714.9 532.4,714.9 517.2,714.9 517.2,730.1 532.4,730.1 
			547.6,730.1 562.8,730.1 578,730.1 593.2,730.1 593.2,714.9 608.5,714.9 623.7,714.9 638.9,714.9 638.9,699.7 623.7,699.7 
			623.7,684.5 608.5,684.5 608.5,699.7 		"/>
		<rect x="593.2" y="228.2" width="15.2" height="15.2"/>
		<polygon points="578,623.7 562.8,623.7 562.8,638.9 578,638.9 593.2,638.9 593.2,623.7 		"/>
		<polygon points="578,684.5 593.2,684.5 608.5,684.5 608.5,669.3 593.2,669.3 578,669.3 562.8,669.3 562.8,684.5 		"/>
		<polygon points="578,213 578,228.2 593.2,228.2 593.2,213 593.2,197.7 578,197.7 562.8,197.7 562.8,213 		"/>
		<rect x="547.6" y="882.3" width="15.2" height="15.2"/>
		<rect x="547.6" y="654.1" width="15.2" height="15.2"/>
		<polygon points="547.6,608.5 532.4,608.5 517.2,608.5 517.2,623.7 532.4,623.7 547.6,623.7 562.8,623.7 562.8,608.5 		"/>
		<rect x="547.6" y="182.5" width="15.2" height="15.2"/>
		<polygon points="532.4,867 532.4,851.8 517.2,851.8 517.2,836.6 502,836.6 486.8,836.6 486.8,821.4 471.5,821.4 456.3,821.4 
			456.3,806.2 441.1,806.2 425.9,806.2 425.9,791 410.7,791 395.5,791 395.5,775.8 380.3,775.8 380.3,760.6 365.1,760.6 
			365.1,745.3 349.9,745.3 349.9,730.1 334.7,730.1 334.7,745.3 334.7,760.6 349.9,760.6 349.9,775.8 365.1,775.8 365.1,791 
			365.1,806.2 380.3,806.2 395.5,806.2 410.7,806.2 410.7,821.4 425.9,821.4 441.1,821.4 441.1,836.6 456.3,836.6 471.5,836.6 
			471.5,851.8 486.8,851.8 502,851.8 502,867 517.2,867 517.2,882.3 532.4,882.3 547.6,882.3 547.6,867 		"/>
		<polygon points="532.4,638.9 517.2,638.9 517.2,654.1 532.4,654.1 547.6,654.1 547.6,638.9 		"/>
		<polygon points="532.4,152.1 547.6,152.1 562.8,152.1 578,152.1 593.2,152.1 608.5,152.1 623.7,152.1 638.9,152.1 638.9,136.9 
			623.7,136.9 608.5,136.9 593.2,136.9 578,136.9 562.8,136.9 547.6,136.9 532.4,136.9 517.2,136.9 502,136.9 502,152.1 
			517.2,152.1 		"/>
		<polygon points="517.2,684.5 502,684.5 502,669.3 486.8,669.3 486.8,684.5 486.8,699.7 502,699.7 502,714.9 517.2,714.9 
			517.2,699.7 		"/>
		<rect x="502" y="654.1" width="15.2" height="15.2"/>
		<rect x="486.8" y="623.7" width="15.2" height="15.2"/>
		<polygon points="502,471.5 502,456.3 517.2,456.3 532.4,456.3 532.4,441.1 547.6,441.1 547.6,425.9 562.8,425.9 562.8,410.7 
			547.6,410.7 532.4,410.7 532.4,395.5 517.2,395.5 502,395.5 502,380.3 486.8,380.3 471.5,380.3 456.3,380.3 456.3,395.5 
			456.3,410.7 471.5,410.7 471.5,395.5 486.8,395.5 486.8,410.7 502,410.7 517.2,410.7 517.2,425.9 517.2,441.1 502,441.1 
			486.8,441.1 486.8,456.3 471.5,456.3 471.5,471.5 456.3,471.5 456.3,486.8 471.5,486.8 486.8,486.8 486.8,471.5 		"/>
		<rect x="471.5" y="638.9" width="15.2" height="15.2"/>
		<rect x="456.3" y="654.1" width="15.2" height="15.2"/>
		<polygon points="471.5,304.2 471.5,319.4 486.8,319.4 486.8,334.6 486.8,349.9 486.8,365.1 502,365.1 502,349.9 502,334.6 
			502,319.4 502,304.2 486.8,304.2 486.8,289 471.5,289 456.3,289 456.3,304.2 		"/>
		<polygon points="456.3,349.9 471.5,349.9 471.5,334.6 456.3,334.6 456.3,319.4 441.1,319.4 441.1,304.2 425.9,304.2 425.9,289 
			410.7,289 395.5,289 395.5,304.2 410.7,304.2 410.7,319.4 425.9,319.4 425.9,334.6 441.1,334.6 441.1,349.9 		"/>
		<rect x="441.1" y="273.8" width="15.2" height="15.2"/>
		<rect x="425.9" y="380.3" width="15.2" height="15.2"/>
		<polygon points="425.9,273.8 441.1,273.8 441.1,258.6 425.9,258.6 410.7,258.6 410.7,273.8 		"/>
		<polygon points="410.7,182.5 425.9,182.5 441.1,182.5 456.3,182.5 471.5,182.5 486.8,182.5 502,182.5 517.2,182.5 532.4,182.5 
			532.4,167.3 517.2,167.3 502,167.3 502,152.1 486.8,152.1 471.5,152.1 456.3,152.1 441.1,152.1 425.9,152.1 425.9,167.3 
			410.7,167.3 395.5,167.3 380.3,167.3 380.3,182.5 395.5,182.5 		"/>
		<polygon points="365.1,380.3 365.1,395.5 380.3,395.5 395.5,395.5 395.5,380.3 380.3,380.3 		"/>
		<polygon points="380.3,197.7 380.3,182.5 365.1,182.5 349.9,182.5 349.9,197.7 365.1,197.7 		"/>
		<rect x="349.9" y="395.5" width="15.2" height="15.2"/>
		<rect x="334.7" y="410.7" width="15.2" height="15.2"/>
		<polygon points="334.7,699.7 319.4,699.7 319.4,684.5 319.4,669.3 304.2,669.3 304.2,654.1 289,654.1 289,669.3 289,684.5 
			289,699.7 304.2,699.7 304.2,714.9 319.4,714.9 319.4,730.1 334.7,730.1 334.7,714.9 		"/>
		<rect x="319.4" y="197.7" width="15.2" height="15.2"/>
		<polygon points="304.2,486.8 289,486.8 289,502 289,517.2 304.2,517.2 304.2,502 319.4,502 319.4,486.8 319.4,471.5 304.2,471.5 
					"/>
		<polygon points="304.2,425.9 304.2,441.1 319.4,441.1 319.4,456.3 334.7,456.3 334.7,441.1 334.7,425.9 319.4,425.9 		"/>
		<polygon points="319.4,349.9 319.4,334.6 334.7,334.6 349.9,334.6 365.1,334.6 380.3,334.6 380.3,349.9 395.5,349.9 395.5,365.1 
			395.5,380.3 410.7,380.3 425.9,380.3 425.9,365.1 410.7,365.1 410.7,349.9 410.7,334.6 395.5,334.6 395.5,319.4 380.3,319.4 
			380.3,304.2 380.3,289 365.1,289 365.1,273.8 365.1,258.6 349.9,258.6 349.9,243.4 349.9,228.2 365.1,228.2 365.1,243.4 
			380.3,243.4 380.3,258.6 395.5,258.6 410.7,258.6 410.7,243.4 395.5,243.4 395.5,228.2 380.3,228.2 380.3,213 365.1,213 
			349.9,213 334.7,213 334.7,228.2 334.7,243.4 334.7,258.6 334.7,273.8 349.9,273.8 349.9,289 349.9,304.2 334.7,304.2 
			334.7,319.4 319.4,319.4 304.2,319.4 304.2,334.6 289,334.6 289,349.9 304.2,349.9 		"/>
		<rect x="304.2" y="213" width="15.2" height="15.2"/>
		<rect x="289" y="441.1" width="15.2" height="15.2"/>
		<polygon points="289,623.7 289,608.5 289,593.2 289,578 273.8,578 273.8,593.2 273.8,608.5 273.8,623.7 273.8,638.9 273.8,654.1 
			289,654.1 289,638.9 		"/>
		<polygon points="273.8,547.6 273.8,562.8 289,562.8 289,547.6 289,532.4 273.8,532.4 		"/>
		<rect x="273.8" y="456.3" width="15.2" height="15.2"/>
		<polygon points="273.8,228.2 273.8,243.4 273.8,258.6 289,258.6 289,243.4 304.2,243.4 304.2,228.2 289,228.2 		"/>
		<rect x="258.6" y="486.8" width="15.2" height="15.2"/>
		<polygon points="273.8,365.1 289,365.1 289,349.9 273.8,349.9 258.6,349.9 243.4,349.9 228.2,349.9 228.2,334.6 213,334.6 
			213,349.9 213,365.1 213,380.3 228.2,380.3 228.2,365.1 243.4,365.1 258.6,365.1 258.6,380.3 273.8,380.3 		"/>
		<rect x="258.6" y="258.6" width="15.2" height="15.2"/>
		<rect x="243.4" y="502" width="15.2" height="15.2"/>
		<rect x="243.4" y="273.8" width="15.2" height="15.2"/>
		<polygon points="228.2,791 228.2,806.2 228.2,821.4 243.4,821.4 243.4,806.2 243.4,791 243.4,775.8 228.2,775.8 		"/>
		<polygon points="228.2,699.7 228.2,714.9 228.2,730.1 228.2,745.3 228.2,760.6 243.4,760.6 243.4,745.3 243.4,730.1 243.4,714.9 
			243.4,699.7 243.4,684.5 228.2,684.5 		"/>
		<polygon points="243.4,410.7 258.6,410.7 258.6,395.5 258.6,380.3 243.4,380.3 243.4,395.5 228.2,395.5 228.2,410.7 228.2,425.9 
			243.4,425.9 		"/>
		<polygon points="243.4,319.4 243.4,304.2 228.2,304.2 228.2,319.4 228.2,334.6 243.4,334.6 		"/>
		<polygon points="213,836.6 197.8,836.6 182.5,836.6 182.5,851.8 197.8,851.8 213,851.8 228.2,851.8 228.2,836.6 228.2,821.4 
			213,821.4 		"/>
		<polygon points="228.2,441.1 228.2,425.9 213,425.9 213,441.1 213,456.3 228.2,456.3 		"/>
		<rect x="197.8" y="456.3" width="15.2" height="15.2"/>
		<polygon points="197.8,486.8 197.8,471.5 182.5,471.5 182.5,486.8 182.5,502 197.8,502 		"/>
		<polygon points="167.3,699.7 167.3,714.9 182.5,714.9 182.5,730.1 197.8,730.1 197.8,714.9 213,714.9 213,699.7 213,684.5 
			213,669.3 228.2,669.3 228.2,654.1 228.2,638.9 228.2,623.7 228.2,608.5 228.2,593.2 228.2,578 228.2,562.8 213,562.8 213,578 
			213,593.2 213,608.5 213,623.7 213,638.9 213,654.1 197.8,654.1 197.8,669.3 197.8,684.5 197.8,699.7 182.5,699.7 182.5,684.5 
			182.5,669.3 167.3,669.3 167.3,684.5 		"/>
		<polygon points="182.5,532.4 182.5,517.2 182.5,502 167.3,502 167.3,517.2 167.3,532.4 167.3,547.6 182.5,547.6 		"/>
		<polygon points="152.1,867 136.9,867 136.9,882.3 121.7,882.3 121.7,897.5 106.5,897.5 106.5,912.7 91.3,912.7 91.3,927.9 
			91.3,943.1 76.1,943.1 76.1,958.3 60.8,958.3 60.8,973.5 60.8,988.7 45.6,988.7 45.6,1003.9 30.4,1003.9 30.4,1019.1 30.4,1034.4 
			15.2,1034.4 15.2,1049.6 15.2,1064.8 0,1064.8 0,1080 15.2,1080 30.4,1080 30.4,1064.8 30.4,1049.6 45.6,1049.6 45.6,1034.4 
			45.6,1019.1 60.8,1019.1 60.8,1003.9 76.1,1003.9 76.1,988.7 76.1,973.5 91.3,973.5 91.3,958.3 106.5,958.3 106.5,943.1 
			106.5,927.9 121.7,927.9 121.7,912.7 136.9,912.7 136.9,897.5 152.1,897.5 152.1,882.3 167.3,882.3 182.5,882.3 182.5,867 
			167.3,867 		"/>
		<polygon points="167.3,654.1 167.3,638.9 167.3,623.7 167.3,608.5 167.3,593.2 167.3,578 167.3,562.8 152.1,562.8 152.1,578 
			152.1,593.2 152.1,608.5 152.1,623.7 152.1,638.9 152.1,654.1 152.1,669.3 167.3,669.3 		"/>
	</g>
</g>
<g>
</g>
<g>
</g>
</svg>
