<?xml version="1.0" encoding="utf-8"?>
<!-- Generator: Adobe Illustrator 18.1.0, SVG Export Plug-In . SVG Version: 6.00 Build 0)  -->
<svg version="1.1" xmlns="http://www.w3.org/2000/svg" xmlns:xlink="http://www.w3.org/1999/xlink" x="0px" y="0px"
	 viewBox="0 0 1080 1080" enable-background="new 0 0 1080 1080" xml:space="preserve">
<g id="Layer_1">
	<path fill="#38474C" d="M988.7,1064.8v-15.2v-15.2h-15.2v-15.2h-15.2v-15.2h-15.2v-15.2v-15.2h-15.2h-15.2v-15.2v-15.2h-15.2v-15.2
		h-15.2H867v-15.2v-15.2h-15.2v-15.2h-15.2V867h-15.2h-15.2v-15.2H791h-15.2v-15.2h-15.2h-15.2v-15.2h15.2h15.2v-15.2H791V791h15.2
		v-15.2h15.2v-15.2v-15.2h15.2h15.2v-15.2H867v-15.2h15.2v-15.2h15.2v-15.2v-15.2h-15.2v-15.2h15.2v-15.2h15.2v-15.2v-15.2h-15.2
		v-15.2h-15.2V578v-15.2H867h-15.2v-15.2H867v-15.2h15.2h15.2v-15.2V502v-15.2h-15.2v-15.2h15.2v-15.2v-15.2v-15.2v-15.2h-15.2
		v-15.2v-15.2v-15.2v-15.2h15.2v-15.2h15.2v-15.2v-15.2V289v-15.2v-15.2h-15.2h-15.2v15.2H867V289h-15.2v-15.2h-15.2v-15.2h15.2
		v-15.2v-15.2H867V213h15.2v-15.2v-15.2v-15.2h15.2v-15.2v-15.2h-15.2H867h-15.2v15.2h-15.2v15.2h-15.2v15.2h-15.2v15.2H791v-15.2
		h-15.2v-15.2h-15.2h-15.2h-15.2v-15.2h-15.2h-15.2h-15.2h-15.2h-15.2h-15.2v0h-15.2h-15.2h-15.2H578h-15.2v0H578h15.2h15.2h15.2
		h15.2v-15.2h-15.2h-15.2h-15.2H578h-15.2h-15.2h-15.2h-15.2H502v15.2h-15.2h-15.2h-15.2h-15.2h-15.2v15.2h-15.2h-15.2h-15.2v15.2
		h-15.2h-15.2v15.2h-15.2h-15.2V213h-15.2v15.2H289h-15.2v15.2v15.2h-15.2v15.2h-15.2V289v15.2h-15.2v15.2v15.2H213v15.2v15.2v15.2
		h15.2v-15.2h15.2h15.2v15.2h-15.2v15.2h-15.2v15.2v15.2H213v15.2v15.2h-15.2v15.2h-15.2v15.2V502h-15.2v15.2v15.2v15.2v15.2h-15.2
		V578v15.2v15.2v15.2v15.2v15.2v15.2h15.2v15.2v15.2v15.2h15.2v15.2h15.2v-15.2H213v-15.2v-15.2v-15.2h15.2v15.2v15.2v15.2v15.2
		v15.2v15.2h15.2v15.2h-15.2V791v15.2v15.2H213v15.2h-15.2h-15.2v15.2h-15.2V867h-15.2h-15.2v15.2h-15.2v15.2h-15.2v15.2H91.3v15.2
		v15.2H76.1v15.2H60.8v15.2v15.2H45.6v15.2H30.4v15.2v15.2H15.2v15.2v15.2H0v15.2h15.2h15.2h15.2h15.2h15.2h15.2h15.2h15.2h15.2
		h15.2h15.2h15.2h15.2H213h15.2h15.2h15.2h15.2H289h15.2h15.2h15.2h15.2h15.2h15.2h15.2h15.2h15.2h15.2h15.2h15.2h15.2H502h15.2
		h15.2h15.2h15.2H578h15.2h15.2h15.2h15.2h15.2h15.2h15.2h15.2h15.2h15.2h15.2h15.2h15.2H791h15.2h15.2h15.2h15.2H867h15.2h15.2
		h15.2h15.2h15.2h15.2h15.2h15.2h15.2v-15.2H988.7z M699.7,197.7h15.2v0L699.7,197.7L699.7,197.7z M806.2,258.6H791v0L806.2,258.6
		L806.2,258.6z M791,273.8h-15.2v0L791,273.8L791,273.8z M730.1,213h-15.2v0L730.1,213L730.1,213z M699.7,228.2L699.7,228.2l0-15.2
		h0V228.2z M684.5,182.5h15.2v0L684.5,182.5l-15.2,0v0H684.5z M623.7,167.3v15.2h0L623.7,167.3L623.7,167.3z"/>
	<g>
	</g>
	<g>
	</g>
	<path fill="#FBB029" d="M636.6,438.5c12.1,0.2,24.5,0.5,35.6,5.4s20.5,15.5,20.1,27.6c-15.7,3.6-30.5,10.7-43.2,20.5
		c-10,7.7-19.1,17.4-31,21.4c-7.8,2.6-16.2,2.6-24.4,2.5c-8.6-0.1-17.2-0.1-25.8-0.2c-2.3,0-4.9-0.1-6.6-1.8c-3-3-0.7-8.4-2.7-12.1
		c-2.5-4.5-9.1-3.4-14.1-2.5c-16.9,3.2-35.1-1.7-48-13.1c-0.2-8.9,12.3-10.8,19.7-15.9c8-5.5,11.1-16.8,19.8-21.1
		c3.3-1.6,7-2,10.3-3.6c3.3-1.6,6.1-5.2,5-8.7C579.6,437.5,608.1,438,636.6,438.5z"/>
	<path fill="#FBB029" d="M864.7,453.6c1.8-3,3.5-6.4,3-9.9c-0.6-4.6-4.6-7.9-8.7-9.9c-16-7.6-34.6-0.6-51.7,4.2
		c-15.7,4.4-32,6.8-48.3,7.1c-9.7,0.2-20.1-0.2-28.4,4.8c-8.3,5-12.5,18.1-5.2,24.5c3.5,3.1,8.7,3.9,11.6,7.6
		c1.9,2.5,2.5,5.8,4.3,8.4c2.7,3.9,7.8,5.3,12.5,6.5c15.6,3.8,31.5,7.6,47.6,6.6c4.2-0.2,8.5-0.8,12.1-3.1
		c4.5-2.7,7.2-7.6,10.9-11.2c4.1-3.9,9.2-6.4,14-9.3C849.2,473.5,858.2,464.3,864.7,453.6z"/>
	<path fill="#FFFFFF" d="M528.1,704.8c-14.3-0.5-26.5-14.8-24.8-29c1.7-14.2,17-25.2,31-22.3c15.4,3.2,24.5,19,38.2,26.7
		c17.3,9.7,41.2,6.1,55.4,20c-10.2,4.7-23-1.1-33.1,3.8c-4.4,2.1-7.6,6-11.3,9.1c-10.2,8.7-24.3,11.9-37.7,10.7
		c-13.4-1.1-26.1-6.2-38-12.5"/>
</g>
<g id="Layer_2">
	<rect x="821.4" y="669.3" fill="#85391D" width="15.2" height="15.2"/>
	<g>
		<rect x="867.1" y="152.1" fill="#048FAF" width="15.2" height="15.2"/>
		<rect x="851.8" y="182.5" fill="#048FAF" width="15.2" height="15.2"/>
		<polygon fill="#048FAF" points="836.6,210 821.4,210 821.4,225.2 836.6,225.2 836.6,213 851.8,213 851.8,197.7 836.6,197.7 		"/>
		<rect x="821.4" y="220" fill="#048FAF" width="15.2" height="23.4"/>
	</g>
	<rect x="806.2" y="441.1" fill="#FFFFFF" width="15.2" height="15.2"/>
	<rect x="806.2" y="258.6" fill="#A8A304" width="15.2" height="15.2"/>
	<rect x="806.2" y="243.4" fill="#A8A304" width="15.2" height="15.2"/>
	<rect x="791" y="273.8" fill="#A8A304" width="15.2" height="15.2"/>
	<rect x="791" y="258.6" fill="#A8A304" width="15.2" height="15.2"/>
	<g>
		<polygon fill="#08ABDF" points="851.8,152.1 851.8,167.3 836.6,167.3 836.6,182.5 821.4,182.5 821.4,197.7 806.2,197.7 806.2,213 
			791,213 791,228.2 791,243.4 806.2,243.4 821.4,243.4 821.4,228.2 821.4,213 836.6,213 836.6,197.7 851.8,197.7 851.8,182.5 
			867,182.5 867,167.3 867,152.1 		"/>
		<rect x="836.6" y="213" fill="#08ABDF" width="15.2" height="15.2"/>
	</g>
	<rect x="775.8" y="456.3" fill="#FFFFFF" width="15.2" height="15.2"/>
	<rect x="775.8" y="273.8" fill="#A8A304" width="15.2" height="15.2"/>
	<polygon fill="#FFFF00" points="791,243.4 791,228.2 775.8,228.2 775.8,243.4 760.6,243.4 760.6,258.6 745.4,258.6 745.4,273.8 
		730.1,273.8 730.1,289 730.1,304.2 745.4,304.2 760.6,304.2 760.6,289 775.8,289 775.8,273.8 791,273.8 791,258.6 806.2,258.6 
		806.2,243.4 	"/>
	<polygon fill="#F0443F" points="760.6,182.5 745.4,182.5 745.4,167.3 730.1,167.3 714.9,167.3 714.9,182.5 730.1,182.5 
		730.1,197.7 745.4,197.7 760.6,197.7 760.6,213 760.6,228.2 775.8,228.2 775.8,213 775.8,197.7 775.8,182.5 	"/>
	<polygon fill="#3709A8" points="775.8,289 775.8,304.2 760.6,304.2 760.6,319.4 745.4,319.4 745.4,334.6 730.1,334.6 730.1,349.9 
		730.1,365.1 714.9,365.1 699.7,365.1 699.7,380.3 699.7,395.5 714.9,395.5 714.9,380.3 730.1,380.3 745.4,380.3 745.4,365.1 
		760.6,365.1 760.6,349.9 760.6,334.6 775.8,334.6 775.8,319.4 791,319.4 791,304.2 791,289 	"/>
	<g>
		<polygon fill="#95301E" points="836.6,289 836.6,273.8 821.4,273.8 821.4,289 821.4,304.2 806.2,304.2 806.2,319.4 791,319.4 
			791,334.6 806.2,334.6 821.4,334.6 821.4,319.4 836.6,319.4 836.6,304.2 851.8,304.2 851.8,289 		"/>
		<rect x="730.1" y="243.4" fill="#95301E" width="15.2" height="15.2"/>
		<polygon fill="#95301E" points="730.1,197.7 730.1,213 745.4,213 745.4,228.2 745.4,243.4 760.6,243.4 760.6,228.2 760.6,213 
			760.6,197.7 745.4,197.7 		"/>
		<rect x="714.9" y="182.5" fill="#95301E" width="15.2" height="15.2"/>
		<rect x="699.7" y="167.3" fill="#95301E" width="15.2" height="15.2"/>
	</g>
	<g>
		<polygon fill="#722E19" points="851.8,654.1 851.8,669.3 836.6,669.3 836.6,684.5 851.8,684.5 867,684.5 867,669.3 867,654.1 		
			"/>
		<polygon fill="#722E19" points="806.2,684.5 791,684.5 775.8,684.5 775.8,699.7 760.6,699.7 745.4,699.7 730.1,699.7 714.9,699.7 
			699.7,699.7 684.5,699.7 669.3,699.7 654.1,699.7 638.9,699.7 638.9,714.9 654.1,714.9 669.3,714.9 684.5,714.9 699.7,714.9 
			714.9,714.9 730.1,714.9 745.4,714.9 760.6,714.9 775.8,714.9 791,714.9 791,699.7 806.2,699.7 821.4,699.7 836.6,699.7 
			836.6,684.5 821.4,684.5 		"/>
	</g>
	<rect x="608.5" y="441.1" fill="#FFFFFF" width="15.2" height="15.2"/>
	<rect x="593.2" y="684.5" fill="#FFFFFF" width="15.2" height="15.2"/>
	<rect x="593.2" y="456.3" fill="#FFFFFF" width="15.2" height="15.2"/>
	<polygon fill="#50F211" points="714.9,258.6 714.9,243.4 714.9,228.2 699.7,228.2 699.7,213 684.5,213 684.5,197.7 669.3,197.7 
		654.1,197.7 654.1,182.5 638.9,182.5 623.7,182.5 623.7,167.3 608.5,167.3 593.2,167.3 593.2,182.5 608.5,182.5 608.5,197.7 
		623.7,197.7 623.7,213 638.9,213 638.9,228.2 654.1,228.2 654.1,243.4 669.3,243.4 669.3,258.6 669.3,273.8 669.3,289 684.5,289 
		699.7,289 714.9,289 714.9,273.8 730.1,273.8 730.1,258.6 	"/>
	<rect x="578" y="684.5" fill="#FFFFFF" width="15.2" height="15.2"/>
	<rect x="562.8" y="699.7" fill="#FFFFFF" width="15.2" height="15.2"/>
	<rect x="562.8" y="684.5" fill="#FFFFFF" width="15.2" height="15.2"/>
	<polygon fill="#A2FF71" points="714.9,213 714.9,197.7 699.7,197.7 699.7,182.5 684.5,182.5 669.3,182.5 669.3,167.3 654.1,167.3 
		638.9,167.3 638.9,152.1 623.7,152.1 608.5,152.1 593.2,152.1 578,152.1 562.8,152.1 562.8,167.3 578,167.3 593.2,167.3 
		608.5,167.3 623.7,167.3 623.7,182.5 638.9,182.5 654.1,182.5 654.1,197.7 669.3,197.7 684.5,197.7 684.5,213 699.7,213 
		699.7,228.2 714.9,228.2 714.9,243.4 714.9,258.6 730.1,258.6 730.1,243.4 730.1,228.2 730.1,213 	"/>
	<rect x="547.6" y="699.7" fill="#FFFFFF" width="15.2" height="15.2"/>
	<rect x="547.6" y="684.5" fill="#FFFFFF" width="15.2" height="15.2"/>
	<rect x="547.6" y="669.3" fill="#B9B9B9" width="15.2" height="15.2"/>
	<g>
		<polygon fill="#EDD22B" points="836.6,425.9 836.6,441.1 836.6,456.3 821.4,456.3 821.4,471.5 806.2,471.5 806.2,486.8 791,486.8 
			775.8,486.8 775.8,471.5 760.6,471.5 760.6,456.3 745.4,456.3 745.4,441.1 730.1,441.1 714.9,441.1 714.9,456.3 730.1,456.3 
			730.1,471.5 745.4,471.5 745.4,486.8 760.6,486.8 760.6,502 775.8,502 791,502 806.2,502 821.4,502 821.4,486.8 836.6,486.8 
			836.6,471.5 851.8,471.5 851.8,456.3 851.8,441.1 851.8,425.9 		"/>
		<polygon fill="#EDD22B" points="669.3,456.3 654.1,456.3 654.1,471.5 638.9,471.5 638.9,486.8 623.7,486.8 608.5,486.8 
			593.2,486.8 593.2,502 608.5,502 623.7,502 638.9,502 654.1,502 654.1,486.8 669.3,486.8 669.3,471.5 684.5,471.5 684.5,456.3 
			684.5,441.1 669.3,441.1 		"/>
		<polygon fill="#EDD22B" points="578,471.5 578,456.3 562.8,456.3 562.8,441.1 562.8,425.9 547.6,425.9 547.6,441.1 547.6,456.3 
			547.6,471.5 562.8,471.5 562.8,486.8 578,486.8 593.2,486.8 593.2,471.5 		"/>
	</g>
	<rect x="532.4" y="699.7" fill="#FFFFFF" width="15.2" height="15.2"/>
	<rect x="532.4" y="684.5" fill="#FFFFFF" width="15.2" height="15.2"/>
	<rect x="532.4" y="669.3" fill="#B9B9B9" width="15.2" height="15.2"/>
	<rect x="532.4" y="654.1" fill="#B9B9B9" width="15.2" height="15.2"/>
	<rect x="517.2" y="699.7" fill="#FFFFFF" width="15.2" height="15.2"/>
	<rect x="517.2" y="684.5" fill="#FFFFFF" width="15.2" height="15.2"/>
	<rect x="517.2" y="669.3" fill="#B9B9B9" width="15.2" height="15.2"/>
	<rect x="517.2" y="654.1" fill="#B9B9B9" width="15.2" height="15.2"/>
	<rect x="502" y="669.3" fill="#B9B9B9" width="15.2" height="15.2"/>
	<polygon fill="#41C10C" points="684.5,289 669.3,289 669.3,273.8 669.3,258.6 669.3,243.4 654.1,243.4 654.1,228.2 638.9,228.2 
		638.9,213 623.7,213 623.7,197.7 608.5,197.7 608.5,182.5 593.2,182.5 593.2,167.3 578,167.3 562.8,167.3 562.8,152.1 547.6,152.1 
		532.4,152.1 517.2,152.1 502,152.1 502,167.3 517.2,167.3 532.4,167.3 532.4,182.5 547.6,182.5 562.8,182.5 562.8,197.7 578,197.7 
		593.2,197.7 593.2,213 593.2,228.2 608.5,228.2 608.5,243.4 623.7,243.4 623.7,258.6 623.7,273.8 638.9,273.8 638.9,289 
		638.9,304.2 638.9,319.4 638.9,334.6 654.1,334.6 669.3,334.6 669.3,319.4 684.5,319.4 684.5,304.2 699.7,304.2 699.7,289 	"/>
	<g>
		<polygon fill="#FBB029" points="867,425.9 851.8,425.9 851.8,441.1 851.8,456.3 851.8,471.5 867,471.5 867,456.3 882.3,456.3 
			882.3,441.1 882.3,425.9 		"/>
		<rect x="836.6" y="471.5" fill="#FBB029" width="15.2" height="15.2"/>
		<rect x="745.4" y="486.8" fill="#FBB029" width="15.2" height="15.2"/>
		<polygon fill="#FBB029" points="730.1,471.5 730.1,456.3 714.9,456.3 714.9,471.5 714.9,486.8 730.1,486.8 745.4,486.8 
			745.4,471.5 		"/>
		<polygon fill="#FBB029" points="684.5,471.5 669.3,471.5 669.3,486.8 684.5,486.8 699.7,486.8 699.7,471.5 699.7,456.3 
			684.5,456.3 		"/>
		<rect x="654.1" y="486.8" fill="#FBB029" width="15.2" height="15.2"/>
		<polygon fill="#FBB029" points="608.5,502 593.2,502 593.2,486.8 578,486.8 562.8,486.8 562.8,471.5 547.6,471.5 547.6,456.3 
			547.6,441.1 532.4,441.1 532.4,456.3 517.2,456.3 502,456.3 502,471.5 486.8,471.5 486.8,486.8 502,486.8 517.2,486.8 517.2,502 
			532.4,502 547.6,502 562.8,502 562.8,517.2 578,517.2 593.2,517.2 608.5,517.2 623.7,517.2 638.9,517.2 638.9,502 623.7,502 		"/>
	</g>
	<g>
		<polygon fill="#B25B36" points="882.3,654.1 882.3,638.9 867,638.9 851.8,638.9 851.8,654.1 867,654.1 		"/>
		<polygon fill="#B25B36" points="851.8,669.3 851.8,654.1 836.6,654.1 821.4,654.1 821.4,669.3 836.6,669.3 		"/>
		<polygon fill="#B25B36" points="638.9,699.7 654.1,699.7 669.3,699.7 684.5,699.7 699.7,699.7 714.9,699.7 730.1,699.7 
			745.4,699.7 760.6,699.7 775.8,699.7 775.8,684.5 791,684.5 806.2,684.5 821.4,684.5 821.4,669.3 806.2,669.3 791,669.3 
			775.8,669.3 760.6,669.3 745.4,669.3 730.1,669.3 714.9,669.3 699.7,669.3 684.5,669.3 669.3,669.3 654.1,669.3 638.9,669.3 
			623.7,669.3 623.7,654.1 608.5,654.1 593.2,654.1 593.2,638.9 578,638.9 562.8,638.9 562.8,623.7 547.6,623.7 532.4,623.7 
			517.2,623.7 502,623.7 502,638.9 486.8,638.9 486.8,654.1 471.5,654.1 471.5,669.3 456.3,669.3 456.3,684.5 456.3,699.7 
			471.5,699.7 471.5,714.9 471.5,730.1 486.8,730.1 486.8,745.3 502,745.3 517.2,745.3 517.2,760.6 532.4,760.6 547.6,760.6 
			562.8,760.6 578,760.6 593.2,760.6 608.5,760.6 608.5,745.3 623.7,745.3 638.9,745.3 654.1,745.3 669.3,745.3 669.3,730.1 
			684.5,730.1 699.7,730.1 714.9,730.1 730.1,730.1 745.4,730.1 760.6,730.1 775.8,730.1 791,730.1 806.2,730.1 821.4,730.1 
			836.6,730.1 836.6,714.9 851.8,714.9 867,714.9 867,699.7 882.3,699.7 882.3,684.5 882.3,669.3 867,669.3 867,684.5 851.8,684.5 
			851.8,699.7 836.6,699.7 821.4,699.7 806.2,699.7 806.2,714.9 791,714.9 775.8,714.9 760.6,714.9 745.4,714.9 730.1,714.9 
			714.9,714.9 699.7,714.9 684.5,714.9 669.3,714.9 654.1,714.9 638.9,714.9 623.7,714.9 608.5,714.9 593.2,714.9 593.2,730.1 
			578,730.1 562.8,730.1 547.6,730.1 532.4,730.1 517.2,730.1 517.2,714.9 502,714.9 502,699.7 486.8,699.7 486.8,684.5 
			486.8,669.3 502,669.3 502,654.1 517.2,654.1 517.2,638.9 532.4,638.9 547.6,638.9 547.6,654.1 562.8,654.1 562.8,669.3 
			578,669.3 593.2,669.3 608.5,669.3 608.5,684.5 623.7,684.5 623.7,699.7 		"/>
	</g>
	<g>
		<polygon fill="#57DFFF" points="623.7,304.2 623.7,319.4 623.7,334.6 638.9,334.6 638.9,319.4 638.9,304.2 		"/>
		<polygon fill="#57DFFF" points="623.7,273.8 623.7,258.6 608.5,258.6 608.5,243.4 593.2,243.4 593.2,228.2 578,228.2 578,243.4 
			578,258.6 593.2,258.6 593.2,273.8 608.5,273.8 608.5,289 608.5,304.2 623.7,304.2 623.7,289 		"/>
		<rect x="562.8" y="213" fill="#57DFFF" width="15.2" height="15.2"/>
		<polygon fill="#57DFFF" points="547.6,197.7 547.6,182.5 532.4,182.5 517.2,182.5 502,182.5 486.8,182.5 471.5,182.5 456.3,182.5 
			441.1,182.5 425.9,182.5 410.7,182.5 395.5,182.5 380.3,182.5 380.3,197.7 395.5,197.7 410.7,197.7 425.9,197.7 441.1,197.7 
			456.3,197.7 471.5,197.7 486.8,197.7 502,197.7 517.2,197.7 532.4,197.7 532.4,213 547.6,213 562.8,213 562.8,197.7 		"/>
	</g>
	<g>
		<path fill="#298D2D" d="M882.3,608.5v-15.2V578H867h-15.2v-15.2h-15.2h-15.2h-15.2H791h-15.2h-15.2h-15.2V578h15.2v15.2h15.2H791
			v15.2h-15.2h-15.2h-15.2v-15.2h-15.2V578v-15.2h15.2v-15.2h-15.2h-15.2v-15.2v-15.2h-15.2v15.2h-15.2v15.2h-15.2v15.2h-15.2h-15.2
			h-15.2h-15.2V578h-15.2H578h-15.2h-15.2h-15.2v-15.2v-15.2h-15.2v-15.2v-15.2H502v15.2v15.2v15.2h-15.2V578h-15.2v15.2h-15.2
			h-15.2v15.2h-15.2v15.2v15.2h-15.2v15.2v15.2h15.2v-15.2h15.2h15.2v-15.2h15.2v-15.2h15.2H502v-15.2h15.2h15.2h15.2h15.2H578h15.2
			h15.2v-15.2h15.2v15.2h-15.2v15.2h15.2v15.2v15.2h15.2h15.2h15.2h15.2h15.2h15.2h15.2h15.2h15.2h15.2H791h15.2h15.2v-15.2h15.2
			v-15.2h15.2H867h15.2h15.2v-15.2H882.3z M714.9,578v15.2h-15.2v15.2h-15.2h-15.2h-15.2v-15.2h15.2h15.2V578h15.2v-15.2h15.2V578z"
			/>
		<polygon fill="#298D2D" points="486.8,502 471.5,502 471.5,517.2 486.8,517.2 502,517.2 502,502 		"/>
		<rect x="456.3" y="486.8" fill="#298D2D" width="15.2" height="15.2"/>
		<polygon fill="#298D2D" points="456.3,578 456.3,562.8 456.3,547.6 441.1,547.6 425.9,547.6 425.9,562.8 441.1,562.8 441.1,578 		
			"/>
		<path fill="#298D2D" d="M441.1,395.5h15.2v-15.2h15.2h15.2v-15.2v-15.2v-15.2v-15.2h-15.2v-15.2h-15.2V289h-15.2v-15.2h-15.2
			h-15.2v-15.2h-15.2h-15.2v-15.2h-15.2v-15.2h-15.2v15.2v15.2h15.2v15.2V289h15.2v15.2v15.2h15.2v15.2h15.2v15.2v15.2h15.2v15.2
			h15.2V395.5z M410.7,319.4v-15.2h-15.2V289h15.2h15.2v15.2h15.2v15.2h15.2v15.2h15.2v15.2h-15.2h-15.2v-15.2h-15.2v-15.2H410.7z"
			/>
		<polygon fill="#298D2D" points="410.7,410.7 425.9,410.7 441.1,410.7 441.1,395.5 425.9,395.5 425.9,380.3 410.7,380.3 
			410.7,395.5 395.5,395.5 395.5,410.7 380.3,410.7 380.3,425.9 395.5,425.9 410.7,425.9 		"/>
	</g>
	<g>
		<polygon fill="#217022" points="882.3,273.8 882.3,289 882.3,304.2 867,304.2 851.8,304.2 851.8,319.4 836.6,319.4 836.6,334.6 
			851.8,334.6 867,334.6 867,349.9 882.3,349.9 882.3,334.6 897.5,334.6 897.5,319.4 897.5,304.2 897.5,289 897.5,273.8 		"/>
		<polygon fill="#217022" points="882.3,471.5 867,471.5 867,486.8 867,502 851.8,502 851.8,517.2 867,517.2 882.3,517.2 882.3,502 
			897.5,502 897.5,486.8 882.3,486.8 		"/>
		<rect x="836.6" y="517.2" fill="#217022" width="15.2" height="15.2"/>
		<polygon fill="#217022" points="821.4,517.2 806.2,517.2 791,517.2 791,532.4 775.8,532.4 760.6,532.4 745.4,532.4 745.4,547.6 
			760.6,547.6 775.8,547.6 791,547.6 806.2,547.6 821.4,547.6 836.6,547.6 836.6,532.4 821.4,532.4 		"/>
		<polygon fill="#217022" points="730.1,745.3 714.9,745.3 699.7,745.3 684.5,745.3 684.5,760.6 669.3,760.6 654.1,760.6 
			638.9,760.6 623.7,760.6 623.7,775.8 608.5,775.8 593.2,775.8 578,775.8 562.8,775.8 547.6,775.8 532.4,775.8 517.2,775.8 
			502,775.8 502,760.6 486.8,760.6 471.5,760.6 471.5,775.8 471.5,791 486.8,791 486.8,806.2 502,806.2 502,821.4 517.2,821.4 
			532.4,821.4 532.4,836.6 547.6,836.6 562.8,836.6 578,836.6 578,821.4 593.2,821.4 608.5,821.4 608.5,836.6 623.7,836.6 
			638.9,836.6 654.1,836.6 669.3,836.6 684.5,836.6 699.7,836.6 699.7,821.4 684.5,821.4 669.3,821.4 669.3,806.2 684.5,806.2 
			699.7,806.2 714.9,806.2 714.9,791 699.7,791 684.5,791 684.5,775.8 699.7,775.8 699.7,760.6 714.9,760.6 730.1,760.6 
			745.4,760.6 760.6,760.6 760.6,745.3 745.4,745.3 		"/>
		<polygon fill="#217022" points="638.9,547.6 654.1,547.6 654.1,532.4 638.9,532.4 623.7,532.4 608.5,532.4 593.2,532.4 578,532.4 
			562.8,532.4 547.6,532.4 532.4,532.4 517.2,532.4 517.2,547.6 532.4,547.6 547.6,547.6 547.6,562.8 562.8,562.8 578,562.8 
			593.2,562.8 593.2,547.6 608.5,547.6 623.7,547.6 		"/>
		<rect x="608.5" y="593.2" fill="#217022" width="15.2" height="15.2"/>
		<polygon fill="#217022" points="593.2,608.5 578,608.5 562.8,608.5 562.8,623.7 578,623.7 593.2,623.7 593.2,638.9 608.5,638.9 
			623.7,638.9 623.7,623.7 608.5,623.7 608.5,608.5 		"/>
		<polygon fill="#217022" points="578,349.9 593.2,349.9 593.2,334.6 578,334.6 562.8,334.6 547.6,334.6 532.4,334.6 532.4,319.4 
			517.2,319.4 502,319.4 502,334.6 517.2,334.6 517.2,349.9 532.4,349.9 547.6,349.9 547.6,365.1 562.8,365.1 562.8,349.9 		"/>
		<polygon fill="#217022" points="532.4,395.5 532.4,410.7 547.6,410.7 562.8,410.7 562.8,425.9 578,425.9 593.2,425.9 608.5,425.9 
			623.7,425.9 638.9,425.9 654.1,425.9 669.3,425.9 684.5,425.9 699.7,425.9 699.7,441.1 714.9,441.1 714.9,425.9 730.1,425.9 
			745.4,425.9 760.6,425.9 775.8,425.9 791,425.9 806.2,425.9 821.4,425.9 821.4,410.7 836.6,410.7 851.8,410.7 851.8,395.5 
			867,395.5 867,380.3 867,365.1 851.8,365.1 851.8,349.9 836.6,349.9 836.6,365.1 821.4,365.1 806.2,365.1 791,365.1 775.8,365.1 
			760.6,365.1 760.6,380.3 745.4,380.3 745.4,395.5 730.1,395.5 714.9,395.5 699.7,395.5 699.7,410.7 684.5,410.7 684.5,395.5 
			669.3,395.5 669.3,380.3 654.1,380.3 654.1,365.1 638.9,365.1 623.7,365.1 608.5,365.1 593.2,365.1 578,365.1 562.8,365.1 
			562.8,380.3 547.6,380.3 532.4,380.3 517.2,380.3 502,380.3 502,395.5 517.2,395.5 		"/>
		<rect x="502" y="349.9" fill="#217022" width="15.2" height="15.2"/>
		<rect x="471.5" y="623.7" fill="#217022" width="15.2" height="15.2"/>
		<polygon fill="#217022" points="456.3,745.3 456.3,730.1 456.3,714.9 441.1,714.9 441.1,699.7 441.1,684.5 441.1,669.3 
			456.3,669.3 456.3,654.1 441.1,654.1 425.9,654.1 425.9,669.3 425.9,684.5 410.7,684.5 395.5,684.5 395.5,699.7 410.7,699.7 
			410.7,714.9 425.9,714.9 425.9,730.1 425.9,745.3 410.7,745.3 395.5,745.3 395.5,760.6 410.7,760.6 425.9,760.6 441.1,760.6 
			441.1,775.8 456.3,775.8 456.3,760.6 471.5,760.6 471.5,745.3 		"/>
		<rect x="456.3" y="638.9" fill="#217022" width="15.2" height="15.2"/>
		<rect x="395.5" y="714.9" fill="#217022" width="15.2" height="15.2"/>
		<polygon fill="#217022" points="395.5,654.1 395.5,638.9 395.5,623.7 410.7,623.7 410.7,608.5 425.9,608.5 425.9,593.2 425.9,578 
			441.1,578 441.1,562.8 425.9,562.8 425.9,547.6 441.1,547.6 456.3,547.6 456.3,532.4 456.3,517.2 441.1,517.2 441.1,502 
			441.1,486.8 441.1,471.5 456.3,471.5 471.5,471.5 471.5,456.3 486.8,456.3 486.8,441.1 502,441.1 517.2,441.1 517.2,425.9 
			517.2,410.7 502,410.7 486.8,410.7 486.8,395.5 471.5,395.5 471.5,410.7 456.3,410.7 456.3,395.5 441.1,395.5 441.1,410.7 
			425.9,410.7 410.7,410.7 410.7,425.9 395.5,425.9 380.3,425.9 380.3,441.1 365.1,441.1 365.1,456.3 349.9,456.3 349.9,471.5 
			365.1,471.5 365.1,486.8 365.1,502 349.9,502 349.9,517.2 349.9,532.4 334.7,532.4 319.4,532.4 319.4,547.6 334.7,547.6 
			334.7,562.8 349.9,562.8 349.9,578 334.7,578 319.4,578 319.4,593.2 334.7,593.2 334.7,608.5 334.7,623.7 349.9,623.7 
			349.9,638.9 365.1,638.9 365.1,654.1 365.1,669.3 380.3,669.3 380.3,684.5 395.5,684.5 395.5,669.3 		"/>
		<rect x="365.1" y="699.7" fill="#217022" width="15.2" height="15.2"/>
		<rect x="365.1" y="410.7" fill="#217022" width="15.2" height="15.2"/>
		<rect x="334.7" y="654.1" fill="#217022" width="15.2" height="15.2"/>
		<rect x="334.7" y="486.8" fill="#217022" width="15.2" height="15.2"/>
		<rect x="319.4" y="623.7" fill="#217022" width="15.2" height="15.2"/>
	</g>
	<g>
		<rect x="836.6" y="502" fill="#194C18" width="15.2" height="15.2"/>
		<rect x="821.4" y="517.2" fill="#194C18" width="15.2" height="15.2"/>
		<polygon fill="#194C18" points="836.6,365.1 836.6,349.9 821.4,349.9 806.2,349.9 791,349.9 775.8,349.9 775.8,365.1 791,365.1 
			806.2,365.1 821.4,365.1 		"/>
		<polygon fill="#194C18" points="760.6,745.3 760.6,760.6 745.4,760.6 730.1,760.6 714.9,760.6 699.7,760.6 699.7,775.8 
			684.5,775.8 684.5,791 699.7,791 714.9,791 714.9,806.2 699.7,806.2 684.5,806.2 669.3,806.2 669.3,821.4 684.5,821.4 
			699.7,821.4 714.9,821.4 730.1,821.4 730.1,806.2 745.4,806.2 760.6,806.2 760.6,791 775.8,791 775.8,775.8 791,775.8 791,760.6 
			791,745.3 775.8,745.3 		"/>
		<polygon fill="#194C18" points="760.6,517.2 745.4,517.2 730.1,517.2 730.1,532.4 745.4,532.4 760.6,532.4 775.8,532.4 791,532.4 
			791,517.2 775.8,517.2 		"/>
		<rect x="669.3" y="502" fill="#194C18" width="15.2" height="15.2"/>
		<path fill="#194C18" d="M654.1,851.8h-15.2h-15.2h-15.2h-15.2v-15.2H578h-15.2h-15.2h-15.2v-15.2h-15.2H502v-15.2h-15.2V791h-15.2
			v-15.2v-15.2h-15.2v15.2h-15.2v-15.2h-15.2h-15.2h-15.2v-15.2h15.2h15.2v-15.2v-15.2h-15.2v15.2h-15.2v-15.2h15.2v-15.2h-15.2
			v-15.2h-15.2v-15.2h-15.2v-15.2v-15.2h-15.2v-15.2h-15.2v15.2h-15.2v-15.2h15.2v-15.2v-15.2h-15.2V578h15.2h15.2v-15.2h-15.2
			v-15.2h-15.2v-15.2h15.2h15.2v-15.2V502h-15.2v-15.2h15.2V502h15.2v-15.2v-15.2h-15.2v-15.2h15.2v-15.2h15.2v-15.2h-15.2v-15.2
			h-15.2v15.2h-15.2v15.2v15.2h-15.2v15.2v15.2V502h-15.2v15.2H289v15.2v15.2v15.2h-15.2V578H289v15.2v15.2v15.2v15.2v15.2h15.2
			v15.2h15.2v15.2v15.2h15.2v15.2v15.2h15.2v15.2h15.2v15.2h15.2v15.2h15.2V791h15.2h15.2v15.2h15.2h15.2v15.2h15.2h15.2v15.2H502
			h15.2v15.2h15.2V867h15.2v15.2h15.2v15.2H578h15.2v15.2h15.2v15.2h15.2h15.2h15.2v-15.2h15.2v-15.2h15.2v-15.2V867v-15.2h-15.2
			H654.1z M380.3,714.9h-15.2v-15.2h15.2V714.9z M334.7,654.1h15.2v15.2h-15.2V654.1z"/>
		<rect x="654.1" y="517.2" fill="#194C18" width="15.2" height="15.2"/>
		<polygon fill="#194C18" points="593.2,365.1 608.5,365.1 623.7,365.1 638.9,365.1 638.9,349.9 623.7,349.9 608.5,349.9 
			593.2,349.9 578,349.9 562.8,349.9 562.8,365.1 578,365.1 		"/>
		<polygon fill="#194C18" points="517.2,517.2 517.2,532.4 532.4,532.4 547.6,532.4 547.6,517.2 532.4,517.2 		"/>
		<polygon fill="#194C18" points="517.2,380.3 532.4,380.3 547.6,380.3 562.8,380.3 562.8,365.1 547.6,365.1 547.6,349.9 
			532.4,349.9 517.2,349.9 517.2,365.1 502,365.1 486.8,365.1 486.8,380.3 502,380.3 		"/>
		<polygon fill="#194C18" points="441.1,593.2 456.3,593.2 471.5,593.2 471.5,578 486.8,578 486.8,562.8 502,562.8 502,547.6 
			502,532.4 502,517.2 486.8,517.2 471.5,517.2 471.5,502 456.3,502 456.3,486.8 456.3,471.5 441.1,471.5 441.1,486.8 441.1,502 
			441.1,517.2 456.3,517.2 456.3,532.4 456.3,547.6 456.3,562.8 456.3,578 441.1,578 425.9,578 425.9,593.2 425.9,608.5 
			441.1,608.5 		"/>
		<polygon fill="#194C18" points="425.9,684.5 425.9,669.3 410.7,669.3 410.7,654.1 410.7,638.9 425.9,638.9 425.9,623.7 
			425.9,608.5 410.7,608.5 410.7,623.7 395.5,623.7 395.5,638.9 395.5,654.1 395.5,669.3 395.5,684.5 410.7,684.5 		"/>
		<rect x="395.5" y="380.3" fill="#194C18" width="15.2" height="15.2"/>
		<polygon fill="#194C18" points="395.5,410.7 395.5,395.5 380.3,395.5 365.1,395.5 365.1,410.7 380.3,410.7 		"/>
	</g>
	<polygon fill="#B53C00" points="349.9,775.8 349.9,760.6 334.7,760.6 334.7,745.3 334.7,730.1 319.4,730.1 319.4,714.9 
		304.2,714.9 304.2,699.7 289,699.7 289,684.5 289,669.3 289,654.1 273.8,654.1 273.8,638.9 273.8,623.7 273.8,608.5 273.8,593.2 
		273.8,578 273.8,562.8 273.8,547.6 273.8,532.4 289,532.4 289,517.2 289,502 289,486.8 304.2,486.8 304.2,471.5 319.4,471.5 
		319.4,456.3 319.4,441.1 304.2,441.1 304.2,456.3 289,456.3 289,471.5 273.8,471.5 273.8,486.8 258.6,486.8 258.6,502 258.6,517.2 
		243.4,517.2 243.4,532.4 243.4,547.6 243.4,562.8 243.4,578 243.4,593.2 243.4,608.5 243.4,623.7 243.4,638.9 243.4,654.1 
		243.4,669.3 243.4,684.5 258.6,684.5 258.6,699.7 258.6,714.9 273.8,714.9 273.8,730.1 289,730.1 289,745.3 289,760.6 304.2,760.6 
		304.2,775.8 304.2,791 304.2,806.2 304.2,821.4 289,821.4 289,836.6 273.8,836.6 273.8,851.8 289,851.8 304.2,851.8 319.4,851.8 
		319.4,836.6 334.7,836.6 349.9,836.6 365.1,836.6 365.1,821.4 365.1,806.2 365.1,791 365.1,775.8 	"/>
	<g>
		<polygon fill="#058BAA" points="608.5,319.4 593.2,319.4 578,319.4 578,304.2 562.8,304.2 547.6,304.2 547.6,289 532.4,289 
			532.4,273.8 517.2,273.8 517.2,258.6 502,258.6 486.8,258.6 486.8,243.4 471.5,243.4 456.3,243.4 456.3,228.2 441.1,228.2 
			425.9,228.2 410.7,228.2 410.7,213 395.5,213 380.3,213 380.3,228.2 395.5,228.2 395.5,243.4 410.7,243.4 410.7,258.6 
			425.9,258.6 441.1,258.6 441.1,273.8 456.3,273.8 456.3,289 471.5,289 486.8,289 486.8,304.2 502,304.2 502,319.4 517.2,319.4 
			532.4,319.4 532.4,334.6 547.6,334.6 562.8,334.6 578,334.6 593.2,334.6 608.5,334.6 623.7,334.6 623.7,319.4 		"/>
		<polygon fill="#058BAA" points="319.4,273.8 304.2,273.8 304.2,289 304.2,304.2 289,304.2 273.8,304.2 273.8,319.4 258.6,319.4 
			258.6,334.6 243.4,334.6 243.4,349.9 258.6,349.9 273.8,349.9 289,349.9 289,334.6 304.2,334.6 304.2,319.4 319.4,319.4 
			334.7,319.4 334.7,304.2 349.9,304.2 349.9,289 349.9,273.8 334.7,273.8 		"/>
	</g>
	<g>
		<polygon fill="#F65901" points="289,760.6 289,745.3 289,730.1 273.8,730.1 273.8,714.9 258.6,714.9 258.6,699.7 258.6,684.5 
			243.4,684.5 243.4,699.7 243.4,714.9 243.4,730.1 243.4,745.3 243.4,760.6 243.4,775.8 243.4,791 243.4,806.2 243.4,821.4 
			228.2,821.4 228.2,836.6 228.2,851.8 243.4,851.8 258.6,851.8 273.8,851.8 273.8,836.6 289,836.6 289,821.4 304.2,821.4 
			304.2,806.2 304.2,791 304.2,775.8 304.2,760.6 		"/>
		<polygon fill="#F65901" points="243.4,654.1 243.4,638.9 243.4,623.7 243.4,608.5 243.4,593.2 243.4,578 243.4,562.8 243.4,547.6 
			228.2,547.6 228.2,562.8 228.2,578 228.2,593.2 228.2,608.5 228.2,623.7 228.2,638.9 228.2,654.1 228.2,669.3 228.2,684.5 
			243.4,684.5 243.4,669.3 		"/>
	</g>
	<g>
		<polygon fill="#02BBF5" points="608.5,304.2 608.5,289 608.5,273.8 593.2,273.8 593.2,258.6 578,258.6 578,243.4 578,228.2 
			562.8,228.2 562.8,213 547.6,213 532.4,213 532.4,197.7 517.2,197.7 502,197.7 486.8,197.7 471.5,197.7 456.3,197.7 441.1,197.7 
			425.9,197.7 410.7,197.7 395.5,197.7 380.3,197.7 365.1,197.7 349.9,197.7 334.7,197.7 334.7,213 349.9,213 365.1,213 380.3,213 
			395.5,213 410.7,213 410.7,228.2 425.9,228.2 441.1,228.2 456.3,228.2 456.3,243.4 471.5,243.4 486.8,243.4 486.8,258.6 
			502,258.6 517.2,258.6 517.2,273.8 532.4,273.8 532.4,289 547.6,289 547.6,304.2 562.8,304.2 578,304.2 578,319.4 593.2,319.4 
			608.5,319.4 623.7,319.4 623.7,304.2 		"/>
		<polygon fill="#02BBF5" points="319.4,228.2 304.2,228.2 304.2,243.4 289,243.4 289,258.6 273.8,258.6 273.8,273.8 258.6,273.8 
			258.6,289 243.4,289 243.4,304.2 243.4,319.4 243.4,334.6 258.6,334.6 258.6,319.4 273.8,319.4 273.8,304.2 289,304.2 
			304.2,304.2 304.2,289 304.2,273.8 319.4,273.8 334.7,273.8 334.7,258.6 334.7,243.4 334.7,228.2 334.7,213 319.4,213 		"/>
		<rect x="228.2" y="334.6" fill="#02BBF5" width="15.2" height="15.2"/>
	</g>
	<polygon fill="#3202A8" points="380.3,349.9 380.3,334.6 365.1,334.6 349.9,334.6 334.7,334.6 319.4,334.6 319.4,349.9 
		319.4,365.1 334.7,365.1 334.7,380.3 319.4,380.3 319.4,395.5 304.2,395.5 289,395.5 289,410.7 273.8,410.7 273.8,425.9 
		273.8,441.1 258.6,441.1 258.6,456.3 243.4,456.3 243.4,471.5 243.4,486.8 228.2,486.8 228.2,502 213,502 213,517.2 213,532.4 
		213,547.6 197.8,547.6 197.8,562.8 197.8,578 197.8,593.2 182.5,593.2 182.5,608.5 182.5,623.7 182.5,638.9 182.5,654.1 
		182.5,669.3 182.5,684.5 182.5,699.7 197.8,699.7 197.8,684.5 197.8,669.3 197.8,654.1 213,654.1 213,638.9 213,623.7 213,608.5 
		213,593.2 213,578 228.2,578 228.2,562.8 228.2,547.6 243.4,547.6 243.4,532.4 243.4,517.2 243.4,502 258.6,502 258.6,486.8 
		273.8,486.8 273.8,471.5 273.8,456.3 289,456.3 289,441.1 304.2,441.1 304.2,425.9 319.4,425.9 334.7,425.9 334.7,410.7 
		349.9,410.7 349.9,395.5 365.1,395.5 365.1,380.3 380.3,380.3 395.5,380.3 395.5,365.1 395.5,349.9 	"/>
	<g>
		<polygon fill="#000410" points="699.7,988.7 699.7,1003.9 684.5,1003.9 684.5,1019.1 684.5,1034.4 669.3,1034.4 669.3,1049.6 
			654.1,1049.6 638.9,1049.6 638.9,1034.4 623.7,1034.4 608.5,1034.4 608.5,1019.1 593.2,1019.1 578,1019.1 578,1034.4 
			593.2,1034.4 593.2,1049.6 608.5,1049.6 623.7,1049.6 623.7,1064.8 638.9,1064.8 654.1,1064.8 669.3,1064.8 684.5,1064.8 
			684.5,1049.6 699.7,1049.6 699.7,1034.4 699.7,1019.1 714.9,1019.1 714.9,1003.9 714.9,988.7 		"/>
		<polygon fill="#000410" points="502,943.1 486.8,943.1 486.8,927.9 471.5,927.9 471.5,912.7 456.3,912.7 441.1,912.7 441.1,897.5 
			425.9,897.5 410.7,897.5 410.7,882.3 395.5,882.3 380.3,882.3 365.1,882.3 365.1,867 349.9,867 349.9,851.8 334.7,851.8 
			319.4,851.8 304.2,851.8 304.2,867 319.4,867 334.7,867 334.7,882.3 349.9,882.3 349.9,897.5 365.1,897.5 380.3,897.5 
			395.5,897.5 395.5,912.7 410.7,912.7 425.9,912.7 425.9,927.9 441.1,927.9 456.3,927.9 456.3,943.1 471.5,943.1 471.5,958.3 
			486.8,958.3 486.8,973.5 502,973.5 517.2,973.5 517.2,958.3 502,958.3 		"/>
		<polygon fill="#000410" points="425.9,958.3 410.7,958.3 395.5,958.3 395.5,973.5 410.7,973.5 410.7,988.7 425.9,988.7 
			425.9,1003.9 441.1,1003.9 441.1,988.7 441.1,973.5 425.9,973.5 		"/>
		<polygon fill="#000410" points="380.3,943.1 365.1,943.1 365.1,927.9 349.9,927.9 334.7,927.9 319.4,927.9 304.2,927.9 
			304.2,912.7 289,912.7 273.8,912.7 258.6,912.7 243.4,912.7 228.2,912.7 228.2,927.9 243.4,927.9 258.6,927.9 273.8,927.9 
			289,927.9 289,943.1 304.2,943.1 319.4,943.1 334.7,943.1 349.9,943.1 349.9,958.3 365.1,958.3 380.3,958.3 395.5,958.3 
			395.5,943.1 		"/>
		<polygon fill="#000410" points="197.8,927.9 182.5,927.9 182.5,943.1 197.8,943.1 213,943.1 228.2,943.1 228.2,927.9 213,927.9 		
			"/>
		<polygon fill="#000410" points="197.8,867 213,867 228.2,867 243.4,867 258.6,867 273.8,867 273.8,851.8 258.6,851.8 243.4,851.8 
			228.2,851.8 213,851.8 197.8,851.8 182.5,851.8 167.3,851.8 167.3,867 182.5,867 		"/>
	</g>
	<g>
		<rect x="760.6" y="289" fill="#5409E4" width="15.2" height="15.2"/>
		<polygon fill="#5409E4" points="730.1,304.2 730.1,289 714.9,289 714.9,304.2 699.7,304.2 699.7,319.4 684.5,319.4 684.5,334.6 
			669.3,334.6 669.3,349.9 669.3,365.1 684.5,365.1 684.5,380.3 699.7,380.3 699.7,365.1 714.9,365.1 730.1,365.1 730.1,349.9 
			730.1,334.6 745.4,334.6 745.4,319.4 760.6,319.4 760.6,304.2 745.4,304.2 		"/>
		<rect x="714.9" y="380.3" fill="#5409E4" width="15.2" height="15.2"/>
		<polygon fill="#5409E4" points="319.4,349.9 304.2,349.9 304.2,365.1 304.2,380.3 289,380.3 289,395.5 304.2,395.5 319.4,395.5 
			319.4,380.3 334.7,380.3 334.7,365.1 319.4,365.1 		"/>
		<rect x="273.8" y="395.5" fill="#5409E4" width="15.2" height="15.2"/>
		<polygon fill="#5409E4" points="258.6,425.9 243.4,425.9 243.4,441.1 243.4,456.3 258.6,456.3 258.6,441.1 273.8,441.1 
			273.8,425.9 273.8,410.7 258.6,410.7 		"/>
		<polygon fill="#5409E4" points="228.2,471.5 228.2,486.8 243.4,486.8 243.4,471.5 243.4,456.3 228.2,456.3 		"/>
		<rect x="213" y="486.8" fill="#5409E4" width="15.2" height="15.2"/>
		<polygon fill="#5409E4" points="197.8,517.2 197.8,532.4 182.5,532.4 182.5,547.6 182.5,562.8 182.5,578 182.5,593.2 197.8,593.2 
			197.8,578 197.8,562.8 197.8,547.6 213,547.6 213,532.4 213,517.2 213,502 197.8,502 		"/>
		<polygon fill="#5409E4" points="167.3,623.7 167.3,638.9 167.3,654.1 167.3,669.3 182.5,669.3 182.5,654.1 182.5,638.9 
			182.5,623.7 182.5,608.5 167.3,608.5 		"/>
	</g>
	<polygon fill="#6F38F4" points="289,349.9 289,365.1 273.8,365.1 273.8,380.3 258.6,380.3 258.6,395.5 243.4,395.5 243.4,410.7 
		228.2,410.7 228.2,425.9 228.2,441.1 213,441.1 213,456.3 213,471.5 197.8,471.5 197.8,486.8 182.5,486.8 182.5,502 182.5,517.2 
		167.3,517.2 167.3,532.4 167.3,547.6 167.3,562.8 167.3,578 167.3,593.2 167.3,608.5 182.5,608.5 182.5,593.2 182.5,578 
		182.5,562.8 182.5,547.6 182.5,532.4 197.8,532.4 197.8,517.2 197.8,502 213,502 213,486.8 228.2,486.8 228.2,471.5 228.2,456.3 
		243.4,456.3 243.4,441.1 243.4,425.9 258.6,425.9 258.6,410.7 273.8,410.7 273.8,395.5 289,395.5 289,380.3 304.2,380.3 
		304.2,365.1 304.2,349.9 	"/>
	<path fill="#0043FF" d="M973.5,1064.8v-15.2h-15.2v-15.2h-15.2v-15.2v-15.2h-15.2v-15.2h-15.2v-15.2h-15.2v-15.2h-15.2v-15.2H867
		v-15.2h-15.2v-15.2h-15.2v-15.2h-15.2v-15.2h-15.2H791V867h-15.2v15.2h-15.2v15.2h-15.2v-15.2V867h15.2v-15.2h-15.2h-15.2h-15.2
		h-15.2V867v15.2v15.2v15.2h-15.2v15.2h-15.2v15.2h-15.2h-15.2v15.2h15.2v15.2h-15.2h-15.2v-15.2h-15.2v-15.2h-15.2v-15.2H578v-15.2
		h-15.2h-15.2v-15.2h-15.2v-15.2h-15.2V867H502v-15.2h-15.2h-15.2v-15.2h-15.2h-15.2v-15.2h-15.2h-15.2v-15.2h-15.2h-15.2h-15.2
		v15.2v15.2h-15.2h-15.2h-15.2v15.2h15.2h15.2V867h15.2v15.2h15.2h15.2h15.2v15.2h15.2h15.2v15.2h15.2h15.2v15.2h15.2v15.2H502v15.2
		h15.2v15.2H502h-15.2v-15.2h-15.2v-15.2h-15.2v-15.2h-15.2h-15.2v-15.2h-15.2h-15.2v-15.2h-15.2h-15.2h-15.2v-15.2h-15.2V867h-15.2
		h-15.2v-15.2H289h-15.2V867h-15.2h-15.2h-15.2H213h-15.2h-15.2v15.2h-15.2h-15.2v15.2h-15.2v15.2h-15.2v15.2h-15.2v15.2v15.2H91.3
		v15.2H76.1v15.2v15.2H60.8v15.2H45.6v15.2v15.2H30.4v15.2v15.2h15.2h15.2h15.2h15.2h15.2h15.2h15.2h15.2h15.2h15.2h15.2H213h15.2
		h15.2h15.2h15.2H289h15.2h15.2h15.2h15.2h15.2h15.2h15.2h15.2h15.2h15.2h15.2h15.2h15.2H502h15.2h15.2h15.2h15.2H578h15.2h15.2
		h15.2h15.2h15.2h15.2h15.2h15.2h15.2h15.2h15.2h15.2h15.2H791h15.2h15.2h15.2h15.2H867h15.2h15.2h15.2h15.2h15.2h15.2h15.2h15.2
		v-15.2H973.5z M380.3,943.1h15.2v15.2h15.2h15.2v15.2h15.2v15.2v15.2h-15.2v-15.2h-15.2v-15.2h-15.2v-15.2h-15.2h-15.2h-15.2v-15.2
		h-15.2h-15.2h-15.2H289v-15.2h-15.2h-15.2h-15.2h-15.2v15.2H213h-15.2h-15.2v-15.2h15.2H213h15.2v-15.2h15.2h15.2h15.2H289h15.2
		v15.2h15.2h15.2h15.2h15.2v15.2H380.3z M669.3,1064.8h-15.2h-15.2h-15.2v-15.2h-15.2h-15.2v-15.2H578v-15.2h15.2h15.2v15.2h15.2
		h15.2v15.2h15.2h15.2v-15.2h15.2v-15.2v-15.2h15.2v-15.2h15.2v15.2v15.2h-15.2v15.2v15.2h-15.2v15.2H669.3z"/>
	<g>
		<rect x="988.7" y="1064.8" width="15.2" height="15.2"/>
		<polygon points="988.7,1034.4 973.5,1034.4 973.5,1019.1 958.3,1019.1 958.3,1003.9 943.1,1003.9 943.1,1019.1 943.1,1034.4 
			958.3,1034.4 958.3,1049.6 973.5,1049.6 973.5,1064.8 988.7,1064.8 988.7,1049.6 		"/>
		<polygon points="943.1,973.5 927.9,973.5 912.7,973.5 912.7,988.7 927.9,988.7 927.9,1003.9 943.1,1003.9 943.1,988.7 		"/>
		<polygon points="912.7,943.1 897.5,943.1 897.5,927.9 882.3,927.9 867,927.9 867,943.1 882.3,943.1 882.3,958.3 897.5,958.3 
			897.5,973.5 912.7,973.5 912.7,958.3 		"/>
		<polygon points="897.5,289 897.5,304.2 897.5,319.4 897.5,334.6 912.7,334.6 912.7,319.4 912.7,304.2 912.7,289 912.7,273.8 
			912.7,258.6 897.5,258.6 882.3,258.6 882.3,273.8 897.5,273.8 		"/>
		<polygon points="882.3,699.7 897.5,699.7 897.5,684.5 897.5,669.3 882.3,669.3 882.3,684.5 		"/>
		<rect x="882.3" y="593.2" width="15.2" height="15.2"/>
		<rect x="882.3" y="334.6" width="15.2" height="15.2"/>
		<polygon points="882.3,152.1 882.3,167.3 897.5,167.3 897.5,152.1 897.5,136.9 882.3,136.9 867,136.9 851.8,136.9 851.8,152.1 
			867,152.1 		"/>
		<rect x="867.1" y="699.7" width="15.2" height="15.2"/>
		<rect x="867.1" y="654.1" width="15.2" height="15.2"/>
		<polygon points="867,182.5 867,197.7 851.8,197.7 851.8,213 851.8,228.2 867,228.2 867,213 882.3,213 882.3,197.7 882.3,182.5 
			882.3,167.3 867,167.3 		"/>
		<polygon points="867,897.5 851.8,897.5 851.8,882.3 836.6,882.3 836.6,867 821.4,867 806.2,867 806.2,851.8 791,851.8 
			775.8,851.8 775.8,836.6 760.6,836.6 745.4,836.6 745.4,821.4 760.6,821.4 775.8,821.4 775.8,806.2 791,806.2 791,791 806.2,791 
			806.2,775.8 821.4,775.8 821.4,760.6 821.4,745.3 836.6,745.3 851.8,745.3 851.8,730.1 867,730.1 867,714.9 851.8,714.9 
			836.6,714.9 836.6,730.1 821.4,730.1 806.2,730.1 791,730.1 775.8,730.1 760.6,730.1 745.4,730.1 730.1,730.1 714.9,730.1 
			699.7,730.1 684.5,730.1 669.3,730.1 669.3,745.3 654.1,745.3 638.9,745.3 623.7,745.3 608.5,745.3 608.5,760.6 593.2,760.6 
			578,760.6 562.8,760.6 547.6,760.6 532.4,760.6 517.2,760.6 517.2,745.3 502,745.3 486.8,745.3 486.8,730.1 471.5,730.1 
			471.5,714.9 471.5,699.7 456.3,699.7 456.3,684.5 456.3,669.3 441.1,669.3 441.1,684.5 441.1,699.7 441.1,714.9 456.3,714.9 
			456.3,730.1 456.3,745.3 471.5,745.3 471.5,760.6 486.8,760.6 502,760.6 502,775.8 517.2,775.8 532.4,775.8 547.6,775.8 
			562.8,775.8 578,775.8 593.2,775.8 608.5,775.8 623.7,775.8 623.7,760.6 638.9,760.6 654.1,760.6 669.3,760.6 684.5,760.6 
			684.5,745.3 699.7,745.3 714.9,745.3 730.1,745.3 745.4,745.3 760.6,745.3 775.8,745.3 791,745.3 791,760.6 791,775.8 
			775.8,775.8 775.8,791 760.6,791 760.6,806.2 745.4,806.2 730.1,806.2 730.1,821.4 714.9,821.4 699.7,821.4 699.7,836.6 
			684.5,836.6 669.3,836.6 654.1,836.6 638.9,836.6 623.7,836.6 608.5,836.6 608.5,821.4 593.2,821.4 578,821.4 578,836.6 
			593.2,836.6 593.2,851.8 608.5,851.8 623.7,851.8 638.9,851.8 654.1,851.8 669.3,851.8 684.5,851.8 684.5,867 684.5,882.3 
			684.5,897.5 669.3,897.5 669.3,912.7 654.1,912.7 654.1,927.9 638.9,927.9 623.7,927.9 608.5,927.9 608.5,912.7 593.2,912.7 
			593.2,897.5 578,897.5 562.8,897.5 562.8,882.3 547.6,882.3 547.6,867 532.4,867 532.4,851.8 517.2,851.8 517.2,836.6 502,836.6 
			486.8,836.6 486.8,821.4 471.5,821.4 456.3,821.4 456.3,806.2 441.1,806.2 425.9,806.2 425.9,791 410.7,791 395.5,791 
			395.5,775.8 380.3,775.8 380.3,760.6 365.1,760.6 365.1,745.3 349.9,745.3 349.9,730.1 334.7,730.1 334.7,745.3 334.7,760.6 
			349.9,760.6 349.9,775.8 365.1,775.8 365.1,791 365.1,806.2 380.3,806.2 395.5,806.2 410.7,806.2 410.7,821.4 425.9,821.4 
			441.1,821.4 441.1,836.6 456.3,836.6 471.5,836.6 471.5,851.8 486.8,851.8 502,851.8 502,867 517.2,867 517.2,882.3 532.4,882.3 
			532.4,897.5 547.6,897.5 547.6,912.7 562.8,912.7 578,912.7 578,927.9 593.2,927.9 593.2,943.1 608.5,943.1 608.5,958.3 
			623.7,958.3 623.7,973.5 638.9,973.5 654.1,973.5 654.1,958.3 638.9,958.3 638.9,943.1 654.1,943.1 669.3,943.1 669.3,927.9 
			684.5,927.9 684.5,912.7 699.7,912.7 699.7,897.5 699.7,882.3 699.7,867 699.7,851.8 714.9,851.8 730.1,851.8 745.4,851.8 
			760.6,851.8 760.6,867 745.4,867 745.4,882.3 745.4,897.5 760.6,897.5 760.6,882.3 775.8,882.3 775.8,867 791,867 791,882.3 
			806.2,882.3 821.4,882.3 821.4,897.5 836.6,897.5 836.6,912.7 851.8,912.7 851.8,927.9 867,927.9 867,912.7 		"/>
		<polygon points="867,578 882.3,578 882.3,562.8 867,562.8 851.8,562.8 851.8,578 		"/>
		<polygon points="851.8,486.8 836.6,486.8 821.4,486.8 821.4,502 806.2,502 791,502 775.8,502 760.6,502 745.4,502 745.4,486.8 
			730.1,486.8 714.9,486.8 714.9,471.5 714.9,456.3 714.9,441.1 699.7,441.1 699.7,425.9 684.5,425.9 669.3,425.9 654.1,425.9 
			638.9,425.9 623.7,425.9 608.5,425.9 593.2,425.9 578,425.9 562.8,425.9 562.8,441.1 562.8,456.3 578,456.3 578,471.5 
			593.2,471.5 593.2,456.3 608.5,456.3 608.5,441.1 623.7,441.1 623.7,456.3 608.5,456.3 608.5,471.5 593.2,471.5 593.2,486.8 
			608.5,486.8 623.7,486.8 638.9,486.8 638.9,471.5 654.1,471.5 654.1,456.3 669.3,456.3 669.3,441.1 684.5,441.1 684.5,456.3 
			699.7,456.3 699.7,471.5 699.7,486.8 684.5,486.8 669.3,486.8 669.3,502 684.5,502 684.5,517.2 669.3,517.2 669.3,532.4 
			654.1,532.4 654.1,547.6 638.9,547.6 623.7,547.6 608.5,547.6 593.2,547.6 593.2,562.8 578,562.8 562.8,562.8 547.6,562.8 
			547.6,547.6 532.4,547.6 532.4,562.8 532.4,578 547.6,578 562.8,578 578,578 593.2,578 608.5,578 608.5,562.8 623.7,562.8 
			638.9,562.8 654.1,562.8 669.3,562.8 669.3,547.6 684.5,547.6 684.5,532.4 699.7,532.4 699.7,517.2 714.9,517.2 714.9,532.4 
			714.9,547.6 730.1,547.6 745.4,547.6 745.4,532.4 730.1,532.4 730.1,517.2 745.4,517.2 760.6,517.2 775.8,517.2 791,517.2 
			806.2,517.2 821.4,517.2 836.6,517.2 836.6,502 851.8,502 867,502 867,486.8 867,471.5 851.8,471.5 		"/>
		<polygon points="867,334.6 851.8,334.6 836.6,334.6 836.6,319.4 821.4,319.4 821.4,334.6 806.2,334.6 791,334.6 791,319.4 
			775.8,319.4 775.8,334.6 760.6,334.6 760.6,349.9 760.6,365.1 775.8,365.1 775.8,349.9 791,349.9 806.2,349.9 821.4,349.9 
			836.6,349.9 851.8,349.9 851.8,365.1 867,365.1 867,380.3 867,395.5 851.8,395.5 851.8,410.7 836.6,410.7 821.4,410.7 
			821.4,425.9 806.2,425.9 791,425.9 775.8,425.9 760.6,425.9 745.4,425.9 730.1,425.9 714.9,425.9 714.9,441.1 730.1,441.1 
			745.4,441.1 745.4,456.3 760.6,456.3 760.6,471.5 775.8,471.5 775.8,456.3 791,456.3 791,471.5 775.8,471.5 775.8,486.8 
			791,486.8 806.2,486.8 806.2,471.5 821.4,471.5 821.4,456.3 806.2,456.3 806.2,441.1 821.4,441.1 821.4,456.3 836.6,456.3 
			836.6,441.1 836.6,425.9 851.8,425.9 867,425.9 882.3,425.9 882.3,441.1 882.3,456.3 867,456.3 867,471.5 882.3,471.5 
			897.5,471.5 897.5,456.3 897.5,441.1 897.5,425.9 897.5,410.7 882.3,410.7 882.3,395.5 882.3,380.3 882.3,365.1 882.3,349.9 
			867,349.9 		"/>
		<polygon points="867,304.2 882.3,304.2 882.3,289 882.3,273.8 867,273.8 867,289 851.8,289 851.8,304.2 		"/>
		<rect x="836.6" y="684.5" width="15.2" height="15.2"/>
		<polygon points="851.8,654.1 851.8,638.9 867,638.9 882.3,638.9 882.3,654.1 897.5,654.1 897.5,638.9 912.7,638.9 912.7,623.7 
			912.7,608.5 897.5,608.5 897.5,623.7 882.3,623.7 867,623.7 851.8,623.7 836.6,623.7 836.6,638.9 821.4,638.9 821.4,654.1 
			836.6,654.1 		"/>
		<rect x="836.6" y="304.2" width="15.2" height="15.2"/>
		<rect x="836.6" y="273.8" width="15.2" height="15.2"/>
		<polygon points="836.6,243.4 821.4,243.4 821.4,258.6 821.4,273.8 836.6,273.8 836.6,258.6 851.8,258.6 851.8,243.4 851.8,228.2 
			836.6,228.2 		"/>
		<rect x="836.6" y="152.1" width="15.2" height="15.2"/>
		<rect x="821.4" y="167.3" width="15.2" height="15.2"/>
		<rect x="806.2" y="182.5" width="15.2" height="15.2"/>
		<rect x="791" y="699.7" width="15.2" height="15.2"/>
		<polygon points="806.2,304.2 821.4,304.2 821.4,289 821.4,273.8 806.2,273.8 806.2,289 791,289 791,304.2 791,319.4 806.2,319.4 
					"/>
		<polygon points="791,213 806.2,213 806.2,197.7 791,197.7 791,182.5 775.8,182.5 775.8,197.7 775.8,213 775.8,228.2 791,228.2 		
			"/>
		<rect x="760.6" y="228.2" width="15.2" height="15.2"/>
		<polygon points="760.6,167.3 745.4,167.3 745.4,182.5 760.6,182.5 775.8,182.5 775.8,167.3 		"/>
		<polygon points="760.6,562.8 775.8,562.8 791,562.8 806.2,562.8 821.4,562.8 836.6,562.8 851.8,562.8 851.8,547.6 867,547.6 
			867,532.4 882.3,532.4 897.5,532.4 897.5,517.2 897.5,502 882.3,502 882.3,517.2 867,517.2 851.8,517.2 851.8,532.4 836.6,532.4 
			836.6,547.6 821.4,547.6 806.2,547.6 791,547.6 775.8,547.6 760.6,547.6 745.4,547.6 745.4,562.8 		"/>
		<rect x="745.4" y="365.1" width="15.2" height="15.2"/>
		<rect x="745.4" y="243.4" width="15.2" height="15.2"/>
		<polygon points="730.1,578 730.1,593.2 745.4,593.2 745.4,608.5 760.6,608.5 775.8,608.5 791,608.5 791,593.2 775.8,593.2 
			760.6,593.2 760.6,578 745.4,578 745.4,562.8 730.1,562.8 		"/>
		<rect x="730.1" y="380.3" width="15.2" height="15.2"/>
		<rect x="730.1" y="258.6" width="15.2" height="15.2"/>
		<polygon points="730.1,243.4 745.4,243.4 745.4,228.2 745.4,213 730.1,213 730.1,228.2 		"/>
		<rect x="714.9" y="273.8" width="15.2" height="15.2"/>
		<rect x="714.9" y="197.7" width="15.2" height="15.2"/>
		<polygon points="699.7,578 684.5,578 684.5,593.2 669.3,593.2 654.1,593.2 654.1,608.5 669.3,608.5 684.5,608.5 699.7,608.5 
			699.7,593.2 714.9,593.2 714.9,578 714.9,562.8 699.7,562.8 		"/>
		<rect x="699.7" y="289" width="15.2" height="15.2"/>
		<rect x="699.7" y="182.5" width="15.2" height="15.2"/>
		<rect x="684.5" y="304.2" width="15.2" height="15.2"/>
		<rect x="669.3" y="319.4" width="15.2" height="15.2"/>
		<polygon points="669.3,517.2 669.3,502 654.1,502 638.9,502 638.9,517.2 623.7,517.2 608.5,517.2 593.2,517.2 578,517.2 
			562.8,517.2 562.8,502 547.6,502 532.4,502 517.2,502 517.2,486.8 502,486.8 486.8,486.8 486.8,471.5 502,471.5 502,456.3 
			517.2,456.3 532.4,456.3 532.4,441.1 547.6,441.1 547.6,425.9 562.8,425.9 562.8,410.7 547.6,410.7 532.4,410.7 532.4,395.5 
			517.2,395.5 502,395.5 502,380.3 486.8,380.3 471.5,380.3 456.3,380.3 456.3,395.5 456.3,410.7 471.5,410.7 471.5,395.5 
			486.8,395.5 486.8,410.7 502,410.7 517.2,410.7 517.2,425.9 517.2,441.1 502,441.1 486.8,441.1 486.8,456.3 471.5,456.3 
			471.5,471.5 456.3,471.5 456.3,486.8 471.5,486.8 471.5,502 486.8,502 502,502 502,517.2 517.2,517.2 532.4,517.2 547.6,517.2 
			547.6,532.4 562.8,532.4 578,532.4 593.2,532.4 608.5,532.4 623.7,532.4 638.9,532.4 654.1,532.4 654.1,517.2 		"/>
		<polygon points="638.9,334.6 623.7,334.6 608.5,334.6 593.2,334.6 593.2,349.9 608.5,349.9 623.7,349.9 638.9,349.9 638.9,365.1 
			654.1,365.1 654.1,380.3 669.3,380.3 669.3,395.5 684.5,395.5 684.5,410.7 699.7,410.7 699.7,395.5 699.7,380.3 684.5,380.3 
			684.5,365.1 669.3,365.1 669.3,349.9 669.3,334.6 654.1,334.6 		"/>
		<polygon points="654.1,167.3 669.3,167.3 669.3,182.5 684.5,182.5 699.7,182.5 699.7,167.3 714.9,167.3 730.1,167.3 730.1,152.1 
			714.9,152.1 699.7,152.1 684.5,152.1 669.3,152.1 654.1,152.1 638.9,152.1 638.9,167.3 		"/>
		<polygon points="638.9,669.3 654.1,669.3 669.3,669.3 684.5,669.3 699.7,669.3 714.9,669.3 730.1,669.3 745.4,669.3 760.6,669.3 
			775.8,669.3 791,669.3 806.2,669.3 821.4,669.3 821.4,654.1 806.2,654.1 791,654.1 775.8,654.1 760.6,654.1 745.4,654.1 
			730.1,654.1 714.9,654.1 699.7,654.1 684.5,654.1 669.3,654.1 654.1,654.1 638.9,654.1 623.7,654.1 623.7,669.3 		"/>
		<polygon points="623.7,289 623.7,304.2 638.9,304.2 638.9,289 638.9,273.8 623.7,273.8 		"/>
		<rect x="608.5" y="243.4" width="15.2" height="15.2"/>
		<polygon points="593.2,699.7 578,699.7 578,714.9 562.8,714.9 547.6,714.9 532.4,714.9 517.2,714.9 517.2,730.1 532.4,730.1 
			547.6,730.1 562.8,730.1 578,730.1 593.2,730.1 593.2,714.9 608.5,714.9 623.7,714.9 638.9,714.9 638.9,699.7 623.7,699.7 
			623.7,684.5 608.5,684.5 608.5,699.7 		"/>
		<polygon points="608.5,654.1 623.7,654.1 623.7,638.9 608.5,638.9 593.2,638.9 593.2,654.1 		"/>
		<rect x="593.2" y="228.2" width="15.2" height="15.2"/>
		<polygon points="578,684.5 593.2,684.5 608.5,684.5 608.5,669.3 593.2,669.3 578,669.3 562.8,669.3 562.8,684.5 		"/>
		<polygon points="578,638.9 593.2,638.9 593.2,623.7 578,623.7 562.8,623.7 562.8,638.9 		"/>
		<polygon points="578,213 578,228.2 593.2,228.2 593.2,213 593.2,197.7 578,197.7 562.8,197.7 562.8,213 		"/>
		<rect x="547.6" y="654.1" width="15.2" height="15.2"/>
		<rect x="547.6" y="182.5" width="15.2" height="15.2"/>
		<polygon points="547.6,654.1 547.6,638.9 532.4,638.9 517.2,638.9 517.2,654.1 532.4,654.1 		"/>
		<polygon points="532.4,152.1 547.6,152.1 562.8,152.1 578,152.1 593.2,152.1 608.5,152.1 623.7,152.1 638.9,152.1 638.9,136.9 
			623.7,136.9 608.5,136.9 593.2,136.9 578,136.9 562.8,136.9 547.6,136.9 532.4,136.9 517.2,136.9 502,136.9 502,152.1 
			517.2,152.1 		"/>
		<polygon points="532.4,623.7 547.6,623.7 562.8,623.7 562.8,608.5 547.6,608.5 532.4,608.5 517.2,608.5 502,608.5 502,623.7 
			517.2,623.7 		"/>
		<polygon points="502,714.9 517.2,714.9 517.2,699.7 517.2,684.5 502,684.5 502,669.3 486.8,669.3 486.8,684.5 486.8,699.7 
			502,699.7 		"/>
		<rect x="502" y="654.1" width="15.2" height="15.2"/>
		<rect x="486.8" y="623.7" width="15.2" height="15.2"/>
		<rect x="471.5" y="638.9" width="15.2" height="15.2"/>
		<rect x="456.3" y="654.1" width="15.2" height="15.2"/>
		<polygon points="471.5,304.2 471.5,319.4 486.8,319.4 486.8,334.6 486.8,349.9 486.8,365.1 502,365.1 502,349.9 517.2,349.9 
			517.2,334.6 502,334.6 502,319.4 502,304.2 486.8,304.2 486.8,289 471.5,289 456.3,289 456.3,304.2 		"/>
		<polygon points="456.3,349.9 471.5,349.9 471.5,334.6 456.3,334.6 456.3,319.4 441.1,319.4 441.1,304.2 425.9,304.2 425.9,289 
			410.7,289 395.5,289 395.5,304.2 410.7,304.2 410.7,319.4 425.9,319.4 425.9,334.6 441.1,334.6 441.1,349.9 		"/>
		<rect x="441.1" y="273.8" width="15.2" height="15.2"/>
		<rect x="425.9" y="380.3" width="15.2" height="15.2"/>
		<polygon points="425.9,273.8 441.1,273.8 441.1,258.6 425.9,258.6 410.7,258.6 410.7,273.8 		"/>
		<polygon points="410.7,182.5 425.9,182.5 441.1,182.5 456.3,182.5 471.5,182.5 486.8,182.5 502,182.5 517.2,182.5 532.4,182.5 
			532.4,167.3 517.2,167.3 502,167.3 502,152.1 486.8,152.1 471.5,152.1 456.3,152.1 441.1,152.1 425.9,152.1 425.9,167.3 
			410.7,167.3 395.5,167.3 380.3,167.3 380.3,182.5 395.5,182.5 		"/>
		<polygon points="365.1,380.3 365.1,395.5 380.3,395.5 395.5,395.5 395.5,380.3 380.3,380.3 		"/>
		<polygon points="380.3,197.7 380.3,182.5 365.1,182.5 349.9,182.5 349.9,197.7 365.1,197.7 		"/>
		<rect x="349.9" y="395.5" width="15.2" height="15.2"/>
		<rect x="334.7" y="410.7" width="15.2" height="15.2"/>
		<polygon points="334.7,699.7 319.4,699.7 319.4,684.5 319.4,669.3 304.2,669.3 304.2,654.1 289,654.1 289,669.3 289,684.5 
			289,699.7 304.2,699.7 304.2,714.9 319.4,714.9 319.4,730.1 334.7,730.1 334.7,714.9 		"/>
		<rect x="319.4" y="197.7" width="15.2" height="15.2"/>
		<polygon points="304.2,486.8 289,486.8 289,502 289,517.2 304.2,517.2 304.2,502 319.4,502 319.4,486.8 319.4,471.5 304.2,471.5 
					"/>
		<polygon points="304.2,425.9 304.2,441.1 319.4,441.1 319.4,456.3 334.7,456.3 334.7,441.1 334.7,425.9 319.4,425.9 		"/>
		<polygon points="319.4,349.9 319.4,334.6 334.7,334.6 349.9,334.6 365.1,334.6 380.3,334.6 380.3,349.9 395.5,349.9 395.5,365.1 
			395.5,380.3 410.7,380.3 425.9,380.3 425.9,365.1 410.7,365.1 410.7,349.9 410.7,334.6 395.5,334.6 395.5,319.4 380.3,319.4 
			380.3,304.2 380.3,289 365.1,289 365.1,273.8 365.1,258.6 349.9,258.6 349.9,243.4 349.9,228.2 365.1,228.2 365.1,243.4 
			380.3,243.4 380.3,258.6 395.5,258.6 410.7,258.6 410.7,243.4 395.5,243.4 395.5,228.2 380.3,228.2 380.3,213 365.1,213 
			349.9,213 334.7,213 334.7,228.2 334.7,243.4 334.7,258.6 334.7,273.8 349.9,273.8 349.9,289 349.9,304.2 334.7,304.2 
			334.7,319.4 319.4,319.4 304.2,319.4 304.2,334.6 289,334.6 289,349.9 304.2,349.9 		"/>
		<rect x="304.2" y="213" width="15.2" height="15.2"/>
		<rect x="289" y="441.1" width="15.2" height="15.2"/>
		<polygon points="289,623.7 289,608.5 289,593.2 289,578 273.8,578 273.8,593.2 273.8,608.5 273.8,623.7 273.8,638.9 273.8,654.1 
			289,654.1 289,638.9 		"/>
		<polygon points="273.8,547.6 273.8,562.8 289,562.8 289,547.6 289,532.4 273.8,532.4 		"/>
		<rect x="273.8" y="456.3" width="15.2" height="15.2"/>
		<polygon points="273.8,228.2 273.8,243.4 273.8,258.6 289,258.6 289,243.4 304.2,243.4 304.2,228.2 289,228.2 		"/>
		<polygon points="273.8,365.1 289,365.1 289,349.9 273.8,349.9 258.6,349.9 243.4,349.9 228.2,349.9 228.2,334.6 213,334.6 
			213,349.9 213,365.1 213,380.3 228.2,380.3 228.2,365.1 243.4,365.1 258.6,365.1 258.6,380.3 273.8,380.3 		"/>
		<rect x="258.6" y="258.6" width="15.2" height="15.2"/>
		<rect x="243.4" y="502" width="15.2" height="15.2"/>
		<rect x="243.4" y="380.3" width="15.2" height="15.2"/>
		<rect x="243.4" y="273.8" width="15.2" height="15.2"/>
		<polygon points="228.2,791 228.2,806.2 228.2,821.4 243.4,821.4 243.4,806.2 243.4,791 243.4,775.8 228.2,775.8 		"/>
		<polygon points="228.2,699.7 228.2,714.9 228.2,730.1 228.2,745.3 228.2,760.6 243.4,760.6 243.4,745.3 243.4,730.1 243.4,714.9 
			243.4,699.7 243.4,684.5 228.2,684.5 		"/>
		<rect x="228.2" y="395.5" width="15.2" height="15.2"/>
		<polygon points="243.4,319.4 243.4,304.2 228.2,304.2 228.2,319.4 228.2,334.6 243.4,334.6 		"/>
		<polygon fill="#000410" points="213,836.6 197.8,836.6 182.5,836.6 182.5,851.8 197.8,851.8 213,851.8 228.2,851.8 228.2,836.6 
			228.2,821.4 213,821.4 		"/>
		<rect x="213" y="425.9" width="15.2" height="15.2"/>
		<rect x="197.8" y="456.3" width="15.2" height="15.2"/>
		<rect x="182.5" y="471.5" width="15.2" height="15.2"/>
		<polygon points="167.3,699.7 167.3,714.9 182.5,714.9 182.5,730.1 197.8,730.1 197.8,714.9 213,714.9 213,699.7 213,684.5 
			213,669.3 228.2,669.3 228.2,654.1 228.2,638.9 228.2,623.7 228.2,608.5 228.2,593.2 228.2,578 213,578 213,593.2 213,608.5 
			213,623.7 213,638.9 213,654.1 197.8,654.1 197.8,669.3 197.8,684.5 197.8,699.7 182.5,699.7 182.5,684.5 182.5,669.3 
			167.3,669.3 167.3,684.5 		"/>
		<rect x="167.3" y="502" width="15.2" height="15.2"/>
		<polygon points="152.1,867 136.9,867 136.9,882.3 121.7,882.3 121.7,897.5 106.5,897.5 106.5,912.7 91.3,912.7 91.3,927.9 
			91.3,943.1 76.1,943.1 76.1,958.3 60.8,958.3 60.8,973.5 60.8,988.7 45.6,988.7 45.6,1003.9 30.4,1003.9 30.4,1019.1 30.4,1034.4 
			15.2,1034.4 15.2,1049.6 15.2,1064.8 0,1064.8 0,1080 15.2,1080 30.4,1080 30.4,1064.8 30.4,1049.6 45.6,1049.6 45.6,1034.4 
			45.6,1019.1 60.8,1019.1 60.8,1003.9 76.1,1003.9 76.1,988.7 76.1,973.5 91.3,973.5 91.3,958.3 106.5,958.3 106.5,943.1 
			106.5,927.9 121.7,927.9 121.7,912.7 136.9,912.7 136.9,897.5 152.1,897.5 152.1,882.3 167.3,882.3 182.5,882.3 182.5,867 
			167.3,867 		"/>
		<polygon points="167.3,654.1 167.3,638.9 167.3,623.7 167.3,608.5 167.3,593.2 167.3,578 167.3,562.8 152.1,562.8 152.1,578 
			152.1,593.2 152.1,608.5 152.1,623.7 152.1,638.9 152.1,654.1 152.1,669.3 167.3,669.3 		"/>
	</g>
</g>
</svg>
