<svg id="Layer_1" data-name="Layer 1" xmlns="http://www.w3.org/2000/svg" viewBox="0 0 1080 1080"><defs><style>.cls-1{fill:#217022;}.cls-2{fill:#5a7055;}.cls-3{fill:#d8ad95;}.cls-4{fill:#fff;}.cls-5{fill:#85391d;}.cls-6{fill:#e6c12b;}.cls-7{fill:#d99c68;}.cls-8{fill:#770b0d;}.cls-9{fill:#d0c1c1;}.cls-10{fill:#b0171a;}.cls-11{fill:#de8d8f;}.cls-12{fill:#b58154;}.cls-13{fill:#b7981c;}.cls-14{fill:#b25b36;}.cls-15{fill:#298d2d;}.cls-16{fill:#b6851a;}.cls-17{fill:#194c18;}.cls-18{fill:#eeceb3;}.cls-19{fill:#a88775;}</style></defs><title>vegas</title><polygon class="cls-1" points="273.8 578.03 262.97 547.61 273.8 517.18 349.86 441.13 410.7 410.7 456.34 395.49 517.18 380.28 532.39 365.07 597.3 340.58 851.83 349.86 867.04 365.07 897.47 380.28 927.89 395.49 903.16 414.44 897.47 471.55 897.47 501.97 905.07 524.79 897.47 532.39 882.25 547.61 878.66 583.77 882.25 593.24 874.65 647.49 882.25 684.51 867.04 714.93 775.77 806.2 745.35 821.41 707.32 832.35 714.93 882.25 722.53 960.97 714.93 988.73 699.72 1034.37 692.11 1079.87 646.48 1079.87 638.87 1049.58 608.45 988.73 486.76 867.04 456.34 851.83 349.86 745.35 289.01 623.66 273.8 578.03"/><polygon class="cls-2" points="153.81 555.21 121.69 547.61 91.27 517.18 83.66 498.38 91.27 471.55 212.96 410.7 228.17 395.49 289.01 380.28 441.13 304.23 486.76 289.01 517.18 273.8 562.82 258.59 623.66 243.38 699.72 228.17 821.41 212.96 897.47 197.75 943.51 190.14 973.52 197.75 1003.94 228.17 1013.04 289.01 1003.94 304.23 988.73 319.44 973.52 349.86 958.31 365.07 927.89 380.28 914.33 387.89 897.47 380.28 867.04 365.07 851.83 349.86 701.41 340.95 574.24 343.83 569.55 354.64 544.7 359.32 532.39 365.07 517.18 380.28 486.76 387.89 456.34 395.49 410.7 410.7 380.28 425.92 349.86 441.13 273.8 517.18 266.2 545.94 273.8 578.03 281.41 602.86 258.59 604.66 244.96 585.63 212.96 578.03 167.32 562.82 153.81 555.21"/><polygon class="cls-3" points="289.01 380.28 253.24 389.94 234.15 385.11 243.38 365.07 258.59 319.44 273.8 212.96 304.23 182.53 334.65 167.32 349.86 152.11 380.28 136.9 395.49 121.69 425.92 106.48 471.55 91.27 593.24 76.06 635.84 68.45 654.09 76.06 699.72 91.27 730.14 121.69 745.35 152.11 790.99 197.75 799.4 212.96 792.56 220.56 699.72 228.17 623.66 243.38 562.82 258.59 517.18 273.8 486.76 289.01 441.13 304.23 410.7 319.44 289.01 380.28"/><polygon class="cls-4" points="775.77 425.92 790.99 410.7 814.3 404.23 851.83 410.7 862.57 407.36 867.04 410.7 882.25 425.92 892.84 456.34 882.25 471.55 867.04 486.76 840.72 496.94 806.2 486.76 801.33 492.14 790.99 486.76 775.77 471.55 771.06 460.67 775.77 456.34 766.5 436.18 775.77 425.92"/><polygon class="cls-4" points="547.61 486.76 536.41 463.94 547.61 441.13 562.82 425.92 600.85 416.24 638.87 425.92 654.09 441.13 667.07 469.08 654.09 486.76 638.87 501.97 607.02 511.35 562.82 501.97 547.61 486.76"/><polygon class="cls-5" points="897.47 608.45 905.07 633.12 897.47 654.09 882.25 669.3 864.97 676.9 821.41 684.51 772.26 694.13 558.03 694.13 547.61 684.51 532.39 669.3 526.32 657.62 532.39 638.87 547.61 623.66 572.08 618.71 593.24 623.66 623.66 631.27 638.87 623.66 669.3 608.45 690.24 600.85 714.93 608.45 728.07 616.06 745.35 608.45 772.38 600.85 790.99 608.45 810.93 618.35 851.83 608.45 878.66 600.85 897.47 608.45"/><polygon class="cls-6" points="588.29 676.9 578.03 684.51 547.61 714.93 555.21 724.99 562.82 714.93 593.24 684.51 588.29 676.9"/><polygon class="cls-4" points="456.34 821.41 452.11 813.8 456.34 806.2 547.61 714.93 551.54 722.54 547.61 730.14 456.34 821.41"/><polygon class="cls-7" points="745.35 821.41 793.16 882.25 806.2 912.68 750.65 1080 699.72 1080 692.11 1057.18 699.72 1034.37 714.93 988.73 726.09 895.94 714.93 882.25 704.48 830.73 745.35 821.41"/><polygon class="cls-7" points="319.44 773.87 334.65 760.56 349.86 765.22 365.07 760.56 380.28 775.77 395.49 790.99 456.34 851.83 486.76 867.04 608.45 988.73 654.09 1080 608.45 1080 562.82 1038.06 448.73 932.55 425.92 912.68 319.44 773.87"/><polygon class="cls-8" points="775.77 1080 767.94 1064.72 787.88 946.55 806.2 912.68 793.16 882.25 818.86 867.04 836.62 882.25 858.25 918.69 895.48 948.96 980.74 1080 775.77 1080"/><polygon class="cls-8" points="22.82 1079.87 30.42 1034.37 45.63 1019.15 60.84 988.73 76.06 958.31 91.27 943.1 106.48 912.68 121.69 897.47 167.32 867.04 182.53 851.83 212.96 836.62 228.17 821.41 243.38 806.2 258.59 790.99 354.48 854.69 425.92 912.68 524.79 998.79 578.03 1044.55 562.82 1080 22.82 1079.87"/><polygon class="cls-7" points="593.24 1034.37 593.24 1019.15 578.03 1019.15 578.03 1003.94 578.03 988.73 562.82 988.73 562.82 973.52 547.61 973.52 547.61 958.31 532.39 958.31 532.39 943.1 517.18 943.1 517.18 927.89 501.97 927.89 501.97 912.68 486.76 912.68 471.55 912.68 456.34 912.68 441.13 912.68 425.92 912.68 425.92 927.89 410.7 927.89 410.7 943.1 410.7 958.31 425.92 958.31 441.13 958.31 441.13 973.52 456.34 973.52 471.55 973.52 471.55 988.73 486.76 988.73 486.76 1003.94 501.97 1003.94 517.18 1003.94 517.18 1019.15 532.39 1019.15 532.39 1034.37 547.61 1034.37 547.61 1049.58 547.61 1064.79 562.82 1064.79 562.82 1080 578.03 1080 593.24 1080 608.45 1080 608.45 1064.79 608.45 1049.58 593.24 1049.58 593.24 1034.37"/><polygon class="cls-7" points="836.62 927.89 821.41 927.89 821.41 912.68 806.2 912.68 790.99 912.68 775.77 912.68 760.56 912.68 760.56 927.89 760.56 943.1 760.56 958.31 760.56 973.52 760.56 988.73 745.35 988.73 745.35 1003.94 745.35 1019.15 745.35 1034.37 745.35 1049.58 730.14 1049.58 730.14 1064.79 730.14 1080 745.35 1080 760.56 1080 775.77 1080 775.77 1064.79 775.77 1049.58 790.99 1049.58 790.99 1034.37 790.99 1019.15 806.2 1019.15 806.2 1003.94 806.2 988.73 821.41 988.73 821.41 973.52 821.41 958.31 836.62 958.31 836.62 943.1 851.83 943.1 851.83 927.89 836.62 927.89"/><rect class="cls-9" x="456.34" y="806.2" width="15.21" height="15.21"/><polygon class="cls-10" points="517.18 1049.58 501.97 1049.58 501.97 1034.37 486.76 1034.37 486.76 1019.15 471.55 1019.15 456.34 1019.15 456.34 1003.94 441.13 1003.94 441.13 988.73 425.92 988.73 410.7 988.73 410.7 973.52 395.49 973.52 395.49 958.31 380.28 958.31 365.07 958.31 349.86 958.31 334.65 958.31 319.44 958.31 304.23 958.31 289.01 958.31 289.01 943.1 273.8 943.1 273.8 927.89 273.8 912.68 273.8 897.47 258.59 897.47 258.59 882.25 258.59 867.04 258.59 851.83 258.59 836.62 258.59 821.41 258.59 806.2 243.38 806.2 243.38 821.41 228.17 821.41 228.17 836.62 212.96 836.62 212.96 851.83 197.75 851.83 182.53 851.83 182.53 867.04 167.32 867.04 167.32 882.25 167.32 897.47 182.53 897.47 182.53 912.68 182.53 927.89 197.75 927.89 197.75 943.1 197.75 958.31 212.96 958.31 212.96 973.52 212.96 988.73 228.17 988.73 243.38 988.73 243.38 1003.94 243.38 1019.15 243.38 1034.37 258.59 1034.37 258.59 1049.58 273.8 1049.58 273.8 1064.79 289.01 1064.79 289.01 1080 304.23 1080 319.44 1080 334.65 1080 349.86 1080 365.07 1080 380.28 1080 395.49 1080 410.7 1080 425.92 1080 441.13 1080 456.34 1080 471.55 1080 486.76 1080 501.97 1080 517.18 1080 532.39 1080 532.39 1064.79 517.18 1064.79 517.18 1049.58"/><polygon class="cls-10" points="897.47 1019.15 897.47 1003.94 897.47 988.73 897.47 973.52 882.25 973.52 882.25 958.31 882.25 943.1 867.04 943.1 867.04 958.31 851.83 958.31 851.83 973.52 851.83 988.73 836.62 988.73 836.62 1003.94 836.62 1019.15 821.41 1019.15 821.41 1034.37 821.41 1049.58 806.2 1049.58 806.2 1064.79 806.2 1080 821.41 1080 836.62 1080 851.83 1080 867.04 1080 882.25 1080 897.47 1080 897.47 1064.79 912.68 1064.79 912.68 1049.58 912.68 1034.37 912.68 1019.15 897.47 1019.15"/><polygon class="cls-10" points="197.75 988.73 197.75 973.52 182.53 973.52 182.53 958.31 182.53 943.1 167.32 943.1 167.32 927.89 167.32 912.68 152.11 912.68 152.11 897.47 136.9 897.47 121.69 897.47 121.69 912.68 106.48 912.68 106.48 927.89 106.48 943.1 91.27 943.1 91.27 958.31 76.06 958.31 76.06 973.52 76.06 988.73 60.84 988.73 60.84 1003.94 60.84 1019.15 45.63 1019.15 45.63 1034.37 30.42 1034.37 30.42 1049.58 30.42 1064.79 30.42 1080 45.63 1080 60.84 1080 76.06 1080 91.27 1080 106.48 1080 121.69 1080 136.9 1080 152.11 1080 167.32 1080 182.53 1080 197.75 1080 212.96 1080 212.96 1064.79 212.96 1049.58 212.96 1034.37 212.96 1019.15 212.96 1003.94 197.75 1003.94 197.75 988.73"/><rect class="cls-9" x="471.55" y="790.99" width="15.21" height="15.21"/><polygon class="cls-8" points="973.52 1049.58 973.52 1034.37 973.52 1019.15 958.31 1019.15 958.31 1003.94 958.31 988.73 943.1 988.73 943.1 973.52 927.89 973.52 927.89 958.31 912.68 958.31 912.68 943.1 897.47 943.1 897.47 927.89 882.25 927.89 882.25 912.68 867.04 912.68 867.04 897.47 851.83 897.47 851.83 882.25 836.62 882.25 821.41 882.25 821.41 897.47 806.2 897.47 806.2 912.68 821.41 912.68 821.41 927.89 836.62 927.89 851.83 927.89 851.83 943.1 836.62 943.1 836.62 958.31 821.41 958.31 821.41 973.52 821.41 988.73 806.2 988.73 806.2 1003.94 806.2 1019.15 790.99 1019.15 790.99 1034.37 790.99 1049.58 775.77 1049.58 775.77 1064.79 775.77 1080 790.99 1080 806.2 1080 806.2 1064.79 806.2 1049.58 821.41 1049.58 821.41 1034.37 821.41 1019.15 836.62 1019.15 836.62 1003.94 836.62 988.73 851.83 988.73 851.83 973.52 851.83 958.31 867.04 958.31 867.04 943.1 882.25 943.1 882.25 958.31 882.25 973.52 897.47 973.52 897.47 988.73 897.47 1003.94 897.47 1019.15 912.68 1019.15 912.68 1034.37 912.68 1049.58 912.68 1064.79 897.47 1064.79 897.47 1080 912.68 1080 927.89 1080 943.1 1080 958.31 1080 973.52 1080 988.73 1080 988.73 1064.79 988.73 1049.58 973.52 1049.58"/><polygon class="cls-8" points="547.61 1049.58 547.61 1034.37 532.39 1034.37 532.39 1019.15 517.18 1019.15 517.18 1003.94 501.97 1003.94 486.76 1003.94 486.76 988.73 471.55 988.73 471.55 973.52 456.34 973.52 441.13 973.52 441.13 958.31 425.92 958.31 410.7 958.31 410.7 943.1 410.7 927.89 425.92 927.89 425.92 912.68 410.7 912.68 395.49 912.68 380.28 912.68 365.07 912.68 349.86 912.68 349.86 927.89 334.65 927.89 319.44 927.89 304.23 927.89 304.23 912.68 289.01 912.68 289.01 897.47 289.01 882.25 289.01 867.04 273.8 867.04 273.8 851.83 273.8 836.62 273.8 821.41 273.8 806.2 258.59 806.2 258.59 821.41 258.59 836.62 258.59 851.83 258.59 867.04 258.59 882.25 258.59 897.47 273.8 897.47 273.8 912.68 273.8 927.89 273.8 943.1 289.01 943.1 289.01 958.31 304.23 958.31 319.44 958.31 334.65 958.31 349.86 958.31 365.07 958.31 380.28 958.31 395.49 958.31 395.49 973.52 410.7 973.52 410.7 988.73 425.92 988.73 441.13 988.73 441.13 1003.94 456.34 1003.94 456.34 1019.15 471.55 1019.15 486.76 1019.15 486.76 1034.37 501.97 1034.37 501.97 1049.58 517.18 1049.58 517.18 1064.79 532.39 1064.79 532.39 1080 547.61 1080 562.82 1080 562.82 1064.79 547.61 1064.79 547.61 1049.58"/><polygon class="cls-8" points="15.21 1049.58 15.21 1064.79 15.21 1080 30.42 1080 30.42 1064.79 30.42 1049.58 30.42 1034.37 15.21 1034.37 15.21 1049.58"/><rect class="cls-8" x="30.42" y="1019.15" width="15.21" height="15.21"/><polygon class="cls-8" points="45.63 1003.94 45.63 1019.15 60.84 1019.15 60.84 1003.94 60.84 988.73 45.63 988.73 45.63 1003.94"/><polygon class="cls-8" points="60.84 973.52 60.84 988.73 76.06 988.73 76.06 973.52 76.06 958.31 60.84 958.31 60.84 973.52"/><rect class="cls-8" x="76.06" y="943.1" width="15.21" height="15.21"/><polygon class="cls-8" points="91.27 927.89 91.27 943.1 106.48 943.1 106.48 927.89 106.48 912.68 91.27 912.68 91.27 927.89"/><rect class="cls-8" x="106.48" y="897.46" width="15.21" height="15.21"/><polygon class="cls-8" points="136.9 867.04 136.9 882.25 121.69 882.25 121.69 897.47 136.9 897.47 152.11 897.47 152.11 912.68 167.32 912.68 167.32 927.89 167.32 943.1 182.53 943.1 182.53 958.31 182.53 973.52 197.75 973.52 197.75 988.73 197.75 1003.94 212.96 1003.94 212.96 1019.15 212.96 1034.37 212.96 1049.58 212.96 1064.79 212.96 1080 228.17 1080 243.38 1080 258.59 1080 273.8 1080 289.01 1080 289.01 1064.79 273.8 1064.79 273.8 1049.58 258.59 1049.58 258.59 1034.37 243.38 1034.37 243.38 1019.15 243.38 1003.94 243.38 988.73 228.17 988.73 212.96 988.73 212.96 973.52 212.96 958.31 197.75 958.31 197.75 943.1 197.75 927.89 182.53 927.89 182.53 912.68 182.53 897.47 167.32 897.47 167.32 882.25 167.32 867.04 152.11 867.04 136.9 867.04"/><rect class="cls-8" x="167.32" y="851.83" width="15.21" height="15.21"/><polygon class="cls-8" points="182.53 836.62 182.53 851.83 197.75 851.83 212.96 851.83 212.96 836.62 197.75 836.62 182.53 836.62"/><rect class="cls-8" x="212.96" y="821.41" width="15.21" height="15.21"/><rect class="cls-8" x="228.17" y="806.2" width="15.21" height="15.21"/><rect class="cls-8" x="243.38" y="790.99" width="15.21" height="15.21"/><rect class="cls-9" x="486.76" y="775.78" width="15.21" height="15.21"/><rect class="cls-9" x="501.97" y="760.56" width="15.21" height="15.21"/><polygon class="cls-11" points="623.66 1064.79 623.66 1080 638.87 1080 638.87 1064.79 638.87 1049.58 623.66 1049.58 623.66 1064.79"/><polygon class="cls-11" points="699.72 1049.58 699.72 1064.79 699.72 1080 714.93 1080 714.93 1064.79 714.93 1049.58 714.93 1034.37 699.72 1034.37 699.72 1049.58"/><polygon class="cls-11" points="623.66 1019.15 608.45 1019.15 608.45 1034.37 608.45 1049.58 623.66 1049.58 623.66 1034.37 623.66 1019.15"/><polygon class="cls-11" points="714.93 1003.94 714.93 1019.15 714.93 1034.37 730.14 1034.37 730.14 1019.15 730.14 1003.94 730.14 988.73 714.93 988.73 714.93 1003.94"/><polygon class="cls-11" points="608.45 988.73 593.24 988.73 593.24 1003.94 593.24 1019.15 608.45 1019.15 608.45 1003.94 608.45 988.73"/><rect class="cls-11" x="578.03" y="973.52" width="15.21" height="15.21"/><rect class="cls-11" x="562.82" y="958.31" width="15.21" height="15.21"/><rect class="cls-11" x="547.61" y="943.1" width="15.21" height="15.21"/><rect class="cls-11" x="532.39" y="927.89" width="15.21" height="15.21"/><rect class="cls-11" x="517.18" y="912.68" width="15.21" height="15.21"/><rect class="cls-11" x="501.97" y="897.46" width="15.21" height="15.21"/><polygon class="cls-11" points="730.14 882.25 730.14 897.47 730.14 912.68 730.14 927.89 730.14 943.1 730.14 958.31 730.14 973.52 730.14 988.73 745.35 988.73 745.35 973.52 745.35 958.31 745.35 943.1 745.35 927.89 745.35 912.68 745.35 897.47 745.35 882.25 730.14 882.25"/><rect class="cls-11" x="486.76" y="882.25" width="15.21" height="15.21"/><polygon class="cls-11" points="471.55 867.04 456.34 867.04 456.34 882.25 471.55 882.25 486.76 882.25 486.76 867.04 471.55 867.04"/><polygon class="cls-11" points="730.14 851.83 730.14 836.62 714.93 836.62 714.93 851.83 714.93 867.04 714.93 882.25 730.14 882.25 730.14 867.04 730.14 851.83"/><rect class="cls-11" x="441.13" y="851.83" width="15.21" height="15.21"/><rect class="cls-11" x="425.92" y="836.62" width="15.21" height="15.21"/><rect class="cls-11" x="410.7" y="821.41" width="15.21" height="15.21"/><rect class="cls-11" x="395.49" y="806.2" width="15.21" height="15.21"/><rect class="cls-11" x="380.28" y="790.99" width="15.21" height="15.21"/><rect class="cls-11" x="365.07" y="775.77" width="15.21" height="15.21"/><polygon class="cls-11" points="349.86 760.56 334.65 760.56 334.65 775.77 349.86 775.77 365.07 775.77 365.07 760.56 349.86 760.56"/><polygon class="cls-12" points="456.34 897.47 456.34 882.25 441.13 882.25 441.13 867.04 425.92 867.04 425.92 851.83 410.7 851.83 410.7 836.62 395.49 836.62 395.49 821.41 380.28 821.41 380.28 806.2 365.07 806.2 365.07 790.99 349.86 790.99 349.86 775.77 334.65 775.77 334.65 760.56 319.44 760.56 304.23 760.56 289.01 760.56 273.8 760.56 258.59 760.56 243.38 760.56 228.17 760.56 228.17 775.77 243.38 775.77 243.38 790.99 258.59 790.99 258.59 806.2 273.8 806.2 273.8 821.41 273.8 836.62 273.8 851.83 273.8 867.04 289.01 867.04 289.01 882.25 289.01 897.47 289.01 912.68 304.23 912.68 304.23 927.89 319.44 927.89 334.65 927.89 349.86 927.89 349.86 912.68 365.07 912.68 380.28 912.68 395.49 912.68 410.7 912.68 425.92 912.68 441.13 912.68 456.34 912.68 471.55 912.68 486.76 912.68 486.76 897.47 471.55 897.47 456.34 897.47"/><polygon class="cls-12" points="851.83 851.83 851.83 836.62 836.62 836.62 821.41 836.62 821.41 821.41 806.2 821.41 790.99 821.41 775.77 821.41 760.56 821.41 745.35 821.41 745.35 836.62 745.35 851.83 745.35 867.04 745.35 882.25 760.56 882.25 760.56 897.47 760.56 912.68 775.77 912.68 790.99 912.68 806.2 912.68 806.2 897.47 821.41 897.47 821.41 882.25 836.62 882.25 836.62 867.04 851.83 867.04 867.04 867.04 867.04 851.83 851.83 851.83"/><rect class="cls-9" x="517.18" y="745.35" width="15.21" height="15.21"/><rect class="cls-9" x="532.4" y="730.14" width="15.21" height="15.21"/><rect class="cls-13" x="547.61" y="714.93" width="15.21" height="15.21"/><rect class="cls-13" x="562.82" y="699.72" width="15.21" height="15.21"/><rect class="cls-6" x="547.61" y="699.72" width="15.21" height="15.21"/><rect class="cls-13" x="578.03" y="684.51" width="15.21" height="15.21"/><rect class="cls-6" x="562.82" y="684.51" width="15.21" height="15.21"/><rect class="cls-6" x="578.03" y="669.3" width="15.21" height="15.21"/><polygon class="cls-14" points="882.25 608.45 867.04 608.45 851.83 608.45 851.83 623.66 836.62 623.66 821.41 623.66 806.2 623.66 790.99 623.66 790.99 608.45 775.77 608.45 760.56 608.45 745.35 608.45 745.35 623.66 730.14 623.66 714.93 623.66 714.93 608.45 699.72 608.45 684.51 608.45 669.3 608.45 669.3 623.66 654.09 623.66 638.87 623.66 638.87 638.87 623.66 638.87 608.45 638.87 593.24 638.87 593.24 623.66 578.03 623.66 562.82 623.66 547.61 623.66 547.61 638.87 532.39 638.87 532.39 654.09 532.39 669.3 547.61 669.3 547.61 684.51 562.82 684.51 578.03 684.51 578.03 669.3 562.82 669.3 562.82 654.09 578.03 654.09 593.24 654.09 608.45 654.09 623.66 654.09 638.87 654.09 654.09 654.09 669.3 654.09 684.51 654.09 699.72 654.09 714.93 654.09 730.14 654.09 745.35 654.09 760.56 654.09 775.77 654.09 790.99 654.09 806.2 654.09 806.2 638.87 821.41 638.87 836.62 638.87 851.83 638.87 867.04 638.87 867.04 623.66 882.25 623.66 882.25 638.87 867.04 638.87 867.04 654.09 851.83 654.09 836.62 654.09 821.41 654.09 806.2 654.09 806.2 669.3 790.99 669.3 775.77 669.3 760.56 669.3 745.35 669.3 730.14 669.3 714.93 669.3 699.72 669.3 684.51 669.3 669.3 669.3 654.09 669.3 638.87 669.3 623.66 669.3 608.45 669.3 593.24 669.3 593.24 684.51 608.45 684.51 623.66 684.51 638.87 684.51 654.09 684.51 669.3 684.51 684.51 684.51 699.72 684.51 714.93 684.51 730.14 684.51 745.35 684.51 760.56 684.51 775.77 684.51 790.99 684.51 806.2 684.51 821.41 684.51 821.41 669.3 836.62 669.3 851.83 669.3 867.04 669.3 882.25 669.3 882.25 654.09 897.47 654.09 897.47 638.87 897.47 623.66 897.47 608.45 882.25 608.45"/><polygon class="cls-5" points="790.99 684.51 775.77 684.51 760.56 684.51 745.35 684.51 730.14 684.51 714.93 684.51 699.72 684.51 684.51 684.51 669.3 684.51 654.09 684.51 638.87 684.51 623.66 684.51 608.45 684.51 593.24 684.51 593.24 699.72 608.45 699.72 623.66 699.72 638.87 699.72 654.09 699.72 669.3 699.72 684.51 699.72 699.72 699.72 714.93 699.72 730.14 699.72 745.35 699.72 760.56 699.72 775.77 699.72 790.99 699.72 806.2 699.72 821.41 699.72 821.41 684.51 806.2 684.51 790.99 684.51"/><rect class="cls-5" x="547.61" y="684.51" width="15.21" height="15.21"/><polygon class="cls-5" points="851.83 669.3 836.62 669.3 821.41 669.3 821.41 684.51 836.62 684.51 851.83 684.51 867.04 684.51 882.25 684.51 882.25 669.3 867.04 669.3 851.83 669.3"/><rect class="cls-5" x="532.39" y="669.3" width="15.21" height="15.21"/><rect class="cls-5" x="882.25" y="654.08" width="15.21" height="15.21"/><polygon class="cls-5" points="608.45 669.3 623.66 669.3 638.87 669.3 654.09 669.3 669.3 669.3 684.51 669.3 699.72 669.3 714.93 669.3 730.14 669.3 745.35 669.3 760.56 669.3 775.77 669.3 790.99 669.3 806.2 669.3 806.2 654.09 790.99 654.09 775.77 654.09 760.56 654.09 745.35 654.09 730.14 654.09 714.93 654.09 699.72 654.09 684.51 654.09 669.3 654.09 654.09 654.09 638.87 654.09 623.66 654.09 608.45 654.09 593.24 654.09 578.03 654.09 562.82 654.09 562.82 669.3 578.03 669.3 593.24 669.3 608.45 669.3"/><polygon class="cls-5" points="836.62 654.09 851.83 654.09 867.04 654.09 867.04 638.87 851.83 638.87 836.62 638.87 821.41 638.87 806.2 638.87 806.2 654.09 821.41 654.09 836.62 654.09"/><polygon class="cls-5" points="517.18 654.09 517.18 669.3 532.39 669.3 532.39 654.09 532.39 638.87 517.18 638.87 517.18 654.09"/><rect class="cls-5" x="867.04" y="623.66" width="15.21" height="15.21"/><polygon class="cls-5" points="608.45 623.66 593.24 623.66 593.24 638.87 608.45 638.87 623.66 638.87 638.87 638.87 638.87 623.66 623.66 623.66 608.45 623.66"/><rect class="cls-5" x="532.39" y="623.66" width="15.21" height="15.21"/><polygon class="cls-5" points="897.47 608.45 897.47 623.66 897.47 638.87 897.47 654.09 912.68 654.09 912.68 638.87 912.68 623.66 912.68 608.45 897.47 608.45"/><polygon class="cls-5" points="821.41 608.45 806.2 608.45 790.99 608.45 790.99 623.66 806.2 623.66 821.41 623.66 836.62 623.66 851.83 623.66 851.83 608.45 836.62 608.45 821.41 608.45"/><polygon class="cls-5" points="714.93 608.45 714.93 623.66 730.14 623.66 745.35 623.66 745.35 608.45 730.14 608.45 714.93 608.45"/><polygon class="cls-5" points="638.87 608.45 638.87 623.66 654.09 623.66 669.3 623.66 669.3 608.45 654.09 608.45 638.87 608.45"/><polygon class="cls-5" points="578.03 608.45 562.82 608.45 547.61 608.45 547.61 623.66 562.82 623.66 578.03 623.66 593.24 623.66 593.24 608.45 578.03 608.45"/><polygon class="cls-5" points="882.25 593.24 867.04 593.24 851.83 593.24 851.83 608.45 867.04 608.45 882.25 608.45 897.47 608.45 897.47 593.24 882.25 593.24"/><polygon class="cls-5" points="775.77 593.24 760.56 593.24 745.35 593.24 745.35 608.45 760.56 608.45 775.77 608.45 790.99 608.45 790.99 593.24 775.77 593.24"/><polygon class="cls-5" points="699.72 593.24 684.51 593.24 669.3 593.24 669.3 608.45 684.51 608.45 699.72 608.45 714.93 608.45 714.93 593.24 699.72 593.24"/><polygon class="cls-15" points="730.14 714.93 714.93 714.93 699.72 714.93 684.51 714.93 669.3 714.93 654.09 714.93 638.87 714.93 623.66 714.93 608.45 714.93 593.24 714.93 578.03 714.93 578.03 730.14 562.82 730.14 562.82 745.35 578.03 745.35 593.24 745.35 593.24 760.56 608.45 760.56 623.66 760.56 638.87 760.56 654.09 760.56 669.3 760.56 684.51 760.56 699.72 760.56 714.93 760.56 730.14 760.56 730.14 745.35 745.35 745.35 745.35 730.14 760.56 730.14 760.56 714.93 745.35 714.93 730.14 714.93"/><polygon class="cls-15" points="532.39 684.51 517.18 684.51 517.18 669.3 517.18 654.09 517.18 638.87 517.18 623.66 517.18 608.45 501.97 608.45 501.97 593.24 501.97 578.03 486.76 578.03 486.76 562.82 486.76 547.61 486.76 532.39 486.76 517.18 486.76 501.97 471.55 501.97 471.55 486.76 471.55 471.55 456.34 471.55 456.34 486.76 441.13 486.76 425.92 486.76 425.92 501.97 410.7 501.97 395.49 501.97 395.49 517.18 395.49 532.39 395.49 547.61 395.49 562.82 410.7 562.82 410.7 578.03 410.7 593.24 425.92 593.24 425.92 608.45 441.13 608.45 441.13 623.66 456.34 623.66 456.34 638.87 456.34 654.09 471.55 654.09 471.55 669.3 471.55 684.51 486.76 684.51 486.76 699.72 501.97 699.72 501.97 714.93 517.18 714.93 517.18 730.14 532.39 730.14 532.39 714.93 547.61 714.93 547.61 699.72 532.39 699.72 532.39 684.51"/><polygon class="cls-15" points="623.66 608.45 623.66 593.24 608.45 593.24 593.24 593.24 593.24 608.45 608.45 608.45 623.66 608.45"/><polygon class="cls-15" points="821.41 578.03 806.2 578.03 790.99 578.03 790.99 593.24 806.2 593.24 821.41 593.24 836.62 593.24 836.62 578.03 821.41 578.03"/><polygon class="cls-15" points="654.09 593.24 654.09 578.03 638.87 578.03 623.66 578.03 623.66 593.24 638.87 593.24 654.09 593.24"/><polygon class="cls-15" points="775.77 562.82 760.56 562.82 760.56 578.03 775.77 578.03 790.99 578.03 790.99 562.82 775.77 562.82"/><polygon class="cls-15" points="684.51 578.03 684.51 562.82 669.3 562.82 654.09 562.82 654.09 578.03 669.3 578.03 684.51 578.03"/><rect class="cls-15" x="745.35" y="547.61" width="15.21" height="15.21"/><rect class="cls-15" x="684.51" y="547.61" width="15.21" height="15.21"/><polygon class="cls-16" points="593.24 532.39 578.03 532.39 562.82 532.39 547.61 532.39 547.61 547.61 562.82 547.61 578.03 547.61 593.24 547.61 608.45 547.61 623.66 547.61 623.66 532.39 608.45 532.39 593.24 532.39"/><rect class="cls-16" x="623.66" y="517.18" width="15.21" height="15.21"/><rect class="cls-16" x="532.39" y="517.18" width="15.21" height="15.21"/><polygon class="cls-16" points="273.8 517.18 273.8 532.39 289.01 532.39 304.23 532.39 304.23 517.18 289.01 517.18 273.8 517.18"/><polygon class="cls-16" points="836.62 501.97 821.41 501.97 806.2 501.97 806.2 517.18 821.41 517.18 836.62 517.18 851.83 517.18 867.04 517.18 867.04 501.97 851.83 501.97 836.62 501.97"/><rect class="cls-16" x="638.87" y="501.97" width="15.21" height="15.21"/><rect class="cls-16" x="517.18" y="501.97" width="15.21" height="15.21"/><polygon class="cls-16" points="304.23 501.97 304.23 517.18 319.44 517.18 334.65 517.18 334.65 501.97 319.44 501.97 304.23 501.97"/><rect class="cls-16" x="867.04" y="486.76" width="15.21" height="15.21"/><rect class="cls-16" x="790.99" y="486.76" width="15.21" height="15.21"/><rect class="cls-16" x="654.08" y="486.76" width="15.21" height="15.21"/><rect class="cls-16" x="501.97" y="486.76" width="15.21" height="15.21"/><polygon class="cls-16" points="334.65 486.76 334.65 501.97 349.86 501.97 365.07 501.97 365.07 486.76 349.86 486.76 334.65 486.76"/><rect class="cls-16" x="882.25" y="471.55" width="15.21" height="15.21"/><rect class="cls-16" x="775.77" y="471.55" width="15.21" height="15.21"/><rect class="cls-16" x="669.3" y="471.55" width="15.21" height="15.21"/><polygon class="cls-16" points="365.07 471.55 365.07 486.76 380.28 486.76 395.49 486.76 395.49 471.55 380.28 471.55 365.07 471.55"/><rect class="cls-16" x="760.56" y="456.34" width="15.21" height="15.21"/><rect class="cls-16" x="684.51" y="456.34" width="15.21" height="15.21"/><polygon class="cls-16" points="501.97 456.34 501.97 441.13 501.97 425.92 486.76 425.92 471.55 425.92 456.34 425.92 456.34 441.13 471.55 441.13 486.76 441.13 486.76 456.34 486.76 471.55 486.76 486.76 501.97 486.76 501.97 471.55 501.97 456.34"/><polygon class="cls-16" points="395.49 456.34 395.49 471.55 410.7 471.55 425.92 471.55 425.92 456.34 410.7 456.34 395.49 456.34"/><rect class="cls-16" x="745.35" y="441.13" width="15.21" height="15.21"/><polygon class="cls-16" points="425.92 441.13 425.92 456.34 441.13 456.34 456.34 456.34 456.34 441.13 441.13 441.13 425.92 441.13"/><polygon class="cls-16" points="745.35 410.7 730.14 410.7 714.93 410.7 699.72 410.7 699.72 425.92 699.72 441.13 699.72 456.34 714.93 456.34 714.93 441.13 714.93 425.92 730.14 425.92 730.14 441.13 745.35 441.13 745.35 425.92 745.35 410.7"/><rect class="cls-16" x="501.97" y="410.7" width="15.21" height="15.21"/><polygon class="cls-16" points="912.68 395.49 897.47 395.49 897.47 410.7 897.47 425.92 897.47 441.13 897.47 456.34 897.47 471.55 912.68 471.55 912.68 456.34 912.68 441.13 912.68 425.92 912.68 410.7 927.89 410.7 927.89 395.49 912.68 395.49"/><polygon class="cls-16" points="775.77 410.7 790.99 410.7 806.2 410.7 821.41 410.7 836.62 410.7 851.83 410.7 851.83 395.49 836.62 395.49 821.41 395.49 806.2 395.49 790.99 395.49 775.77 395.49 760.56 395.49 745.35 395.49 745.35 410.7 760.56 410.7 775.77 410.7"/><polygon class="cls-16" points="547.61 410.7 562.82 410.7 578.03 410.7 593.24 410.7 608.45 410.7 623.66 410.7 638.87 410.7 654.09 410.7 669.3 410.7 684.51 410.7 699.72 410.7 699.72 395.49 684.51 395.49 669.3 395.49 654.09 395.49 638.87 395.49 623.66 395.49 608.45 395.49 593.24 395.49 578.03 395.49 562.82 395.49 547.61 395.49 532.39 395.49 517.18 395.49 517.18 410.7 532.39 410.7 547.61 410.7"/><polygon class="cls-16" points="882.25 395.49 897.47 395.49 897.47 380.28 882.25 380.28 867.04 380.28 851.83 380.28 851.83 395.49 867.04 395.49 882.25 395.49"/><polygon class="cls-1" points="593.24 912.68 593.24 897.47 593.24 882.25 578.03 882.25 578.03 867.04 578.03 851.83 562.82 851.83 562.82 836.62 562.82 821.41 547.61 821.41 532.39 821.41 532.39 806.2 517.18 806.2 501.97 806.2 501.97 790.99 486.76 790.99 486.76 806.2 471.55 806.2 471.55 821.41 471.55 836.62 486.76 836.62 486.76 851.83 501.97 851.83 501.97 867.04 517.18 867.04 517.18 882.25 532.39 882.25 532.39 897.47 547.61 897.47 547.61 912.68 562.82 912.68 562.82 927.89 578.03 927.89 578.03 943.1 593.24 943.1 593.24 958.31 608.45 958.31 608.45 943.1 608.45 927.89 593.24 927.89 593.24 912.68"/><polygon class="cls-1" points="471.55 775.77 456.34 775.77 456.34 760.56 441.13 760.56 441.13 745.35 425.92 745.35 425.92 730.14 441.13 730.14 456.34 730.14 456.34 745.35 471.55 745.35 486.76 745.35 501.97 745.35 517.18 745.35 517.18 730.14 517.18 714.93 501.97 714.93 501.97 699.72 486.76 699.72 486.76 684.51 471.55 684.51 471.55 669.3 471.55 654.09 456.34 654.09 456.34 638.87 456.34 623.66 441.13 623.66 441.13 608.45 425.92 608.45 425.92 593.24 410.7 593.24 410.7 578.03 410.7 562.82 395.49 562.82 395.49 547.61 395.49 532.39 395.49 517.18 395.49 501.97 380.28 501.97 365.07 501.97 365.07 517.18 365.07 532.39 365.07 547.61 365.07 562.82 349.86 562.82 349.86 547.61 334.65 547.61 334.65 532.39 319.44 532.39 304.23 532.39 304.23 547.61 289.01 547.61 289.01 562.82 289.01 578.03 304.23 578.03 304.23 593.24 319.44 593.24 319.44 608.45 319.44 623.66 334.65 623.66 334.65 638.87 334.65 654.09 349.86 654.09 349.86 669.3 365.07 669.3 365.07 684.51 365.07 699.72 380.28 699.72 380.28 714.93 380.28 730.14 395.49 730.14 395.49 745.35 410.7 745.35 410.7 760.56 410.7 775.77 425.92 775.77 425.92 790.99 441.13 790.99 441.13 806.2 456.34 806.2 456.34 790.99 471.55 790.99 471.55 775.77"/><polygon class="cls-1" points="806.2 714.93 790.99 714.93 775.77 714.93 760.56 714.93 760.56 730.14 745.35 730.14 745.35 745.35 730.14 745.35 730.14 760.56 714.93 760.56 699.72 760.56 684.51 760.56 669.3 760.56 654.09 760.56 638.87 760.56 623.66 760.56 608.45 760.56 593.24 760.56 593.24 745.35 578.03 745.35 562.82 745.35 547.61 745.35 547.61 760.56 532.39 760.56 532.39 775.77 547.61 775.77 562.82 775.77 578.03 775.77 593.24 775.77 608.45 775.77 623.66 775.77 623.66 790.99 638.87 790.99 654.09 790.99 669.3 790.99 684.51 790.99 699.72 790.99 714.93 790.99 730.14 790.99 730.14 775.77 745.35 775.77 760.56 775.77 760.56 760.56 775.77 760.56 790.99 760.56 790.99 745.35 806.2 745.35 806.2 730.14 821.41 730.14 836.62 730.14 836.62 714.93 821.41 714.93 806.2 714.93"/><rect class="cls-1" x="593.24" y="608.45" width="15.21" height="15.21"/><polygon class="cls-1" points="745.35 608.45 745.35 593.24 730.14 593.24 714.93 593.24 714.93 608.45 730.14 608.45 745.35 608.45"/><polygon class="cls-1" points="578.03 593.24 562.82 593.24 547.61 593.24 532.39 593.24 532.39 578.03 517.18 578.03 517.18 562.82 501.97 562.82 501.97 547.61 486.76 547.61 486.76 562.82 486.76 578.03 501.97 578.03 501.97 593.24 501.97 608.45 517.18 608.45 517.18 623.66 517.18 638.87 532.39 638.87 532.39 623.66 547.61 623.66 547.61 608.45 562.82 608.45 578.03 608.45 593.24 608.45 593.24 593.24 578.03 593.24"/><polygon class="cls-1" points="836.62 593.24 821.41 593.24 821.41 608.45 836.62 608.45 851.83 608.45 851.83 593.24 851.83 578.03 836.62 578.03 836.62 593.24"/><rect class="cls-1" x="532.39" y="547.61" width="15.21" height="15.21"/><rect class="cls-1" x="517.18" y="532.39" width="15.21" height="15.21"/><polygon class="cls-1" points="867.04 517.18 867.04 532.39 851.83 532.39 836.62 532.39 821.41 532.39 806.2 532.39 806.2 517.18 790.99 517.18 790.99 501.97 775.77 501.97 775.77 486.76 760.56 486.76 760.56 471.55 745.35 471.55 745.35 456.34 730.14 456.34 714.93 456.34 714.93 471.55 699.72 471.55 699.72 486.76 684.51 486.76 684.51 501.97 684.51 517.18 699.72 517.18 699.72 532.39 699.72 547.61 714.93 547.61 730.14 547.61 745.35 547.61 745.35 532.39 745.35 517.18 760.56 517.18 760.56 532.39 775.77 532.39 775.77 547.61 790.99 547.61 806.2 547.61 821.41 547.61 836.62 547.61 851.83 547.61 867.04 547.61 882.25 547.61 882.25 532.39 882.25 517.18 867.04 517.18"/><polygon class="cls-1" points="654.09 517.18 654.09 532.39 638.87 532.39 638.87 547.61 623.66 547.61 623.66 562.82 638.87 562.82 654.09 562.82 654.09 547.61 669.3 547.61 669.3 532.39 684.51 532.39 684.51 517.18 669.3 517.18 654.09 517.18"/><rect class="cls-1" x="501.97" y="517.18" width="15.21" height="15.21"/><rect class="cls-1" x="486.76" y="501.97" width="15.21" height="15.21"/><polygon class="cls-1" points="425.92 501.97 425.92 486.76 410.7 486.76 395.49 486.76 395.49 501.97 410.7 501.97 425.92 501.97"/><polygon class="cls-1" points="471.55 486.76 471.55 501.97 486.76 501.97 486.76 486.76 486.76 471.55 486.76 456.34 471.55 456.34 456.34 456.34 456.34 471.55 471.55 471.55 471.55 486.76"/><polygon class="cls-1" points="456.34 486.76 456.34 471.55 441.13 471.55 425.92 471.55 425.92 486.76 441.13 486.76 456.34 486.76"/><polygon class="cls-1" points="425.92 456.34 425.92 441.13 410.7 441.13 395.49 441.13 395.49 456.34 410.7 456.34 425.92 456.34"/><polygon class="cls-1" points="456.34 441.13 456.34 425.92 441.13 425.92 425.92 425.92 425.92 441.13 441.13 441.13 456.34 441.13"/><polygon class="cls-1" points="501.97 425.92 501.97 410.7 486.76 410.7 471.55 410.7 471.55 425.92 486.76 425.92 501.97 425.92"/><polygon class="cls-1" points="730.14 410.7 745.35 410.7 745.35 395.49 730.14 395.49 730.14 380.28 730.14 365.07 714.93 365.07 699.72 365.07 699.72 380.28 699.72 395.49 699.72 410.7 714.93 410.7 730.14 410.7"/><polygon class="cls-1" points="775.77 395.49 790.99 395.49 806.2 395.49 821.41 395.49 836.62 395.49 851.83 395.49 851.83 380.28 836.62 380.28 821.41 380.28 806.2 380.28 790.99 380.28 775.77 380.28 760.56 380.28 760.56 365.07 745.35 365.07 745.35 380.28 745.35 395.49 760.56 395.49 775.77 395.49"/><polygon class="cls-1" points="578.03 395.49 593.24 395.49 608.45 395.49 623.66 395.49 638.87 395.49 654.09 395.49 669.3 395.49 684.51 395.49 684.51 380.28 684.51 365.07 669.3 365.07 654.09 365.07 638.87 365.07 638.87 380.28 623.66 380.28 608.45 380.28 593.24 380.28 578.03 380.28 562.82 380.28 547.61 380.28 547.61 395.49 562.82 395.49 578.03 395.49"/><polygon class="cls-17" points="608.45 973.52 608.45 988.73 623.66 988.73 623.66 1003.94 623.66 1019.15 638.87 1019.15 638.87 1034.37 638.87 1049.58 654.09 1049.58 654.09 1064.79 654.09 1080 669.3 1080 684.51 1080 684.51 1064.79 684.51 1049.58 684.51 1034.37 699.72 1034.37 699.72 1019.15 699.72 1003.94 699.72 988.73 714.93 988.73 714.93 973.52 714.93 958.31 714.93 943.1 714.93 927.89 714.93 912.68 714.93 897.47 714.93 882.25 699.72 882.25 699.72 867.04 699.72 851.83 699.72 836.62 684.51 836.62 669.3 836.62 654.09 836.62 638.87 836.62 623.66 836.62 623.66 821.41 608.45 821.41 608.45 806.2 593.24 806.2 578.03 806.2 562.82 806.2 562.82 790.99 578.03 790.99 593.24 790.99 608.45 790.99 608.45 806.2 623.66 806.2 623.66 821.41 638.87 821.41 654.09 821.41 669.3 821.41 684.51 821.41 699.72 821.41 714.93 821.41 730.14 821.41 745.35 821.41 745.35 806.2 760.56 806.2 775.77 806.2 775.77 790.99 790.99 790.99 790.99 775.77 806.2 775.77 806.2 760.56 821.41 760.56 821.41 745.35 836.62 745.35 836.62 730.14 821.41 730.14 806.2 730.14 806.2 745.35 790.99 745.35 790.99 760.56 775.77 760.56 760.56 760.56 760.56 775.77 745.35 775.77 730.14 775.77 730.14 790.99 714.93 790.99 699.72 790.99 684.51 790.99 669.3 790.99 654.09 790.99 638.87 790.99 623.66 790.99 623.66 775.77 608.45 775.77 593.24 775.77 578.03 775.77 562.82 775.77 547.61 775.77 532.39 775.77 532.39 760.56 517.18 760.56 517.18 775.77 501.97 775.77 501.97 790.99 501.97 806.2 517.18 806.2 532.39 806.2 532.39 821.41 547.61 821.41 562.82 821.41 562.82 836.62 562.82 851.83 578.03 851.83 578.03 867.04 578.03 882.25 593.24 882.25 593.24 897.47 593.24 912.68 593.24 927.89 608.45 927.89 608.45 943.1 608.45 958.31 593.24 958.31 593.24 973.52 608.45 973.52"/><rect class="cls-17" x="578.03" y="943.1" width="15.21" height="15.21"/><rect class="cls-17" x="562.82" y="927.89" width="15.21" height="15.21"/><rect class="cls-17" x="547.61" y="912.68" width="15.21" height="15.21"/><rect class="cls-17" x="532.39" y="897.46" width="15.21" height="15.21"/><rect class="cls-17" x="517.18" y="882.25" width="15.21" height="15.21"/><rect class="cls-17" x="501.97" y="867.04" width="15.21" height="15.21"/><rect class="cls-17" x="486.76" y="851.83" width="15.21" height="15.21"/><polygon class="cls-17" points="456.34 836.62 456.34 851.83 471.55 851.83 486.76 851.83 486.76 836.62 471.55 836.62 471.55 821.41 456.34 821.41 441.13 821.41 441.13 836.62 456.34 836.62"/><polygon class="cls-17" points="471.55 775.77 486.76 775.77 486.76 760.56 501.97 760.56 501.97 745.35 486.76 745.35 471.55 745.35 456.34 745.35 456.34 730.14 441.13 730.14 425.92 730.14 425.92 745.35 441.13 745.35 441.13 760.56 456.34 760.56 456.34 775.77 471.55 775.77"/><rect class="cls-17" x="532.39" y="745.35" width="15.21" height="15.21"/><rect class="cls-17" x="547.61" y="730.14" width="15.21" height="15.21"/><rect class="cls-17" x="562.82" y="714.93" width="15.21" height="15.21"/><polygon class="cls-17" points="608.45 714.93 623.66 714.93 638.87 714.93 654.09 714.93 669.3 714.93 684.51 714.93 699.72 714.93 714.93 714.93 730.14 714.93 745.35 714.93 760.56 714.93 775.77 714.93 790.99 714.93 806.2 714.93 821.41 714.93 836.62 714.93 836.62 730.14 851.83 730.14 851.83 714.93 867.04 714.93 867.04 699.72 867.04 684.51 851.83 684.51 836.62 684.51 821.41 684.51 821.41 699.72 806.2 699.72 790.99 699.72 775.77 699.72 760.56 699.72 745.35 699.72 730.14 699.72 714.93 699.72 699.72 699.72 684.51 699.72 669.3 699.72 654.09 699.72 638.87 699.72 623.66 699.72 608.45 699.72 593.24 699.72 578.03 699.72 578.03 714.93 593.24 714.93 608.45 714.93"/><rect class="cls-17" x="532.39" y="684.51" width="15.21" height="15.21"/><rect class="cls-17" x="517.18" y="669.3" width="15.21" height="15.21"/><polygon class="cls-17" points="806.2 608.45 821.41 608.45 821.41 593.24 806.2 593.24 790.99 593.24 790.99 608.45 806.2 608.45"/><polygon class="cls-17" points="289.01 608.45 289.01 623.66 304.23 623.66 304.23 638.87 304.23 654.09 319.44 654.09 319.44 669.3 319.44 684.51 334.65 684.51 334.65 699.72 334.65 714.93 349.86 714.93 349.86 730.14 349.86 745.35 365.07 745.35 365.07 760.56 380.28 760.56 380.28 775.77 395.49 775.77 395.49 790.99 410.7 790.99 410.7 806.2 425.92 806.2 425.92 821.41 441.13 821.41 441.13 806.2 441.13 790.99 425.92 790.99 425.92 775.77 410.7 775.77 410.7 760.56 410.7 745.35 395.49 745.35 395.49 730.14 380.28 730.14 380.28 714.93 380.28 699.72 365.07 699.72 365.07 684.51 365.07 669.3 349.86 669.3 349.86 654.09 334.65 654.09 334.65 638.87 334.65 623.66 319.44 623.66 319.44 608.45 319.44 593.24 304.23 593.24 304.23 578.03 289.01 578.03 289.01 593.24 289.01 608.45"/><polygon class="cls-17" points="760.56 578.03 760.56 562.82 745.35 562.82 745.35 547.61 730.14 547.61 714.93 547.61 699.72 547.61 699.72 562.82 684.51 562.82 684.51 578.03 669.3 578.03 654.09 578.03 654.09 593.24 638.87 593.24 623.66 593.24 623.66 608.45 608.45 608.45 608.45 623.66 623.66 623.66 638.87 623.66 638.87 608.45 654.09 608.45 669.3 608.45 669.3 593.24 684.51 593.24 699.72 593.24 714.93 593.24 730.14 593.24 745.35 593.24 760.56 593.24 775.77 593.24 790.99 593.24 790.99 578.03 775.77 578.03 760.56 578.03"/><polygon class="cls-17" points="608.45 578.03 593.24 578.03 578.03 578.03 562.82 578.03 547.61 578.03 532.39 578.03 532.39 593.24 547.61 593.24 562.82 593.24 578.03 593.24 593.24 593.24 608.45 593.24 623.66 593.24 623.66 578.03 608.45 578.03"/><polygon class="cls-17" points="836.62 562.82 821.41 562.82 806.2 562.82 790.99 562.82 790.99 578.03 806.2 578.03 821.41 578.03 836.62 578.03 851.83 578.03 851.83 593.24 867.04 593.24 867.04 578.03 867.04 562.82 851.83 562.82 836.62 562.82"/><rect class="cls-17" x="517.18" y="562.82" width="15.21" height="15.21"/><rect class="cls-17" x="760.56" y="547.61" width="15.21" height="15.21"/><rect class="cls-17" x="669.3" y="547.61" width="15.21" height="15.21"/><polygon class="cls-17" points="593.24 547.61 578.03 547.61 562.82 547.61 547.61 547.61 547.61 562.82 562.82 562.82 578.03 562.82 593.24 562.82 608.45 562.82 623.66 562.82 623.66 547.61 608.45 547.61 593.24 547.61"/><rect class="cls-17" x="501.97" y="547.61" width="15.21" height="15.21"/><rect class="cls-17" x="745.35" y="532.39" width="15.21" height="15.21"/><rect class="cls-17" x="684.51" y="532.39" width="15.21" height="15.21"/><rect class="cls-17" x="623.66" y="532.39" width="15.21" height="15.21"/><rect class="cls-17" x="532.39" y="532.39" width="15.21" height="15.21"/><rect class="cls-17" x="486.76" y="532.39" width="15.21" height="15.21"/><polygon class="cls-17" points="273.8 532.39 273.8 547.61 273.8 562.82 273.8 578.03 289.01 578.03 289.01 562.82 289.01 547.61 304.23 547.61 304.23 532.39 289.01 532.39 273.8 532.39"/><polygon class="cls-17" points="836.62 517.18 821.41 517.18 806.2 517.18 806.2 532.39 821.41 532.39 836.62 532.39 851.83 532.39 867.04 532.39 867.04 517.18 851.83 517.18 836.62 517.18"/><rect class="cls-17" x="638.87" y="517.18" width="15.21" height="15.21"/><polygon class="cls-17" points="547.61 532.39 562.82 532.39 578.03 532.39 593.24 532.39 608.45 532.39 623.66 532.39 623.66 517.18 608.45 517.18 593.24 517.18 578.03 517.18 562.82 517.18 562.82 501.97 547.61 501.97 547.61 486.76 532.39 486.76 532.39 471.55 532.39 456.34 532.39 441.13 547.61 441.13 547.61 425.92 562.82 425.92 562.82 410.7 547.61 410.7 532.39 410.7 517.18 410.7 517.18 425.92 501.97 425.92 501.97 441.13 501.97 456.34 501.97 471.55 501.97 486.76 517.18 486.76 517.18 501.97 532.39 501.97 532.39 517.18 547.61 517.18 547.61 532.39"/><rect class="cls-17" x="517.18" y="517.18" width="15.21" height="15.21"/><polygon class="cls-17" points="867.04 501.97 867.04 517.18 882.25 517.18 882.25 532.39 897.47 532.39 897.47 517.18 897.47 501.97 882.25 501.97 867.04 501.97"/><rect class="cls-17" x="790.99" y="501.97" width="15.21" height="15.21"/><rect class="cls-17" x="654.08" y="501.97" width="15.21" height="15.21"/><polygon class="cls-17" points="334.65 501.97 334.65 517.18 319.44 517.18 304.23 517.18 304.23 532.39 319.44 532.39 334.65 532.39 334.65 547.61 349.86 547.61 349.86 562.82 365.07 562.82 365.07 547.61 365.07 532.39 365.07 517.18 365.07 501.97 349.86 501.97 334.65 501.97"/><rect class="cls-17" x="289.01" y="501.97" width="15.21" height="15.21"/><rect class="cls-17" x="775.77" y="486.76" width="15.21" height="15.21"/><rect class="cls-17" x="669.3" y="486.76" width="15.21" height="15.21"/><rect class="cls-17" x="486.76" y="486.76" width="15.21" height="15.21"/><polygon class="cls-17" points="365.07 486.76 365.07 501.97 380.28 501.97 395.49 501.97 395.49 486.76 380.28 486.76 365.07 486.76"/><rect class="cls-17" x="760.56" y="471.55" width="15.21" height="15.21"/><rect class="cls-17" x="684.51" y="471.55" width="15.21" height="15.21"/><polygon class="cls-17" points="410.7 486.76 425.92 486.76 425.92 471.55 410.7 471.55 395.49 471.55 395.49 486.76 410.7 486.76"/><rect class="cls-17" x="745.35" y="456.34" width="15.21" height="15.21"/><rect class="cls-17" x="699.72" y="456.34" width="15.21" height="15.21"/><polygon class="cls-17" points="456.34 471.55 456.34 456.34 441.13 456.34 425.92 456.34 425.92 471.55 441.13 471.55 456.34 471.55"/><polygon class="cls-17" points="730.14 441.13 730.14 425.92 714.93 425.92 714.93 441.13 714.93 456.34 730.14 456.34 745.35 456.34 745.35 441.13 730.14 441.13"/><polygon class="cls-17" points="699.72 456.34 699.72 441.13 699.72 425.92 699.72 410.7 684.51 410.7 669.3 410.7 654.09 410.7 638.87 410.7 638.87 425.92 654.09 425.92 654.09 441.13 669.3 441.13 669.3 456.34 669.3 471.55 684.51 471.55 684.51 456.34 699.72 456.34"/><polygon class="cls-17" points="486.76 456.34 486.76 441.13 471.55 441.13 456.34 441.13 456.34 456.34 471.55 456.34 486.76 456.34"/><polygon class="cls-17" points="760.56 425.92 775.77 425.92 775.77 410.7 760.56 410.7 745.35 410.7 745.35 425.92 745.35 441.13 760.56 441.13 760.56 425.92"/><polygon class="cls-17" points="882.25 395.49 867.04 395.49 867.04 410.7 882.25 410.7 882.25 425.92 897.47 425.92 897.47 410.7 897.47 395.49 882.25 395.49"/><polygon class="cls-17" points="501.97 395.49 486.76 395.49 471.55 395.49 456.34 395.49 456.34 410.7 441.13 410.7 425.92 410.7 410.7 410.7 410.7 425.92 395.49 425.92 380.28 425.92 380.28 441.13 365.07 441.13 349.86 441.13 349.86 456.34 334.65 456.34 334.65 471.55 319.44 471.55 319.44 486.76 304.23 486.76 304.23 501.97 319.44 501.97 334.65 501.97 334.65 486.76 349.86 486.76 365.07 486.76 365.07 471.55 380.28 471.55 395.49 471.55 395.49 456.34 395.49 441.13 410.7 441.13 425.92 441.13 425.92 425.92 441.13 425.92 456.34 425.92 471.55 425.92 471.55 410.7 486.76 410.7 501.97 410.7 517.18 410.7 517.18 395.49 501.97 395.49"/><polygon class="cls-17" points="547.61 395.49 547.61 380.28 562.82 380.28 578.03 380.28 593.24 380.28 608.45 380.28 623.66 380.28 638.87 380.28 638.87 365.07 654.09 365.07 669.3 365.07 684.51 365.07 699.72 365.07 714.93 365.07 730.14 365.07 745.35 365.07 760.56 365.07 760.56 380.28 775.77 380.28 790.99 380.28 806.2 380.28 821.41 380.28 836.62 380.28 851.83 380.28 867.04 380.28 867.04 365.07 851.83 365.07 851.83 349.86 836.62 349.86 821.41 349.86 806.2 349.86 790.99 349.86 775.77 349.86 760.56 349.86 745.35 349.86 730.14 349.86 714.93 349.86 699.72 349.86 684.51 349.86 669.3 349.86 654.09 349.86 638.87 349.86 623.66 349.86 608.45 349.86 593.24 349.86 578.03 349.86 578.03 365.07 562.82 365.07 547.61 365.07 532.39 365.07 532.39 380.28 517.18 380.28 517.18 395.49 532.39 395.49 547.61 395.49"/><rect class="cls-2" x="258.59" y="578.03" width="15.21" height="15.21"/><polygon class="cls-2" points="988.73 228.17 988.73 212.96 973.52 212.96 973.52 197.75 958.31 197.75 943.1 197.75 927.89 197.75 912.68 197.75 897.47 197.75 897.47 212.96 882.25 212.96 867.04 212.96 851.83 212.96 836.62 212.96 821.41 212.96 821.41 228.17 806.2 228.17 790.99 228.17 775.77 228.17 760.56 228.17 745.35 228.17 730.14 228.17 714.93 228.17 699.72 228.17 699.72 243.38 684.51 243.38 669.3 243.38 654.09 243.38 638.87 243.38 623.66 243.38 623.66 258.59 608.45 258.59 593.24 258.59 578.03 258.59 562.82 258.59 562.82 273.8 547.61 273.8 532.39 273.8 517.18 273.8 517.18 289.01 501.97 289.01 486.76 289.01 486.76 304.23 471.55 304.23 456.34 304.23 441.13 304.23 441.13 319.44 425.92 319.44 410.7 319.44 410.7 334.65 395.49 334.65 380.28 334.65 380.28 349.86 365.07 349.86 349.86 349.86 349.86 365.07 334.65 365.07 319.44 365.07 319.44 380.28 304.23 380.28 289.01 380.28 289.01 395.49 273.8 395.49 258.59 395.49 243.38 395.49 228.17 395.49 228.17 410.7 212.96 410.7 212.96 425.92 197.75 425.92 182.53 425.92 182.53 441.13 167.32 441.13 152.11 441.13 152.11 456.34 136.9 456.34 121.69 456.34 121.69 471.55 106.48 471.55 91.27 471.55 91.27 486.76 91.27 501.97 91.27 517.18 106.48 517.18 106.48 532.39 121.69 532.39 121.69 547.61 136.9 547.61 152.11 547.61 167.32 547.61 167.32 562.82 182.53 562.82 197.75 562.82 212.96 562.82 212.96 578.03 228.17 578.03 243.38 578.03 258.59 578.03 258.59 562.82 258.59 547.61 258.59 532.39 258.59 517.18 273.8 517.18 273.8 501.97 289.01 501.97 289.01 486.76 304.23 486.76 304.23 471.55 319.44 471.55 319.44 456.34 334.65 456.34 334.65 441.13 349.86 441.13 349.86 425.92 365.07 425.92 380.28 425.92 380.28 410.7 395.49 410.7 410.7 410.7 410.7 395.49 425.92 395.49 441.13 395.49 456.34 395.49 456.34 380.28 471.55 380.28 486.76 380.28 501.97 380.28 517.18 380.28 517.18 365.07 532.39 365.07 532.39 349.86 547.61 349.86 562.82 349.86 562.82 334.65 578.03 334.65 593.24 334.65 608.45 334.65 623.66 334.65 638.87 334.65 654.09 334.65 669.3 334.65 684.51 334.65 699.72 334.65 714.93 334.65 730.14 334.65 745.35 334.65 760.56 334.65 775.77 334.65 790.99 334.65 806.2 334.65 821.41 334.65 836.62 334.65 851.83 334.65 851.83 349.86 867.04 349.86 867.04 365.07 882.25 365.07 897.47 365.07 897.47 380.28 912.68 380.28 927.89 380.28 927.89 365.07 943.1 365.07 958.31 365.07 958.31 349.86 973.52 349.86 973.52 334.65 973.52 319.44 988.73 319.44 988.73 304.23 1003.94 304.23 1003.94 289.01 1003.94 273.8 1003.94 258.59 1003.94 243.38 1003.94 228.17 988.73 228.17"/><rect class="cls-18" x="319.44" y="304.23" width="15.21" height="15.21"/><polygon class="cls-18" points="349.86 289.01 334.65 289.01 334.65 304.23 349.86 304.23 365.07 304.23 365.07 289.01 349.86 289.01"/><polygon class="cls-18" points="380.28 273.8 365.07 273.8 365.07 289.01 380.28 289.01 395.49 289.01 395.49 273.8 380.28 273.8"/><polygon class="cls-18" points="410.7 258.59 395.49 258.59 395.49 273.8 410.7 273.8 425.92 273.8 425.92 258.59 410.7 258.59"/><polygon class="cls-18" points="349.86 273.8 365.07 273.8 365.07 258.59 380.28 258.59 395.49 258.59 395.49 243.38 410.7 243.38 425.92 243.38 425.92 228.17 441.13 228.17 456.34 228.17 456.34 212.96 471.55 212.96 486.76 212.96 501.97 212.96 501.97 197.75 517.18 197.75 532.39 197.75 547.61 197.75 547.61 182.53 562.82 182.53 578.03 182.53 593.24 182.53 608.45 182.53 608.45 167.32 623.66 167.32 638.87 167.32 654.09 167.32 669.3 167.32 684.51 167.32 684.51 152.11 699.72 152.11 699.72 136.9 684.51 136.9 684.51 121.69 669.3 121.69 669.3 106.48 654.09 106.48 638.87 106.48 623.66 106.48 608.45 106.48 593.24 106.48 578.03 106.48 578.03 121.69 562.82 121.69 562.82 106.48 547.61 106.48 532.39 106.48 532.39 121.69 517.18 121.69 517.18 136.9 501.97 136.9 501.97 121.69 486.76 121.69 486.76 106.48 471.55 106.48 471.55 121.69 456.34 121.69 456.34 136.9 456.34 152.11 441.13 152.11 441.13 136.9 425.92 136.9 410.7 136.9 395.49 136.9 395.49 152.11 395.49 167.32 395.49 182.53 380.28 182.53 380.28 167.32 365.07 167.32 349.86 167.32 349.86 182.53 334.65 182.53 334.65 197.75 319.44 197.75 319.44 212.96 319.44 228.17 319.44 243.38 319.44 258.59 319.44 273.8 319.44 289.01 334.65 289.01 334.65 273.8 349.86 273.8"/><polygon class="cls-18" points="486.76 228.17 471.55 228.17 456.34 228.17 456.34 243.38 441.13 243.38 425.92 243.38 425.92 258.59 441.13 258.59 456.34 258.59 471.55 258.59 471.55 243.38 486.76 243.38 501.97 243.38 501.97 228.17 486.76 228.17"/><polygon class="cls-18" points="532.39 212.96 517.18 212.96 501.97 212.96 501.97 228.17 517.18 228.17 532.39 228.17 547.61 228.17 547.61 212.96 532.39 212.96"/><polygon class="cls-18" points="699.72 197.75 684.51 197.75 684.51 212.96 669.3 212.96 654.09 212.96 638.87 212.96 623.66 212.96 608.45 212.96 608.45 228.17 593.24 228.17 578.03 228.17 562.82 228.17 547.61 228.17 547.61 243.38 532.39 243.38 517.18 243.38 501.97 243.38 501.97 258.59 486.76 258.59 471.55 258.59 471.55 273.8 456.34 273.8 441.13 273.8 425.92 273.8 425.92 289.01 410.7 289.01 395.49 289.01 395.49 304.23 380.28 304.23 365.07 304.23 365.07 319.44 365.07 334.65 380.28 334.65 380.28 319.44 395.49 319.44 410.7 319.44 410.7 304.23 425.92 304.23 441.13 304.23 441.13 289.01 456.34 289.01 471.55 289.01 486.76 289.01 486.76 273.8 501.97 273.8 517.18 273.8 517.18 258.59 532.39 258.59 547.61 258.59 562.82 258.59 562.82 243.38 578.03 243.38 593.24 243.38 608.45 243.38 623.66 243.38 623.66 228.17 638.87 228.17 654.09 228.17 669.3 228.17 684.51 228.17 699.72 228.17 699.72 212.96 714.93 212.96 714.93 197.75 699.72 197.75"/><polygon class="cls-18" points="593.24 197.75 578.03 197.75 562.82 197.75 547.61 197.75 547.61 212.96 562.82 212.96 578.03 212.96 593.24 212.96 608.45 212.96 608.45 197.75 593.24 197.75"/><polygon class="cls-18" points="654.09 182.53 638.87 182.53 623.66 182.53 608.45 182.53 608.45 197.75 623.66 197.75 638.87 197.75 654.09 197.75 669.3 197.75 684.51 197.75 684.51 182.53 669.3 182.53 654.09 182.53"/><rect class="cls-18" x="684.51" y="167.32" width="15.21" height="15.21"/><polygon class="cls-19" points="273.8 334.65 273.8 319.44 258.59 319.44 258.59 334.65 258.59 349.86 258.59 365.07 243.38 365.07 243.38 380.28 258.59 380.28 273.8 380.28 273.8 365.07 273.8 349.86 289.01 349.86 304.23 349.86 304.23 334.65 289.01 334.65 273.8 334.65"/><polygon class="cls-19" points="304.23 319.44 304.23 334.65 319.44 334.65 334.65 334.65 334.65 319.44 319.44 319.44 304.23 319.44"/><polygon class="cls-19" points="334.65 304.23 334.65 319.44 349.86 319.44 365.07 319.44 365.07 304.23 349.86 304.23 334.65 304.23"/><polygon class="cls-19" points="304.23 319.44 304.23 304.23 289.01 304.23 289.01 289.01 289.01 273.8 289.01 258.59 289.01 243.38 289.01 228.17 289.01 212.96 273.8 212.96 273.8 228.17 273.8 243.38 273.8 258.59 273.8 273.8 273.8 289.01 273.8 304.23 273.8 319.44 289.01 319.44 304.23 319.44"/><polygon class="cls-19" points="365.07 289.01 365.07 304.23 380.28 304.23 395.49 304.23 395.49 289.01 380.28 289.01 365.07 289.01"/><polygon class="cls-19" points="334.65 304.23 334.65 289.01 319.44 289.01 304.23 289.01 304.23 304.23 319.44 304.23 334.65 304.23"/><polygon class="cls-19" points="395.49 273.8 395.49 289.01 410.7 289.01 425.92 289.01 425.92 273.8 410.7 273.8 395.49 273.8"/><polygon class="cls-19" points="365.07 289.01 365.07 273.8 349.86 273.8 334.65 273.8 334.65 289.01 349.86 289.01 365.07 289.01"/><polygon class="cls-19" points="441.13 258.59 425.92 258.59 425.92 273.8 441.13 273.8 456.34 273.8 471.55 273.8 471.55 258.59 456.34 258.59 441.13 258.59"/><polygon class="cls-19" points="395.49 273.8 395.49 258.59 380.28 258.59 365.07 258.59 365.07 273.8 380.28 273.8 395.49 273.8"/><polygon class="cls-19" points="471.55 243.38 471.55 258.59 486.76 258.59 501.97 258.59 501.97 243.38 486.76 243.38 471.55 243.38"/><polygon class="cls-19" points="425.92 258.59 425.92 243.38 410.7 243.38 395.49 243.38 395.49 258.59 410.7 258.59 425.92 258.59"/><polygon class="cls-19" points="517.18 228.17 501.97 228.17 501.97 243.38 517.18 243.38 532.39 243.38 547.61 243.38 547.61 228.17 532.39 228.17 517.18 228.17"/><polygon class="cls-19" points="456.34 243.38 456.34 228.17 441.13 228.17 425.92 228.17 425.92 243.38 441.13 243.38 456.34 243.38"/><polygon class="cls-19" points="578.03 212.96 562.82 212.96 547.61 212.96 547.61 228.17 562.82 228.17 578.03 228.17 593.24 228.17 608.45 228.17 608.45 212.96 593.24 212.96 578.03 212.96"/><polygon class="cls-19" points="486.76 228.17 501.97 228.17 501.97 212.96 486.76 212.96 471.55 212.96 456.34 212.96 456.34 228.17 471.55 228.17 486.76 228.17"/><polygon class="cls-19" points="775.77 197.75 775.77 182.53 760.56 182.53 760.56 167.32 745.35 167.32 745.35 182.53 730.14 182.53 714.93 182.53 699.72 182.53 684.51 182.53 684.51 197.75 699.72 197.75 714.93 197.75 730.14 197.75 745.35 197.75 760.56 197.75 760.56 212.96 775.77 212.96 790.99 212.96 790.99 197.75 775.77 197.75"/><polygon class="cls-19" points="654.09 197.75 638.87 197.75 623.66 197.75 608.45 197.75 608.45 212.96 623.66 212.96 638.87 212.96 654.09 212.96 669.3 212.96 684.51 212.96 684.51 197.75 669.3 197.75 654.09 197.75"/><polygon class="cls-19" points="532.39 212.96 547.61 212.96 547.61 197.75 532.39 197.75 517.18 197.75 501.97 197.75 501.97 212.96 517.18 212.96 532.39 212.96"/><polygon class="cls-19" points="578.03 197.75 593.24 197.75 608.45 197.75 608.45 182.53 593.24 182.53 578.03 182.53 562.82 182.53 547.61 182.53 547.61 197.75 562.82 197.75 578.03 197.75"/><polygon class="cls-19" points="638.87 182.53 654.09 182.53 669.3 182.53 684.51 182.53 684.51 167.32 669.3 167.32 654.09 167.32 638.87 167.32 623.66 167.32 608.45 167.32 608.45 182.53 623.66 182.53 638.87 182.53"/><polygon class="cls-19" points="714.93 167.32 730.14 167.32 745.35 167.32 745.35 152.11 730.14 152.11 714.93 152.11 699.72 152.11 684.51 152.11 684.51 167.32 699.72 167.32 714.93 167.32"/><rect class="cls-19" x="714.93" y="121.69" width="15.21" height="15.21"/><rect class="cls-19" x="699.72" y="106.48" width="15.21" height="15.21"/><rect class="cls-19" x="684.51" y="91.27" width="15.21" height="15.21"/><polygon class="cls-3" points="289.01 349.86 273.8 349.86 273.8 365.07 273.8 380.28 289.01 380.28 289.01 365.07 304.23 365.07 319.44 365.07 319.44 349.86 334.65 349.86 349.86 349.86 349.86 334.65 365.07 334.65 365.07 319.44 349.86 319.44 334.65 319.44 334.65 334.65 319.44 334.65 304.23 334.65 304.23 349.86 289.01 349.86"/><polygon class="cls-3" points="273.8 319.44 273.8 334.65 289.01 334.65 304.23 334.65 304.23 319.44 289.01 319.44 273.8 319.44"/><rect class="cls-3" x="304.23" y="304.23" width="15.21" height="15.21"/><polygon class="cls-3" points="745.35 197.75 730.14 197.75 714.93 197.75 714.93 212.96 730.14 212.96 745.35 212.96 760.56 212.96 760.56 197.75 745.35 197.75"/><polygon class="cls-3" points="304.23 182.53 304.23 197.75 289.01 197.75 289.01 212.96 289.01 228.17 289.01 243.38 289.01 258.59 289.01 273.8 289.01 289.01 289.01 304.23 304.23 304.23 304.23 289.01 319.44 289.01 319.44 273.8 319.44 258.59 319.44 243.38 319.44 228.17 319.44 212.96 319.44 197.75 334.65 197.75 334.65 182.53 319.44 182.53 304.23 182.53"/><polygon class="cls-3" points="730.14 182.53 745.35 182.53 745.35 167.32 730.14 167.32 714.93 167.32 699.72 167.32 699.72 182.53 714.93 182.53 730.14 182.53"/><rect class="cls-3" x="334.65" y="167.32" width="15.21" height="15.21"/><polygon class="cls-3" points="380.28 152.11 365.07 152.11 349.86 152.11 349.86 167.32 365.07 167.32 380.28 167.32 380.28 182.53 395.49 182.53 395.49 167.32 395.49 152.11 395.49 136.9 380.28 136.9 380.28 152.11"/><polygon class="cls-3" points="699.72 136.9 699.72 152.11 714.93 152.11 730.14 152.11 730.14 136.9 714.93 136.9 714.93 121.69 699.72 121.69 699.72 106.48 684.51 106.48 684.51 91.27 669.3 91.27 654.09 91.27 654.09 76.06 638.87 76.06 623.66 76.06 608.45 76.06 593.24 76.06 593.24 91.27 578.03 91.27 562.82 91.27 547.61 91.27 532.39 91.27 517.18 91.27 501.97 91.27 486.76 91.27 471.55 91.27 471.55 106.48 486.76 106.48 486.76 121.69 501.97 121.69 501.97 136.9 517.18 136.9 517.18 121.69 532.39 121.69 532.39 106.48 547.61 106.48 562.82 106.48 562.82 121.69 578.03 121.69 578.03 106.48 593.24 106.48 608.45 106.48 623.66 106.48 638.87 106.48 654.09 106.48 669.3 106.48 669.3 121.69 684.51 121.69 684.51 136.9 699.72 136.9"/><polygon class="cls-3" points="441.13 106.48 425.92 106.48 425.92 121.69 410.7 121.69 395.49 121.69 395.49 136.9 410.7 136.9 425.92 136.9 441.13 136.9 441.13 152.11 456.34 152.11 456.34 136.9 456.34 121.69 471.55 121.69 471.55 106.48 456.34 106.48 441.13 106.48"/><polygon points="638.87 1080 654.09 1080 654.09 1064.79 654.09 1049.58 638.87 1049.58 638.87 1064.79 638.87 1080"/><polygon points="684.51 1049.58 684.51 1064.79 684.51 1080 699.72 1080 699.72 1064.79 699.72 1049.58 699.72 1034.37 684.51 1034.37 684.51 1049.58"/><polygon points="623.66 1049.58 638.87 1049.58 638.87 1034.37 638.87 1019.15 623.66 1019.15 623.66 1034.37 623.66 1049.58"/><polygon points="608.45 1019.15 623.66 1019.15 623.66 1003.94 623.66 988.73 608.45 988.73 608.45 1003.94 608.45 1019.15"/><polygon points="699.72 1003.94 699.72 1019.15 699.72 1034.37 714.93 1034.37 714.93 1019.15 714.93 1003.94 714.93 988.73 699.72 988.73 699.72 1003.94"/><rect x="593.24" y="973.52" width="15.21" height="15.21"/><rect x="578.03" y="958.31" width="15.21" height="15.21"/><rect x="562.82" y="943.1" width="15.21" height="15.21"/><rect x="547.61" y="927.89" width="15.21" height="15.21"/><rect x="532.39" y="912.68" width="15.21" height="15.21"/><polygon points="714.93 912.68 714.93 927.89 714.93 943.1 714.93 958.31 714.93 973.52 714.93 988.73 730.14 988.73 730.14 973.52 730.14 958.31 730.14 943.1 730.14 927.89 730.14 912.68 730.14 897.47 730.14 882.25 714.93 882.25 714.93 897.47 714.93 912.68"/><rect x="517.18" y="897.46" width="15.21" height="15.21"/><rect x="501.97" y="882.25" width="15.21" height="15.21"/><rect x="486.76" y="867.04" width="15.21" height="15.21"/><polygon points="471.55 867.04 486.76 867.04 486.76 851.83 471.55 851.83 456.34 851.83 456.34 867.04 471.55 867.04"/><rect x="441.13" y="836.62" width="15.21" height="15.21"/><polygon points="714.93 821.41 699.72 821.41 684.51 821.41 669.3 821.41 654.09 821.41 638.87 821.41 623.66 821.41 623.66 836.62 638.87 836.62 654.09 836.62 669.3 836.62 684.51 836.62 699.72 836.62 699.72 851.83 699.72 867.04 699.72 882.25 714.93 882.25 714.93 867.04 714.93 851.83 714.93 836.62 730.14 836.62 745.35 836.62 745.35 821.41 730.14 821.41 714.93 821.41"/><rect x="425.92" y="821.41" width="15.21" height="15.21"/><polygon points="745.35 806.2 745.35 821.41 760.56 821.41 775.77 821.41 775.77 806.2 760.56 806.2 745.35 806.2"/><rect x="608.45" y="806.2" width="15.21" height="15.21"/><rect x="410.7" y="806.2" width="15.21" height="15.21"/><rect x="775.77" y="790.99" width="15.21" height="15.21"/><polygon points="593.24 790.99 578.03 790.99 562.82 790.99 562.82 806.2 578.03 806.2 593.24 806.2 608.45 806.2 608.45 790.99 593.24 790.99"/><rect x="395.49" y="790.99" width="15.21" height="15.21"/><rect x="790.99" y="775.77" width="15.21" height="15.21"/><rect x="380.28" y="775.77" width="15.21" height="15.21"/><rect x="806.2" y="760.56" width="15.21" height="15.21"/><rect x="365.07" y="760.56" width="15.21" height="15.21"/><rect x="821.41" y="745.35" width="15.21" height="15.21"/><rect x="349.86" y="745.35" width="15.21" height="15.21"/><rect x="836.62" y="730.14" width="15.21" height="15.21"/><polygon points="334.65 745.35 349.86 745.35 349.86 730.14 349.86 714.93 334.65 714.93 334.65 730.14 334.65 745.35"/><rect x="851.83" y="714.93" width="15.21" height="15.21"/><polygon points="319.44 714.93 334.65 714.93 334.65 699.72 334.65 684.51 319.44 684.51 319.44 699.72 319.44 714.93"/><polygon points="867.04 699.72 867.04 714.93 882.25 714.93 882.25 699.72 882.25 684.51 867.04 684.51 867.04 699.72"/><polygon points="304.23 684.51 319.44 684.51 319.44 669.3 319.44 654.09 304.23 654.09 304.23 669.3 304.23 684.51"/><polygon points="289.01 654.09 304.23 654.09 304.23 638.87 304.23 623.66 289.01 623.66 289.01 638.87 289.01 654.09"/><polygon points="258.59 593.24 258.59 578.03 243.38 578.03 228.17 578.03 212.96 578.03 212.96 593.24 228.17 593.24 243.38 593.24 243.38 608.45 258.59 608.45 273.8 608.45 273.8 623.66 289.01 623.66 289.01 608.45 289.01 593.24 289.01 578.03 273.8 578.03 273.8 593.24 258.59 593.24"/><polygon points="547.61 578.03 562.82 578.03 578.03 578.03 593.24 578.03 608.45 578.03 623.66 578.03 638.87 578.03 654.09 578.03 654.09 562.82 638.87 562.82 623.66 562.82 608.45 562.82 593.24 562.82 578.03 562.82 562.82 562.82 547.61 562.82 532.39 562.82 532.39 578.03 547.61 578.03"/><polygon points="197.75 562.82 182.53 562.82 167.32 562.82 167.32 578.03 182.53 578.03 197.75 578.03 212.96 578.03 212.96 562.82 197.75 562.82"/><polygon points="851.83 547.61 836.62 547.61 821.41 547.61 806.2 547.61 790.99 547.61 775.77 547.61 775.77 562.82 790.99 562.82 806.2 562.82 821.41 562.82 836.62 562.82 851.83 562.82 867.04 562.82 867.04 578.03 867.04 593.24 882.25 593.24 882.25 578.03 882.25 562.82 882.25 547.61 867.04 547.61 851.83 547.61"/><rect x="654.08" y="547.61" width="15.21" height="15.21"/><rect x="517.18" y="547.61" width="15.21" height="15.21"/><polygon points="152.11 547.61 136.9 547.61 121.69 547.61 121.69 562.82 136.9 562.82 152.11 562.82 167.32 562.82 167.32 547.61 152.11 547.61"/><rect x="882.25" y="532.39" width="15.21" height="15.21"/><rect x="760.56" y="532.39" width="15.21" height="15.21"/><rect x="669.3" y="532.39" width="15.21" height="15.21"/><rect x="501.97" y="532.39" width="15.21" height="15.21"/><rect x="106.48" y="532.39" width="15.21" height="15.21"/><rect x="745.35" y="517.18" width="15.21" height="15.21"/><rect x="684.51" y="517.18" width="15.21" height="15.21"/><rect x="486.76" y="517.18" width="15.21" height="15.21"/><polygon points="258.59 532.39 258.59 547.61 258.59 562.82 258.59 578.03 273.8 578.03 273.8 562.82 273.8 547.61 273.8 532.39 273.8 517.18 258.59 517.18 258.59 532.39"/><rect x="91.27" y="517.18" width="15.21" height="15.21"/><polygon points="897.47 517.18 897.47 532.39 912.68 532.39 912.68 517.18 912.68 501.97 897.47 501.97 897.47 517.18"/><rect x="669.3" y="501.97" width="15.21" height="15.21"/><polygon points="608.45 501.97 593.24 501.97 578.03 501.97 562.82 501.97 562.82 517.18 578.03 517.18 593.24 517.18 608.45 517.18 623.66 517.18 638.87 517.18 638.87 501.97 623.66 501.97 608.45 501.97"/><rect x="501.97" y="501.97" width="15.21" height="15.21"/><rect x="273.8" y="501.97" width="15.21" height="15.21"/><rect x="882.25" y="486.76" width="15.21" height="15.21"/><polygon points="836.62 486.76 821.41 486.76 806.2 486.76 806.2 501.97 821.41 501.97 836.62 501.97 851.83 501.97 867.04 501.97 867.04 486.76 851.83 486.76 836.62 486.76"/><rect x="638.87" y="486.76" width="15.21" height="15.21"/><rect x="547.61" y="486.76" width="15.21" height="15.21"/><rect x="289.01" y="486.76" width="15.21" height="15.21"/><polygon points="91.27 486.76 91.27 471.55 76.06 471.55 76.06 486.76 76.06 501.97 76.06 517.18 91.27 517.18 91.27 501.97 91.27 486.76"/><rect x="867.04" y="471.55" width="15.21" height="15.21"/><rect x="304.23" y="471.55" width="15.21" height="15.21"/><polygon points="897.47 456.34 897.47 441.13 897.47 425.92 882.25 425.92 882.25 441.13 882.25 456.34 882.25 471.55 897.47 471.55 897.47 456.34"/><polygon points="654.09 471.55 654.09 486.76 669.3 486.76 669.3 471.55 669.3 456.34 669.3 441.13 654.09 441.13 654.09 456.34 654.09 471.55"/><polygon points="547.61 456.34 547.61 441.13 532.39 441.13 532.39 456.34 532.39 471.55 532.39 486.76 547.61 486.76 547.61 471.55 547.61 456.34"/><rect x="319.44" y="456.34" width="15.21" height="15.21"/><polygon points="121.69 471.55 121.69 456.34 106.48 456.34 91.27 456.34 91.27 471.55 106.48 471.55 121.69 471.55"/><polygon points="775.77 441.13 775.77 425.92 760.56 425.92 760.56 441.13 760.56 456.34 775.77 456.34 775.77 441.13"/><rect x="608.45" y="441.13" width="15.21" height="15.21"/><polygon points="593.24 441.13 578.03 441.13 578.03 456.34 578.03 471.55 578.03 486.76 593.24 486.76 608.45 486.76 623.66 486.76 623.66 471.55 608.45 471.55 608.45 456.34 593.24 456.34 593.24 441.13"/><rect x="334.65" y="441.13" width="15.21" height="15.21"/><polygon points="152.11 456.34 152.11 441.13 136.9 441.13 121.69 441.13 121.69 456.34 136.9 456.34 152.11 456.34"/><rect x="836.62" y="425.92" width="15.21" height="15.21"/><polygon points="806.2 425.92 806.2 441.13 806.2 456.34 806.2 471.55 821.41 471.55 836.62 471.55 851.83 471.55 851.83 456.34 836.62 456.34 836.62 441.13 821.41 441.13 821.41 425.92 806.2 425.92"/><rect x="638.87" y="425.92" width="15.21" height="15.21"/><rect x="547.61" y="425.92" width="15.21" height="15.21"/><polygon points="349.86 425.92 349.86 441.13 365.07 441.13 380.28 441.13 380.28 425.92 365.07 425.92 349.86 425.92"/><polygon points="182.53 441.13 182.53 425.92 167.32 425.92 152.11 425.92 152.11 441.13 167.32 441.13 182.53 441.13"/><rect x="867.04" y="410.7" width="15.21" height="15.21"/><rect x="775.77" y="410.7" width="15.21" height="15.21"/><polygon points="623.66 410.7 608.45 410.7 593.24 410.7 578.03 410.7 562.82 410.7 562.82 425.92 578.03 425.92 593.24 425.92 608.45 425.92 623.66 425.92 638.87 425.92 638.87 410.7 623.66 410.7"/><polygon points="380.28 410.7 380.28 425.92 395.49 425.92 410.7 425.92 410.7 410.7 395.49 410.7 380.28 410.7"/><polygon points="212.96 425.92 212.96 410.7 197.75 410.7 182.53 410.7 182.53 425.92 197.75 425.92 212.96 425.92"/><rect x="851.83" y="395.49" width="15.21" height="15.21"/><polygon points="425.92 395.49 410.7 395.49 410.7 410.7 425.92 410.7 441.13 410.7 456.34 410.7 456.34 395.49 441.13 395.49 425.92 395.49"/><rect x="212.96" y="395.49" width="15.21" height="15.21"/><polygon points="897.47 380.28 897.47 395.49 912.68 395.49 927.89 395.49 927.89 380.28 912.68 380.28 897.47 380.28"/><polygon points="745.35 380.28 745.35 365.07 730.14 365.07 730.14 380.28 730.14 395.49 745.35 395.49 745.35 380.28"/><polygon points="699.72 380.28 699.72 365.07 684.51 365.07 684.51 380.28 684.51 395.49 699.72 395.49 699.72 380.28"/><polygon points="486.76 380.28 471.55 380.28 456.34 380.28 456.34 395.49 471.55 395.49 486.76 395.49 501.97 395.49 517.18 395.49 517.18 380.28 501.97 380.28 486.76 380.28"/><polygon points="258.59 395.49 273.8 395.49 289.01 395.49 289.01 380.28 273.8 380.28 258.59 380.28 243.38 380.28 243.38 365.07 228.17 365.07 228.17 380.28 228.17 395.49 243.38 395.49 258.59 395.49"/><polygon points="927.89 365.07 927.89 380.28 943.1 380.28 958.31 380.28 958.31 365.07 943.1 365.07 927.89 365.07"/><polygon points="882.25 365.07 867.04 365.07 867.04 380.28 882.25 380.28 897.47 380.28 897.47 365.07 882.25 365.07"/><rect x="517.18" y="365.07" width="15.21" height="15.21"/><polygon points="289.01 365.07 289.01 380.28 304.23 380.28 319.44 380.28 319.44 365.07 304.23 365.07 289.01 365.07"/><rect x="958.31" y="349.86" width="15.21" height="15.21"/><rect x="851.83" y="349.86" width="15.21" height="15.21"/><polygon points="319.44 349.86 319.44 365.07 334.65 365.07 349.86 365.07 349.86 349.86 334.65 349.86 319.44 349.86"/><polygon points="258.59 349.86 258.59 334.65 258.59 319.44 243.38 319.44 243.38 334.65 243.38 349.86 243.38 365.07 258.59 365.07 258.59 349.86"/><polygon points="836.62 334.65 821.41 334.65 806.2 334.65 790.99 334.65 775.77 334.65 760.56 334.65 745.35 334.65 730.14 334.65 714.93 334.65 699.72 334.65 684.51 334.65 669.3 334.65 654.09 334.65 638.87 334.65 623.66 334.65 608.45 334.65 593.24 334.65 578.03 334.65 562.82 334.65 562.82 349.86 547.61 349.86 532.39 349.86 532.39 365.07 547.61 365.07 562.82 365.07 578.03 365.07 578.03 349.86 593.24 349.86 608.45 349.86 623.66 349.86 638.87 349.86 654.09 349.86 669.3 349.86 684.51 349.86 699.72 349.86 714.93 349.86 730.14 349.86 745.35 349.86 760.56 349.86 775.77 349.86 790.99 349.86 806.2 349.86 821.41 349.86 836.62 349.86 851.83 349.86 851.83 334.65 836.62 334.65"/><polygon points="349.86 334.65 349.86 349.86 365.07 349.86 380.28 349.86 380.28 334.65 365.07 334.65 349.86 334.65"/><polygon points="973.52 334.65 973.52 349.86 988.73 349.86 988.73 334.65 988.73 319.44 973.52 319.44 973.52 334.65"/><polygon points="380.28 319.44 380.28 334.65 395.49 334.65 410.7 334.65 410.7 319.44 395.49 319.44 380.28 319.44"/><rect x="988.73" y="304.23" width="15.21" height="15.21"/><polygon points="410.7 304.23 410.7 319.44 425.92 319.44 441.13 319.44 441.13 304.23 425.92 304.23 410.7 304.23"/><polygon points="273.8 304.23 273.8 289.01 273.8 273.8 273.8 258.59 273.8 243.38 273.8 228.17 273.8 212.96 258.59 212.96 258.59 228.17 258.59 243.38 258.59 258.59 258.59 273.8 258.59 289.01 258.59 304.23 258.59 319.44 273.8 319.44 273.8 304.23"/><polygon points="456.34 289.01 441.13 289.01 441.13 304.23 456.34 304.23 471.55 304.23 486.76 304.23 486.76 289.01 471.55 289.01 456.34 289.01"/><polygon points="486.76 273.8 486.76 289.01 501.97 289.01 517.18 289.01 517.18 273.8 501.97 273.8 486.76 273.8"/><polygon points="532.39 258.59 517.18 258.59 517.18 273.8 532.39 273.8 547.61 273.8 562.82 273.8 562.82 258.59 547.61 258.59 532.39 258.59"/><polygon points="593.24 243.38 578.03 243.38 562.82 243.38 562.82 258.59 578.03 258.59 593.24 258.59 608.45 258.59 623.66 258.59 623.66 243.38 608.45 243.38 593.24 243.38"/><polygon points="1003.94 228.17 1003.94 243.38 1003.94 258.59 1003.94 273.8 1003.94 289.01 1003.94 304.23 1019.15 304.23 1019.15 289.01 1019.15 273.8 1019.15 258.59 1019.15 243.38 1019.15 228.17 1003.94 228.17"/><polygon points="669.3 228.17 654.09 228.17 638.87 228.17 623.66 228.17 623.66 243.38 638.87 243.38 654.09 243.38 669.3 243.38 684.51 243.38 699.72 243.38 699.72 228.17 684.51 228.17 669.3 228.17"/><rect x="988.73" y="212.96" width="15.21" height="15.21"/><polygon points="775.77 212.96 760.56 212.96 745.35 212.96 730.14 212.96 714.93 212.96 699.72 212.96 699.72 228.17 714.93 228.17 730.14 228.17 745.35 228.17 760.56 228.17 775.77 228.17 790.99 228.17 806.2 228.17 821.41 228.17 821.41 212.96 806.2 212.96 806.2 197.75 790.99 197.75 790.99 212.96 775.77 212.96"/><rect x="973.52" y="197.75" width="15.21" height="15.21"/><polygon points="851.83 212.96 867.04 212.96 882.25 212.96 897.47 212.96 897.47 197.75 882.25 197.75 867.04 197.75 851.83 197.75 836.62 197.75 821.41 197.75 821.41 212.96 836.62 212.96 851.83 212.96"/><rect x="273.8" y="197.75" width="15.21" height="15.21"/><polygon points="927.89 197.75 943.1 197.75 958.31 197.75 973.52 197.75 973.52 182.53 958.31 182.53 943.1 182.53 927.89 182.53 912.68 182.53 897.47 182.53 897.47 197.75 912.68 197.75 927.89 197.75"/><rect x="775.77" y="182.54" width="15.21" height="15.21"/><rect x="289.01" y="182.54" width="15.21" height="15.21"/><rect x="760.56" y="167.32" width="15.21" height="15.21"/><polygon points="334.65 182.53 334.65 167.32 319.44 167.32 304.23 167.32 304.23 182.53 319.44 182.53 334.65 182.53"/><rect x="745.35" y="152.11" width="15.21" height="15.21"/><rect x="334.65" y="152.11" width="15.21" height="15.21"/><polygon points="730.14 152.11 745.35 152.11 745.35 136.9 745.35 121.69 730.14 121.69 730.14 136.9 730.14 152.11"/><polygon points="380.28 152.11 380.28 136.9 365.07 136.9 349.86 136.9 349.86 152.11 365.07 152.11 380.28 152.11"/><rect x="380.28" y="121.69" width="15.21" height="15.21"/><rect x="714.93" y="106.48" width="15.21" height="15.21"/><polygon points="425.92 121.69 425.92 106.48 410.7 106.48 395.49 106.48 395.49 121.69 410.7 121.69 425.92 121.69"/><rect x="699.72" y="91.27" width="15.21" height="15.21"/><polygon points="456.34 106.48 471.55 106.48 471.55 91.27 456.34 91.27 441.13 91.27 425.92 91.27 425.92 106.48 441.13 106.48 456.34 106.48"/><polygon points="669.3 91.27 684.51 91.27 699.72 91.27 699.72 76.06 684.51 76.06 669.3 76.06 654.09 76.06 654.09 91.27 669.3 91.27"/><polygon points="501.97 91.27 517.18 91.27 532.39 91.27 547.61 91.27 562.82 91.27 578.03 91.27 593.24 91.27 593.24 76.06 578.03 76.06 562.82 76.06 547.61 76.06 532.39 76.06 517.18 76.06 501.97 76.06 486.76 76.06 471.55 76.06 471.55 91.27 486.76 91.27 501.97 91.27"/><polygon points="623.66 76.06 638.87 76.06 654.09 76.06 654.09 60.84 638.87 60.84 623.66 60.84 608.45 60.84 593.24 60.84 593.24 76.06 608.45 76.06 623.66 76.06"/><polygon class="cls-4" points="608.45 1064.79 608.45 1080 623.66 1080 623.66 1064.79 623.66 1049.58 608.45 1049.58 608.45 1064.79"/><polygon class="cls-4" points="608.45 1019.15 593.24 1019.15 593.24 1034.37 593.24 1049.58 608.45 1049.58 608.45 1034.37 608.45 1019.15"/><polygon class="cls-4" points="730.14 1003.94 730.14 1019.15 730.14 1034.37 714.93 1034.37 714.93 1049.58 714.93 1064.79 714.93 1080 730.14 1080 730.14 1064.79 730.14 1049.58 745.35 1049.58 745.35 1034.37 745.35 1019.15 745.35 1003.94 745.35 988.73 730.14 988.73 730.14 1003.94"/><polygon class="cls-4" points="593.24 988.73 578.03 988.73 578.03 1003.94 578.03 1019.15 593.24 1019.15 593.24 1003.94 593.24 988.73"/><rect class="cls-4" x="562.82" y="973.52" width="15.21" height="15.21"/><rect class="cls-4" x="547.61" y="958.31" width="15.21" height="15.21"/><rect class="cls-4" x="532.39" y="943.1" width="15.21" height="15.21"/><rect class="cls-4" x="517.18" y="927.89" width="15.21" height="15.21"/><rect class="cls-4" x="501.97" y="912.68" width="15.21" height="15.21"/><rect class="cls-4" x="486.76" y="897.46" width="15.21" height="15.21"/><polygon class="cls-4" points="745.35 897.47 745.35 912.68 745.35 927.89 745.35 943.1 745.35 958.31 745.35 973.52 745.35 988.73 760.56 988.73 760.56 973.52 760.56 958.31 760.56 943.1 760.56 927.89 760.56 912.68 760.56 897.47 760.56 882.25 745.35 882.25 745.35 897.47"/><polygon class="cls-4" points="471.55 882.25 456.34 882.25 456.34 897.47 471.55 897.47 486.76 897.47 486.76 882.25 471.55 882.25"/><rect class="cls-4" x="441.13" y="867.04" width="15.21" height="15.21"/><polygon class="cls-4" points="745.35 851.83 745.35 836.62 730.14 836.62 730.14 851.83 730.14 867.04 730.14 882.25 745.35 882.25 745.35 867.04 745.35 851.83"/><rect class="cls-4" x="425.92" y="851.83" width="15.21" height="15.21"/><rect class="cls-4" x="410.7" y="836.62" width="15.21" height="15.21"/><rect class="cls-4" x="395.49" y="821.41" width="15.21" height="15.21"/><rect class="cls-4" x="441.13" y="806.2" width="15.21" height="15.21"/><rect class="cls-4" x="380.28" y="806.2" width="15.21" height="15.21"/><rect class="cls-4" x="456.34" y="790.99" width="15.21" height="15.21"/><rect class="cls-4" x="365.07" y="790.99" width="15.21" height="15.21"/><rect class="cls-4" x="471.55" y="775.77" width="15.21" height="15.21"/><rect class="cls-4" x="349.86" y="775.77" width="15.21" height="15.21"/><rect class="cls-4" x="486.76" y="760.56" width="15.21" height="15.21"/><rect class="cls-4" x="501.97" y="745.35" width="15.21" height="15.21"/><rect class="cls-4" x="517.18" y="730.14" width="15.21" height="15.21"/><rect class="cls-4" x="532.39" y="714.93" width="15.21" height="15.21"/><path class="cls-4" d="M638.87,425.92h-76v15.21H547.61v45.63h15.21V502h76V486.76h15.21V441.13H638.87Zm-15.21,30.42H608.45v15.21h15.21v15.21H578V441.13h15.21v15.21h15.21V441.13h15.21Z"/><path class="cls-4" d="M851.83,410.7H791v15.22H775.77v45.63H791v15.21h76V471.55h15.21V425.92H867V410.7Zm0,30.43H836.62v15.21h15.21v15.21H806.2V425.92h15.21v15.21h15.21V425.92h15.21Z"/></svg>